<svg width="62" height="61" viewBox="0 0 62 61" fill="none" xmlns="http://www.w3.org/2000/svg">
  <path fill-rule="evenodd" clip-rule="evenodd" d="M60.4183 30.3459C60.4183 46.4945 47.3275 59.5853 31.1789 59.5853C15.0308 59.5853 1.93945 46.4945 1.93945 30.3459C1.93945 14.1972 15.0308 1.10645 31.1789 1.10645C47.3275 1.10645 60.4183 14.1972 60.4183 30.3459" fill="#106FA8"/>
  <path fill-rule="evenodd" clip-rule="evenodd" d="M60.4183 30.3459C60.4183 46.4945 47.3275 59.5853 31.1789 59.5853C15.0308 59.5853 1.93945 46.4945 1.93945 30.3459C1.93945 14.1972 15.0308 1.10645 31.1789 1.10645C47.3275 1.10645 60.4183 14.1972 60.4183 30.3459Z" stroke="#106FA8" stroke-width="2.21305"/>
  <path d="M26.2959 24.4878C25.9735 25.007 26.1331 25.6892 26.6522 26.0116C27.1714 26.334 27.8536 26.1744 28.176 25.6553L26.2959 24.4878ZM33.5653 18.7422L34.1488 19.6824L34.1488 19.6823L33.5653 18.7422ZM42.1962 15.8652L43.2148 15.4329C43.0273 14.9913 42.5766 14.7208 42.0987 14.763L42.1962 15.8652ZM43.9224 25.6469L45.0274 25.7051L45.0274 25.705L43.9224 25.6469ZM40.0846 34.8797C39.7815 35.4103 39.9659 36.0862 40.4965 36.3894C41.0271 36.6926 41.703 36.5082 42.0062 35.9776L40.0846 34.8797ZM34.3708 27.9118C34.0318 28.4203 34.1692 29.1073 34.6777 29.4463C35.1862 29.7852 35.8732 29.6478 36.2122 29.1394L34.3708 27.9118ZM38.5137 25.687C38.8527 25.1785 38.7153 24.4915 38.2068 24.1525C37.6984 23.8135 37.0113 23.9509 36.6724 24.4594L38.5137 25.687ZM28.176 25.6553C29.0389 24.2655 30.8794 21.7114 34.1488 19.6824L32.9818 17.802C29.3209 20.0741 27.262 22.932 26.2959 24.4878L28.176 25.6553ZM34.1488 19.6823C37.485 17.6115 40.6581 17.1121 42.2936 16.9675L42.0987 14.763C40.2675 14.9249 36.7174 15.4833 32.9817 17.8021L34.1488 19.6823ZM41.1776 16.2975C41.8992 17.9978 43.0422 21.3125 42.8174 25.5888L45.0274 25.705C45.2761 20.9754 44.0124 17.3123 43.2148 15.4329L41.1776 16.2975ZM42.8174 25.5887C42.5846 30.0074 41.0064 33.2664 40.0846 34.8797L42.0062 35.9776C43.0253 34.1939 44.7699 30.5924 45.0274 25.7051L42.8174 25.5887ZM36.2122 29.1394L38.5137 25.687L36.6724 24.4594L34.3708 27.9118L36.2122 29.1394Z" fill="white"/>
  <path d="M13.4267 27.3753L12.8909 26.4072C12.4826 26.6332 12.2599 27.0911 12.3344 27.5518L13.4267 27.3753ZM18.0299 37.7324L18.8764 37.0198L18.8763 37.0198L18.0299 37.7324ZM43.3467 44.6372L43.5953 45.7154C44.1507 45.5873 44.5179 45.0583 44.4438 44.4932L43.3467 44.6372ZM27.2362 25.0738L27.4745 23.9932L27.4745 23.9932L27.2362 25.0738ZM25.1481 31.679C24.6333 31.3497 23.949 31.5 23.6196 32.0148C23.2903 32.5295 23.4406 33.2138 23.9554 33.5432L25.1481 31.679ZM42.7503 45.5684C43.265 45.8977 43.9493 45.7474 44.2787 45.2327C44.6081 44.7179 44.4577 44.0336 43.943 43.7042L42.7503 45.5684ZM12.3344 27.5518C12.7867 30.3521 13.9455 34.5994 17.1834 38.4451L18.8763 37.0198C15.9896 33.5911 14.9354 29.7763 14.5191 27.1989L12.3344 27.5518ZM17.1834 38.4451C23.1208 45.4975 33.3843 48.0705 43.5953 45.7154L43.098 43.5589C33.4856 45.776 24.1524 43.2866 18.8764 37.0198L17.1834 38.4451ZM44.4438 44.4932C43.0909 34.1854 36.2884 25.9372 27.4745 23.9932L26.9979 26.1543C34.7298 27.8597 40.9932 35.209 42.2495 44.7811L44.4438 44.4932ZM27.4745 23.9932C20.6132 22.4802 14.8641 25.315 12.8909 26.4072L13.9626 28.3435C15.8057 27.3233 20.9482 24.8203 26.9979 26.1543L27.4745 23.9932ZM23.9554 33.5432L42.7503 45.5684L43.943 43.7042L25.1481 31.679L23.9554 33.5432ZM43.943 43.7042L25.1481 31.679L23.9554 33.5432L42.7503 45.5684L43.943 43.7042Z" fill="white"/>
</svg>
