<svg width="62" height="62" viewBox="0 0 62 62" fill="none" xmlns="http://www.w3.org/2000/svg">
  <path d="M26.2959 25.3814C25.9735 25.9005 26.1331 26.5827 26.6522 26.9051C27.1714 27.2275 27.8536 27.068 28.176 26.5488L26.2959 25.3814ZM33.5653 19.6358L34.1488 20.5759L34.1488 20.5759L33.5653 19.6358ZM42.1962 16.7588L43.2148 16.3265C43.0273 15.8848 42.5766 15.6143 42.0987 15.6566L42.1962 16.7588ZM43.9224 26.5405L45.0274 26.5987L45.0274 26.5986L43.9224 26.5405ZM40.0846 35.7733C39.7815 36.3039 39.9659 36.9798 40.4965 37.283C41.0271 37.5861 41.703 37.4017 42.0062 36.8711L40.0846 35.7733ZM34.3708 28.8053C34.0318 29.3138 34.1692 30.0008 34.6777 30.3398C35.1862 30.6788 35.8732 30.5414 36.2122 30.0329L34.3708 28.8053ZM38.5137 26.5806C38.8527 26.0721 38.7153 25.3851 38.2068 25.0461C37.6984 24.7071 37.0113 24.8445 36.6724 25.353L38.5137 26.5806ZM28.176 26.5488C29.0389 25.1591 30.8794 22.605 34.1488 20.5759L32.9818 18.6956C29.3209 20.9676 27.262 23.8255 26.2959 25.3814L28.176 26.5488ZM34.1488 20.5759C37.485 18.5051 40.6581 18.0056 42.2936 17.861L42.0987 15.6566C40.2675 15.8185 36.7174 16.3768 32.9817 18.6956L34.1488 20.5759ZM41.1776 17.1911C41.8992 18.8914 43.0422 22.206 42.8174 26.4824L45.0274 26.5986C45.2761 21.8689 44.0124 18.2058 43.2148 16.3265L41.1776 17.1911ZM42.8174 26.4823C42.5846 30.9009 41.0064 34.1599 40.0846 35.7733L42.0062 36.8711C43.0253 35.0874 44.7699 31.4859 45.0274 26.5987L42.8174 26.4823ZM36.2122 30.0329L38.5137 26.5806L36.6724 25.353L34.3708 28.8053L36.2122 30.0329Z" fill="#EE7755"/>
  <path d="M13.4267 28.2689L12.8909 27.3008C12.4826 27.5268 12.2599 27.9846 12.3344 28.4453L13.4267 28.2689ZM18.0299 38.626L18.8764 37.9133L18.8763 37.9133L18.0299 38.626ZM43.3467 45.5307L43.5953 46.6089C44.1507 46.4808 44.5179 45.9518 44.4438 45.3867L43.3467 45.5307ZM27.2362 25.9673L27.4745 24.8868L27.4745 24.8868L27.2362 25.9673ZM25.1481 32.5726C24.6333 32.2432 23.949 32.3936 23.6196 32.9083C23.2903 33.4231 23.4406 34.1074 23.9554 34.4368L25.1481 32.5726ZM42.7503 46.4619C43.265 46.7913 43.9493 46.641 44.2787 46.1262C44.6081 45.6114 44.4577 44.9271 43.943 44.5978L42.7503 46.4619ZM12.3344 28.4453C12.7867 31.2456 13.9455 35.493 17.1834 39.3387L18.8763 37.9133C15.9896 34.4847 14.9354 30.6699 14.5191 28.0925L12.3344 28.4453ZM17.1834 39.3386C23.1208 46.391 33.3843 48.9641 43.5953 46.6089L43.098 44.4525C33.4856 46.6695 24.1524 44.1802 18.8764 37.9133L17.1834 39.3386ZM44.4438 45.3867C43.0909 35.079 36.2884 26.8307 27.4745 24.8868L26.9979 27.0479C34.7298 28.7532 40.9932 36.1026 42.2495 45.6747L44.4438 45.3867ZM27.4745 24.8868C20.6132 23.3737 14.8641 26.2086 12.8909 27.3008L13.9626 29.237C15.8057 28.2168 20.9482 25.7138 26.9979 27.0479L27.4745 24.8868ZM23.9554 34.4368L42.7503 46.4619L43.943 44.5978L25.1481 32.5726L23.9554 34.4368ZM43.943 44.5978L25.1481 32.5726L23.9554 34.4368L42.7503 46.4619L43.943 44.5978Z" fill="#106FA8"/>
</svg>
