<svg width="61" height="62" viewBox="0 0 61 62" fill="none" xmlns="http://www.w3.org/2000/svg">
  <path d="M11.8018 23.0273C11.4469 23.5249 11.5626 24.2159 12.0601 24.5707C12.5577 24.9256 13.2487 24.8099 13.6035 24.3124L11.8018 23.0273ZM15.838 21.5796L16.0561 22.6644L16.0563 22.6644L15.838 21.5796ZM21.0636 23.6698L20.1926 24.3524C20.2087 24.373 20.2256 24.3929 20.2431 24.4123L21.0636 23.6698ZM25.2446 25.7601L25.3351 24.6573L25.3349 24.6572L25.2446 25.7601ZM30.4701 23.6698L31.2854 24.418C31.3101 24.3911 31.3334 24.363 31.3554 24.3338L30.4701 23.6698ZM38.8311 23.6698L39.7308 23.0258C39.7261 23.0191 39.7212 23.0125 39.7163 23.006L38.8311 23.6698ZM41.9664 25.7601L42.1847 24.6753L42.1845 24.6752L41.9664 25.7601ZM48.0633 24.3526C48.4404 23.8717 48.3562 23.1762 47.8753 22.7991C47.3944 22.422 46.6988 22.5062 46.3218 22.9871L48.0633 24.3526ZM12.8475 37.7806C12.4922 38.2778 12.6072 38.9689 13.1044 39.3243C13.6016 39.6796 14.2927 39.5646 14.648 39.0674L12.8475 37.7806ZM16.8831 36.3338L17.1012 37.4186L17.1015 37.4186L16.8831 36.3338ZM22.1087 38.424L21.2378 39.1066C21.254 39.1274 21.271 39.1475 21.2887 39.1671L22.1087 38.424ZM26.2897 40.5142L26.1991 41.6171L26.1994 41.6171L26.2897 40.5142ZM31.5153 38.424L32.3305 39.1722C32.3555 39.1449 32.3792 39.1164 32.4013 39.0868L31.5153 38.424ZM39.8762 38.424L40.776 37.78C40.7712 37.7733 40.7664 37.7667 40.7614 37.7601L39.8762 38.424ZM43.0115 40.5142L42.7931 41.599L42.7936 41.5991L43.0115 40.5142ZM49.1085 39.1067C49.4855 38.6258 49.4013 37.9303 48.9204 37.5532C48.4394 37.1762 47.7439 37.2604 47.3669 37.7413L49.1085 39.1067ZM13.6035 24.3124C13.8272 23.9988 14.6457 22.948 16.0561 22.6644L15.6199 20.4948C13.3533 20.9504 12.1093 22.5962 11.8018 23.0273L13.6035 24.3124ZM16.0563 22.6644C17.505 22.3728 19.1227 22.9873 20.1926 24.3524L21.9345 22.9873C20.4096 21.0417 17.9807 20.0196 15.6196 20.4948L16.0563 22.6644ZM20.2431 24.4123C20.6274 24.837 22.3304 26.6317 25.1543 26.8629L25.3349 24.6572C23.3752 24.4968 22.1626 23.2352 21.8841 22.9274L20.2431 24.4123ZM25.1541 26.8629C28.7169 27.1553 31.0073 24.721 31.2854 24.418L29.6549 22.9217C29.4516 23.1432 27.7995 24.8595 25.3351 24.6573L25.1541 26.8629ZM31.3554 24.3338C31.472 24.1782 32.6474 22.6861 34.6506 22.6861V20.4731C31.5328 20.4731 29.7803 22.7454 29.5849 23.0059L31.3554 24.3338ZM34.6506 22.6861C34.8457 22.6861 36.7438 22.7309 37.9458 24.3337L39.7163 23.006C37.8455 20.5113 34.9767 20.4731 34.6506 20.4731V22.6861ZM37.9313 24.3139C38.2379 24.7422 39.4814 26.3892 41.7483 26.8449L42.1845 24.6752C40.7744 24.3918 39.9565 23.3411 39.7308 23.0258L37.9313 24.3139ZM41.7481 26.8448C44.1092 27.3201 46.5379 26.298 48.0633 24.3526L46.3218 22.9871C45.2512 24.3524 43.6334 24.9669 42.1847 24.6753L41.7481 26.8448ZM14.648 39.0674C14.873 38.7526 15.691 37.7021 17.1012 37.4186L16.665 35.249C14.3982 35.7046 13.1548 37.3508 12.8475 37.7806L14.648 39.0674ZM17.1015 37.4186C18.5502 37.127 20.1678 37.7415 21.2378 39.1066L22.9796 37.7414C21.4547 35.7958 19.0258 34.7738 16.6648 35.249L17.1015 37.4186ZM21.2887 39.1671C21.6725 39.5905 23.3755 41.3852 26.1991 41.6171L26.3803 39.4114C24.4204 39.2505 23.2077 37.9889 22.9286 37.681L21.2887 39.1671ZM26.1994 41.6171C29.762 41.9088 32.0523 39.4754 32.3305 39.1722L30.7 37.6758C30.4969 37.8972 28.8447 39.6132 26.38 39.4114L26.1994 41.6171ZM32.4013 39.0868C32.5169 38.9323 33.6923 37.4403 35.6957 37.4403V35.2273C32.5781 35.2273 30.8257 37.4986 30.6292 37.7612L32.4013 39.0868ZM35.6957 37.4403C35.8908 37.4403 37.7889 37.4851 38.9909 39.0879L40.7614 37.7601C38.8906 35.2655 36.0218 35.2273 35.6957 35.2273V37.4403ZM38.9764 39.0681C39.2832 39.4967 40.5266 41.1427 42.7931 41.599L43.2299 39.4295C41.8195 39.1455 41.0014 38.0949 40.776 37.78L38.9764 39.0681ZM42.7936 41.5991C45.1548 42.0735 47.5835 41.0518 49.1085 39.1067L47.3669 37.7413C46.297 39.1059 44.6791 39.7207 43.2295 39.4294L42.7936 41.5991Z" fill="#106FA8"/>
  <path d="M12.7026 31.0476C12.9682 30.6758 13.9995 29.3269 15.838 28.9574C17.7429 28.5745 19.7662 29.3922 21.0636 31.0476C21.395 31.4138 22.8528 32.942 25.2446 33.1378C28.2582 33.3851 30.2295 31.3098 30.4701 31.0476C30.6262 30.8396 32.0901 28.9574 34.6506 28.9574C34.9112 28.9574 37.2946 28.9988 38.8311 31.0476C39.0972 31.4194 40.1279 32.7682 41.9664 33.1378C43.8713 33.5207 45.8946 32.7029 47.1925 31.0476" stroke="#EE7755" stroke-width="2.21305" stroke-linecap="round" stroke-linejoin="round"/>
</svg>
