<svg width="61" height="61" viewBox="0 0 61 61" fill="none" xmlns="http://www.w3.org/2000/svg">
  <path fill-rule="evenodd" clip-rule="evenodd" d="M59.5172 30.1533C59.5172 46.1957 46.5122 59.2002 30.4703 59.2002C14.4279 59.2002 1.42285 46.1957 1.42285 30.1533C1.42285 14.1109 14.4279 1.10645 30.4703 1.10645C46.5122 1.10645 59.5172 14.1109 59.5172 30.1533Z" fill="#106FA8" stroke="#106FA8" stroke-width="2.21305"/>
  <path d="M11.8018 22.1338C11.4469 22.6313 11.5626 23.3223 12.0601 23.6772C12.5577 24.032 13.2487 23.9163 13.6035 23.4188L11.8018 22.1338ZM15.838 20.6861L16.0561 21.7709L16.0563 21.7708L15.838 20.6861ZM21.0636 22.7763L20.1926 23.4589C20.2087 23.4794 20.2256 23.4994 20.2431 23.5187L21.0636 22.7763ZM25.2446 24.8665L25.3351 23.7637L25.3349 23.7637L25.2446 24.8665ZM30.4701 22.7763L31.2854 23.5245C31.3101 23.4975 31.3334 23.4694 31.3554 23.4402L30.4701 22.7763ZM38.8311 22.7763L39.7308 22.1322C39.7261 22.1256 39.7212 22.119 39.7163 22.1124L38.8311 22.7763ZM41.9664 24.8665L42.1847 23.7817L42.1845 23.7817L41.9664 24.8665ZM48.0633 23.459C48.4404 22.9781 48.3562 22.2826 47.8753 21.9055C47.3944 21.5284 46.6988 21.6126 46.3218 22.0935L48.0633 23.459ZM12.8475 36.8871C12.4922 37.3842 12.6072 38.0754 13.1044 38.4307C13.6016 38.786 14.2927 38.6711 14.648 38.1739L12.8475 36.8871ZM16.8831 35.4402L17.1012 36.5251L17.1015 36.525L16.8831 35.4402ZM22.1087 37.5305L21.2378 38.213C21.254 38.2338 21.271 38.254 21.2887 38.2735L22.1087 37.5305ZM26.2897 39.6207L26.1991 40.7235L26.1994 40.7235L26.2897 39.6207ZM31.5153 37.5305L32.3305 38.2786C32.3555 38.2514 32.3792 38.2229 32.4013 38.1933L31.5153 37.5305ZM39.8762 37.5305L40.776 36.8864C40.7712 36.8798 40.7664 36.8731 40.7614 36.8666L39.8762 37.5305ZM43.0115 39.6207L42.7931 40.7055L42.7936 40.7055L43.0115 39.6207ZM49.1085 38.2132C49.4855 37.7323 49.4013 37.0367 48.9204 36.6597C48.4394 36.2826 47.7439 36.3668 47.3669 36.8477L49.1085 38.2132ZM13.6035 23.4188C13.8272 23.1052 14.6457 22.0544 16.0561 21.7709L15.6199 19.6012C13.3533 20.0569 12.1093 21.7026 11.8018 22.1338L13.6035 23.4188ZM16.0563 21.7708C17.505 21.4792 19.1227 22.0937 20.1926 23.4589L21.9345 22.0937C20.4096 20.1481 17.9807 19.1261 15.6196 19.6013L16.0563 21.7708ZM20.2431 23.5187C20.6274 23.9434 22.3304 25.7381 25.1543 25.9694L25.3349 23.7637C23.3752 23.6032 22.1626 22.3417 21.8841 22.0339L20.2431 23.5187ZM25.1541 25.9693C28.7169 26.2617 31.0073 23.8275 31.2854 23.5245L29.6549 22.0281C29.4516 22.2496 27.7995 23.9659 25.3351 23.7637L25.1541 25.9693ZM31.3554 23.4402C31.472 23.2846 32.6474 21.7926 34.6506 21.7926V19.5795C31.5328 19.5795 29.7803 21.8519 29.5849 22.1124L31.3554 23.4402ZM34.6506 21.7926C34.8457 21.7926 36.7438 21.8373 37.9458 23.4402L39.7163 22.1124C37.8455 19.6178 34.9767 19.5795 34.6506 19.5795V21.7926ZM37.9313 23.4203C38.2379 23.8487 39.4814 25.4956 41.7483 25.9513L42.1845 23.7817C40.7744 23.4982 39.9565 22.4475 39.7308 22.1322L37.9313 23.4203ZM41.7481 25.9513C44.1092 26.4265 46.5379 25.4044 48.0633 23.459L46.3218 22.0935C45.2512 23.4589 43.6334 24.0733 42.1847 23.7817L41.7481 25.9513ZM14.648 38.1739C14.873 37.859 15.691 36.8085 17.1012 36.5251L16.665 34.3554C14.3982 34.8111 13.1548 36.4572 12.8475 36.8871L14.648 38.1739ZM17.1015 36.525C18.5502 36.2334 20.1678 36.8479 21.2378 38.213L22.9796 36.8479C21.4547 34.9023 19.0258 33.8802 16.6648 34.3555L17.1015 36.525ZM21.2887 38.2735C21.6725 38.697 23.3755 40.4916 26.1991 40.7235L26.3803 38.5179C24.4204 38.3569 23.2077 37.0954 22.9286 36.7874L21.2887 38.2735ZM26.1994 40.7235C29.762 41.0152 32.0523 38.5818 32.3305 38.2786L30.7 36.7823C30.4969 37.0036 28.8447 38.7197 26.38 38.5179L26.1994 40.7235ZM32.4013 38.1933C32.5169 38.0387 33.6923 36.5468 35.6957 36.5468V34.3337C32.5781 34.3337 30.8257 36.605 30.6292 36.8677L32.4013 38.1933ZM35.6957 36.5468C35.8908 36.5468 37.7889 36.5915 38.9909 38.1943L40.7614 36.8666C38.8906 34.3719 36.0218 34.3337 35.6957 34.3337V36.5468ZM38.9764 38.1745C39.2832 38.6031 40.5266 40.2491 42.7931 40.7055L43.2299 38.5359C41.8195 38.252 41.0014 37.2014 40.776 36.8864L38.9764 38.1745ZM42.7936 40.7055C45.1548 41.18 47.5835 40.1582 49.1085 38.2132L47.3669 36.8477C46.297 38.2123 44.6791 38.8271 43.2295 38.5358L42.7936 40.7055Z" fill="white"/>
  <path d="M12.7026 30.154C12.9682 29.7822 13.9995 28.4334 15.838 28.0638C17.7429 27.6809 19.7662 28.4987 21.0636 30.154C21.395 30.5203 22.8528 32.0484 25.2446 32.2443C28.2582 32.4916 30.2295 30.4163 30.4701 30.154C30.6262 29.946 32.0901 28.0638 34.6506 28.0638C34.9112 28.0638 37.2946 28.1053 38.8311 30.154C39.0972 30.5258 40.1279 31.8747 41.9664 32.2443C43.8713 32.6271 45.8946 31.8094 47.1925 30.154" stroke="white" stroke-width="2.21305" stroke-linecap="round" stroke-linejoin="round"/>
</svg>
