<svg width="62" height="61" viewBox="0 0 62 61" fill="none" xmlns="http://www.w3.org/2000/svg">
  <path fill-rule="evenodd" clip-rule="evenodd" d="M60.4002 30.3862C60.4002 46.557 47.2912 59.666 31.1204 59.666C14.9496 59.666 1.84058 46.557 1.84058 30.3862C1.84058 14.2155 14.9496 1.10645 31.1204 1.10645C47.2912 1.10645 60.4002 14.2155 60.4002 30.3862Z" fill="#106FA8" stroke="#106FA8" stroke-width="2.21305"/>
  <path fill-rule="evenodd" clip-rule="evenodd" d="M19.6312 14.8729C19.4058 14.669 19.1194 14.5751 18.838 14.5881C18.5714 14.5867 18.3035 14.681 18.0902 14.874L14.6821 17.9568C14.2288 18.3667 14.1938 19.0665 14.6037 19.5197C15.0137 19.9729 15.7134 20.008 16.1666 19.598L17.7544 18.1618V41.7073C17.7544 42.3185 18.2498 42.8139 18.8609 42.8139H44.6087L43.1578 44.4174C42.7477 44.8706 42.7827 45.5703 43.2358 45.9804C43.689 46.3904 44.3887 46.3554 44.7987 45.9023L47.8821 42.4947C47.9049 42.4695 47.9264 42.4434 47.9465 42.4167C48.0114 42.339 48.0663 42.2516 48.1087 42.1562C48.2861 41.7563 48.2113 41.2893 47.9177 40.9649L44.8344 37.5574C44.4244 37.1042 43.7246 37.0693 43.2715 37.4793C42.8183 37.8893 42.7834 38.5891 43.1934 39.0422L44.6037 40.6008H19.9674V37.8039L25.7102 35.3742C26.1494 35.7146 26.7008 35.9172 27.2994 35.9172C28.7335 35.9172 29.8959 34.7548 29.8959 33.3207C29.8959 32.7932 29.7386 32.3025 29.4684 31.8928L32.5211 25.7877C32.6182 25.7987 32.7168 25.8043 32.8168 25.8043C33.0257 25.8043 33.2288 25.7797 33.4234 25.7331L36.1066 29.0125C35.8724 29.4026 35.7377 29.8593 35.7377 30.3474C35.7377 31.7815 36.9001 32.9439 38.3341 32.9439C39.7682 32.9439 40.9306 31.7815 40.9306 30.3474C40.9306 29.7593 40.7351 29.2169 40.4055 28.7816L44.3609 20.607C44.627 20.0569 44.3969 19.3952 43.8468 19.129C43.2967 18.8629 42.6349 19.093 42.3688 19.6431L38.4446 27.7533C38.408 27.7518 38.3711 27.751 38.3341 27.751C38.2058 27.751 38.0796 27.7603 37.9562 27.7783L35.15 24.3486C35.3186 24.0043 35.4133 23.6171 35.4133 23.2079C35.4133 21.7738 34.2509 20.6114 32.8168 20.6114C31.3827 20.6114 30.2203 21.7738 30.2203 23.2079C30.2203 23.7261 30.3721 24.2088 30.6337 24.6141L27.5714 30.7383C27.482 30.729 27.3913 30.7242 27.2994 30.7242C25.8654 30.7242 24.703 31.8866 24.703 33.3207C24.703 33.3462 24.7033 33.3716 24.7041 33.3969L19.9674 35.401V18.1614L21.5541 19.5968C22.0072 20.0068 22.707 19.9718 23.117 19.5186C23.527 19.0654 23.4919 18.3657 23.0388 17.9557L19.6312 14.8729Z" fill="white"/>
</svg>
