<svg width="62" height="62" viewBox="0 0 62 62" fill="none" xmlns="http://www.w3.org/2000/svg">
  <path d="M19.0234 37.8953L27.4618 34.3251L32.6547 23.9398L38.4966 31.0796L43.3648 21.0186" stroke="#EE7755" stroke-width="2.21305" stroke-linecap="round" stroke-linejoin="round"/>
  <path d="M44.0139 39.1933L47.0972 42.6008H18.8609V16.6367" stroke="#106FA8" stroke-width="2.21305" stroke-linecap="round" stroke-linejoin="round"/>
  <path fill-rule="evenodd" clip-rule="evenodd" d="M29.8959 34.2146C29.8959 35.6487 28.7335 36.8111 27.2994 36.8111C25.8654 36.8111 24.703 35.6487 24.703 34.2146C24.703 32.7806 25.8654 31.6182 27.2994 31.6182C28.7335 31.6182 29.8959 32.7806 29.8959 34.2146" fill="#EE7755"/>
  <path fill-rule="evenodd" clip-rule="evenodd" d="M35.4133 24.1013C35.4133 25.5354 34.2509 26.6978 32.8168 26.6978C31.3827 26.6978 30.2203 25.5354 30.2203 24.1013C30.2203 22.6673 31.3827 21.5049 32.8168 21.5049C34.2509 21.5049 35.4133 22.6673 35.4133 24.1013" fill="#EE7755"/>
  <path fill-rule="evenodd" clip-rule="evenodd" d="M40.9306 31.241C40.9306 32.6751 39.7682 33.8375 38.3341 33.8375C36.9001 33.8375 35.7377 32.6751 35.7377 31.241C35.7377 29.8069 36.9001 28.6445 38.3341 28.6445C39.7682 28.6445 40.9306 29.8069 40.9306 31.241" fill="#EE7755"/>
  <path d="M43.1578 45.3109C42.7477 45.764 42.7827 46.4638 43.2358 46.8738C43.689 47.2838 44.3887 47.2489 44.7987 46.7958L43.1578 45.3109ZM47.8821 43.3882C48.2921 42.9351 48.2572 42.2353 47.804 41.8253C47.3509 41.4153 46.6511 41.4502 46.2411 41.9034L47.8821 43.3882ZM14.6821 18.8502C14.2288 19.2602 14.1938 19.9599 14.6037 20.4131C15.0137 20.8664 15.7134 20.9014 16.1666 20.4915L14.6821 18.8502ZM19.5747 17.4087C20.0279 16.9987 20.063 16.299 19.6531 15.8458C19.2431 15.3926 18.5434 15.3575 18.0902 15.7675L19.5747 17.4087ZM21.5541 20.4903C22.0072 20.9002 22.707 20.8652 23.117 20.412C23.527 19.9589 23.4919 19.2591 23.0388 18.8491L21.5541 20.4903ZM19.6312 15.7664C19.178 15.3564 18.4783 15.3914 18.0683 15.8446C17.6583 16.2977 17.6933 16.9975 18.1465 17.4075L19.6312 15.7664ZM44.7987 46.7958L47.8821 43.3882L46.2411 41.9034L43.1578 45.3109L44.7987 46.7958ZM16.1666 20.4915L19.5747 17.4087L18.0902 15.7675L14.6821 18.8502L16.1666 20.4915ZM23.0388 18.8491L19.6312 15.7664L18.1465 17.4075L21.5541 20.4903L23.0388 18.8491Z" fill="#106FA8"/>
</svg>
