<svg width="62" height="62" viewBox="0 0 62 62" fill="none" xmlns="http://www.w3.org/2000/svg">
  <path fill-rule="evenodd" clip-rule="evenodd" d="M60.7516 30.571C60.7516 46.8442 47.5596 60.0356 31.287 60.0356C15.0138 60.0356 1.82239 46.8442 1.82239 30.571C1.82239 14.2985 15.0138 1.10645 31.287 1.10645C47.5596 1.10645 60.7516 14.2985 60.7516 30.571Z" fill="#106FA8" stroke="#106FA8" stroke-width="2.21305"/>
  <path fill-rule="evenodd" clip-rule="evenodd" d="M28.5814 22.9528C27.2209 22.7205 25.9108 22.4582 24.589 22.2856C23.8372 22.1882 23.0886 22.3697 22.3749 22.6441C20.5889 23.3307 18.803 24.0173 17.0154 24.7006C16.5003 24.8976 16.0334 24.798 15.7075 24.4372C15.4884 24.1949 15.4115 23.9039 15.4204 23.5852C15.4989 20.7603 16.8019 18.716 19.3458 17.4833C20.2465 17.0468 21.1787 16.6755 22.0839 16.2478C23.8659 15.4052 25.7072 15.2376 27.6281 15.6509C29.4024 16.0326 31.1867 16.3662 32.9671 16.7176C33.8208 16.8858 34.6651 16.826 35.5038 16.6091C37.2986 16.1449 39.0928 15.6774 40.8926 15.2321C41.2345 15.1474 41.5997 15.1275 41.9532 15.1303C42.6564 15.1358 43.374 15.0982 44.0595 15.2204C45.5201 15.4816 46.6128 16.7391 46.6792 18.2152C46.7312 19.3848 46.7356 20.5605 46.6775 21.7296C46.594 23.4176 45.1494 24.7615 43.4597 24.8063C43.4199 24.8074 43.3795 24.8124 43.3408 24.8074C42.1889 24.6558 41.1792 25.0049 40.1833 25.5714C38.8997 26.3017 37.5586 26.9297 36.2468 27.6102C35.0706 28.2199 33.823 28.5314 32.4985 28.5325C30.681 28.5331 28.863 28.5353 27.0455 28.5319C26.219 28.5303 25.7631 28.0644 25.8057 27.2462C25.8975 25.4636 26.7291 24.1208 28.2539 23.2018C28.3385 23.1509 28.4265 23.1055 28.5122 23.0563C28.52 23.0519 28.5238 23.0403 28.5814 22.9528V22.9528ZM28.2644 26.2986C29.6946 26.2986 31.0639 26.293 32.4332 26.3008C33.4158 26.3058 34.3376 26.0806 35.2095 25.6313C36.8223 24.8003 38.4356 23.9699 40.0539 23.15C40.2481 23.0515 40.3228 22.9441 40.3211 22.7223C40.3106 21.1538 40.3156 19.5853 40.3156 18.0162V17.6959C40.1911 17.7241 40.1053 17.7407 40.0207 17.7623C38.8688 18.0572 37.7114 18.3332 36.5661 18.6519C35.2067 19.0304 33.8396 19.1748 32.4465 18.9003C30.7153 18.559 28.9814 18.2298 27.2575 17.8547C25.8981 17.5587 24.5802 17.5847 23.2961 18.1573C22.3008 18.6016 21.306 19.0486 20.3134 19.499C19.5068 19.8647 18.8561 20.4179 18.3676 21.1554C18.2133 21.3884 18.0893 21.6418 17.9134 21.9533C18.0821 21.8929 18.1646 21.8658 18.2459 21.8343C19.3187 21.4221 20.3915 21.0083 21.4642 20.5961C22.8269 20.0722 24.2333 19.8757 25.6718 20.148C28.1947 20.6254 30.7098 21.1416 33.2283 21.6423C33.8551 21.7668 34.2186 22.1447 34.2535 22.7035C34.2867 23.2473 33.947 23.6805 33.34 23.8631C32.2296 24.1973 31.1187 24.5287 30.0088 24.864C29.2525 25.0925 28.6882 25.5572 28.2644 26.2986V26.2986ZM42.5701 22.5584C42.8943 22.5584 43.1925 22.5805 43.4863 22.554C44.0379 22.5042 44.4595 22.0555 44.4667 21.4972C44.4799 20.4743 44.4788 19.4513 44.4667 18.4288C44.4611 17.9403 44.1325 17.5121 43.6534 17.4153C43.3032 17.3444 42.9341 17.3655 42.5701 17.3456V22.5584Z" fill="white"/>
  <path fill-rule="evenodd" clip-rule="evenodd" d="M33.591 38.5777C34.8265 38.7996 36.0569 39.0508 37.2984 39.2323C38.135 39.3551 38.9593 39.1913 39.75 38.8887C41.5453 38.201 43.3395 37.5088 45.1354 36.8233C45.6804 36.6153 46.2309 36.7575 46.497 37.2173C46.6237 37.4364 46.7034 37.7218 46.6967 37.9747C46.622 40.7853 45.3152 42.8196 42.7852 44.0479C41.8756 44.4894 40.9361 44.8667 40.0211 45.2966C38.2478 46.1303 36.416 46.2947 34.5056 45.8841C32.703 45.4963 30.8917 45.1494 29.0808 44.8008C28.2592 44.6426 27.4409 44.7129 26.6321 44.9209C24.7991 45.3934 22.965 45.8637 21.1293 46.3267C20.9108 46.3815 20.679 46.4108 20.4538 46.4064C19.6516 46.3904 18.8349 46.4418 18.051 46.3085C16.6097 46.0634 15.5154 44.7942 15.4484 43.3341C15.3942 42.1557 15.3892 40.9701 15.4495 39.7916C15.5375 38.0925 17.0042 36.7503 18.706 36.7271C18.716 36.7271 18.7259 36.726 18.7353 36.7271C19.9182 36.887 20.9556 36.5262 21.9769 35.9448C23.2599 35.215 24.6005 34.5871 25.9123 33.9076C27.0802 33.3029 28.3195 33.002 29.6335 33.002C31.4405 33.0031 33.2474 33.0008 35.055 33.0031C35.9181 33.0042 36.3667 33.4623 36.3175 34.322C36.2163 36.0919 35.3825 37.422 33.8688 38.3332C33.7764 38.3891 33.6812 38.4394 33.5872 38.4925C33.5883 38.5208 33.5899 38.5495 33.591 38.5777V38.5777ZM21.8264 43.8315C21.9293 43.8122 21.9974 43.8027 22.0632 43.7856C23.2251 43.4885 24.3925 43.2102 25.5471 42.8871C26.9159 42.5037 28.2924 42.3604 29.6955 42.6381C31.4272 42.98 33.1611 43.3098 34.8856 43.6838C36.224 43.9737 37.5247 43.9527 38.7906 43.3939C39.8064 42.9457 40.8199 42.4926 41.8285 42.0284C42.8388 41.5631 43.5868 40.8212 44.0792 39.8231C44.1102 39.7606 44.1257 39.6903 44.1594 39.5919C42.924 40.0666 41.7323 40.5296 40.5367 40.9822C39.2194 41.4807 37.8567 41.6522 36.4707 41.3905C33.9379 40.9119 31.4128 40.393 28.8844 39.8912C28.2664 39.7683 27.9001 39.3811 27.8708 38.8189C27.8426 38.2878 28.1818 37.8535 28.7682 37.677C29.888 37.3401 31.0095 37.0092 32.1282 36.6679C32.8806 36.4377 33.4422 35.9702 33.861 35.2377H33.5196C32.209 35.2377 30.8983 35.2382 29.5876 35.2377C28.6885 35.2371 27.836 35.438 27.0359 35.8452C25.3662 36.6955 23.7014 37.5553 22.0311 38.4057C21.8696 38.4875 21.8048 38.5827 21.8054 38.7697C21.8131 40.3681 21.8098 41.9665 21.8104 43.5648C21.8104 43.6429 21.8198 43.7209 21.8264 43.8315V43.8315ZM19.5509 38.9722C19.2399 38.9722 18.9428 38.9506 18.6501 38.9772C18.0831 39.0286 17.6642 39.4817 17.6581 40.0522C17.6482 41.0635 17.6498 42.0749 17.6581 43.0857C17.662 43.5515 17.9541 43.9925 18.394 44.0965C18.7674 44.185 19.1658 44.169 19.5509 44.1994V38.9722Z" fill="white"/>
</svg>
