<svg width="62" height="63" viewBox="0 0 62 63" fill="none" xmlns="http://www.w3.org/2000/svg">
  <path fill-rule="evenodd" clip-rule="evenodd" d="M28.5814 23.8464C27.2209 23.614 25.9108 23.3518 24.5891 23.1792C23.8372 23.0818 23.0886 23.2633 22.3749 23.5377C20.589 24.2243 18.803 24.9109 17.0154 25.5942C16.5004 25.7911 16.0334 25.6915 15.7075 25.3308C15.4884 25.0885 15.4115 24.7975 15.4204 24.4788C15.4989 21.6538 16.8019 19.6095 19.3458 18.3768C20.2465 17.9403 21.1788 17.5691 22.0839 17.1414C23.866 16.2988 25.7072 16.1311 27.6281 16.5444C29.4025 16.9262 31.1867 17.2598 32.9671 17.6111C33.8208 17.7793 34.6651 17.7196 35.5038 17.5027C37.2986 17.0385 39.0929 16.571 40.8926 16.1256C41.2345 16.041 41.5997 16.021 41.9532 16.0238C42.6564 16.0293 43.374 15.9917 44.0595 16.114C45.5201 16.3751 46.6128 17.6327 46.6792 19.1088C46.7312 20.2784 46.7356 21.4541 46.6776 22.6231C46.594 24.3111 45.1494 25.655 43.4598 25.6998C43.4199 25.7009 43.3796 25.7059 43.3408 25.7009C42.1889 25.5493 41.1792 25.8985 40.1833 26.465C38.8998 27.1953 37.5587 27.8233 36.2469 28.5038C35.0706 29.1135 33.823 29.425 32.4985 29.4261C30.681 29.4266 28.863 29.4288 27.0456 29.4255C26.219 29.4238 25.7631 28.958 25.8057 28.1397C25.8975 26.3571 26.7291 25.0143 28.2539 24.0954C28.3385 24.0445 28.4265 23.9991 28.5123 23.9499C28.52 23.9454 28.5239 23.9338 28.5814 23.8464V23.8464ZM28.2644 27.1921C29.6946 27.1921 31.0639 27.1866 32.4333 27.1943C33.4159 27.1993 34.3376 26.9741 35.2095 26.5249C36.8223 25.6939 38.4356 24.8635 40.0539 24.0435C40.2481 23.945 40.3228 23.8377 40.3211 23.6158C40.3106 22.0473 40.3156 20.4788 40.3156 18.9098V18.5894C40.1911 18.6177 40.1054 18.6343 40.0207 18.6558C38.8688 18.9507 37.7114 19.2268 36.5661 19.5455C35.2068 19.9239 33.8397 20.0683 32.4465 19.7939C30.7154 19.4525 28.9815 19.1233 27.2575 18.7482C25.8981 18.4522 24.5802 18.4782 23.2961 19.0509C22.3008 19.4951 21.306 19.9422 20.3135 20.3925C19.5068 20.7582 18.8562 21.3115 18.3676 22.049C18.2133 22.2819 18.0894 22.5353 17.9134 22.8468C18.0822 22.7865 18.1646 22.7594 18.2459 22.7279C19.3187 22.3157 20.3915 21.9018 21.4643 21.4897C22.827 20.9657 24.2333 20.7693 25.6718 21.0415C28.1947 21.519 30.7098 22.0352 33.2283 22.5359C33.8551 22.6604 34.2186 23.0382 34.2535 23.597C34.2867 24.1409 33.947 24.5741 33.3401 24.7567C32.2297 25.0908 31.1187 25.4222 30.0089 25.7575C29.2526 25.986 28.6882 26.4508 28.2644 27.1921V27.1921ZM42.5701 23.452C42.8943 23.452 43.1925 23.4741 43.4863 23.4475C44.0379 23.3977 44.4595 22.949 44.4667 22.3908C44.48 21.3678 44.4789 20.3448 44.4667 19.3224C44.4612 18.8339 44.1325 18.4056 43.6534 18.3088C43.3032 18.238 42.9342 18.259 42.5701 18.2391V23.452Z" fill="#106FA8"/>
  <path fill-rule="evenodd" clip-rule="evenodd" d="M33.591 39.4713C34.8264 39.6932 36.0569 39.9443 37.2984 40.1258C38.1349 40.2486 38.9593 40.0849 39.7499 39.7822C41.5452 39.0945 43.3395 38.4024 45.1354 37.7169C45.6803 37.5089 46.2308 37.6511 46.497 38.1108C46.6237 38.3299 46.7033 38.6154 46.6967 38.8682C46.622 41.6788 45.3152 43.7132 42.7851 44.9414C41.8755 45.3829 40.9361 45.7602 40.021 46.1901C38.2478 47.0239 36.4159 47.1882 34.5055 46.7777C32.703 46.3899 30.8916 46.043 29.0808 45.6944C28.2592 45.5362 27.4409 45.6064 26.632 45.8145C24.7991 46.2869 22.965 46.7572 21.1293 47.2203C20.9107 47.2751 20.6789 47.3044 20.4537 47.3C19.6515 47.2839 18.8349 47.3354 18.0509 47.202C16.6097 46.9569 15.5153 45.6878 15.4484 44.2277C15.3941 43.0492 15.3892 41.8636 15.4495 40.6852C15.5374 38.9861 17.0041 37.6439 18.706 37.6206C18.7159 37.6206 18.7259 37.6195 18.7353 37.6206C19.9182 37.7805 20.9555 37.4198 21.9769 36.8383C23.2599 36.1086 24.6004 35.4806 25.9122 34.8012C27.0802 34.1965 28.3195 33.8955 29.6335 33.8955C31.4404 33.8966 33.2474 33.8944 35.0549 33.8966C35.918 33.8977 36.3667 34.3558 36.3175 35.2156C36.2162 36.9855 35.3824 38.3155 33.8687 39.2268C33.7763 39.2826 33.6812 39.333 33.5871 39.3861C33.5882 39.4143 33.5899 39.4431 33.591 39.4713V39.4713ZM21.8264 44.7251C21.9293 44.7057 21.9973 44.6963 22.0632 44.6791C23.225 44.382 24.3924 44.1038 25.5471 43.7806C26.9158 43.3972 28.2924 43.2539 29.6954 43.5317C31.4271 43.8736 33.1611 44.2033 34.8856 44.5773C36.2239 44.8673 37.5247 44.8462 38.7905 44.2874C39.8063 43.8393 40.8199 43.3862 41.8285 42.922C42.8388 42.4567 43.5868 41.7148 44.0792 40.7167C44.1102 40.6542 44.1256 40.5839 44.1594 40.4854C42.924 40.9601 41.7322 41.4232 40.5366 41.8758C39.2193 42.3743 37.8566 42.5458 36.4707 42.2841C33.9379 41.8055 31.4128 41.2865 28.8843 40.7847C28.2664 40.6619 27.9001 40.2746 27.8708 39.7125C27.8426 39.1814 28.1817 38.7471 28.7682 38.5706C29.888 38.2336 31.0094 37.9028 32.1281 37.5614C32.8806 37.3313 33.4421 36.8638 33.861 36.1312H33.5196C32.2089 36.1312 30.8982 36.1318 29.5875 36.1312C28.6885 36.1307 27.8359 36.3315 27.0359 36.7387C25.3661 37.5891 23.7014 38.4489 22.0311 39.2992C21.8695 39.3811 21.8048 39.4763 21.8053 39.6633C21.8131 41.2616 21.8098 42.86 21.8103 44.4584C21.8103 44.5364 21.8197 44.6144 21.8264 44.7251V44.7251ZM19.5508 39.8657C19.2399 39.8657 18.9428 39.8442 18.6501 39.8707C18.083 39.9222 17.6642 40.3753 17.6581 40.9457C17.6481 41.9571 17.6498 42.9684 17.6581 43.9793C17.662 44.4451 17.9541 44.8861 18.3939 44.9901C18.7674 45.0786 19.1657 45.0625 19.5508 45.093V39.8657Z" fill="#EE7755"/>
</svg>
