<svg
  width="63"
  height="63"
  viewBox="0 0 63 63"
  fill="none"
  xmlns="http://www.w3.org/2000/svg"
>
  <path
    class="fill"
    d="M2.39343 31.5001C2.39343 15.4249 15.4253 2.39355 31.5005 2.39355C47.5757 2.39355 60.607 15.4249 60.607 31.5001C60.607 47.5753 47.5757 60.6066 31.5005 60.6066C15.4253 60.6066 2.39343 47.5753 2.39343 31.5001Z"
    fill="transparent"
    stroke="#106FA8"
    stroke-width="3"
  />
  <path
    class="icon"
    d="M26.7536 37.2886C26.7536 38.4162 25.8396 39.3302 24.712 39.3302C23.5845 39.3302 22.6705 38.4162 22.6705 37.2886C22.6705 36.1611 23.5845 35.2471 24.712 35.2471C25.8396 35.2471 26.7536 36.1611 26.7536 37.2886ZM34.1034 37.2886C34.1034 38.4162 33.1894 39.3302 32.0618 39.3302C30.9343 39.3302 30.0203 38.4162 30.0203 37.2886C30.0203 36.1611 30.9343 35.2471 32.0618 35.2471C33.1894 35.2471 34.1034 36.1611 34.1034 37.2886ZM39.4117 39.3302C40.5392 39.3302 41.4532 38.4162 41.4532 37.2886C41.4532 36.1611 40.5392 35.2471 39.4117 35.2471C38.2841 35.2471 37.3701 36.1611 37.3701 37.2886C37.3701 38.4162 38.2841 39.3302 39.4117 39.3302Z"
    fill="#EE7755"
  />
  <path
    class="icon"
    fill="#106FA8"
    d="M16.6638 17.2813C16.6638 16.6702 17.1592 16.1748 17.7704 16.1748H24.3033C24.9144 16.1748 25.4098 16.6702 25.4098 17.2813V26.6877C28.6528 24.6027 31.8955 22.5182 35.1381 20.4336C35.4786 20.2147 35.9114 20.1992 36.2667 20.3932C36.622 20.5872 36.843 20.9596 36.843 21.3644V26.7343L45.7731 21.2386C46.1145 21.0286 46.5429 21.0195 46.8928 21.2151C47.2428 21.4106 47.4596 21.7802 47.4596 22.181V45.0474C47.4596 45.6585 46.9642 46.1539 46.353 46.1539H17.7704C17.1592 46.1539 16.6638 45.6585 16.6638 45.0474V17.2813ZM18.8769 18.3879V43.9409H45.2465V24.1613L36.3164 29.6569C35.975 29.867 35.5467 29.876 35.1967 29.6805C34.8468 29.4849 34.63 29.1154 34.63 28.7145V23.3912C31.3874 25.4757 28.1447 27.5603 24.9017 29.6453C24.5612 29.8642 24.1284 29.8797 23.7731 29.6857C23.4178 29.4918 23.1968 29.1193 23.1968 28.7145V18.3879H18.8769Z"
  />
</svg>
