<svg width="63" height="62" viewBox="0 0 63 62" fill="none" xmlns="http://www.w3.org/2000/svg">
  <path d="M2.39343 30.6065C2.39343 14.5313 15.4253 1.5 31.5005 1.5C47.5757 1.5 60.607 14.5313 60.607 30.6065C60.607 46.6817 47.5757 59.7131 31.5005 59.7131C15.4253 59.7131 2.39343 46.6817 2.39343 30.6065Z" fill="#106FA8" stroke="#106FA8" stroke-width="3"/>
  <path fill-rule="evenodd" clip-rule="evenodd" d="M26.7536 36.3951C26.7536 37.5226 25.8396 38.4366 24.712 38.4366C23.5845 38.4366 22.6705 37.5226 22.6705 36.3951C22.6705 35.2675 23.5845 34.3535 24.712 34.3535C25.8396 34.3535 26.7536 35.2675 26.7536 36.3951ZM34.1034 36.3951C34.1034 37.5226 33.1894 38.4366 32.0618 38.4366C30.9343 38.4366 30.0203 37.5226 30.0203 36.3951C30.0203 35.2675 30.9343 34.3535 32.0618 34.3535C33.1894 34.3535 34.1034 35.2675 34.1034 36.3951ZM39.4117 38.4366C40.5392 38.4366 41.4532 37.5226 41.4532 36.3951C41.4532 35.2675 40.5392 34.3535 39.4117 34.3535C38.2841 34.3535 37.3701 35.2675 37.3701 36.3951C37.3701 37.5226 38.2841 38.4366 39.4117 38.4366Z" fill="white"/>
  <path fill-rule="evenodd" clip-rule="evenodd" d="M16.6638 16.3878C16.6638 15.7767 17.1592 15.2812 17.7704 15.2812H24.3033C24.9144 15.2812 25.4098 15.7767 25.4098 16.3878V25.7941C28.6528 23.7092 31.8955 21.6246 35.1381 19.5401C35.4786 19.3212 35.9114 19.3057 36.2667 19.4996C36.622 19.6936 36.843 20.0661 36.843 20.4709V25.8407L45.7731 20.3451C46.1145 20.135 46.5429 20.126 46.8928 20.3215C47.2428 20.5171 47.4596 20.8866 47.4596 21.2875V44.1539C47.4596 44.765 46.9642 45.2604 46.353 45.2604H17.7704C17.1592 45.2604 16.6638 44.765 16.6638 44.1539V16.3878ZM18.8769 17.4943V43.0473H45.2465V23.2677L36.3164 28.7633C35.975 28.9734 35.5467 28.9825 35.1967 28.7869C34.8468 28.5914 34.63 28.2218 34.63 27.821V22.4976C31.3874 24.5822 28.1447 26.6668 24.9017 28.7517C24.5612 28.9706 24.1284 28.9861 23.7731 28.7922C23.4178 28.5982 23.1968 28.2257 23.1968 27.821V17.4943H18.8769Z" fill="white"/>
</svg>
