<?xml version="1.0" encoding="UTF-8" standalone="no"?>
<svg width="87px" height="89px" viewBox="0 0 87 89" version="1.1" xmlns="http://www.w3.org/2000/svg" xmlns:xlink="http://www.w3.org/1999/xlink" xmlns:sketch="http://www.bohemiancoding.com/sketch/ns">
    <path d="M45.2295495,4.07864865 C69.0127928,4.07864865 88.2723423,23.8023423 88.2723423,48.1081081 C88.2723423,72.4138739 69.0127027,92.1375676 45.2295495,92.1375676 C21.4463063,92.1375676 2.18675676,72.4138739 2.18675676,48.1081081 C2.18675676,23.8023423 21.4463964,4.07864865 45.2295495,4.07864865 L45.2295495,4.07864865 L45.2295495,4.07864865 Z M45.2295495,8.27189189 C23.7848649,8.27189189 6.38,26.0961261 6.38,48.1081081 C6.38,70.1200901 23.7848649,87.9443243 45.2295495,87.9443243 C66.6742342,87.9443243 84.0790991,70.1200901 84.0790991,48.1081081 C84.0790991,26.0961261 66.6742342,8.27189189 45.2295495,8.27189189 L45.2295495,8.27189189 L45.2295495,8.27189189 Z M64.9581982,50.9672072 L24.7564865,50.9672072 L24.7564865,46.773964 L64.9581982,46.773964 L64.9581982,50.9672072 L64.9581982,50.9672072 Z M46.953964,28.2853153 L46.953964,69.4557658 L42.7607207,69.4557658 L42.7607207,28.2853153 L46.953964,28.2853153 L46.953964,28.2853153 Z" id="add" sketch:type="MSShapeGroup"></path>
</svg>
