<svg xmlns="http://www.w3.org/2000/svg" width="100" height="100" viewBox="0 0 100 100">
  <g fill="none" fill-rule="evenodd">
    <rect width="100" height="100"/>
    <path fill="#fff" fill-rule="nonzero" d="M87.4516129,29.8870968 C87.4516129,31.4192416 88.6936617,32.6612903 90.2258065,32.6612903 C91.7579512,32.6612903 93,31.4192416 93,29.8870968 L93,9.77419355 C93,8.24204876 91.7579512,7 90.2258065,7 L70.1129032,7 C68.5807584,7 67.3387097,8.24204876 67.3387097,9.77419355 C67.3387097,11.3063383 68.5807584,12.5483871 70.1129032,12.5483871 L87.4516129,12.5483871 L87.4516129,29.8870968 Z M70.1129032,87.4516129 C68.5807584,87.4516129 67.3387097,88.6936617 67.3387097,90.2258065 C67.3387097,91.7579512 68.5807584,93 70.1129032,93 L90.2258065,93 C91.7579512,93 93,91.7579512 93,90.2258065 L93,70.1129032 C93,68.5807584 91.7579512,67.3387097 90.2258065,67.3387097 C88.6936617,67.3387097 87.4516129,68.5807584 87.4516129,70.1129032 L87.4516129,87.4516129 L70.1129032,87.4516129 Z M12.5483871,70.1129032 C12.5483871,68.5807584 11.3063383,67.3387097 9.77419355,67.3387097 C8.24204876,67.3387097 7,68.5807584 7,70.1129032 L7,90.2258065 C7,91.7579512 8.24204876,93 9.77419355,93 L29.8870968,93 C31.4192416,93 32.6612903,91.7579512 32.6612903,90.2258065 C32.6612903,88.6936617 31.4192416,87.4516129 29.8870968,87.4516129 L12.5483871,87.4516129 L12.5483871,70.1129032 Z M29.8870968,12.5483871 C31.4192416,12.5483871 32.6612903,11.3063383 32.6612903,9.77419355 C32.6612903,8.24204876 31.4192416,7 29.8870968,7 L9.77419355,7 C8.24204876,7 7,8.24204876 7,9.77419355 L7,29.8870968 C7,31.4192416 8.24204876,32.6612903 9.77419355,32.6612903 C11.3063383,32.6612903 12.5483871,31.4192416 12.5483871,29.8870968 L12.5483871,12.5483871 L29.8870968,12.5483871 Z" opacity=".15"/>
    <path fill="#fff" fill-rule="nonzero" d="M74.2741935,36.8225806 C74.2741935,38.3547254 75.5162423,39.5967742 77.0483871,39.5967742 C78.5805319,39.5967742 79.8225806,38.3547254 79.8225806,36.8225806 L79.8225806,22.9516129 C79.8225806,21.4194681 78.5805319,20.1774194 77.0483871,20.1774194 L63.1774194,20.1774194 C61.6452746,20.1774194 60.4032258,21.4194681 60.4032258,22.9516129 C60.4032258,24.4837577 61.6452746,25.7258065 63.1774194,25.7258065 L74.2741935,25.7258065 L74.2741935,36.8225806 Z M63.1774194,74.2741935 C61.6452746,74.2741935 60.4032258,75.5162423 60.4032258,77.0483871 C60.4032258,78.5805319 61.6452746,79.8225806 63.1774194,79.8225806 L77.0483871,79.8225806 C78.5805319,79.8225806 79.8225806,78.5805319 79.8225806,77.0483871 L79.8225806,63.1774194 C79.8225806,61.6452746 78.5805319,60.4032258 77.0483871,60.4032258 C75.5162423,60.4032258 74.2741935,61.6452746 74.2741935,63.1774194 L74.2741935,74.2741935 L63.1774194,74.2741935 Z M25.7258065,63.1774194 C25.7258065,61.6452746 24.4837577,60.4032258 22.9516129,60.4032258 C21.4194681,60.4032258 20.1774194,61.6452746 20.1774194,63.1774194 L20.1774194,77.0483871 C20.1774194,78.5805319 21.4194681,79.8225806 22.9516129,79.8225806 L36.8225806,79.8225806 C38.3547254,79.8225806 39.5967742,78.5805319 39.5967742,77.0483871 C39.5967742,75.5162423 38.3547254,74.2741935 36.8225806,74.2741935 L25.7258065,74.2741935 L25.7258065,63.1774194 Z M36.8225806,25.7258065 C38.3547254,25.7258065 39.5967742,24.4837577 39.5967742,22.9516129 C39.5967742,21.4194681 38.3547254,20.1774194 36.8225806,20.1774194 L22.9516129,20.1774194 C21.4194681,20.1774194 20.1774194,21.4194681 20.1774194,22.9516129 L20.1774194,36.8225806 C20.1774194,38.3547254 21.4194681,39.5967742 22.9516129,39.5967742 C24.4837577,39.5967742 25.7258065,38.3547254 25.7258065,36.8225806 L25.7258065,25.7258065 L36.8225806,25.7258065 Z" opacity=".15"/>
    <path fill="#fff" fill-rule="nonzero" d="M61.0967742,43.4295416 C61.0967742,44.9616864 62.338823,46.2037352 63.8709677,46.2037352 C65.4031125,46.2037352 66.6451613,44.9616864 66.6451613,43.4295416 L66.6451613,36.1290323 C66.6451613,34.5968875 65.4031125,33.3548387 63.8709677,33.3548387 L56.5704584,33.3548387 C55.0383136,33.3548387 53.7962648,34.5968875 53.7962648,36.1290323 C53.7962648,37.661177 55.0383136,38.9032258 56.5704584,38.9032258 L61.0967742,38.9032258 L61.0967742,43.4295416 Z M61.0967742,61.0967742 L56.5704584,61.0967742 C55.0383136,61.0967742 53.7962648,62.338823 53.7962648,63.8709677 C53.7962648,65.4031125 55.0383136,66.6451613 56.5704584,66.6451613 L63.8709677,66.6451613 C65.4031125,66.6451613 66.6451613,65.4031125 66.6451613,63.8709677 L66.6451613,56.5704584 C66.6451613,55.0383136 65.4031125,53.7962648 63.8709677,53.7962648 C62.338823,53.7962648 61.0967742,55.0383136 61.0967742,56.5704584 L61.0967742,61.0967742 Z M38.9032258,56.5704584 C38.9032258,55.0383136 37.661177,53.7962648 36.1290323,53.7962648 C34.5968875,53.7962648 33.3548387,55.0383136 33.3548387,56.5704584 L33.3548387,63.8709677 C33.3548387,65.4031125 34.5968875,66.6451613 36.1290323,66.6451613 L43.4295416,66.6451613 C44.9616864,66.6451613 46.2037352,65.4031125 46.2037352,63.8709677 C46.2037352,62.338823 44.9616864,61.0967742 43.4295416,61.0967742 L38.9032258,61.0967742 L38.9032258,56.5704584 Z M43.4295416,38.9032258 C44.9616864,38.9032258 46.2037352,37.661177 46.2037352,36.1290323 C46.2037352,34.5968875 44.9616864,33.3548387 43.4295416,33.3548387 L36.1290323,33.3548387 C34.5968875,33.3548387 33.3548387,34.5968875 33.3548387,36.1290323 L33.3548387,43.4295416 C33.3548387,44.9616864 34.5968875,46.2037352 36.1290323,46.2037352 C37.661177,46.2037352 38.9032258,44.9616864 38.9032258,43.4295416 L38.9032258,38.9032258 L43.4295416,38.9032258 Z"/>
  </g>
</svg>
