<?xml version="1.0" encoding="UTF-8"?>
<svg width="100px" height="100px" viewBox="0 0 100 100" version="1.1" xmlns="http://www.w3.org/2000/svg" xmlns:xlink="http://www.w3.org/1999/xlink">
    <!-- Generator: Sketch 42 (36781) - http://www.bohemiancoding.com/sketch -->
    <title>ar-zoom1</title>
    <desc>Created with Sketch.</desc>
    <defs></defs>
    <g id="Page-2" stroke="none" stroke-width="1" fill="none" fill-rule="evenodd">
        <g id="ar-zoom1">
            <rect id="bounds" x="0" y="0" width="100" height="100"></rect>
            <g id="Group" transform="translate(19.000000, 19.000000)" fill-rule="nonzero" fill="#000000">
                <path d="M58,16.5 C58,17.6045695 58.8954305,18.5 60,18.5 C61.1045695,18.5 62,17.6045695 62,16.5 L62,2 C62,0.8954305 61.1045695,0 60,0 L45.5,0 C44.3954305,0 43.5,0.8954305 43.5,2 C43.5,3.1045695 44.3954305,4 45.5,4 L58,4 L58,16.5 Z M45.5,58 C44.3954305,58 43.5,58.8954305 43.5,60 C43.5,61.1045695 44.3954305,62 45.5,62 L60,62 C61.1045695,62 62,61.1045695 62,60 L62,45.5 C62,44.3954305 61.1045695,43.5 60,43.5 C58.8954305,43.5 58,44.3954305 58,45.5 L58,58 L45.5,58 Z M4,45.5 C4,44.3954305 3.1045695,43.5 2,43.5 C0.8954305,43.5 0,44.3954305 0,45.5 L0,60 C0,61.1045695 0.8954305,62 2,62 L16.5,62 C17.6045695,62 18.5,61.1045695 18.5,60 C18.5,58.8954305 17.6045695,58 16.5,58 L4,58 L4,45.5 Z M16.5,4 C17.6045695,4 18.5,3.1045695 18.5,2 C18.5,0.8954305 17.6045695,0 16.5,0 L2,0 C0.8954305,0 0,0.8954305 0,2 L0,16.5 C0,17.6045695 0.8954305,18.5 2,18.5 C3.1045695,18.5 4,17.6045695 4,16.5 L4,4 L16.5,4 Z" id="Rectangle-2"></path>
                <path d="M48.5,22 C48.5,23.1045695 49.3954305,24 50.5,24 C51.6045695,24 52.5,23.1045695 52.5,22 L52.5,12 C52.5,10.8954305 51.6045695,10 50.5,10 L40.5,10 C39.3954305,10 38.5,10.8954305 38.5,12 C38.5,13.1045695 39.3954305,14 40.5,14 L48.5,14 L48.5,22 Z M40.5,49 C39.3954305,49 38.5,49.8954305 38.5,51 C38.5,52.1045695 39.3954305,53 40.5,53 L50.5,53 C51.6045695,53 52.5,52.1045695 52.5,51 L52.5,41 C52.5,39.8954305 51.6045695,39 50.5,39 C49.3954305,39 48.5,39.8954305 48.5,41 L48.5,49 L40.5,49 Z M13.5,41 C13.5,39.8954305 12.6045695,39 11.5,39 C10.3954305,39 9.5,39.8954305 9.5,41 L9.5,51 C9.5,52.1045695 10.3954305,53 11.5,53 L21.5,53 C22.6045695,53 23.5,52.1045695 23.5,51 C23.5,49.8954305 22.6045695,49 21.5,49 L13.5,49 L13.5,41 Z M21.5,14 C22.6045695,14 23.5,13.1045695 23.5,12 C23.5,10.8954305 22.6045695,10 21.5,10 L11.5,10 C10.3954305,10 9.5,10.8954305 9.5,12 L9.5,22 C9.5,23.1045695 10.3954305,24 11.5,24 C12.6045695,24 13.5,23.1045695 13.5,22 L13.5,14 L21.5,14 Z" id="Rectangle-2-Copy" opacity="0.149999991"></path>
                <path d="M39,26.7631579 C39,27.8677274 39.8954305,28.7631579 41,28.7631579 C42.1045695,28.7631579 43,27.8677274 43,26.7631579 L43,21.5 C43,20.3954305 42.1045695,19.5 41,19.5 L35.7368421,19.5 C34.6322726,19.5 33.7368421,20.3954305 33.7368421,21.5 C33.7368421,22.6045695 34.6322726,23.5 35.7368421,23.5 L39,23.5 L39,26.7631579 Z M39,39.5 L35.7368421,39.5 C34.6322726,39.5 33.7368421,40.3954305 33.7368421,41.5 C33.7368421,42.6045695 34.6322726,43.5 35.7368421,43.5 L41,43.5 C42.1045695,43.5 43,42.6045695 43,41.5 L43,36.2368421 C43,35.1322726 42.1045695,34.2368421 41,34.2368421 C39.8954305,34.2368421 39,35.1322726 39,36.2368421 L39,39.5 Z M23,36.2368421 C23,35.1322726 22.1045695,34.2368421 21,34.2368421 C19.8954305,34.2368421 19,35.1322726 19,36.2368421 L19,41.5 C19,42.6045695 19.8954305,43.5 21,43.5 L26.2631579,43.5 C27.3677274,43.5 28.2631579,42.6045695 28.2631579,41.5 C28.2631579,40.3954305 27.3677274,39.5 26.2631579,39.5 L23,39.5 L23,36.2368421 Z M26.2631579,23.5 C27.3677274,23.5 28.2631579,22.6045695 28.2631579,21.5 C28.2631579,20.3954305 27.3677274,19.5 26.2631579,19.5 L21,19.5 C19.8954305,19.5 19,20.3954305 19,21.5 L19,26.7631579 C19,27.8677274 19.8954305,28.7631579 21,28.7631579 C22.1045695,28.7631579 23,27.8677274 23,26.7631579 L23,23.5 L26.2631579,23.5 Z" id="Rectangle-2-Copy-2" opacity="0.149999991"></path>
            </g>
        </g>
    </g>
</svg>