<svg xmlns="http://www.w3.org/2000/svg" width="100" height="100" viewBox="0 0 100 100">
  <g fill="none" fill-rule="evenodd">
    <rect width="100" height="100"/>
    <path fill="#fff" fill-rule="nonzero" d="M87.4516129,29.8870968 C87.4516129,31.4192416 88.6936617,32.6612903 90.2258065,32.6612903 C91.7579512,32.6612903 93,31.4192416 93,29.8870968 L93,9.77419355 C93,8.24204876 91.7579512,7 90.2258065,7 L70.1129032,7 C68.5807584,7 67.3387097,8.24204876 67.3387097,9.77419355 C67.3387097,11.3063383 68.5807584,12.5483871 70.1129032,12.5483871 L87.4516129,12.5483871 L87.4516129,29.8870968 Z M70.1129032,87.4516129 C68.5807584,87.4516129 67.3387097,88.6936617 67.3387097,90.2258065 C67.3387097,91.7579512 68.5807584,93 70.1129032,93 L90.2258065,93 C91.7579512,93 93,91.7579512 93,90.2258065 L93,70.1129032 C93,68.5807584 91.7579512,67.3387097 90.2258065,67.3387097 C88.6936617,67.3387097 87.4516129,68.5807584 87.4516129,70.1129032 L87.4516129,87.4516129 L70.1129032,87.4516129 Z M12.5483871,70.1129032 C12.5483871,68.5807584 11.3063383,67.3387097 9.77419355,67.3387097 C8.24204876,67.3387097 7,68.5807584 7,70.1129032 L7,90.2258065 C7,91.7579512 8.24204876,93 9.77419355,93 L29.8870968,93 C31.4192416,93 32.6612903,91.7579512 32.6612903,90.2258065 C32.6612903,88.6936617 31.4192416,87.4516129 29.8870968,87.4516129 L12.5483871,87.4516129 L12.5483871,70.1129032 Z M29.8870968,12.5483871 C31.4192416,12.5483871 32.6612903,11.3063383 32.6612903,9.77419355 C32.6612903,8.24204876 31.4192416,7 29.8870968,7 L9.77419355,7 C8.24204876,7 7,8.24204876 7,9.77419355 L7,29.8870968 C7,31.4192416 8.24204876,32.6612903 9.77419355,32.6612903 C11.3063383,32.6612903 12.5483871,31.4192416 12.5483871,29.8870968 L12.5483871,12.5483871 L29.8870968,12.5483871 Z"/>
    <path fill="#fff" fill-rule="nonzero" d="M73.5116279 37.4651163C73.5116279 38.9806884 74.7402418 40.2093023 76.255814 40.2093023 77.7713861 40.2093023 79 38.9806884 79 37.4651163L79 23.744186C79 22.2286139 77.7713861 21 76.255814 21L62.5348837 21C61.0193116 21 59.7906977 22.2286139 59.7906977 23.744186 59.7906977 25.2597582 61.0193116 26.4883721 62.5348837 26.4883721L73.5116279 26.4883721 73.5116279 37.4651163zM62.5348837 74.5116279C61.0193116 74.5116279 59.7906977 75.7402418 59.7906977 77.255814 59.7906977 78.7713861 61.0193116 80 62.5348837 80L76.255814 80C77.7713861 80 79 78.7713861 79 77.255814L79 63.5348837C79 62.0193116 77.7713861 60.7906977 76.255814 60.7906977 74.7402418 60.7906977 73.5116279 62.0193116 73.5116279 63.5348837L73.5116279 74.5116279 62.5348837 74.5116279zM25.4883721 63.5348837C25.4883721 62.0193116 24.2597582 60.7906977 22.744186 60.7906977 21.2286139 60.7906977 20 62.0193116 20 63.5348837L20 77.255814C20 78.7713861 21.2286139 80 22.744186 80L36.4651163 80C37.9806884 80 39.2093023 78.7713861 39.2093023 77.255814 39.2093023 75.7402418 37.9806884 74.5116279 36.4651163 74.5116279L25.4883721 74.5116279 25.4883721 63.5348837zM36.4651163 26.4883721C37.9806884 26.4883721 39.2093023 25.2597582 39.2093023 23.744186 39.2093023 22.2286139 37.9806884 21 36.4651163 21L22.744186 21C21.2286139 21 20 22.2286139 20 23.744186L20 37.4651163C20 38.9806884 21.2286139 40.2093023 22.744186 40.2093023 24.2597582 40.2093023 25.4883721 38.9806884 25.4883721 37.4651163L25.4883721 26.4883721 36.4651163 26.4883721zM62.3333333 44.2894737C62.3333333 45.8542805 63.6018599 47.122807 65.1666667 47.122807 66.7314735 47.122807 68 45.8542805 68 44.2894737L68 36.8333333C68 35.2685265 66.7314735 34 65.1666667 34L57.7105263 34C56.1457195 34 54.877193 35.2685265 54.877193 36.8333333 54.877193 38.3981401 56.1457195 39.6666667 57.7105263 39.6666667L62.3333333 39.6666667 62.3333333 44.2894737zM62.3333333 62.3333333L57.7105263 62.3333333C56.1457195 62.3333333 54.877193 63.6018599 54.877193 65.1666667 54.877193 66.7314735 56.1457195 68 57.7105263 68L65.1666667 68C66.7314735 68 68 66.7314735 68 65.1666667L68 57.7105263C68 56.1457195 66.7314735 54.877193 65.1666667 54.877193 63.6018599 54.877193 62.3333333 56.1457195 62.3333333 57.7105263L62.3333333 62.3333333zM39.6666667 57.7105263C39.6666667 56.1457195 38.3981401 54.877193 36.8333333 54.877193 35.2685265 54.877193 34 56.1457195 34 57.7105263L34 65.1666667C34 66.7314735 35.2685265 68 36.8333333 68L44.2894737 68C45.8542805 68 47.122807 66.7314735 47.122807 65.1666667 47.122807 63.6018599 45.8542805 62.3333333 44.2894737 62.3333333L39.6666667 62.3333333 39.6666667 57.7105263zM44.2894737 39.6666667C45.8542805 39.6666667 47.122807 38.3981401 47.122807 36.8333333 47.122807 35.2685265 45.8542805 34 44.2894737 34L36.8333333 34C35.2685265 34 34 35.2685265 34 36.8333333L34 44.2894737C34 45.8542805 35.2685265 47.122807 36.8333333 47.122807 38.3981401 47.122807 39.6666667 45.8542805 39.6666667 44.2894737L39.6666667 39.6666667 44.2894737 39.6666667z" opacity=".15"/>
  </g>
</svg>
