<svg xmlns="http://www.w3.org/2000/svg" width="100" height="100" viewBox="0 0 100 100">
  <g fill="none" fill-rule="evenodd">
    <rect width="100" height="100"/>
    <path fill="#FFFFFF" fill-rule="nonzero" d="M44.8369093 36L42.095994 29.7353362 29.7407913 29.7353362 26.9998759 36 20 36 32.7347141 7 39.1020711 7 51.8367852 36 44.8369093 36zM35.9394766 15.6294708L32.228699 24.0515022 39.6080863 24.0515022 35.9394766 15.6294708zM78.1446113 16.6251788C78.1446113 21.2718401 76.2751851 24.2727639 72.5362768 25.6280401L80 36 71.903758 36 65.3677292 26.7482118 60.813593 26.7482118 60.813593 36 54.2353963 36 54.2353963 7 65.409897 7C69.9921681 7 73.2601499 7.76060284 75.2139402 9.28183126 77.1677308 10.8030597 78.1446113 13.2508177 78.1446113 16.6251788zM70.2170409 20.0686695C71.0322916 19.3495434 71.4399107 18.2086393 71.4399107 16.6459227 71.4399107 15.0832063 71.0182357 14.0114479 70.1748729 13.4306152 69.3315102 12.8497826 67.8556474 12.5593706 65.7472406 12.5593706L60.813593 12.5593706 60.813593 21.1473533 65.6207368 21.1473533C67.8697042 21.1473533 69.4017902 20.7877958 70.2170409 20.0686695zM14.9200001 69.2670454C14.9200001 56.4170111 25.3479028 46 38.184813 46L61.8151908 46C74.6639921 46 85.0800037 56.4141857 85.0800037 69.2670454 85.0800037 82.1170798 74.652101 92.534091 61.8151908 92.534091L38.184813 92.534091C25.3360116 92.534091 14.9200001 82.1199052 14.9200001 69.2670454zM62.3069802 83.2272727C70.0566402 83.2272727 76.3389808 76.9770661 76.3389808 69.2670454 76.3389808 61.5570248 70.0566402 55.3068182 62.3069802 55.3068182 54.5573202 55.3068182 48.2749794 61.5570248 48.2749794 69.2670454 48.2749794 76.9770661 54.5573202 83.2272727 62.3069802 83.2272727z"/>
  </g>
</svg>
