<?xml version="1.0" encoding="UTF-8"?>
<svg width="100px" height="100px" viewBox="0 0 100 100" version="1.1" xmlns="http://www.w3.org/2000/svg" xmlns:xlink="http://www.w3.org/1999/xlink">
    <!-- Generator: Sketch 42 (36781) - http://www.bohemiancoding.com/sketch -->
    <title>ar-on</title>
    <desc>Created with Sketch.</desc>
    <defs></defs>
    <g id="Page-2" stroke="none" stroke-width="1" fill="none" fill-rule="evenodd">
        <g id="ar-on">
            <rect id="bounds" x="0" y="0" width="100" height="100"></rect>
            <path d="M46.5501167,40.7037264 L44.7186869,36.4890022 L36.4631651,36.4890022 L34.6317353,40.7037264 L29.9545455,40.7037264 L38.4636499,21.1931818 L42.7182021,21.1931818 L51.2273065,40.7037264 L46.5501167,40.7037264 Z M40.6050139,26.9988947 L38.1255398,32.6650471 L43.0563122,32.6650471 L40.6050139,26.9988947 Z M68.8057175,27.6687846 C68.8057175,30.7949533 67.5566009,32.813907 65.0583304,33.7257062 L70.0454545,40.7037264 L64.6356928,40.7037264 L60.2684372,34.4793324 L57.2254462,34.4793324 L57.2254462,40.7037264 L52.8300148,40.7037264 L52.8300148,21.1931818 L60.296613,21.1931818 C63.3584032,21.1931818 65.5420092,21.7048982 66.8474964,22.7283463 C68.1529837,23.7517944 68.8057175,25.3985907 68.8057175,27.6687846 Z M63.5086591,29.9854873 C64.0533948,29.5016755 64.3257585,28.734101 64.3257585,27.6827406 C64.3257585,26.6313803 64.0440029,25.9103255 63.4804832,25.5195544 C62.9169636,25.1287833 61.9308189,24.9334007 60.5220198,24.9334007 L57.2254462,24.9334007 L57.2254462,30.7112014 L60.4374923,30.7112014 C61.9402114,30.7112014 62.9639234,30.4692992 63.5086591,29.9854873 Z" id="AR" fill="#000000"></path>
            <g id="Group-5" transform="translate(26.613636, 47.784091)" fill="#000000">
                <path d="M0,15.5113636 C0,6.94467405 6.95184469,0 15.5096735,0 L31.2630538,0 C39.8288099,0 46.7727273,6.94279047 46.7727273,15.5113636 C46.7727273,24.0780532 39.8208826,31.0227273 31.2630538,31.0227273 L15.5096735,31.0227273 C6.94391735,31.0227273 0,24.0799368 0,15.5113636 Z M31.5909091,24.8181818 C36.7572819,24.8181818 40.9454545,20.6513774 40.9454545,15.5113636 C40.9454545,10.3713499 36.7572819,6.20454545 31.5909091,6.20454545 C26.4245363,6.20454545 22.2363636,10.3713499 22.2363636,15.5113636 C22.2363636,20.6513774 26.4245363,24.8181818 31.5909091,24.8181818 Z" id="switch"></path>
            </g>
        </g>
    </g>
</svg>