<?xml version="1.0" encoding="UTF-8"?>
<svg width="100px" height="100px" viewBox="0 0 100 100" version="1.1" xmlns="http://www.w3.org/2000/svg" xmlns:xlink="http://www.w3.org/1999/xlink">
    <!-- Generator: Sketch 42 (36781) - http://www.bohemiancoding.com/sketch -->
    <title>ar-off</title>
    <desc>Created with Sketch.</desc>
    <defs></defs>
    <g id="Page-2" stroke="none" stroke-width="1" fill="none" fill-rule="evenodd">
        <g id="ar-off">
            <rect id="bounds" x="0" y="0" width="100" height="100"></rect>
            <path d="M46.5501167,40.7037264 L44.7186869,36.4890022 L36.4631651,36.4890022 L34.6317353,40.7037264 L29.9545455,40.7037264 L38.4636499,21.1931818 L42.7182021,21.1931818 L51.2273065,40.7037264 L46.5501167,40.7037264 Z M40.6050139,26.9988947 L38.1255398,32.6650471 L43.0563122,32.6650471 L40.6050139,26.9988947 Z M68.8057175,27.6687846 C68.8057175,30.7949533 67.5566009,32.813907 65.0583304,33.7257062 L70.0454545,40.7037264 L64.6356928,40.7037264 L60.2684372,34.4793324 L57.2254462,34.4793324 L57.2254462,40.7037264 L52.8300148,40.7037264 L52.8300148,21.1931818 L60.296613,21.1931818 C63.3584032,21.1931818 65.5420092,21.7048982 66.8474964,22.7283463 C68.1529837,23.7517944 68.8057175,25.3985907 68.8057175,27.6687846 Z M63.5086591,29.9854873 C64.0533948,29.5016755 64.3257585,28.734101 64.3257585,27.6827406 C64.3257585,26.6313803 64.0440029,25.9103255 63.4804832,25.5195544 C62.9169636,25.1287833 61.9308189,24.9334007 60.5220198,24.9334007 L57.2254462,24.9334007 L57.2254462,30.7112014 L60.4374923,30.7112014 C61.9402114,30.7112014 62.9639234,30.4692992 63.5086591,29.9854873 Z" id="AR" fill="#000000"></path>
            <g id="switch" transform="translate(26.000000, 47.000000)" fill="#000000">
                <path d="M3.9375,16.2954545 C3.9375,23.0276766 9.39264106,28.4829545 16.1233099,28.4829545 L31.8766901,28.4829545 C38.6017192,28.4829545 44.0625,23.0235061 44.0625,16.2954545 C44.0625,9.56323245 38.6073589,4.10795455 31.8766901,4.10795455 L16.1233099,4.10795455 C9.39828082,4.10795455 3.9375,9.56740296 3.9375,16.2954545 Z M0.613636364,16.2954545 C0.613636364,7.72876496 7.56548105,0.784090909 16.1233099,0.784090909 L31.8766901,0.784090909 C40.4424463,0.784090909 47.3863636,7.72688138 47.3863636,16.2954545 C47.3863636,24.8621441 40.434519,31.8068182 31.8766901,31.8068182 L16.1233099,31.8068182 C7.55755371,31.8068182 0.613636364,24.8640277 0.613636364,16.2954545 Z" id="Rectangle" fill-rule="nonzero"></path>
                <ellipse id="Oval-5-Copy-2" cx="16.2045455" cy="16.2954545" rx="9.35454545" ry="9.30681818"></ellipse>
            </g>
        </g>
    </g>
</svg>