<svg xmlns="http://www.w3.org/2000/svg" width="100" height="100" viewBox="0 0 100 100">
  <g fill="none" fill-rule="evenodd">
    <rect width="100" height="100"/>
    <path fill="#000000" fill-rule="nonzero" d="M73.195945,30.1923915 C67.482487,23.500832 59.0843836,19.5 50,19.5 C33.1553151,19.5 19.5,33.1553151 19.5,50 C19.5,66.8446849 33.1553151,80.5 50,80.5 C66.8446849,80.5 80.5,66.8446849 80.5,50 C80.5,48.6192881 81.6192881,47.5 83,47.5 C84.3807119,47.5 85.5,48.6192881 85.5,50 C85.5,69.6061086 69.6061086,85.5 50,85.5 C30.3938914,85.5 14.5,69.6061086 14.5,50 C14.5,30.3938914 30.3938914,14.5 50,14.5 C60.4799877,14.5 70.1801569,19.078667 76.8244601,26.7434671 L77.3408015,16.8910876 C77.4130623,15.5122679 78.5893955,14.4530927 79.9682152,14.5253536 C81.3470348,14.5976145 82.40621,15.7739477 82.3339491,17.1527673 L81.4965738,33.1308399 C81.424313,34.5096595 80.2479798,35.5688347 78.8691601,35.4965738 L62.8910876,34.6591985 C61.5122679,34.5869377 60.4530927,33.4106045 60.5253536,32.0317848 C60.5976145,30.6529652 61.7739477,29.59379 63.1527673,29.6660509 L73.195945,30.1923915 Z"/>
    <path fill="#000000" fill-rule="nonzero" d="M64.3591814,37.3395186 L57.9993196,56.2984183 C57.7610008,57.0088521 57.001925,57.7631991 56.2985645,57.9991342 L37.3392292,64.35885 C35.9220646,64.8342234 35.171293,64.0693157 35.6386615,62.6583214 L41.9383982,43.6392979 C42.1744639,42.9266111 42.9335622,42.1722866 43.6391533,41.9385819 L62.6586138,35.63899 C64.0802725,35.1681107 64.8310105,35.9329848 64.3591814,37.3395186 Z M46.6395331,53.2940687 C48.4771536,55.1316471 51.4565254,55.1316471 53.2941459,53.2940687 C55.1317666,51.4564904 55.1317666,48.4771871 53.2941459,46.6396088 C51.4565254,44.8020304 48.4771536,44.8020304 46.6395331,46.6396088 C44.8019124,48.4771871 44.8019124,51.4564904 46.6395331,53.2940687 Z" transform="matrix(-1 0 0 1 100 0)"/>
  </g>
</svg>
