<?xml version="1.0" encoding="UTF-8"?>
<svg width="100px" height="100px" viewBox="0 0 100 100" version="1.1" xmlns="http://www.w3.org/2000/svg" xmlns:xlink="http://www.w3.org/1999/xlink">
    <!-- Generator: Sketch 42 (36781) - http://www.bohemiancoding.com/sketch -->
    <title>ar-recalibrate</title>
    <desc>Created with Sketch.</desc>
    <defs></defs>
    <g id="Page-2" stroke="none" stroke-width="1" fill="none" fill-rule="evenodd">
        <g id="ar-recalibrate">
            <rect id="bounds" x="0" y="0" width="100" height="100"></rect>
            <g id="Group-5-Copy-2" transform="translate(20.000000, 20.000000)" fill="#000000">
                <path d="M59.1957934,4.38407843 L46.2944036,42.8443123 C45.8109586,44.2855063 44.2711245,45.815783 42.8443123,46.2944036 L4.38407843,59.1957934 C1.50926879,60.1601412 -0.0137198311,58.6084409 0.934367287,55.7460823 L13.7137893,17.1638806 C14.1926638,15.7181161 15.7325436,14.1878851 17.1638806,13.7137893 L55.7460823,0.934367287 C58.6300087,-0.0208636607 60.1529291,1.53076846 59.1957934,4.38407843 Z M23.2503444,36.7496556 C26.9780762,40.4773875 33.0219238,40.4773875 36.7496556,36.7496556 C40.4773875,33.0219238 40.4773875,26.9780762 36.7496556,23.2503444 C33.0219238,19.5226125 26.9780762,19.5226125 23.2503444,23.2503444 C19.5226125,26.9780762 19.5226125,33.0219238 23.2503444,36.7496556 Z" id="Combined-Shape"></path>
            </g>
        </g>
    </g>
</svg>