<?xml version="1.0" encoding="UTF-8" standalone="no"?>
<!-- Generator: Adobe Illustrator 19.0.0, SVG Export Plug-In . SVG Version: 6.00 Build 0)  -->
<svg width="18px" height="30px" viewBox="0 0 18 30" version="1.1" xmlns="http://www.w3.org/2000/svg" xmlns:xlink="http://www.w3.org/1999/xlink">
	 <title>arrow-back</title>
<path id="arrow-back" d="M6.62286 0.435307L0.432643 6.6256C0.432331 6.62601 0.432054 6.62629 0.431743 6.62674C0.396586 6.6619 0.363471 6.69861 0.33219 6.73671C0.314058 6.75712 0.299767 6.78024 0.283884 6.802C0.272534 6.81789 0.258485 6.83488 0.247135 6.85211C0.229003 6.8809 0.211079 6.91062 0.194054 6.94031C0.187237 6.95166 0.180455 6.96367 0.173638 6.97568C0.157756 7.00402 0.145506 7.03329 0.132149 7.06229C0.125332 7.07817 0.11855 7.09177 0.111733 7.10696C0.100384 7.13212 0.0936014 7.15776 0.0838434 7.18316C0.0770265 7.20357 0.0679605 7.22375 0.0634275 7.24461C0.0566107 7.26503 0.0520777 7.28589 0.0475447 7.30652C0.0407279 7.33306 0.0339457 7.35936 0.0271288 7.38655C0.024845 7.40244 0.0225958 7.41832 0.020312 7.43417C0.015779 7.46614 0.00896221 7.49791 0.006713 7.53033C0.00543269 7.54393 0.00550189 7.55618 0.00453301 7.56912C0.0022492 7.60403 0 7.63898 0 7.67435C0 7.69248 0.00186857 7.71245 0.00228381 7.73172C0.0033565 7.76051 0.00356412 7.78888 0.00681681 7.81788C0.0113498 7.86688 0.0181666 7.91584 0.0272327 7.96439C0.0273365 7.96488 0.0273365 7.96536 0.0274403 7.96595C0.0288244 7.97277 0.0319733 7.97955 0.0319733 7.98636C0.0410393 8.0274 0.0501053 8.06844 0.0628046 8.10882C0.0673377 8.12471 0.0741545 8.13945 0.0786875 8.15485C0.0900373 8.18547 0.0991033 8.21585 0.111803 8.24578C0.120869 8.2662 0.129935 8.28592 0.139693 8.30589C0.151043 8.32949 0.162358 8.3535 0.173708 8.37665C0.187307 8.4007 0.201148 8.42361 0.215197 8.44672C0.226547 8.46486 0.235613 8.48323 0.24807 8.50091C0.266202 8.5288 0.287067 8.5551 0.307483 8.58164C0.316549 8.59299 0.325615 8.60614 0.334924 8.61815C0.362606 8.65192 0.392088 8.68414 0.422469 8.71497C0.427002 8.7195 0.429286 8.72403 0.433819 8.72632L0.435826 8.72832C0.437314 8.72988 0.43811 8.73061 0.440359 8.73286L6.62445 14.917C7.20471 15.4974 8.14564 15.4974 8.72604 14.917C9.01622 14.6269 9.16135 14.2465 9.16128 13.8663C9.16117 13.4861 9.01615 13.1056 8.72604 12.8155L4.87859 8.96795C9.56482 9.39392 13.6226 12.8521 14.5856 17.6933C14.7178 18.3578 14.7867 19.0262 14.7946 19.6907C14.8128 21.1304 14.5431 22.5517 14.0122 23.875C13.9713 23.9769 13.9289 24.078 13.8849 24.1786C13.3576 25.3858 12.6086 26.5042 11.6565 27.4712C11.0805 28.0561 11.088 28.9971 11.6724 29.5728C12.2572 30.1487 13.1981 30.1413 13.7739 29.5569C14.5818 28.7364 15.2746 27.8303 15.8457 26.8621C17.1017 24.7321 17.7673 22.3018 17.7673 19.8225C17.7673 19.8225 17.7673 19.8225 17.7673 19.8225L17.7673 19.8224C17.7672 18.9221 17.6793 18.0148 17.5002 17.1137C16.2805 10.9822 11.1681 6.59757 5.245 6.0171L8.72542 2.53662C9.30575 1.95636 9.30575 1.01536 8.72542 0.434996C8.14502 -0.145056 7.20402 -0.145056 6.62369 0.435307L6.62286 0.435307Z"></path>

</svg>
