<?xml version="1.0" encoding="UTF-8" standalone="no"?>
<!-- Generator: Adobe Illustrator 19.0.0, SVG Export Plug-In . SVG Version: 6.00 Build 0)  -->
<svg width="18px" height="30px" viewBox="0 0 18 30" version="1.1" xmlns="http://www.w3.org/2000/svg" xmlns:xlink="http://www.w3.org/1999/xlink">
	 <title>arrow-forward</title>
<path id="arrow-forward" d="M11.1444 0.435307L17.3346 6.6256C17.3349 6.62601 17.3352 6.62629 17.3355 6.62674C17.3707 6.6619 17.4038 6.69861 17.4351 6.73671C17.4532 6.75712 17.4675 6.78024 17.4834 6.802C17.4947 6.81789 17.5088 6.83488 17.5201 6.85211C17.5383 6.8809 17.5562 6.91062 17.5732 6.94031C17.58 6.95166 17.5868 6.96367 17.5936 6.97568C17.6095 7.00402 17.6218 7.03329 17.6351 7.06229C17.6419 7.07817 17.6487 7.09177 17.6555 7.10696C17.6669 7.13212 17.6737 7.15776 17.6834 7.18316C17.6903 7.20357 17.6993 7.22375 17.7039 7.24461C17.7107 7.26503 17.7152 7.28589 17.7197 7.30652C17.7266 7.33306 17.7333 7.35936 17.7402 7.38655C17.7424 7.40244 17.7447 7.41832 17.747 7.43417C17.7515 7.46614 17.7583 7.49791 17.7606 7.53033C17.7618 7.54393 17.7618 7.55618 17.7627 7.56912C17.765 7.60403 17.7673 7.63898 17.7673 7.67435C17.7673 7.69248 17.7654 7.71245 17.765 7.73172C17.7639 7.76051 17.7637 7.78888 17.7605 7.81788C17.7559 7.86688 17.7491 7.91584 17.74 7.96439C17.7399 7.96488 17.7399 7.96536 17.7398 7.96595C17.7385 7.97277 17.7353 7.97955 17.7353 7.98636C17.7262 8.0274 17.7172 8.06844 17.7045 8.10882C17.6999 8.12471 17.6931 8.13945 17.6886 8.15485C17.6772 8.18547 17.6682 8.21585 17.6555 8.24578C17.6464 8.2662 17.6373 8.28592 17.6276 8.30589C17.6162 8.32949 17.6049 8.3535 17.5936 8.37665C17.58 8.4007 17.5661 8.42361 17.5521 8.44672C17.5407 8.46486 17.5317 8.48323 17.5192 8.50091C17.5011 8.5288 17.4802 8.5551 17.4598 8.58164C17.4507 8.59299 17.4417 8.60614 17.4324 8.61815C17.4047 8.65192 17.3752 8.68414 17.3448 8.71497C17.3403 8.7195 17.338 8.72403 17.3335 8.72632L17.3315 8.72832C17.33 8.72988 17.3292 8.73061 17.3269 8.73286L11.1428 14.917C10.5626 15.4974 9.62164 15.4974 9.04124 14.917C8.75106 14.6269 8.60593 14.2465 8.606 13.8663C8.60611 13.4861 8.75113 13.1056 9.04124 12.8155L12.8887 8.96795C8.20246 9.39392 4.14469 12.8521 3.18172 17.6933C3.0495 18.3578 2.98057 19.0262 2.97265 19.6907C2.95452 21.1304 3.22418 22.5517 3.75513 23.875C3.79596 23.9769 3.83835 24.078 3.88237 24.1786C4.40965 25.3858 5.1587 26.5042 6.11081 27.4712C6.68681 28.0561 6.67927 28.9971 6.09492 29.5728C5.5101 30.1487 4.56917 30.1413 3.99341 29.5569C3.18553 28.7364 2.49267 27.8303 1.92158 26.8621C0.665591 24.7321 -6.92062e-05 22.3018 0 19.8225C0 19.8225 0 19.8225 0 19.8225L0 19.8224C0.000103809 18.9221 0.0879957 18.0148 0.267101 17.1137C1.48676 10.9822 6.59919 6.59757 12.5223 6.0171L9.04186 2.53662C8.46153 1.95636 8.46153 1.01536 9.04186 0.434996C9.62226 -0.145056 10.5633 -0.145056 11.1436 0.435307L11.1444 0.435307Z"></path>

</svg>
