<?xml version="1.0" encoding="UTF-8" standalone="no"?>
<svg width="100px" height="100px" viewBox="0 0 100 100" version="1.1" xmlns="http://www.w3.org/2000/svg" xmlns:xlink="http://www.w3.org/1999/xlink">
    <!-- Generator: Sketch 3.8.3 (29802) - http://www.bohemiancoding.com/sketch -->
    <title>back-to-start</title>
    <path d="M66.0383766,75.4605888 C67.6690388,76.5794619 69,75.902509 69,73.9409137 L69,26.0593234 C69,24.1037025 67.674036,23.4173465 66.0383766,24.5396483 L43.7025424,42.5215564 C43.6824988,42.5376928 43.6662503,42.5388157 43.6662503,42.5034444 L43.6662503,26.0518587 C43.6662503,25.0686362 42.8537524,24.2812557 41.8514855,24.2812557 L32.8147649,24.2812557 C31.8115992,24.2812557 31,25.0739817 31,26.0518587 L31,73.9483784 C31,74.9316009 31.8124979,75.7189814 32.8147649,75.7189814 L41.8514855,75.7189814 C42.8546512,75.7189814 43.6662503,74.9262554 43.6662503,73.9483784 L43.6662503,57.8907692 C43.6662503,57.6470426 43.8210593,57.5740952 44.017663,57.7323749 L66.0383766,75.4605888 Z" id="path-1"></path>
</svg>
