<?xml version="1.0" encoding="UTF-8" standalone="no"?>
<svg width="64px" height="93px" viewBox="0 0 64 93" version="1.1" xmlns="http://www.w3.org/2000/svg" xmlns:xlink="http://www.w3.org/1999/xlink" xmlns:sketch="http://www.bohemiancoding.com/sketch/ns">
    <!-- Generator: Sketch 3.4.3 (16044) - http://www.bohemiancoding.com/sketch -->
    <title>bulb</title>
    <path d="M46.2162162,7.74774775 C28.6998198,7.74774775 14.5045045,21.9430631 14.5045045,39.4594595 C14.5045045,51.0803604 25.1365766,63.396036 29.0082883,74.2126126 C34.7827027,90.3423423 34.1427027,100 46.2162162,100 C58.4684685,100 57.6468468,90.3884685 63.4241441,74.2789189 C67.3073874,63.4392793 77.9279279,50.990991 77.9279279,39.4594595 C77.9279279,21.9430631 63.7268468,7.74774775 46.2162162,7.74774775 L46.2162162,7.74774775 Z M53.6886486,86.092973 L39.3953153,87.8774775 C38.885045,86.4014414 38.3372973,84.6745946 37.6713514,82.4201802 C37.6627027,82.3913514 37.6511712,82.3596396 37.6454054,82.3308108 L55.4846847,80.1023423 C55.230991,80.9527928 54.96,81.8464865 54.7236036,82.6479279 C54.3459459,83.9423423 54.0086486,85.0666667 53.6886486,86.092973 L53.6886486,86.092973 Z M36.8064865,79.5545946 C36.2818018,77.8190991 35.6908108,75.9913514 35.0335135,74.0540541 L57.421982,74.0540541 C57.0673874,75.089009 56.7127928,76.1268468 56.4072072,77.107027 L36.8064865,79.5545946 L36.8064865,79.5545946 Z M46.2162162,94.2342342 C43.2958559,94.2342342 41.9524324,93.8969369 40.4590991,90.6306306 L52.6767568,89.0998198 C50.9066667,93.8681081 49.618018,94.2342342 46.2162162,94.2342342 L46.2162162,94.2342342 Z M59.685045,68.2882883 L32.7790991,68.2882883 C31.3434234,65.1747748 29.6194595,62.0612613 27.9185586,59.0140541 C24.1563964,52.2825225 20.2702703,45.3203604 20.2702703,39.4594595 C20.2702703,25.1517117 31.9084685,13.5135135 46.2162162,13.5135135 C60.523964,13.5135135 72.1621622,25.1517117 72.1621622,39.4594595 C72.1621622,45.2771171 68.2702703,52.2767568 64.5052252,59.0486486 C62.8216216,62.0843243 61.1091892,65.1920721 59.685045,68.2882883 L59.685045,68.2882883 Z M46.2162162,22.1621622 C47.009009,22.1621622 47.6576577,22.8079279 47.6576577,23.6036036 C47.6576577,24.3992793 47.0118919,25.045045 46.2162162,25.045045 C38.2681081,25.045045 31.8018018,31.5113514 31.8018018,39.4594595 C31.8018018,40.2551351 31.156036,40.9009009 30.3603604,40.9009009 C29.5646847,40.9009009 28.9189189,40.2551351 28.9189189,39.4594595 C28.9189189,29.92 36.6767568,22.1621622 46.2162162,22.1621622 L46.2162162,22.1621622 Z" id="bulb" sketch:type="MSShapeGroup"></path>
</svg>
