<?xml version="1.0" encoding="UTF-8" standalone="no"?>
<svg width="100px" height="100px" viewBox="0 0 100 100" version="1.1" xmlns="http://www.w3.org/2000/svg" xmlns:xlink="http://www.w3.org/1999/xlink">
    <!-- Generator: Sketch 3.8.3 (29802) - http://www.bohemiancoding.com/sketch -->
    <title>bulb</title>
    <path d="M43.905493,68.0184989 L43.905493,68.0184989 L43.9418118,68.0728245 C43.8533487,67.9378572 43.8367111,67.9235498 43.8550792,67.9334282 C43.877113,67.945278 43.8626956,67.9411762 43.713445,67.9411762 L56.2226972,67.9411764 C55.9836047,67.9411764 56.0772981,67.8898072 55.9780413,68.0491334 C56.0381946,67.9575444 56.1594473,67.7699763 56.3329844,67.4967044 C56.6270204,67.0336809 56.9559062,66.5052293 57.3107945,65.9217167 C58.3257273,64.2529485 59.340726,62.4853157 60.2842754,60.7044058 C61.0112358,59.3322986 61.6656364,58.0078206 62.22927,56.7547122 C63.5971929,53.7134535 64.3448826,51.2544474 64.3448826,49.8463469 C64.3448826,42.0112382 57.9150521,35.6470588 49.968071,35.6470588 C42.0210899,35.6470588 35.5912594,42.0112382 35.5912594,49.8463469 C35.5912594,51.3096771 36.2226369,53.5744869 37.4011703,56.3190228 C38.0224453,57.7658309 38.7763482,59.3060334 39.6336549,60.9031695 C40.5706178,62.6487024 41.578674,64.3668995 42.5864878,65.978189 C42.9386833,66.5412781 43.264928,67.0496178 43.5563873,67.4936034 C43.7278606,67.7548119 43.8471634,67.9329462 43.905493,68.0184989 L43.905493,68.0184989 Z M40.9342714,70.0375497 C40.9342714,70.0375497 31.9970565,56.9292414 31.9970565,49.8463469 C31.9970565,40.022569 40.0429537,32.0588235 49.968071,32.0588235 C59.8931882,32.0588235 67.9390855,40.022569 67.9390855,49.8463469 C67.9390855,56.3813114 58.9837479,70.0166534 58.9837479,70.0166534 C58.4628734,70.8455998 57.217553,71.5294117 56.2226971,71.5294117 L43.7134449,71.5294115 C42.7110928,71.5294114 41.4743107,70.8614822 40.9342714,70.0375497 Z M42.7796652,76.0147059 L57.1564768,76.0147059 C58.1489885,76.0147059 58.9535782,75.2114521 58.9535782,74.2205882 C58.9535782,73.2297244 58.1489885,72.4264706 57.1564768,72.4264706 L42.7796652,72.4264706 C41.7871535,72.4264706 40.9825637,73.2297244 40.9825637,74.2205882 C40.9825637,75.2114521 41.7871535,76.0147059 42.7796652,76.0147059 Z M42.7796652,80.5 L57.1564768,80.5 C58.1489885,80.5 58.9535782,79.6967462 58.9535782,78.7058824 C58.9535782,77.7150185 58.1489885,76.9117647 57.1564768,76.9117647 L42.7796652,76.9117647 C41.7871535,76.9117647 40.9825637,77.7150185 40.9825637,78.7058824 C40.9825637,79.6967462 41.7871535,80.5 42.7796652,80.5 Z M70.7437501,28.5156677 L66.9315223,32.321566 C66.2297105,33.0222125 66.2297105,34.158185 66.9315223,34.8588315 C67.633334,35.559478 68.7711957,35.559478 69.4730075,34.8588315 L73.2852354,31.0529332 C73.9870471,30.3522867 73.9870471,29.2163142 73.2852354,28.5156677 C72.5834236,27.8150212 71.4455619,27.8150212 70.7437501,28.5156677 Z M25.5981889,31.0529332 L29.4104168,34.8588315 C30.1122286,35.559478 31.2500903,35.559478 31.951902,34.8588315 C32.6537138,34.158185 32.6537138,33.0222125 31.951902,32.321566 L28.1396742,28.5156677 C27.4378624,27.8150212 26.3000007,27.8150212 25.5981889,28.5156677 C24.8963772,29.2163142 24.8963772,30.3522867 25.5981889,31.0529332 Z M79.2028986,49.5833466 L73.8115942,49.5833466 C72.8190825,49.5833466 72.0144928,50.3866004 72.0144928,51.3774642 C72.0144928,52.3683281 72.8190825,53.1715819 73.8115942,53.1715819 L79.2028986,53.1715819 C80.1954103,53.1715819 81,52.3683281 81,51.3774642 C81,50.3866004 80.1954103,49.5833466 79.2028986,49.5833466 Z M26.1884058,49.5833466 L20.7971014,49.5833466 C19.8045897,49.5833466 19,50.3866004 19,51.3774642 C19,52.3683281 19.8045897,53.1715819 20.7971014,53.1715819 L26.1884058,53.1715819 C27.1809175,53.1715819 27.9855072,52.3683281 27.9855072,51.3774642 C27.9855072,50.3866004 27.1809175,49.5833466 26.1884058,49.5833466 Z M48.1709695,21.2941176 L48.1709695,26.6764706 C48.1709695,27.6673344 48.9755593,28.4705882 49.968071,28.4705882 C50.9605827,28.4705882 51.7651724,27.6673344 51.7651724,26.6764706 L51.7651724,21.2941176 C51.7651724,20.3032538 50.9605827,19.5 49.968071,19.5 C48.9755593,19.5 48.1709695,20.3032538 48.1709695,21.2941176 Z"></path>
</svg>
