<?xml version="1.0" encoding="UTF-8" standalone="no"?>
<svg width="24" height="24" viewBox="0 0 24 24">
    <!-- Generator: Sketch 3.4.3 (16044) - http://www.bohemiancoding.com/sketch -->
    <title>calendar</title>
    <path d="M3.5,5 C3.22385763,5 3,5.22385763 3,5.5 L3,20.5 C3,20.7761424 3.22385763,21 3.5,21 L20.5,21 C20.7761424,21 21,20.7761424 21,20.5 L21,5.5 C21,5.22385763 20.7761424,5 20.5,5 L3.5,5 Z M3.5,4 L20.5,4 C21.3284271,4 22,4.67157288 22,5.5 L22,20.5 C22,21.3284271 21.3284271,22 20.5,22 L3.5,22 C2.67157288,22 2,21.3284271 2,20.5 L2,5.5 C2,4.67157288 2.67157288,4 3.5,4 Z M6,12 L8,12 L8,14 L6,14 L6,12 Z M11,12 L13,12 L13,14 L11,14 L11,12 Z M16,12 L18,12 L18,14 L16,14 L16,12 Z M6,16 L8,16 L8,18 L6,18 L6,16 Z M11,16 L13,16 L13,18 L11,18 L11,16 Z M16,16 L18,16 L18,18 L16,18 L16,16 Z M2,9 L2,8 L22,8 L22,9 L2,9 Z M16,2 L17,2 L17,7 L16,7 L16,2 Z M7,2 L8,2 L8,7 L7,7 L7,2 Z"></path>
</svg>
