<svg width="64" height="64" viewBox="0 0 1.92 1.92" fill="none" xmlns="http://www.w3.org/2000/svg">
  <path d="M.24.72h1.44M.72.24v1.44M.624.24h.672c.134 0 .202 0 .253.026a.24.24 0 0 1 .105.105c.026.051.026.119.026.253v.672c0 .134 0 .202-.026.253a.24.24 0 0 1-.105.105c-.051.026-.119.026-.253.026H.624c-.134 0-.202 0-.253-.026a.24.24 0 0 1-.105-.105C.24 1.498.24 1.43.24 1.296V.624C.24.49.24.422.266.371A.24.24 0 0 1 .371.266C.422.24.49.24.624.24Z" stroke="#fff" stroke-width=".1" stroke-linecap="round" stroke-linejoin="round"/>
  <path fill-rule="evenodd" d="M1.631 1.04a.36.36 0 0 1 .009.08h-.36V.76a.36.36 0 0 1 .351.28zm-.083 0A.28.28 0 0 0 1.36.852v.188h.188z" fill="#fff"/>
  <path fill-rule="evenodd" d="M.76 1.28A.36.36 0 0 1 1.2.929V1.2h.271a.36.36 0 1 1-.711.08Zm.632 0H1.12v-.272a.272.272 0 1 0 .272.272Z" fill="#fff"/>
</svg>
