<?xml version="1.0" encoding="UTF-8" standalone="no"?>
<svg width="70px" height="70px" viewBox="0 0 70 70" version="1.1" xmlns="http://www.w3.org/2000/svg" xmlns:xlink="http://www.w3.org/1999/xlink" xmlns:sketch="http://www.bohemiancoding.com/sketch/ns">
    <!-- Generator: Sketch 3.4.3 (16044) - http://www.bohemiancoding.com/sketch -->
    <title>checkbox-checked</title>
    <path d="M38.4684685,24.985045 L73.0630631,59.5796396 L67.6576577,65.1652252 L38.4684685,35.976036 L24.7747748,49.6697297 L19.3693694,44.2643243 L38.4684685,24.985045 Z M73.0630631,78.8589189 C75.2252252,78.8589189 77.0570571,78.0781381 78.5585586,76.5165766 C80.0600601,74.955015 80.8108108,73.1532132 80.8108108,71.1111712 L80.8108108,17.4174775 C80.8108108,15.3754354 80.0600601,13.5736336 78.5585586,12.0120721 C77.0570571,10.4505105 75.2252252,9.66972973 73.0630631,9.66972973 L19.3693694,9.66972973 C17.2072072,9.66972973 15.3753754,10.4505105 13.8738739,12.0120721 C12.3723724,13.5736336 11.6216216,15.3754354 11.6216216,17.4174775 L11.6216216,71.1111712 C11.6216216,73.1532132 12.3723724,74.955015 13.8738739,76.5165766 C15.3753754,78.0781381 17.2072072,78.8589189 19.3693694,78.8589189 L73.0630631,78.8589189 L73.0630631,78.8589189 Z" id="checkbox-checked" sketch:type="MSShapeGroup"></path>
</svg>
