<?xml version="1.0" encoding="UTF-8" standalone="no"?>
<svg width="100px" height="100px" viewBox="0 0 100 100" version="1.1" xmlns="http://www.w3.org/2000/svg" xmlns:xlink="http://www.w3.org/1999/xlink">
    <!-- Generator: Sketch 3.8.3 (29802) - http://www.bohemiancoding.com/sketch -->
    <title>checkbox-off</title>
    <path d="M27.5862069,25.7899577 L27.5862069,25.7899577 L27.5862069,74.2100423 C27.5862069,73.219861 26.7784545,72.4137931 25.7899577,72.4137931 L74.2100423,72.4137931 C73.219861,72.4137931 72.4137931,73.2215455 72.4137931,74.2100423 L72.4137931,25.7899577 C72.4137931,26.780139 73.2215455,27.5862069 74.2100423,27.5862069 L25.7899577,27.5862069 C26.780139,27.5862069 27.5862069,26.7784545 27.5862069,25.7899577 L27.5862069,25.7899577 Z M24,25.7899577 C24,24.8013914 24.7959874,24 25.7899577,24 L74.2100423,24 C75.1986086,24 76,24.7959874 76,25.7899577 L76,74.2100423 C76,75.1986086 75.2040126,76 74.2100423,76 L25.7899577,76 C24.8013914,76 24,75.2040126 24,74.2100423 L24,25.7899577 L24,25.7899577 Z"></path>
</svg>
