<?xml version="1.0" encoding="UTF-8" standalone="no"?>
<svg width="100px" height="100px" viewBox="0 0 100 100" version="1.1" xmlns="http://www.w3.org/2000/svg" xmlns:xlink="http://www.w3.org/1999/xlink">
    <!-- Generator: Sketch 3.8.3 (29802) - http://www.bohemiancoding.com/sketch -->
    <title>checkbox-checked</title>
    <path d="M5.31827515,92.0880903 C5.31827515,93.5201232 6.48008214,94.6817248 7.91190965,94.6817248 L92.0880903,94.6817248 C93.5201232,94.6817248 94.6817248,93.5199179 94.6817248,92.0880903 L94.6817248,7.91190965 C94.6817248,6.4798768 93.5199179,5.31827515 92.0880903,5.31827515 L7.91190965,5.31827515 C6.4798768,5.31827515 5.31827515,6.48008214 5.31827515,7.91190965 L5.31827515,92.0880903 L5.31827515,92.0880903 Z M0.0616016427,92.0880903 L0.0616016427,7.91190965 C0.0616016427,3.57700205 3.57659138,0.0616016427 7.91190965,0.0616016427 L92.0880903,0.0616016427 C96.4229979,0.0616016427 99.9383984,3.57659138 99.9383984,7.91190965 L99.9383984,92.0880903 C99.9383984,96.4229979 96.4234086,99.9383984 92.0880903,99.9383984 L7.91190965,99.9383984 C3.57700205,99.9383984 0.0616016427,96.4234086 0.0616016427,92.0880903 L0.0616016427,92.0880903 L0.0616016427,92.0880903 Z M23.7166324,81.5400411 L76.2833676,81.5400411 C79.1865503,81.5400411 81.5400411,79.1865503 81.5400411,76.2833676 L81.5400411,23.7166324 C81.5400411,20.8134497 79.1865503,18.4599589 76.2833676,18.4599589 L23.7166324,18.4599589 C20.8134497,18.4599589 18.4599589,20.8134497 18.4599589,23.7166324 L18.4599589,76.2833676 C18.4599589,79.1865503 20.8134497,81.5400411 23.7166324,81.5400411 L23.7166324,81.5400411 Z" id="checkbox-checked"></path>
</svg>
