<?xml version="1.0" encoding="utf-8"?>
<svg width="52px" height="52px" viewBox="0 0 52 52" version="1.1" xmlns:xlink="http://www.w3.org/1999/xlink" xmlns="http://www.w3.org/2000/svg">
  <g id="checkbox-indeterminate">
    <path d="M2.0066 0C0.902557 0 0 0.898385 0 2.0066L0 49.9934C0 51.0974 0.898385 52 2.0066 52L49.9934 52C51.0974 52 52 51.1016 52 49.9934L52 2.0066C52 0.902557 51.1016 0 49.9934 0L2.0066 0ZM4 3.99999L4 2.00659C4 3.11024 3.10897 3.99999 2.0066 3.99999L4 3.99999ZM48 3.99999L4 3.99999L4 48L2.0066 48C3.11025 48 4 48.891 4 49.9934L4 48L48 48L48 49.9934C48 48.8897 48.891 48 49.9934 48L48 48L48 3.99999ZM48 3.99999L49.9934 3.99999C48.8898 3.99999 48 3.10896 48 2.00659L48 3.99999ZM9.99971 8C8.88989 8 8 8.8953 8 9.99971L8 42.0003C8 43.1101 8.8953 44 9.99971 44L42.0003 44C43.1101 44 44 43.1047 44 42.0003L44 9.99971C44 8.88989 43.1047 8 42.0003 8L9.99971 8ZM40 21L13 21L13 31L40 31L40 21Z" id="Mask-Difference" fill-rule="evenodd" stroke="none" />
  </g>
</svg>