<?xml version="1.0" encoding="UTF-8" standalone="no"?>
<svg width="100px" height="100px" viewBox="0 0 100 100" version="1.1" xmlns="http://www.w3.org/2000/svg" xmlns:xlink="http://www.w3.org/1999/xlink" xmlns:sketch="http://www.bohemiancoding.com/sketch/ns">
    <!-- Generator: Sketch 3.4.3 (16044) - http://www.bohemiancoding.com/sketch -->
    <title>checkbox-on</title>
    <path d="M7.69230769,3.85884481 L7.69230769,3.85884481 L7.69230769,96.1411552 C7.69230769,94.021209 5.98124846,92.3076923 3.85884481,92.3076923 L96.1411552,92.3076923 C94.021209,92.3076923 92.3076923,94.0187515 92.3076923,96.1411552 L92.3076923,3.85884481 C92.3076923,5.97879096 94.0187515,7.69230769 96.1411552,7.69230769 L3.85884481,7.69230769 C5.97879096,7.69230769 7.69230769,5.98124846 7.69230769,3.85884481 L7.69230769,3.85884481 L7.69230769,3.85884481 L7.69230769,3.85884481 Z M0,3.85884481 C0,1.72766365 1.73568731,0 3.85884481,0 L96.1411552,0 C98.2723363,0 100,1.73568731 100,3.85884481 L100,96.1411552 C100,98.2723363 98.2643127,100 96.1411552,100 L3.85884481,100 C1.72766365,100 0,98.2643127 0,96.1411552 L0,3.85884481 L0,3.85884481 L0,3.85884481 L0,3.85884481 Z M15.3846154,19.2302063 C15.3846154,17.106345 17.0959473,15.3846154 19.2302063,15.3846154 L80.7697937,15.3846154 C82.893655,15.3846154 84.6153846,17.0959473 84.6153846,19.2302063 L84.6153846,80.7697937 C84.6153846,82.893655 82.9040527,84.6153846 80.7697937,84.6153846 L19.2302063,84.6153846 C17.106345,84.6153846 15.3846154,82.9040527 15.3846154,80.7697937 L15.3846154,19.2302063 L15.3846154,19.2302063 Z" id="Shape" sketch:type="MSShapeGroup"></path>
</svg>
