<?xml version="1.0" encoding="UTF-8" standalone="no"?>
<svg width="89px" height="88px" viewBox="0 0 89 88" version="1.1" xmlns="http://www.w3.org/2000/svg" xmlns:xlink="http://www.w3.org/1999/xlink" xmlns:sketch="http://www.bohemiancoding.com/sketch/ns">
    <!-- Generator: Sketch 3.4.3 (16044) - http://www.bohemiancoding.com/sketch -->
    <title>checkbox-off</title>
    <path d="M7.00900901,85.0394595 C7.00900901,86.296036 8.02846847,87.3153153 9.28486486,87.3153153 L83.1475676,87.3153153 C84.4041441,87.3153153 85.4234234,86.2958559 85.4234234,85.0394595 L85.4234234,11.1767568 C85.4234234,9.92018018 84.403964,8.9009009 83.1475676,8.9009009 L9.28486486,8.9009009 C8.02828829,8.9009009 7.00900901,9.92036036 7.00900901,11.1767568 L7.00900901,85.0394595 L7.00900901,85.0394595 Z M2.3963964,85.0394595 L2.3963964,11.1767568 C2.3963964,7.37297297 5.48072072,4.28828829 9.28486486,4.28828829 L83.1475676,4.28828829 C86.9513514,4.28828829 90.036036,7.37261261 90.036036,11.1767568 L90.036036,85.0394595 C90.036036,88.8432432 86.9517117,91.9279279 83.1475676,91.9279279 L9.28486486,91.9279279 C5.48108108,91.9279279 2.3963964,88.8436036 2.3963964,85.0394595 L2.3963964,85.0394595 L2.3963964,85.0394595 Z" id="checkbox-off" sketch:type="MSShapeGroup"></path>
</svg>
