<?xml version="1.0" encoding="UTF-8" standalone="no"?>
<svg width="100px" height="100px" viewBox="0 0 100 100" version="1.1" xmlns="http://www.w3.org/2000/svg" xmlns:xlink="http://www.w3.org/1999/xlink" xmlns:sketch="http://www.bohemiancoding.com/sketch/ns">
    <!-- Generator: Sketch 3.4.3 (16044) - http://www.bohemiancoding.com/sketch -->
    <title>checkbox-on</title>
    <path d="M28,26.0065993 L28,26.0065993 L28,73.9934007 C28,72.8910287 27.1102492,72 26.0065993,72 L73.9934007,72 C72.8910287,72 72,72.8897508 72,73.9934007 L72,26.0065993 C72,27.1089713 72.8897508,28 73.9934007,28 L26.0065993,28 C27.1089713,28 28,27.1102492 28,26.0065993 L28,26.0065993 L28,26.0065993 Z M24,26.0065993 C24,24.8983851 24.9025574,24 26.0065993,24 L73.9934007,24 C75.1016149,24 76,24.9025574 76,26.0065993 L76,73.9934007 C76,75.1016149 75.0974426,76 73.9934007,76 L26.0065993,76 C24.8983851,76 24,75.0974426 24,73.9934007 L24,26.0065993 L24,26.0065993 L24,26.0065993 Z M32,33.9997073 C32,32.8952994 32.8898926,32 33.9997073,32 L66.0002927,32 C67.1047006,32 68,32.8898926 68,33.9997073 L68,66.0002927 C68,67.1047006 67.1101074,68 66.0002927,68 L33.9997073,68 C32.8952994,68 32,67.1101074 32,66.0002927 L32,33.9997073 Z" id="Combined-Shape"></path>
</svg>
