<?xml version="1.0" encoding="UTF-8" standalone="no"?>
<svg width="100px" height="100px" viewBox="0 0 100 100" version="1.1" xmlns="http://www.w3.org/2000/svg" xmlns:xlink="http://www.w3.org/1999/xlink">
    <!-- Generator: Sketch 3.8.3 (29802) - http://www.bohemiancoding.com/sketch -->
    <title>checkbox-off</title>
    <path d="M28,26.0065993 L28,26.0065993 L28,73.9934007 C28,72.8910287 27.1102492,72 26.0065993,72 L73.9934007,72 C72.8910287,72 72,72.8897508 72,73.9934007 L72,26.0065993 C72,27.1089713 72.8897508,28 73.9934007,28 L26.0065993,28 C27.1089713,28 28,27.1102492 28,26.0065993 L28,26.0065993 L28,26.0065993 Z M24,26.0065993 C24,24.8983851 24.9025574,24 26.0065993,24 L73.9934007,24 C75.1016149,24 76,24.9025574 76,26.0065993 L76,73.9934007 C76,75.1016149 75.0974426,76 73.9934007,76 L26.0065993,76 C24.8983851,76 24,75.0974426 24,73.9934007 L24,26.0065993 L24,26.0065993 L24,26.0065993 Z" id="Combined-Shape"></path>
</svg>
