<?xml version="1.0" encoding="UTF-8"?>
<svg width="20px" height="20px" viewBox="0 0 20 20" version="1.1" xmlns="http://www.w3.org/2000/svg" xmlns:xlink="http://www.w3.org/1999/xlink">
    <!-- Generator: Sketch 54.1 (76490) - https://sketchapp.com -->
    <title>close</title>
    <path d="M11.4142136,10 L14.2426407,12.8284271 C14.633165,13.2189514 14.633165,13.8521164 14.2426407,14.2426407 C13.8521164,14.633165 13.2189514,14.633165 12.8284271,14.2426407 L10,11.4142136 L7.17157288,14.2426407 C6.78104858,14.633165 6.1478836,14.633165 5.75735931,14.2426407 C5.36683502,13.8521164 5.36683502,13.2189514 5.75735931,12.8284271 L8.58578644,10 L5.75735931,7.17157288 C5.36683502,6.78104858 5.36683502,6.1478836 5.75735931,5.75735931 C6.1478836,5.36683502 6.78104858,5.36683502 7.17157288,5.75735931 L10,8.58578644 L12.8284271,5.75735931 C13.2189514,5.36683502 13.8521164,5.36683502 14.2426407,5.75735931 C14.633165,6.1478836 14.633165,6.78104858 14.2426407,7.17157288 L11.4142136,10 Z"></path>
</svg>