<?xml version="1.0" encoding="UTF-8" standalone="no"?>
<svg width="14" height="14" xmlns="http://www.w3.org/2000/svg">
  <g fill-rule="evenodd">
    <path d="M7.765 5.844L1.97.318c-.43-.424-1.2-.424-1.637 0a1.073 1.073 0 000 1.556L5.31 6.622.334 11.37a1.073 1.073 0 000 1.556c.219.213.51.328.827.328.308 0 .6-.115.81-.328L7.765 7.4a1.063 1.063 0 000-1.556"/>
    <path d="M6.235 5.844L12.03.318c.43-.424 1.2-.424 1.637 0a1.073 1.073 0 010 1.556L8.69 6.622l4.976 4.748a1.073 1.073 0 010 1.556c-.219.213-.51.328-.827.328-.308 0-.6-.115-.81-.328L6.235 7.4a1.063 1.063 0 010-1.556"/>
  </g>
</svg>
