<?xml version="1.0" encoding="UTF-8" standalone="no"?>
<svg width="100px" height="100px" viewBox="0 0 100 100" version="1.1" xmlns="http://www.w3.org/2000/svg" xmlns:xlink="http://www.w3.org/1999/xlink">
    <!-- Generator: Sketch 3.8.3 (29802) - http://www.bohemiancoding.com/sketch -->
    <title>close</title>
    <path d="M24.5370052,75.4629948 C24.8950086,75.8209983 25.3425129,76 25.8347676,76 C26.3270224,76 26.7745267,75.8209983 27.1325301,75.4629948 L50,52.595525 L72.8674699,75.4629948 C73.2254733,75.8209983 73.6729776,76 74.1652324,76 C74.6127367,76 75.1049914,75.8209983 75.4629948,75.4629948 C76.1790017,74.746988 76.1790017,73.5834768 75.4629948,72.8674699 L52.595525,50 L75.4629948,27.1325301 C76.1790017,26.4165232 76.1790017,25.253012 75.4629948,24.5370052 C74.746988,23.8209983 73.5834768,23.8209983 72.8674699,24.5370052 L50,47.404475 L27.1325301,24.5370052 C26.4165232,23.8209983 25.253012,23.8209983 24.5370052,24.5370052 C23.8209983,25.253012 23.8209983,26.4165232 24.5370052,27.1325301 L47.404475,50 L24.5370052,72.8674699 C23.8209983,73.5834768 23.8209983,74.746988 24.5370052,75.4629948 L24.5370052,75.4629948 Z"></path>
</svg>
