<?xml version="1.0" encoding="UTF-8" standalone="no"?>
<svg width="30px" height="53px" viewBox="0 0 30 53" version="1.1" xmlns="http://www.w3.org/2000/svg" xmlns:xlink="http://www.w3.org/1999/xlink" xmlns:sketch="http://www.bohemiancoding.com/sketch/ns">
    <!-- Generator: Sketch 3.4.3 (16044) - http://www.bohemiancoding.com/sketch -->
    <title>closed</title>
    <path d="M29.7426126,45.3625225 C29.7426126,44.4702102 29.4165766,43.698018 28.7645045,43.0459459 L5.70144144,19.9828829 C5.04936937,19.3308108 4.27717718,19.0047748 3.38486486,19.0047748 C2.49255255,19.0047748 1.72036036,19.3308108 1.06828829,19.9828829 C0.416216216,20.634955 0.0901801802,21.4071471 0.0901801802,22.2994595 L0.0901801802,68.4255856 C0.0901801802,69.3178979 0.416216216,70.0900901 1.06828829,70.7421622 C1.72036036,71.3942342 2.49255255,71.7202703 3.38486486,71.7202703 C4.27717718,71.7202703 5.04936937,71.3942342 5.70144144,70.7421622 L28.7645045,47.6790991 C29.4165766,47.027027 29.7426126,46.2548348 29.7426126,45.3625225 L29.7426126,45.3625225 Z" id="closed" sketch:type="MSShapeGroup"></path>
</svg>
