<?xml version="1.0" encoding="UTF-8" standalone="no"?>
<svg width="10px" height="10px" viewBox="0 0 10 10" version="1.1" xmlns="http://www.w3.org/2000/svg" xmlns:xlink="http://www.w3.org/1999/xlink">
    <!-- Generator: Sketch 43.2 (39069) - http://www.bohemiancoding.com/sketch -->
    <title>path-1</title>
    <desc>Created with Sketch.</desc>
            <path d="M6.4142136,5 L9.2426407,7.8284271 C9.633165,8.2189514 9.633165,8.8521164 9.2426407,9.2426407 C8.8521164,9.633165 8.2189514,9.633165 7.8284271,9.2426407 L5,6.4142136 L2.17157288,9.2426407 C1.78104858,9.633165 1.1478836,9.633165 0.75735931,9.2426407 C0.36683502,8.8521164 0.36683502,8.2189514 0.75735931,7.8284271 L3.58578644,5 L0.75735931,2.17157288 C0.36683502,1.78104858 0.36683502,1.1478836 0.75735931,0.75735931 C1.1478836,0.36683502 1.78104858,0.36683502 2.17157288,0.75735931 L5,3.58578644 L7.8284271,0.75735931 C8.2189514,0.36683502 8.8521164,0.36683502 9.2426407,0.75735931 C9.633165,1.1478836 9.633165,1.78104858 9.2426407,2.17157288 L6.4142136,5 Z" id="path-1"></path>
</svg>
