<?xml version="1.0" encoding="UTF-8" standalone="no"?>
<svg width="20" height="20" viewBox="0 0 20 20" xmlns="http://www.w3.org/2000/svg">
<path d="M10.5893 4.41058C10.2638 4.08514 9.73618 4.08514 9.41074 4.41058L5.24408 8.57725C4.91864 8.90268 4.91864 9.43032 5.24408 9.75576C5.56951 10.0812 6.09715 10.0812 6.42259 9.75576L10 6.17835L13.5774 9.75576C13.9028 10.0812 14.4305 10.0812 14.7559 9.75576C15.0814 9.43032 15.0814 8.90268 14.7559 8.57725L10.5893 4.41058Z"/>
<path d="M14.7559 14.4106L10.5893 10.2439C10.2638 9.91848 9.73618 9.91848 9.41074 10.2439L5.24408 14.4106C4.91864 14.736 4.91864 15.2637 5.24408 15.5891C5.56951 15.9145 6.09715 15.9145 6.42259 15.5891L10 12.0117L13.5774 15.5891C13.9028 15.9145 14.4305 15.9145 14.7559 15.5891C15.0814 15.2637 15.0814 14.736 14.7559 14.4106Z"/>
</svg>
