<svg xmlns="http://www.w3.org/2000/svg" width="64" height="64">
    <g fill-rule="evenodd">
        <path fill="#fff" d="M32 64C14.327 64 0 49.673 0 32S14.327 0 32 0s32 14.327 32 32-14.327 32-32 32m0-14c-9.941 0-18-8.059-18-18s8.059-18 18-18 18 8.059 18 18-8.059 18-18 18"/>
        <circle cx="49" cy="16" r="1"/>
        <circle cx="51" cy="48" r="1"/>
        <circle cx="13" cy="48" r="1"/>
        <circle cx="13" cy="16" r="1"/>
        <path fill-rule="nonzero" d="M31.35 9V6.984q0-.366-.055-1.224h.026L33.185 9h1.154V4.717h-.818v2.027q0 .346.044 1.18h-.02l-1.86-3.207h-1.146V9z"/>
        <path stroke="#3e4553" stroke-linecap="round" d="M32 55v4m23-27h4M5 32h4"/>
    </g>
</svg>
