<?xml version="1.0" encoding="UTF-8"?>
<svg width="18px" height="14px" viewBox="0 0 18 14" version="1.1" xmlns="http://www.w3.org/2000/svg" xmlns:xlink="http://www.w3.org/1999/xlink">
    <!-- Generator: Sketch 63.1 (92452) - https://sketch.com -->
    <title>compare</title>
    <desc>Created with Sketch.</desc>
    <g id="Symbols" stroke="none" stroke-width="1" fill="none" fill-rule="evenodd">
        <g id="Assets/UI/Compare/Hover/Open" transform="translate(-10.000000, -9.000000)" fill="#4D5766">
            <g id="Group-28">
                <path d="M26.3636364,9.5 C27.2636364,9.5 28,10.223125 28,11.125 L28,11.125 L27.9918182,20.875 C27.9918182,21.76875 27.2636364,22.5 26.3636364,22.5 L26.3636364,22.5 L11.6363636,22.5 C10.7281818,22.5 10,21.76875 10,20.875 L10,20.875 L10,11.125 C10,10.223125 10.7281818,9.5 11.6363636,9.5 L11.6363636,9.5 Z M18.181,11.125 L11.6363636,11.125 L11.6363636,20.875 L18.181,20.875 L18.1809662,18.2985024 C17.2764339,17.9806413 16.6154399,17.1511486 16.5506755,16.1602663 L16.5454545,16 C16.5454545,14.9390134 17.2280721,14.0363535 18.1809662,13.7014976 L18.181,11.125 Z M26.3636364,11.125 L19.818,11.125 L19.8190338,13.7014976 C20.7235661,14.0193587 21.3845601,14.8488514 21.4493245,15.8397337 L21.4545455,16 C21.4545455,17.0609866 20.7719279,17.9636465 19.8190338,18.2985024 L19.818,20.875 L26.3636364,20.875 L26.3636364,11.125 Z" id="compare"></path>
            </g>
        </g>
    </g>
</svg>