<svg xmlns="http://www.w3.org/2000/svg" width="26" height="26">
    <g fill-rule="evenodd" transform="translate(-2 -2)">
        <circle cx="15" cy="15" r="13" fill-rule="nonzero"/>
        <g fill="none" stroke="#6b7280" transform="rotate(-45 19.743 5.964)">
            <circle cx="10" cy="9" r="8.5"/>
            <path d="M10 .5c-.21 0-.374.212-.54.46-.284.422-.533 1.043-.746 1.81C8.271 4.364 8 6.567 8 9s.271 4.636.714 6.23c.213.767.462 1.388.745 1.81.167.248.33.46.541.46.21 0 .374-.212.54-.46.284-.422.533-1.043.746-1.81.443-1.594.714-3.797.714-6.23s-.271-4.636-.714-6.23c-.213-.767-.462-1.388-.745-1.81C10.374.712 10.21.5 10 .5z"/>
            <path d="M10 7c-2.433 0-4.636.271-6.23.714-.767.213-1.388.462-1.81.745-.248.167-.46.33-.46.541 0 .21.212.374.46.54.422.284 1.043.533 1.81.746C5.364 10.729 7.567 11 10 11s4.636-.271 6.23-.714c.767-.213 1.388-.462 1.81-.745.248-.167.46-.33.46-.541 0-.21-.212-.374-.46-.54-.422-.284-1.043-.533-1.81-.746C14.636 7.271 12.433 7 10 7z"/>
        </g>
        <path fill="#6b7280" fill-rule="nonzero" d="m6.515 23.485.707-2.121 1.414 1.414zm16.97-16.97-2.121.707 1.414 1.414z"/>
        <path stroke="#6b7280" stroke-linecap="round" d="m7.929 22.071.707-.707M21.364 8.636l.707-.707"/>
    </g>
</svg>
