<svg width="64" height="64" xmlns="http://www.w3.org/2000/svg">
  <g fill-rule="evenodd">
    <path d="M32 64C14.327 64 0 49.673 0 32 0 14.327 14.327 0 32 0c17.673 0 32 14.327 32 32 0 17.673-14.327 32-32 32zm0-14c-9.941 0-18-8.059-18-18s8.059-18 18-18 18 8.059 18 18-8.059 18-18 18z" fill="#FFF"/>
    <circle cx="49" cy="16" r="1"/>
    <circle cx="51" cy="48" r="1"/>
    <circle cx="13" cy="48" r="1"/>
    <circle cx="13" cy="16" r="1"/>
    <path d="M31.35 9V6.984c0-.244-.018-.652-.055-1.224h.026L33.185 9h1.154V4.717h-.818v2.027c0 .23.015.624.044 1.18h-.02l-1.86-3.207h-1.146V9h.812z" fill-rule="nonzero"/>
    <path stroke="#3E4553" stroke-linecap="round" d="M32 55v4M55 32h4M5 32h4"/>
  </g>
</svg>
