<?xml version="1.0" encoding="UTF-8"?>
<svg width="26px" height="28px" viewBox="0 0 26 28" version="1.1" xmlns="http://www.w3.org/2000/svg" xmlns:xlink="http://www.w3.org/1999/xlink">
    <!-- Generator: Sketch 63.1 (92452) - https://sketch.com -->
    <title>date-picker-icon</title>
    <desc>Created with Sketch.</desc>
    <g id="date-picker-icon" stroke="none" stroke-width="1" fill-rule="evenodd">
        <path d="M8.66666667,12.05 L5.77777778,12.05 L5.77777778,14.95 L8.66666667,14.95 L8.66666667,12.05 L8.66666667,12.05 Z M14.4444444,12.05 L11.5555556,12.05 L11.5555556,14.95 L14.4444444,14.95 L14.4444444,12.05 L14.4444444,12.05 Z M20.2222222,12.05 L17.3333333,12.05 L17.3333333,14.95 L20.2222222,14.95 L20.2222222,12.05 L20.2222222,12.05 Z M22,3 L22,2.10942375e-14 L19,2.10942375e-14 L19,3 L7,3 L7,2.10942375e-14 L4,2.10942375e-14 L4,3 C4,3 -0.132650348,2.44570215 0.0144444444,5.8 L0,25.1 C0,26.695 1.28555556,28 2.88888889,28 L23.1111111,28 C24.7,28 26,26.695 26,25.1 L26,5.8 C26,3 22,3 22,3 Z M23.1111111,25.1 L2.88888889,25.1 L2.88888889,9.15 L23.1111111,9.15 L23.1111111,25.1 L23.1111111,25.1 Z" id="Shape"></path>
    </g>
</svg>