<svg width="20" height="20" viewBox="0 0 20 20" fill="none" xmlns="http://www.w3.org/2000/svg">
<g id="dismiss-small-20">
<path id="Path" fill-rule="evenodd" clip-rule="evenodd" d="M11.4142 10L14.2427 12.8284C14.6332 13.219 14.6332 13.8521 14.2427 14.2427C13.8521 14.6332 13.219 14.6332 12.8284 14.2427L10 11.4142L7.17158 14.2427C6.78106 14.6332 6.1479 14.6332 5.75737 14.2427C5.36685 13.8521 5.36685 13.219 5.75737 12.8284L8.5858 10L5.75737 7.17158C5.36685 6.78106 5.36685 6.1479 5.75737 5.75737C6.1479 5.36685 6.78106 5.36685 7.17158 5.75737L10 8.5858L12.8284 5.75737C13.219 5.36685 13.8521 5.36685 14.2427 5.75737C14.6332 6.1479 14.6332 6.78106 14.2427 7.17158L11.4142 10Z" fill="#111827"/>
</g>
</svg>
