<?xml version="1.0" encoding="UTF-8" standalone="no"?>
<svg width="20" height="20" viewBox="0 0 20 20" xmlns="http://www.w3.org/2000/svg">
<path fill-rule="evenodd" clip-rule="evenodd" d="M9.99985 6.66667C8.1589 6.66667 6.66652 8.15905 6.66652 10C6.66652 11.8409 8.1589 13.3333 9.99985 13.3333C11.8408 13.3333 13.3332 11.8409 13.3332 10C13.3332 8.15905 11.8408 6.66667 9.99985 6.66667ZM8.33319 10C8.33319 9.07953 9.07938 8.33333 9.99985 8.33333C10.9203 8.33333 11.6665 9.07953 11.6665 10C11.6665 10.9205 10.9203 11.6667 9.99985 11.6667C9.07938 11.6667 8.33319 10.9205 8.33319 10Z" fill="#9CA3AF"/>
<path fill-rule="evenodd" clip-rule="evenodd" d="M19.9116 9.62673C19.9117 9.62704 19.9119 9.62732 19.1665 10C19.9119 10.3727 19.9117 10.373 19.9116 10.3733L19.9102 10.3759L19.9074 10.3816L19.8979 10.4001C19.89 10.4156 19.8787 10.4372 19.8642 10.4646C19.8352 10.5194 19.7932 10.5973 19.7382 10.695C19.6284 10.8903 19.4666 11.1654 19.2546 11.4938C18.8315 12.1489 18.2025 13.0245 17.3786 13.9033C15.7461 15.6446 13.2494 17.5 9.99985 17.5C6.75026 17.5 4.25359 15.6446 2.62107 13.9033C1.79722 13.0245 1.16824 12.1489 0.745133 11.4938C0.533062 11.1654 0.371347 10.8903 0.261496 10.695C0.20654 10.5973 0.16447 10.5194 0.135481 10.4646C0.120984 10.4372 0.109749 10.4156 0.101802 10.4001L0.0923451 10.3816L0.0894692 10.3759L0.0884952 10.374C0.088342 10.3737 0.0878308 10.3727 0.833187 10C0.0878308 9.62732 0.0879711 9.62704 0.0881242 9.62673L0.0894692 9.62406L0.0923451 9.61837L0.101802 9.59985C0.109749 9.58439 0.120984 9.56276 0.135481 9.53537C0.16447 9.48058 0.20654 9.40269 0.261496 9.30499C0.371347 9.1097 0.533062 8.8346 0.745133 8.50623C1.16824 7.85109 1.79722 6.9755 2.62107 6.09672C4.25359 4.35537 6.75026 2.5 9.99985 2.5C13.2494 2.5 15.7461 4.35537 17.3786 6.09672C18.2025 6.9755 18.8315 7.85109 19.2546 8.50623C19.4666 8.8346 19.6284 9.1097 19.7382 9.30499C19.7932 9.40269 19.8352 9.48058 19.8642 9.53537C19.8787 9.56276 19.89 9.58439 19.8979 9.59985L19.9074 9.61837L19.9102 9.62406L19.9116 9.62673ZM2.1452 10.5896C1.99562 10.358 1.87488 10.1574 1.7838 10C1.87488 9.84261 1.99562 9.64204 2.1452 9.41044C2.52938 8.81557 3.09832 8.0245 3.83697 7.23662C5.32945 5.64463 7.41611 4.16667 9.99985 4.16667C12.5836 4.16667 14.6703 5.64463 16.1627 7.23662C16.9014 8.0245 17.4703 8.81557 17.8545 9.41044C18.0041 9.64204 18.1248 9.84261 18.2159 10C18.1248 10.1574 18.0041 10.358 17.8545 10.5896C17.4703 11.1844 16.9014 11.9755 16.1627 12.7634C14.6703 14.3554 12.5836 15.8333 9.99985 15.8333C7.41611 15.8333 5.32945 14.3554 3.83697 12.7634C3.09832 11.9755 2.52938 11.1844 2.1452 10.5896Z" />
<path d="M19.1665 10L19.9116 9.62673C20.0289 9.86134 20.0289 10.1387 19.9116 10.3733L19.1665 10Z" fill="#9CA3AF"/>
<path d="M0.0881242 9.62673L0.833187 10L0.0878308 10.3727C-0.0294724 10.1381 -0.0291789 9.86134 0.0881242 9.62673Z" fill="#9CA3AF"/>
</svg>
