<?xml version="1.0" encoding="UTF-8" standalone="no"?>
<svg width="100px" height="100px" viewBox="0 0 100 100" version="1.1" xmlns="http://www.w3.org/2000/svg" xmlns:xlink="http://www.w3.org/1999/xlink">
    <!-- Generator: Sketch 3.8.3 (29802) - http://www.bohemiancoding.com/sketch -->
    <title>expand</title>
    <path d="M54.2959938,47.1570137 C54.5641094,47.2462655 54.787539,47.2908915 55.0109687,47.2908915 L74.6678768,47.2908915 C75.6956532,47.2908915 76.5,46.4876246 76.5,45.4612281 C76.5,44.4348316 75.6956532,43.6315647 74.6678768,43.6315647 L59.434876,43.6315647 L75.3760819,27.7105756 C76.0910568,26.9965606 76.0910568,25.8362863 75.3760819,25.1222713 C75.0185945,24.7652638 74.5717351,24.5867601 74.0801899,24.5867601 C73.6333306,24.5867601 73.1417853,24.7652638 72.7842979,25.1222713 L56.8430919,41.0432604 L56.8430919,25.8296634 C56.8430919,24.8032668 56.0387451,24 55.0109687,24 C53.9831923,24 53.1788455,24.8032668 53.1788455,25.8296634 L53.1788455,45.4612281 C53.1341595,45.6843578 53.2235314,45.9074875 53.2682173,46.1306171 C53.491647,46.5768765 53.8491345,46.933884 54.2959938,47.1570137 Z M46.2040062,53.3429863 C45.9358906,53.2537345 45.712461,53.2091085 45.4890313,53.2091085 L25.8321232,53.2091085 C24.8043468,53.2091085 24,54.0123754 24,55.0387719 C24,56.0651684 24.8043468,56.8684353 25.8321232,56.8684353 L41.065124,56.8684353 L25.1239181,72.7894244 C24.4089432,73.5034394 24.4089432,74.6637137 25.1239181,75.3777287 C25.4814055,75.7347362 25.9282649,75.9132399 26.4198101,75.9132399 C26.8666694,75.9132399 27.3582147,75.7347362 27.7157021,75.3777287 L43.6569081,59.4567396 L43.6569081,74.6703366 C43.6569081,75.6967332 44.4612549,76.5 45.4890313,76.5 C46.5168077,76.5 47.3211545,75.6967332 47.3211545,74.6703366 L47.3211545,55.0387719 C47.3658405,54.8156422 47.2764686,54.5925125 47.2317827,54.3693829 C47.008353,53.9231235 46.6508655,53.566116 46.2040062,53.3429863 Z" id="shrink"></path>
</svg>
