<?xml version="1.0" encoding="UTF-8" standalone="no"?>
<svg width="52px" height="52px" viewBox="0 0 52 52" version="1.1" xmlns="http://www.w3.org/2000/svg" xmlns:xlink="http://www.w3.org/1999/xlink" xmlns:sketch="http://www.bohemiancoding.com/sketch/ns">
    <!-- Generator: Sketch 3.4.3 (16044) - http://www.bohemiancoding.com/sketch -->
    <title>expand</title>
    <path d="M29.7243713,22.7200889 C29.9874281,22.8076567 30.206642,22.8514407 30.4258561,22.8514407 L49.7118791,22.8514407 C50.7202635,22.8514407 51.509434,22.0633298 51.509434,21.0562993 C51.509434,20.0492687 50.7202635,19.2611578 49.7118791,19.2611578 L34.7662934,19.2611578 L50.4067219,3.64056474 C51.1082067,2.94002172 51.1082067,1.80163939 50.4067219,1.10109637 C50.0559795,0.75082486 49.6175514,0.575689155 49.1352807,0.575689155 C48.6968527,0.575689155 48.2145818,0.75082486 47.8638394,1.10109637 L32.2234109,16.7216894 L32.2234109,1.79514145 C32.2234109,0.788110823 31.4342405,0 30.4258561,0 C29.4174717,0 28.6283012,0.788110823 28.6283012,1.79514145 L28.6283012,21.0562993 C28.5844584,21.275219 28.672144,21.4941387 28.7159868,21.7130583 C28.9352008,22.1508977 29.2859433,22.5011692 29.7243713,22.7200889 L29.7243713,22.7200889 Z M21.7850627,28.789345 C21.5220059,28.7017772 21.3027919,28.6579932 21.0835779,28.6579932 L1.79755484,28.6579932 C0.789170445,28.6579932 0,29.4461042 0,30.4531347 C0,31.4601652 0.789170445,32.2482761 1.79755484,32.2482761 L16.7431405,32.2482761 L1.1027121,47.8688692 C0.401227291,48.5694122 0.401227291,49.7077946 1.1027121,50.4083376 C1.45345445,50.7586091 1.89188254,50.9337448 2.37415331,50.9337448 C2.8125813,50.9337448 3.29485216,50.7586091 3.64559451,50.4083376 L19.286023,34.7877445 L19.286023,49.7142925 C19.286023,50.7213231 20.0751935,51.509434 21.0835779,51.509434 C22.0919623,51.509434 22.8811327,50.7213231 22.8811327,49.7142925 L22.8811327,30.4531347 C22.9249756,30.234215 22.8372899,30.0152953 22.7934472,29.7963757 C22.5742331,29.3585363 22.2234907,29.0082648 21.7850627,28.789345 L21.7850627,28.789345 Z" id="shrink" sketch:type="MSShapeGroup"></path>
</svg>
