<?xml version="1.0" encoding="UTF-8" standalone="no"?>
<svg width="66px" height="66px" viewBox="0 0 66 66" version="1.1" xmlns="http://www.w3.org/2000/svg" xmlns:xlink="http://www.w3.org/1999/xlink" xmlns:sketch="http://www.bohemiancoding.com/sketch/ns">
    <!-- Generator: Sketch 3.4.3 (16044) - http://www.bohemiancoding.com/sketch -->
    <title>expand</title>
    <path d="M27.9844144,28.3946847 L44.6725225,44.9879279 C46.0918919,46.3991892 46.0983784,48.693964 44.6871171,50.1133333 C43.2758559,51.5327027 40.9810811,51.5391892 39.5617117,50.1279279 L22.8236036,33.484955 L22.8236036,43.9897297 C22.8236036,45.9913514 21.200991,47.613964 19.1993694,47.613964 C17.1977477,47.613964 15.5751351,45.9913514 15.5751351,43.9897297 L15.5751351,25.5004505 C15.5751351,23.1007207 17.5281982,21.1463063 19.9334234,21.1463063 L38.5283784,21.1463063 C40.53,21.1463063 42.1526126,22.7689189 42.1526126,24.7705405 C42.1526126,26.7721622 40.53,28.3947748 38.5283784,28.3947748 L27.9843243,28.3947748 L27.9844144,28.3946847 Z M68.4016216,78.803964 L51.7135135,62.2107207 C50.2941441,60.7994595 50.2876577,58.5046847 51.6989189,57.0853153 C53.1101802,55.6659459 55.404955,55.6594595 56.8243243,57.0707207 L73.5624324,73.7136937 L73.5624324,63.2089189 C73.5624324,61.2072973 75.185045,59.5846847 77.1866667,59.5846847 C79.1882883,59.5846847 80.8109009,61.2072973 80.8109009,63.2089189 L80.8109009,81.6981982 C80.8109009,84.0979279 78.8578378,86.0523423 76.4526126,86.0523423 L57.8576577,86.0523423 C55.856036,86.0523423 54.2334234,84.4297297 54.2334234,82.4281081 C54.2334234,80.4264865 55.856036,78.8038739 57.8576577,78.8038739 L68.4017117,78.8038739 L68.4016216,78.803964 Z" id="expand" sketch:type="MSShapeGroup"></path>
</svg>
