<?xml version="1.0" encoding="UTF-8" standalone="no"?>
<svg width="16px" height="16px" viewBox="0 0 16 16" version="1.1" xmlns="http://www.w3.org/2000/svg" xmlns:xlink="http://www.w3.org/1999/xlink">
    <!-- Generator: Sketch 43.2 (39069) - http://www.bohemiancoding.com/sketch -->
    <title>Mask</title>
    <desc>Created with Sketch.</desc>
    <defs></defs>
    <g id="Page-1" stroke="none" stroke-width="1" fill-rule="evenodd">
        <g id="external-20" fill-rule="nonzero">
            <g id="Mask">
                <path d="M12.4659351,2 L10,2 C9.4477153,2 9,1.55228475 9,1 C9,0.44771525 9.4477153,0 10,0 L15,0 C15.5522847,0 16,0.44771525 16,1 L16,6 C16,6.55228475 15.5522847,7 15,7 C14.4477153,7 14,6.55228475 14,6 L14,3.29436222 L8.7071068,8.5872554 C8.3165825,8.9777797 7.68341751,8.9777797 7.29289322,8.5872554 C6.90236893,8.1967311 6.90236893,7.56356617 7.29289322,7.17304188 L12.4659351,2 Z M14,11 C14,10.4477153 14.4477153,10 15,10 C15.5522847,10 16,10.4477153 16,11 L16,15 C16,15.5522847 15.5522847,16 15,16 L1,16 C0.44771525,16 0,15.5522847 0,15 L0,1 C0,0.44771525 0.44771525,0 1,0 L5,0 C5.55228475,0 6,0.44771525 6,1 C6,1.55228475 5.55228475,2 5,2 L2,2 L2,14 L14,14 L14,11 Z" id="path-1"></path>
            </g>
        </g>
    </g>
</svg>
