<?xml version="1.0" encoding="UTF-8" standalone="no"?>
<svg width="50px" height="33px" viewBox="0 0 50 33" version="1.1" xmlns="http://www.w3.org/2000/svg" xmlns:xlink="http://www.w3.org/1999/xlink" xmlns:sketch="http://www.bohemiancoding.com/sketch/ns">
    <!-- Generator: Sketch 3.4.3 (16044) - http://www.bohemiancoding.com/sketch -->
    <title>eye</title>
    <path d="M42.1662242,24.3586406 C44.0435399,22.7016904 45.7449706,20.9295613 47.2427557,19.1567113 C47.7678617,18.5351709 48.2306906,17.9570072 48.6275649,17.4365285 C48.868826,17.120128 49.0364997,16.8903077 49.1268396,16.7613928 L49.6424337,16.025641 L49.1268396,15.2898892 C49.0364997,15.1609744 48.868826,14.931154 48.6275649,14.6147535 C48.2306906,14.0942748 47.7678617,13.5161112 47.2427557,12.8945707 C45.7449706,11.1217208 44.0435399,9.34959167 42.1662242,7.69264141 C36.7338884,2.89797058 30.9453653,0 25,0 C19.0546347,0 13.2661116,2.89797058 7.83377577,7.69264141 C5.95646013,9.34959167 4.25502942,11.1217208 2.75724429,12.8945707 C2.23213833,13.5161112 1.76930942,14.0942748 1.37243506,14.6147535 C1.13117404,14.931154 0.963500256,15.1609744 0.873160385,15.2898892 L0.357566346,16.025641 L0.873160385,16.7613928 C0.963500256,16.8903077 1.13117404,17.120128 1.37243506,17.4365285 C1.76930942,17.9570072 2.23213833,18.5351709 2.75724429,19.1567113 C4.25502942,20.9295613 5.95646013,22.7016904 7.83377577,24.3586406 C13.2661116,29.1533115 19.0546347,32.0512821 25,32.0512821 C30.9453653,32.0512821 36.7338884,29.1533115 42.1662242,24.3586406 L42.1662242,24.3586406 Z M23.3974359,17.6990553 C25.3445937,17.6990553 26.9230769,16.1205721 26.9230769,14.1734143 C26.9230769,12.2262565 25.3445937,10.6477733 23.3974359,10.6477733 C21.4502781,10.6477733 19.8717949,12.2262565 19.8717949,14.1734143 C19.8717949,16.1205721 21.4502781,17.6990553 23.3974359,17.6990553 L23.3974359,17.6990553 Z M9.53052667,22.4362312 C7.75375327,20.8680212 3.4114009,16.3133615 3.4114009,16.025641 C3.4114009,16.025641 7.75375327,11.1832609 9.53052667,9.6150509 C14.538445,5.19497814 19.7934617,2.56410256 25,2.56410256 C30.2065383,2.56410256 35.461555,5.19497814 40.4694733,9.6150509 C42.2462467,11.1832609 43.8624879,12.8666606 45.2840924,14.5493396 C45.7807728,15.1372342 46.5885991,16.025641 46.5885991,16.025641 C46.5885991,16.025641 45.7807728,16.9140478 45.2840924,17.5019425 C43.8624879,19.1846214 42.2462467,20.8680212 40.4694733,22.4362312 C35.461555,26.8563039 30.2065383,29.4871795 25,29.4871795 C19.7934617,29.4871795 14.538445,26.8563039 9.53052667,22.4362312 L9.53052667,22.4362312 Z M25.1282051,24.8785425 L25.1282051,24.8785425 C30.0846067,24.8785425 34.1025641,20.8605851 34.1025641,15.9041835 C34.1025641,10.9477819 30.0846067,6.92982455 25.1282051,6.92982455 C20.1718035,6.92982455 16.1538462,10.9477819 16.1538462,15.9041835 C16.1538462,20.8605851 20.1718035,24.8785425 25.1282051,24.8785425 L25.1282051,24.8785425 L25.1282051,24.8785425 Z M25.1282051,27.4426451 L25.1282051,27.4426451 C18.7556888,27.4426451 13.5897436,22.2766999 13.5897436,15.9041835 C13.5897436,9.53166718 18.7556888,4.36572199 25.1282051,4.36572199 C31.5007215,4.36572199 36.6666667,9.53166718 36.6666667,15.9041835 C36.6666667,22.2766999 31.5007215,27.4426451 25.1282051,27.4426451 L25.1282051,27.4426451 L25.1282051,27.4426451 Z" id="Combined-Shape" sketch:type="MSShapeGroup"></path>
</svg>
