<?xml version="1.0" encoding="UTF-8" standalone="no"?>
<svg width="134px" height="100px" viewBox="0 0 134 100" version="1.1" xmlns="http://www.w3.org/2000/svg" xmlns:xlink="http://www.w3.org/1999/xlink" xmlns:sketch="http://www.bohemiancoding.com/sketch/ns">
    <!-- Generator: Sketch 3.4.3 (16044) - http://www.bohemiancoding.com/sketch -->
    <title>eye</title>
    <path d="M76.7793098,62.9994794 C79.7079222,60.414637 82.3621541,57.6501156 84.6986989,54.8844697 C85.5178642,53.9148666 86.2398773,53.0129313 86.8590013,52.2009845 C87.2353685,51.7073997 87.4969396,51.34888 87.6378698,51.1477728 L88.4421965,50 L87.6378698,48.8522272 C87.4969396,48.65112 87.2353685,48.2926003 86.8590013,47.7990155 C86.2398773,46.9870687 85.5178642,46.0851334 84.6986989,45.1155303 C82.3621541,42.3498844 79.7079222,39.585363 76.7793098,37.0005206 C68.3048659,29.5208341 59.2747699,25 50,25 C40.7252301,25 31.6951341,29.5208341 23.2206902,37.0005206 C20.2920778,39.585363 17.6378459,42.3498844 15.3013011,45.1155303 C14.4821358,46.0851334 13.7601227,46.9870687 13.1409987,47.7990155 C12.7646315,48.2926003 12.5030604,48.65112 12.3621302,48.8522272 L11.5578035,50 L12.3621302,51.1477728 C12.5030604,51.34888 12.7646315,51.7073997 13.1409987,52.2009845 C13.7601227,53.0129313 14.4821358,53.9148666 15.3013011,54.8844697 C17.6378459,57.6501156 20.2920778,60.414637 23.2206902,62.9994794 C31.6951341,70.4791659 40.7252301,75 50,75 C59.2747699,75 68.3048659,70.4791659 76.7793098,62.9994794 Z M47.5,52.6105263 C50.5375661,52.6105263 53,50.1480924 53,47.1105263 C53,44.0729602 50.5375661,41.6105263 47.5,41.6105263 C44.4624339,41.6105263 42,44.0729602 42,47.1105263 C42,50.1480924 44.4624339,52.6105263 47.5,52.6105263 Z M25.8676216,60.0005206 C23.0958551,57.554113 16.3217854,50.448844 16.3217854,50 C16.3217854,50 23.0958551,42.445887 25.8676216,39.9994794 C33.6799742,33.1041659 41.8778003,29 50,29 C58.1221997,29 66.3200258,33.1041659 74.1323784,39.9994794 C76.9041449,42.445887 79.4254811,45.0719906 81.6431841,47.6969697 C82.4180056,48.6140854 83.6782146,50 83.6782146,50 C83.6782146,50 82.4180056,51.3859146 81.6431841,52.3030303 C79.4254811,54.9280094 76.9041449,57.554113 74.1323784,60.0005206 C66.3200258,66.8958341 58.1221997,71 50,71 C41.8778003,71 33.6799742,66.8958341 25.8676216,60.0005206 Z M50.2,63.8105263 L50.2,63.8105263 C57.9319865,63.8105263 64.2,57.5425128 64.2,49.8105263 C64.2,42.0785398 57.9319865,35.8105263 50.2,35.8105263 C42.4680135,35.8105263 36.2,42.0785398 36.2,49.8105263 C36.2,57.5425128 42.4680135,63.8105263 50.2,63.8105263 L50.2,63.8105263 Z M50.2,67.8105263 L50.2,67.8105263 C40.2588745,67.8105263 32.2,59.7516518 32.2,49.8105263 C32.2,39.8694008 40.2588745,31.8105263 50.2,31.8105263 C60.1411255,31.8105263 68.2,39.8694008 68.2,49.8105263 C68.2,59.7516518 60.1411255,67.8105263 50.2,67.8105263 L50.2,67.8105263 Z" id="Combined-Shape"></path>
</svg>
