<?xml version="1.0" encoding="UTF-8" standalone="no"?>
<svg width="134px" height="100px" viewBox="0 0 134 100" version="1.1" xmlns="http://www.w3.org/2000/svg" xmlns:xlink="http://www.w3.org/1999/xlink" xmlns:sketch="http://www.bohemiancoding.com/sketch/ns">
    <!-- Generator: Sketch 3.4.3 (16044) - http://www.bohemiancoding.com/sketch -->
    <title>eye</title>
    <path d="M66.5289168,99.913394 C72.5639039,99.913394 78.4328285,98.9958821 84.1356907,97.1608583 C89.8385529,95.3258344 94.8412156,92.9417859 99.1436788,90.0087126 C103.446142,87.0756394 107.495916,83.8319029 111.293002,80.2775033 C115.090088,76.7231036 118.280834,73.1687039 120.86524,69.6143043 C123.449646,66.0599046 125.687504,62.8161682 127.578814,59.8830949 C129.470123,56.9500217 130.863376,54.573212 131.758571,52.7526658 L133.057964,49.9785436 C132.855865,49.5450802 132.581563,48.9599046 132.235058,48.2230169 C131.888553,47.4861292 131.072838,45.9834417 129.787911,43.7149545 C128.502985,41.4464673 127.131389,39.2068921 125.673124,36.9962289 C124.214859,34.7855657 122.294659,32.1847854 119.912525,29.1938882 C117.530392,26.2029909 115.068778,23.414391 112.527686,20.8280884 C109.986593,18.2417859 106.976333,15.6337668 103.496905,13.0040312 C100.017477,10.3742956 96.45138,8.14195925 92.7986133,6.30702211 C89.1458466,4.47208496 85.0383356,2.96939749 80.4760805,1.79895969 C75.9138254,0.62852189 71.2649008,0.0433463372 66.5293066,0.0434330299 C60.4943196,0.0434330299 54.625395,0.96094495 48.9225328,2.79596879 C43.2196705,4.63099263 38.2170078,7.00780234 33.9145447,9.92639792 C29.6120815,12.8449935 25.562307,16.0670568 21.765221,19.5925878 C17.9681351,23.1181188 14.7773891,26.6508453 12.1929833,30.1907672 C9.60857741,33.7306892 7.37071964,36.9599913 5.47940995,39.8786736 C3.58810026,42.7973559 2.19484787,45.1814044 1.29965279,47.0308192 L0.000259878581,49.7616385 C0.202358789,50.1951019 0.476660631,50.7802774 0.823165406,51.5171651 C1.16967018,52.2540529 1.98538574,53.7639358 3.27031207,56.046814 C4.5552384,58.3296922 5.92683424,60.5764629 7.38509958,62.7871261 C8.84336493,64.9977893 10.7635645,67.6130039 13.1456982,70.6327698 C15.5278319,73.6525358 17.9894451,76.4556134 20.5305379,79.0420026 C23.0716306,81.6283919 26.0818909,84.2436064 29.5613186,86.8876463 C33.0407463,89.5316862 36.6068435,91.7784569 40.2596102,93.6279584 C43.9123769,95.4774599 48.0198878,96.9873429 52.5821429,98.1576073 C57.1443981,99.3278717 61.7933227,99.9130472 66.5289168,99.9131339 L66.5289168,99.913394 Z M66.5289168,88.816775 C62.4863322,88.816775 58.5159506,88.2821847 54.6177719,87.2130039 C50.7195931,86.1438231 47.203999,84.7639792 44.0709895,83.073472 C40.9379799,81.3829649 37.8771733,79.3384482 34.8885696,76.939922 C31.8999659,74.5413958 29.3156034,72.1790204 27.1354819,69.8527958 C24.9553605,67.5265713 22.8402521,65.0269181 20.7901566,62.3538362 C18.7400611,59.6807542 17.1085866,57.3906372 15.8957333,55.483485 C14.68288,53.5763329 13.5423162,51.6690941 12.474042,49.7617685 C13.5424028,47.8833984 14.6829666,45.9978327 15.8957333,44.1050715 C17.1085,42.2123104 18.7399744,39.9438665 20.7901566,37.2997399 C22.8403387,34.6556134 24.9554472,32.1848721 27.1354819,29.8875163 C29.3155167,27.5901604 31.8998793,25.256697 34.8885696,22.8871261 C37.8772599,20.5175553 40.9380665,18.4947117 44.0709895,16.8185956 C47.2039124,15.1424794 50.7195065,13.7770698 54.6177719,12.7223667 C58.5160372,11.6676636 62.4864189,11.1402687 66.5289168,11.1401821 C70.5714148,11.1400954 74.5417964,11.6746857 78.4400618,12.7439532 C82.3383271,13.8132206 85.8539213,15.1858691 88.9868442,16.8618986 C92.1197671,18.537928 95.1805737,20.5679671 98.169264,22.9520156 C101.157954,25.3360642 103.742317,27.6840052 105.922352,29.9958388 C108.102386,32.3076723 110.217495,34.7928479 112.267677,37.4513654 C114.317859,40.109883 115.949334,42.3928045 117.1621,44.30013 C118.374867,46.2074556 119.515431,48.1002601 120.583792,49.9785436 C119.515431,51.8569137 118.374867,53.7497182 117.1621,55.6569571 C115.949334,57.5641959 114.317859,59.8471175 112.267677,62.5057217 C110.217495,65.164326 108.102386,67.6495015 105.922352,69.9612484 C103.742317,72.2729952 101.157954,74.6209363 98.169264,77.0050715 C95.1805737,79.3892068 92.1197671,81.4192458 88.9868442,83.0951886 C85.8539213,84.7711313 82.3383271,86.1437798 78.4400618,87.2131339 C74.5417964,88.2824881 70.5714148,88.8170785 66.5289168,88.8169051 L66.5289168,88.816775 Z M66.5289168,72.1717815 C72.6505301,72.1717815 77.8769915,70.0044647 82.2083012,65.6698309 C86.5396109,61.3351972 88.7052657,56.1047248 88.7052657,49.9784135 C88.7052657,43.8521023 86.5396109,38.6216298 82.2083012,34.2869961 C77.8769915,29.9523624 72.6505301,27.7850455 66.5289168,27.7850455 C60.4073036,27.7850455 55.1808421,29.9523624 50.8495324,34.2869961 C46.5182227,38.6216298 44.3525679,43.8521023 44.3525679,49.9784135 C44.3525679,56.1047248 46.5182227,61.3351972 50.8495324,65.6698309 C55.1808421,70.0044647 60.4073036,72.1717815 66.5289168,72.1717815 L66.5289168,72.1717815 Z M66.5289168,61.0750325 C63.4681535,61.0750325 60.8549444,59.9913741 58.6892896,57.8240572 C56.5236347,55.6567404 55.4408073,53.0415258 55.4408073,49.9784135 C55.4408073,46.9153013 56.5236347,44.3000867 58.6892896,42.1327698 C60.8549444,39.965453 63.4681535,38.8817945 66.5289168,38.8817945 C69.5896801,38.8817945 72.2028892,39.965453 74.368544,42.1327698 C76.5341989,44.3000867 77.6170263,46.9153013 77.6170263,49.9784135 C77.6170263,53.0415258 76.5341989,55.6567404 74.368544,57.8240572 C72.2028892,59.9913741 69.5896801,61.0750325 66.5289168,61.0750325 L66.5289168,61.0750325 Z" id="Shape" sketch:type="MSShapeGroup"></path>
</svg>
