<?xml version="1.0" encoding="UTF-8" standalone="no"?>
<svg width="100px" height="100px" viewBox="0 0 100 100" version="1.1" xmlns="http://www.w3.org/2000/svg" xmlns:xlink="http://www.w3.org/1999/xlink">
    <!-- Generator: Sketch 3.8.3 (29802) - http://www.bohemiancoding.com/sketch -->
    <title>feedback</title>
    <path d="M74.1652324,64.1460446 L68.2581756,64.1460446 L68.2581756,70.1703854 C68.2581756,70.8843813 67.8554217,71.5091278 67.2289157,71.821501 C66.9604131,71.9553753 66.6919105,72 66.4234079,72 C66.020654,72 65.6179002,71.8661258 65.3046472,71.643002 L55.4595525,64.1906694 L25.8347676,64.1906694 C24.8055077,64.1906694 24,63.3874239 24,62.3610548 L24,29.8296146 C24,28.8032454 24.8055077,28 25.8347676,28 L74.1652324,28 C75.1944923,28 76,28.8032454 76,29.8296146 L76,62.31643 C76,63.3427992 75.1497418,64.1460446 74.1652324,64.1460446 Z M27.7142857,31.6592292 L27.7142857,60.4868154 L56.0860585,60.4868154 C56.4888124,60.4868154 56.8915663,60.6206897 57.2048193,60.8438134 L64.5886403,66.4665314 L64.5886403,62.31643 C64.5886403,61.2900609 65.394148,60.4868154 66.4234079,60.4868154 L72.3304647,60.4868154 L72.3304647,31.6592292 L27.7142857,31.6592292 Z M62.5517241,50.4489796 C64.5323315,50.4489796 66.137931,48.8408595 66.137931,46.8571429 C66.137931,44.8734262 64.5323315,43.2653061 62.5517241,43.2653061 C60.5711168,43.2653061 58.9655172,44.8734262 58.9655172,46.8571429 C58.9655172,48.8408595 60.5711168,50.4489796 62.5517241,50.4489796 Z M37.4482759,50.4489796 C39.4288832,50.4489796 41.0344828,48.8408595 41.0344828,46.8571429 C41.0344828,44.8734262 39.4288832,43.2653061 37.4482759,43.2653061 C35.4676685,43.2653061 33.862069,44.8734262 33.862069,46.8571429 C33.862069,48.8408595 35.4676685,50.4489796 37.4482759,50.4489796 Z M50,50.4489796 C51.9806074,50.4489796 53.5862069,48.8408595 53.5862069,46.8571429 C53.5862069,44.8734262 51.9806074,43.2653061 50,43.2653061 C48.0193926,43.2653061 46.4137931,44.8734262 46.4137931,46.8571429 C46.4137931,48.8408595 48.0193926,50.4489796 50,50.4489796 Z"></path>
</svg>
