<?xml version="1.0" encoding="UTF-8" standalone="no"?>
<svg width="75px" height="75px" viewBox="0 0 75 75" version="1.1" xmlns="http://www.w3.org/2000/svg" xmlns:xlink="http://www.w3.org/1999/xlink" xmlns:sketch="http://www.bohemiancoding.com/sketch/ns">
    <!-- Generator: Sketch 3.4.3 (16044) - http://www.bohemiancoding.com/sketch -->
    <title>Shape</title>
    <path d="M52.3665527,11.5875 C47.8412109,8.9236084 42.691333,7.5 37.3259766,7.5 C20.8579834,7.5 7.50007324,20.927124 7.50007324,37.5 C7.50007324,54.072876 20.8579102,67.5 37.3259766,67.5 C53.7939697,67.5 67.1518799,54.072876 67.1518799,37.5 C67.1518799,31.8862061 65.6200195,26.5085449 62.7669434,21.8326904 L61.851123,20.3317383 L67.6486816,3.35185547 C66.8247803,5.76481934 69.2269775,8.20041504 71.5771729,7.565625 L53.7249756,12.387085 L52.366626,11.5874268 L52.3665527,11.5875 Z M56.1711914,5.12416992 L53.2910889,4.73554688 L69.6215332,0.325048828 C72.9654785,-0.578100586 75.899707,2.39699707 74.7462891,5.77521973 L69.5168701,21.0911133 L69.1691895,17.9261719 C72.7353516,23.7708252 74.6518066,30.4985596 74.6518066,37.5 C74.6518066,58.2063721 57.9448242,75 37.3259033,75 C16.7069824,75 0,58.2063721 0,37.5 C0,16.7936279 16.7069824,0 37.3259033,0 C44.038916,0 50.5008545,1.78630371 56.1711914,5.12416992 L56.1711914,5.12416992 L56.1711914,5.12416992 Z M27.1875732,37.5 C27.1875732,34.9111816 25.0888916,32.8125 22.5000732,32.8125 C19.9112549,32.8125 17.8125732,34.9111816 17.8125732,37.5 C17.8125732,40.0888184 19.9112549,42.1875 22.5000732,42.1875 C25.0888916,42.1875 27.1875732,40.0888184 27.1875732,37.5 L27.1875732,37.5 Z M42.1875732,37.5 C42.1875732,34.9111816 40.0888916,32.8125 37.5000732,32.8125 C34.9112549,32.8125 32.8125732,34.9111816 32.8125732,37.5 C32.8125732,40.0888184 34.9112549,42.1875 37.5000732,42.1875 C40.0888916,42.1875 42.1875732,40.0888184 42.1875732,37.5 L42.1875732,37.5 Z M57.1875732,37.5 C57.1875732,34.9111816 55.0888916,32.8125 52.5000732,32.8125 C49.9112549,32.8125 47.8125732,34.9111816 47.8125732,37.5 C47.8125732,40.0888184 49.9112549,42.1875 52.5000732,42.1875 C55.0888916,42.1875 57.1875732,40.0888184 57.1875732,37.5 L57.1875732,37.5 Z" id="Shape" fill="#000000" sketch:type="MSShapeGroup"></path>
</svg>
