<?xml version="1.0" encoding="UTF-8" standalone="no"?>
<svg width="86px" height="73px" viewBox="0 0 86 73" version="1.1" xmlns="http://www.w3.org/2000/svg" xmlns:xlink="http://www.w3.org/1999/xlink" xmlns:sketch="http://www.bohemiancoding.com/sketch/ns">
    <!-- Generator: Sketch 3.4.3 (16044) - http://www.bohemiancoding.com/sketch -->
    <title>folder</title>
    <path d="M79.1634234,25.8687387 L79.1634234,62.1107207 C79.1634234,63.4835135 78.6829429,64.6503904 77.721982,65.6113514 C76.761021,66.5723123 75.5941441,67.0527928 74.2213514,67.0527928 L37.9793694,67.0527928 C36.6065766,67.0527928 35.4396997,67.5332733 34.4787387,68.4942342 C33.5177778,69.4551952 33.0372973,70.6220721 33.0372973,71.9948649 L33.0372973,75.2895495 C33.0372973,76.6623423 32.5568168,77.8292192 31.5958559,78.7901802 C30.6348949,79.7511411 29.468018,80.2316216 28.0952252,80.2316216 L11.6216216,80.2316216 C10.2488288,80.2316216 9.08195195,79.7511411 8.12099099,78.7901802 C7.16003003,77.8292192 6.67954955,76.6623423 6.67954955,75.2895495 L6.67954955,25.8687387 C6.67954955,24.4959459 7.16003003,23.3290691 8.12099099,22.3681081 C9.08195195,21.4071471 10.2488288,20.9266667 11.6216216,20.9266667 L74.2213514,20.9266667 C75.5941441,20.9266667 76.761021,21.4071471 77.721982,22.3681081 C78.6829429,23.3290691 79.1634234,24.4959459 79.1634234,25.8687387 L79.1634234,25.8687387 Z M85.7528829,62.1106306 L85.7528829,25.8686486 C85.7528829,22.7112312 84.6203303,19.9999399 82.3552252,17.7347748 C80.0901201,15.4696096 77.3788288,14.3370571 74.2213514,14.3371171 L11.6216216,14.3371171 C8.4642042,14.3371171 5.75291291,15.4696697 3.48774775,17.7347748 C1.22258258,19.9998799 0.09003003,22.7111712 0.0900900901,25.8686486 L0.0900900901,75.2894595 C0.0900900901,78.4468769 1.22264264,81.1581682 3.48774775,83.4233333 C5.75285285,85.6884985 8.46414414,86.8210511 11.6216216,86.820991 L28.0952252,86.820991 C31.2526426,86.820991 33.9639339,85.6884384 36.2290991,83.4233333 C38.4942643,81.1582282 39.6268168,78.4469369 39.6267568,75.2894595 L39.6267568,73.6420721 L74.2213514,73.6420721 C77.3787688,73.6420721 80.0900601,72.5095195 82.3552252,70.2444144 C84.6203904,67.9793093 85.7529429,65.268018 85.7528829,62.1105405 L85.7528829,62.1106306 Z" id="folder" sketch:type="MSShapeGroup"></path>
</svg>
