<?xml version="1.0" encoding="UTF-8" standalone="no"?>
<svg width="100px" height="100px" viewBox="0 0 100 100" version="1.1" xmlns="http://www.w3.org/2000/svg" xmlns:xlink="http://www.w3.org/1999/xlink">
    <!-- Generator: Sketch 3.8.3 (29802) - http://www.bohemiancoding.com/sketch -->
    <title>folder</title>
    <path d="M27.1,28.6064707 L27.1,28.6064707 L27.1,66.3935293 C27.1,66.3996507 27.1003481,66.4 27.094687,66.4 L71.905313,66.4 C71.8988831,66.4 71.9,66.3988818 71.9,66.398371 L71.9,34.001629 C71.9,34.0002686 71.8997318,34 71.9032879,34 L50.3965517,34 L48.8087966,34 L47.738151,32.8275307 L44.0260242,28.7623625 C44.0342721,28.7713948 43.6470637,28.6 43.6679868,28.6 L27.102562,28.6 C27.103149,28.6 27.1,28.603151 27.1,28.6064707 L27.1,28.6064707 Z M23.5,28.6064707 C23.5,26.614672 25.1151769,25 27.102562,25 L43.6679868,25 C44.6607354,25 46.0120647,25.5985268 46.6844249,26.3348318 L50.3965517,30.4 L71.9032879,30.4 C73.8896972,30.4 75.5,32.0137821 75.5,34.001629 L75.5,66.398371 C75.5,68.3874958 73.8867221,70 71.905313,70 L27.094687,70 C25.1093962,70 23.5,68.3851586 23.5,66.3935293 L23.5,28.6064707 L23.5,28.6064707 Z"></path>
</svg>
