<?xml version="1.0" encoding="UTF-8" standalone="no"?>
<svg width="100px" height="100px" viewBox="0 0 100 100" version="1.1" xmlns="http://www.w3.org/2000/svg" xmlns:xlink="http://www.w3.org/1999/xlink">
    <!-- Generator: Sketch 3.8.3 (29802) - http://www.bohemiancoding.com/sketch -->
    <title>folder-open</title>
    <path d="M28.7495058,68.5 L27.2958312,68.5 C26.304021,68.5 25.5,67.6979094 25.5,66.7038493 L25.5,28.7961507 C25.5,27.8041641 26.3124725,27 27.3078947,27 L45.7920728,27 C46.7862372,27 48.1418654,27.5999725 48.8053885,28.3241794 L52.5516326,32.4130435 L76.0042761,32.4130435 C76.9959293,32.4130435 77.7998231,33.2183297 77.7998231,34.2214526 L77.7998231,40.657971 M35.4878041,44.6994802 C36.3193899,42.8964375 38.5979446,41.4347826 40.5889299,41.4347826 L85.1126414,41.4347826 C87.0983296,41.4347826 88.0369175,42.8899262 87.2023286,44.6994802 L77.730951,65.2353024 C76.8993652,67.0383451 74.6208105,68.5 72.6298251,68.5 L28.1061137,68.5 C26.1204255,68.5 25.1818375,67.0448564 26.0164264,65.2353024 L35.4878041,44.6994802 Z"></path>
</svg>
