<?xml version="1.0" encoding="UTF-8" standalone="no"?>
<svg width="100px" height="100px" viewBox="0 0 100 100" version="1.1" xmlns="http://www.w3.org/2000/svg" xmlns:xlink="http://www.w3.org/1999/xlink">
    <!-- Generator: Sketch 3.8.3 (29802) - http://www.bohemiancoding.com/sketch -->
    <title>folder-open</title>
    <path d="M27.2973939,57.8759716 C27.2986637,46.6766371 27.3,28.7961507 27.3,28.7961507 C27.3,28.8024306 45.7920728,28.8 45.7920728,28.8 C46.2780001,28.8 47.1532477,29.1854728 47.4782069,29.5401519 L51.2244511,33.629016 L51.7595409,34.2130435 L52.5516326,34.2130435 L76.0042761,34.2130435 C76.0015922,34.2130435 76.0002609,38.8333645 75.9999157,40.25 L40.2758955,40.25 C37.6004436,40.25 34.7003543,42.0780781 33.5807464,44.4673177 L33.5807464,44.4673177 L27.2973939,57.8759716 Z M79.5998231,40.25 L79.5998231,34.2214526 C79.5998231,32.227922 77.9937518,30.6130435 76.0042761,30.6130435 L52.5516326,30.6130435 L53.8788142,31.197071 L50.1325701,27.1082069 C49.1259789,26.009556 47.2878159,25.2 45.7920728,25.2 L27.3078947,25.2 C25.3203886,25.2 23.7,26.8079885 23.7,28.7961507 L23.7,66.7038493 C23.7,66.7986415 23.7081779,66.8843838 23.7237536,66.9617238 C23.933794,68.8394517 25.5213409,70.25 27.8681473,70.25 L72.124106,70.25 C74.7995579,70.25 77.6996472,68.4219219 78.8192551,66.0326823 L88.2336747,45.9423416 C89.6094306,43.0064828 87.812512,40.25 84.5318542,40.25 L79.5998231,40.25 Z M36.8301463,45.9423416 C37.3652329,44.8004686 38.9969601,43.7719056 40.2758955,43.7719056 L84.5318542,43.7719056 C85.2036204,43.7719056 85.2655967,43.8669775 84.9842747,44.4673177 L75.5698552,64.5576584 C75.0347686,65.6995314 73.4030415,66.7280944 72.124106,66.7280944 L27.8681473,66.7280944 C27.1963811,66.7280944 27.1344048,66.6330225 27.4157268,66.0326823 L36.8301463,45.9423416 L36.8301463,45.9423416 Z" id="Combined-Shape"></path>
</svg>
