<svg width="52" height="45" xmlns:xlink="http://www.w3.org/1999/xlink" xmlns="http://www.w3.org/2000/svg">
    <path d="M3.1 3.606v37.788c0 .006 0 .006-.005.006h44.81c-.006 0-.005-.001-.005-.002V9.002c0-.002 0-.002.003-.002H24.81l-1.07-1.172-3.713-4.066a3.826 3.826 0 0 1-.358-.162H3.103s-.003.003-.003.006Zm-3.6 0A3.606 3.606 0 0 1 3.103 0h16.565c.993 0 2.344.599 3.016 1.335L26.397 5.4h21.506A3.6 3.6 0 0 1 51.5 9.002v32.396A3.6 3.6 0 0 1 47.905 45H3.095A3.6 3.6 0 0 1-.5 41.394V3.606Z" fill-rule="evenodd"/>
</svg>
