<?xml version="1.0" encoding="UTF-8" standalone="no"?>
<svg width="99px" height="73px" viewBox="0 0 99 73" version="1.1" xmlns="http://www.w3.org/2000/svg" xmlns:xlink="http://www.w3.org/1999/xlink" xmlns:sketch="http://www.bohemiancoding.com/sketch/ns">
    <!-- Generator: Sketch 3.4.3 (16044) - http://www.bohemiancoding.com/sketch -->
    <title>folder-open</title>
    <path d="M91.776036,45.4826126 C91.776036,46.6838138 90.8665465,47.2844144 89.0475676,47.2844144 L33.0372973,47.2844144 C31.6645045,47.2844144 30.1973273,46.9154655 28.6357658,46.1775676 C27.0742042,45.4396697 25.8472673,44.5387688 24.954955,43.4748649 L9.81981982,24.7875676 C9.20204204,23.9639039 8.89315315,23.2775075 8.89315315,22.7283784 C8.89315315,21.5271772 9.80264264,20.9265766 11.6216216,20.9265766 L67.6318919,20.9265766 C69.0046847,20.9265766 70.4804505,21.3040841 72.0591892,22.0590991 C73.6379279,22.8141141 74.8562763,23.7236036 75.7142342,24.7875676 L90.8493694,43.4748649 C91.4671471,44.2298799 91.776036,44.8991291 91.776036,45.4826126 L91.776036,45.4826126 Z M33.0372973,53.8738739 L72.573964,53.8738739 L72.573964,62.1107207 C72.573964,63.4835135 72.0934835,64.6503904 71.1325225,65.6113514 C70.1715616,66.5723123 69.0046847,67.0527928 67.6318919,67.0527928 L37.9793694,67.0527928 C36.6065766,67.0527928 35.4396997,67.5332733 34.4787387,68.4942342 C33.5177778,69.4551952 33.0372973,70.6220721 33.0372973,71.9948649 L33.0372973,75.2895495 C33.0372973,76.6623423 32.5568168,77.8292192 31.5958559,78.7901802 C30.6348949,79.7511411 29.468018,80.2316216 28.0952252,80.2316216 L11.6216216,80.2316216 C10.2488288,80.2316216 9.08195195,79.7511411 8.12099099,78.7901802 C7.16003003,77.8292192 6.67954955,76.6623423 6.67954955,75.2895495 L6.67954955,31.377027 L19.8584685,47.5932432 C21.3685586,49.4122222 23.3591291,50.9137237 25.8301802,52.0977477 C28.3012312,53.2817718 30.7036336,53.8737838 33.0373874,53.8737838 L33.0372973,53.8738739 Z M98.3654955,45.4826126 C98.3654955,43.3547447 97.5761261,41.2955556 95.9973874,39.305045 L80.8108108,20.6177477 C79.3350751,18.7987688 77.3445045,17.2972673 74.8390991,16.1132432 C72.3336937,14.9292192 69.9312913,14.3372072 67.6318919,14.3372072 L11.6216216,14.3372072 C8.4642042,14.3372072 5.75291291,15.4697598 3.48774775,17.7348649 C1.22258258,19.99997 0.09003003,22.7112613 0.0900900901,25.8687387 L0.0900900901,75.2895495 C0.0900900901,78.446967 1.22264264,81.1582583 3.48774775,83.4234234 C5.75285285,85.6885886 8.46414414,86.8211411 11.6216216,86.8210811 L28.0952252,86.8210811 C31.2526426,86.8210811 33.9639339,85.6885285 36.2290991,83.4234234 C38.4942643,81.1583183 39.6268168,78.447027 39.6267568,75.2895495 L39.6267568,73.6421622 L67.6318919,73.6421622 C70.7893093,73.6421622 73.5006006,72.5096096 75.7657658,70.2445045 C78.0309309,67.9793994 79.1634835,65.2681081 79.1634234,62.1106306 L79.1634234,53.8737838 L89.0475676,53.8737838 C90.9008408,53.8737838 92.5996697,53.4533634 94.1440541,52.6125225 C95.6884384,51.7716817 96.8381682,50.5618919 97.5932432,48.9831532 C98.108018,47.8848949 98.3654054,46.718018 98.3654054,45.4825225 L98.3654955,45.4826126 Z" id="folder-open" sketch:type="MSShapeGroup"></path>
</svg>
