<svg width="65" height="45" xmlns:xlink="http://www.w3.org/1999/xlink" xmlns="http://www.w3.org/2000/svg">
    <path d="M3.297 32.84 3.3 3.792c0 .006 18.492.004 18.492.004.486 0 1.361.385 1.686.74l3.746 4.084.536.583h24.244c-.002 0-.004 4.615-.004 6.03H16.276c-2.675 0-5.576 1.826-6.695 4.213L3.297 32.84ZM55.6 15.233V9.211a3.597 3.597 0 0 0-3.596-3.604H28.552l1.327.583-3.746-4.084C25.126 1.01 23.288.2 21.793.2H3.307A3.601 3.601 0 0 0-.3 3.792v37.866c0 .094.008.18.024.257.21 1.876 1.797 3.285 4.144 3.285h44.256c2.676 0 5.576-1.826 6.695-4.213l9.415-20.068c1.375-2.932-.421-5.686-3.702-5.686H55.6ZM12.83 20.92c.535-1.14 2.167-2.168 3.446-2.168h44.256c.672 0 .734.095.452.695L51.57 39.514c-.535 1.14-2.167 2.168-3.446 2.168H3.868c-.672 0-.734-.095-.452-.695L12.83 20.92Z" fill-rule="evenodd"/>
</svg>
