<?xml version="1.0" encoding="UTF-8" standalone="no"?>
<svg width="100px" height="100px" viewBox="0 0 100 100" version="1.1" xmlns="http://www.w3.org/2000/svg" xmlns:xlink="http://www.w3.org/1999/xlink">
    <!-- Generator: Sketch 3.8.3 (29802) - http://www.bohemiancoding.com/sketch -->
    <title>forward</title>
    <path d="M51.2150402,26.0006539 L51.2150402,44.2745266 C51.2150402,47.5086472 47.2627603,49.0911785 45.0218,46.7543602 L26.5,27.4402821 L26.5,27.3651777 C26.524032,27.3762697 26.5518728,27.3887941 26.5838263,27.4026203 C27.114968,27.6324437 27.8259196,27.6809733 28.5635863,27.3860597 C29.3018729,27.0908982 29.7830985,26.5650798 30.0082469,26.0318427 C30.0218923,25.9995253 30.0334377,25.9710275 30.0431989,25.9462327 L30.0953878,26.0006539 L30.0953878,73.9992266 L30.0431773,74.0536705 C30.0334544,74.0289713 30.0219619,74.0005981 30.0083879,73.9684353 C29.7834309,73.435412 29.3025497,72.9096616 28.5644727,72.6142998 C27.8266106,72.3190241 27.1152549,72.3674348 26.5838012,72.5973502 C26.5518595,72.6111687 26.5240268,72.6236863 26.5,72.6347726 L26.5,72.5595984 L45.0218,53.2455204 C47.2627603,50.9087021 51.2150402,52.4912334 51.2150402,55.7253539 L51.2150402,73.9992266 L51.1628297,74.0536705 C51.1531068,74.0289713 51.1416143,74.0005981 51.1280403,73.9684353 C50.9030834,73.435412 50.4222022,72.9096616 49.6841252,72.6142998 C48.9462631,72.3190241 48.2349073,72.3674348 47.7034536,72.5973502 C47.6715119,72.6111687 47.6436793,72.6236863 47.6196524,72.6347726 L47.6196524,72.5595984 L70.3842312,48.8212549 C69.7451268,49.4876973 69.7443503,50.5113735 70.3842312,51.1786257 L47.6196524,27.4402821 L47.6196524,27.3651777 C47.6436844,27.3762697 47.6715253,27.3887941 47.7034787,27.4026203 C48.2346205,27.6324437 48.945572,27.6809733 49.6832388,27.3860597 C50.4215254,27.0908982 50.9027509,26.5650798 51.1278993,26.0318427 C51.1415447,25.9995253 51.1530901,25.9710275 51.1628514,25.9462327 L51.2150402,26.0006539 L51.2150402,26.0006539 L51.2150402,26.0006539 L51.2150402,26.0006539 L51.2150402,26.0006539 Z M47.6196524,44.2745266 L47.6196524,25.8287218 C47.6196524,23.8525364 48.7297749,23.4090803 50.0991802,24.8370626 L72.9820837,48.6987921 C73.6740658,49.4203741 73.6712103,50.5824842 72.9820837,51.3010884 L50.0991802,75.162818 C48.7291812,76.5914194 47.6196524,76.1468194 47.6196524,74.1711588 L47.6196524,55.7253539 L28.9795278,75.162818 C27.6095287,76.5914194 26.5,76.1468194 26.5,74.1711588 L26.5,25.8287218 C26.5,23.8525364 27.6101224,23.4090803 28.9795278,24.8370626 L47.6196524,44.2745266 L47.6196524,44.2745266 L47.6196524,44.2745266 L47.6196524,44.2745266 Z"></path>
</svg>
