<?xml version="1.0" encoding="UTF-8" standalone="no"?>
<svg width="93px" height="94px" viewBox="0 0 93 94" version="1.1" xmlns="http://www.w3.org/2000/svg" xmlns:xlink="http://www.w3.org/1999/xlink" xmlns:sketch="http://www.bohemiancoding.com/sketch/ns">
    <!-- Generator: Sketch 3.4.3 (16044) - http://www.bohemiancoding.com/sketch -->
    <title>geolocation</title>
    <g id="svg" sketch:type="MSLayerGroup" transform="translate(0.000000, -1.000000)">
            <path d="M57.7477477,48.1081081 C57.7477477,41.7394595 52.5848649,36.5765766 46.2162162,36.5765766 C39.8475676,36.5765766 34.6846847,41.7394595 34.6846847,48.1081081 C34.6846847,54.4767568 39.8475676,59.6396396 46.2162162,59.6396396 C52.5848649,59.6396396 57.7477477,54.4767568 57.7477477,48.1081081 L57.7477477,48.1081081 Z M0.0900900901,45.8018018 L13.9279279,45.8018018 L13.9279279,50.4144144 L0.0900900901,50.4144144 L0.0900900901,45.8018018 L0.0900900901,45.8018018 Z M78.5045045,45.8018018 L92.3423423,45.8018018 L92.3423423,50.4144144 L78.5045045,50.4144144 L78.5045045,45.8018018 L78.5045045,45.8018018 Z M43.9099099,94.2342342 L43.9099099,80.3963964 L48.5225225,80.3963964 L48.5225225,94.2342342 L43.9099099,94.2342342 L43.9099099,94.2342342 Z M43.9099099,15.8198198 L43.9099099,1.98198198 L48.5225225,1.98198198 L48.5225225,15.8198198 L43.9099099,15.8198198 L43.9099099,15.8198198 Z M46.2162162,8.9009009 C67.8697297,8.9009009 85.4234234,26.4545946 85.4234234,48.1081081 C85.4234234,69.7616216 67.8697297,87.3153153 46.2162162,87.3153153 C24.5627027,87.3153153 7.00900901,69.7616216 7.00900901,48.1081081 C7.00900901,26.4545946 24.5627027,8.9009009 46.2162162,8.9009009 L46.2162162,8.9009009 L46.2162162,8.9009009 Z M46.2162162,13.5135135 C27.1101802,13.5135135 11.6216216,29.0020721 11.6216216,48.1081081 C11.6216216,67.2141441 27.1101802,82.7027027 46.2162162,82.7027027 C65.3222523,82.7027027 80.8108108,67.2141441 80.8108108,48.1081081 C80.8108108,29.0020721 65.3222523,13.5135135 46.2162162,13.5135135 L46.2162162,13.5135135 L46.2162162,13.5135135 Z" id="geolocation" sketch:type="MSShapeGroup"></path>
        </g>
</svg>
