<?xml version="1.0" encoding="UTF-8" standalone="no"?>
<svg width="100px" height="100px" viewBox="0 0 100 100" version="1.1" xmlns="http://www.w3.org/2000/svg" xmlns:xlink="http://www.w3.org/1999/xlink">
    <!-- Generator: Sketch 3.8.3 (29802) - http://www.bohemiancoding.com/sketch -->
    <title>geolocation</title>
    <path d="M50.25,69.1818182 L50.25,69.1818182 C60.7057545,69.1818182 69.1818182,60.7057545 69.1818182,50.25 C69.1818182,39.7942455 60.7057545,31.3181818 50.25,31.3181818 C39.7942455,31.3181818 31.3181818,39.7942455 31.3181818,50.25 C31.3181818,60.7057545 39.7942455,69.1818182 50.25,69.1818182 L50.25,69.1818182 Z M27.7830836,48.4483405 C28.6539481,37.4377454 37.4377454,28.6539481 48.4483405,27.7830836 C48.4474294,27.7595424 48.4469697,27.7358855 48.4469697,27.7121212 L48.4469697,22.3030303 C48.4469697,21.3072442 49.2542139,20.5 50.25,20.5 C51.2457861,20.5 52.0530303,21.3072442 52.0530303,22.3030303 L52.0530303,27.7121212 C52.0530303,27.7358855 52.0525706,27.7595424 52.0516595,27.7830836 C63.0622546,28.6539481 71.8460519,37.4377454 72.7169164,48.4483405 C72.7404576,48.4474294 72.7641145,48.4469697 72.7878788,48.4469697 L78.1969697,48.4469697 C79.1927558,48.4469697 80,49.2542139 80,50.25 C80,51.2457861 79.1927558,52.0530303 78.1969697,52.0530303 L72.7878788,52.0530303 C72.7641145,52.0530303 72.7404576,52.0525706 72.7169164,52.0516595 C71.8460519,63.0622546 63.0622546,71.8460519 52.0516595,72.7169164 C52.0525706,72.7404576 52.0530303,72.7641145 52.0530303,72.7878788 L52.0530303,78.1969697 C52.0530303,79.1927558 51.2457861,80 50.25,80 C49.2542139,80 48.4469697,79.1927558 48.4469697,78.1969697 L48.4469697,72.7878788 C48.4469697,72.7641145 48.4474294,72.7404576 48.4483405,72.7169164 C37.4377454,71.8460519 28.6539481,63.0622546 27.7830836,52.0516595 C27.7595424,52.0525706 27.7358855,52.0530303 27.7121212,52.0530303 L22.3030303,52.0530303 C21.3072442,52.0530303 20.5,51.2457861 20.5,50.25 C20.5,49.2542139 21.3072442,48.4469697 22.3030303,48.4469697 L27.7121212,48.4469697 C27.7358855,48.4469697 27.7595424,48.4474294 27.7830836,48.4483405 Z M50.25,55.6590909 C53.2373584,55.6590909 55.6590909,53.2373584 55.6590909,50.25 C55.6590909,47.2626416 53.2373584,44.8409091 50.25,44.8409091 C47.2626416,44.8409091 44.8409091,47.2626416 44.8409091,50.25 C44.8409091,53.2373584 47.2626416,55.6590909 50.25,55.6590909 Z"></path>
</svg>
