<?xml version="1.0" encoding="UTF-8"?>
<svg width="20px" height="20px" viewBox="0 0 20 20" version="1.1" xmlns="http://www.w3.org/2000/svg" xmlns:xlink="http://www.w3.org/1999/xlink">
    <!-- Generator: Sketch 60 (88103) - https://sketch.com -->
    <title>globe-20</title>
    <desc>Created with Sketch.</desc>
    <g id="globe-20" stroke="none" stroke-width="1" fill-rule="evenodd">
        <path d="M10,1 C14.9705627,1 19,5.02943725 19,10 C19,14.9705627 14.9705627,19 10,19 C5.02943725,19 1,14.9705627 1,10 C1,5.02943725 5.02943725,1 10,1 Z M9,11 L7.05187783,11.0009913 C7.23128551,12.7331183 7.87673374,14.4790797 8.99926727,16.2445733 L9,11 Z M12.9481222,11.0009913 L11,11 L11.0020026,16.2425758 C12.123753,14.4777628 12.7687822,12.732465 12.9481222,11.0009913 Z M5.04284347,11.0004279 L3.07103341,11.0010101 C3.38787759,13.2137993 4.73961696,15.0926436 6.62017738,16.1314687 C5.71809984,14.4327194 5.19031868,12.7213886 5.04284347,11.0004279 Z M16.9289666,11.0010101 L14.9571565,11.0004279 C14.8096813,12.7213886 14.2819002,14.4327194 13.3803496,16.1310484 C15.260383,15.0926436 16.6121224,13.2137993 16.9289666,11.0010101 Z M6.61965037,3.86895164 L6.46696596,3.9557052 C4.66611986,5.01061643 3.37880628,6.84733355 3.07089004,8.99999177 L5.04275796,9.00057047 C5.19011458,7.27927327 5.7179255,5.567609 6.61965037,3.86895164 Z M11.0020026,3.75742423 L11,9 L12.9482254,9.00000618 C12.7690299,7.2682053 12.1239685,5.52257615 11.0020026,3.75742423 Z M7.05177456,9.00000618 L9,9 L8.99926727,3.75542668 C7.87651826,5.52125918 7.23103773,7.26755204 7.05177456,9.00000618 Z M13.3798226,3.86853135 L13.3899085,3.88698538 C14.2858053,5.57972335 14.8104069,7.28536447 14.957242,9.00057047 L16.92911,8.99999177 C16.6125304,6.78676778 15.2606668,4.9075132 13.3798226,3.86853135 Z" id="Mask"></path>
    </g>
</svg>