<?xml version="1.0" encoding="utf-8"?>
<svg width="16px" height="16px" viewBox="0 0 16 16" version="1.1" xmlns:xlink="http://www.w3.org/1999/xlink" xmlns="http://www.w3.org/2000/svg">
  <desc>Created with Lunacy</desc>
  <path d="M7.992 0C3.576 0 0 3.584 0 8C0 12.416 3.576 16 7.992 16C12.416 16 16 12.416 16 8C16 3.584 12.416 0 7.992 0ZM8 1.632C8.664 2.592 9.184 3.656 9.528 4.8L6.472 4.8C6.816 3.656 7.336 2.592 8 1.632ZM2.464 4.8L4.824 4.8C5.08 3.8 5.448 2.84 5.928 1.952C4.456 2.456 3.232 3.472 2.464 4.8ZM11.176 4.8L13.536 4.8C12.768 3.48 11.544 2.456 10.072 1.952C10.552 2.84 10.92 3.8 11.176 4.8ZM1.6 8C1.6 8.552 1.68 9.088 1.808 9.6L4.512 9.6C4.448 9.072 4.4 8.544 4.4 8C4.4 7.456 4.448 6.928 4.512 6.4L1.808 6.4C1.68 6.912 1.6 7.448 1.6 8ZM6 8C6 8.544 6.056 9.072 6.128 9.6L9.872 9.6C9.944 9.072 10 8.544 10 8C10 7.456 9.944 6.92 9.872 6.4L6.128 6.4C6.056 6.92 6 7.456 6 8ZM11.6 8C11.6 8.544 11.552 9.072 11.488 9.6L14.192 9.6C14.32 9.088 14.4 8.552 14.4 8C14.4 7.448 14.32 6.912 14.192 6.4L11.488 6.4C11.552 6.928 11.6 7.456 11.6 8ZM2.464 11.2L4.824 11.2C5.08 12.2 5.448 13.16 5.928 14.048C4.456 13.544 3.232 12.528 2.464 11.2ZM8 14.368C7.336 13.408 6.816 12.344 6.472 11.2L9.528 11.2C9.184 12.344 8.664 13.408 8 14.368ZM10.072 14.048C10.552 13.16 10.92 12.2 11.176 11.2L13.536 11.2C12.768 12.52 11.544 13.544 10.072 14.048Z" id="Shape" fill-rule="evenodd" stroke="none" />
</svg>