<?xml version="1.0" encoding="UTF-8"?>
<svg width="20px" height="20px" viewBox="0 0 20 20" version="1.1" xmlns="http://www.w3.org/2000/svg" xmlns:xlink="http://www.w3.org/1999/xlink">
    <!-- Generator: Sketch 63.1 (92452) - https://sketch.com -->
    <title>help-2</title>
    <desc>Created with Sketch.</desc>
    <g id="Symbols" stroke="none" stroke-width="1" fill="none" fill-rule="evenodd">
        <g id="Assets/UI/Help/Hover" transform="translate(-6.000000, -6.000000)" fill="#4E5867">
            <path d="M16,6 C10.4875,6 6,10.4875 6,16 C6,21.5125 10.4875,26 16,26 C21.5125,26 26,21.5125 26,16 C26,10.4875 21.5125,6 16,6 L16,6 Z M19.4125,7.9375 L18.4375,10.2375 C16.8875,9.5875 15.1125,9.5875 13.5625,10.2375 L12.5875,7.9375 C14.75,7.025 17.25,7.025 19.4125,7.9375 L19.4125,7.9375 Z M10.2375,18.4375 L7.9375,19.4125 C7.4875,18.325 7.25,17.1875 7.25,16 C7.25,14.8125 7.4875,13.675 7.9375,12.5875 L10.2375,13.5625 C9.9125,14.3375 9.75,15.15 9.75,16 C9.75,16.85 9.9125,17.6625 10.2375,18.4375 L10.2375,18.4375 Z M16,24.75 C14.825,24.75 13.675,24.525 12.5875,24.0625 L13.5625,21.7625 C15.1125,22.4125 16.8875,22.4125 18.4375,21.7625 L19.4125,24.0625 C18.325,24.525 17.175,24.75 16,24.75 L16,24.75 Z M16,21 C13.2375,21 11,18.7625 11,16 C11,13.2375 13.2375,11 16,11 C18.7625,11 21,13.2375 21,16 C21,18.7625 18.7625,21 16,21 L16,21 Z M21.7625,18.4375 C22.0875,17.6625 22.25,16.85 22.25,16 C22.25,15.15 22.0875,14.3375 21.7625,13.5625 L24.0625,12.5875 C24.5125,13.675 24.75,14.8125 24.75,16 C24.75,17.1875 24.5125,18.325 24.0625,19.4125 L21.7625,18.4375 Z" id="help-2"></path>
        </g>
    </g>
</svg>