<?xml version="1.0" encoding="UTF-8" standalone="no"?>
<svg width="100px" height="100px" viewBox="0 0 100 100" version="1.1" xmlns="http://www.w3.org/2000/svg" xmlns:xlink="http://www.w3.org/1999/xlink">
    <!-- Generator: Sketch 3.8.3 (29802) - http://www.bohemiancoding.com/sketch -->
    <title>increase</title>
    <path d="M14,50.25 C14,50.7596661 14.1911248,51.2056239 14.5415202,51.5560193 C14.8919156,51.9064148 15.3378735,52.0975395 15.8475395,52.0975395 L48.4024605,52.0975395 L48.4024605,84.6524605 C48.4024605,85.1621265 48.5935852,85.6080844 48.9439807,85.9584798 C49.262522,86.2770211 49.7403339,86.5 50.25,86.5 C51.2693322,86.5 52.0975395,85.6717926 52.0975395,84.6524605 L52.0975395,52.0975395 L84.6524605,52.0975395 C85.6717926,52.0975395 86.5,51.2693322 86.5,50.25 C86.5,49.2306678 85.6717926,48.4024605 84.6524605,48.4024605 L52.0975395,48.4024605 L52.0975395,15.8475395 C52.0975395,14.8282074 51.2693322,14 50.25,14 C49.2306678,14 48.4024605,14.8282074 48.4024605,15.8475395 L48.4024605,48.4024605 L15.8475395,48.4024605 C14.8282074,48.4024605 14,49.2306678 14,50.25 L14,50.25 L14,50.25 Z"></path>
</svg>
