<?xml version="1.0" encoding="UTF-8" standalone="no"?>
<svg width="50px" height="50px" viewBox="0 0 50 50" version="1.1" xmlns="http://www.w3.org/2000/svg" xmlns:xlink="http://www.w3.org/1999/xlink" xmlns:sketch="http://www.bohemiancoding.com/sketch/ns">
    <!-- Generator: Sketch 3.4.3 (16044) - http://www.bohemiancoding.com/sketch -->
    <title>increase</title>
    <path d="M0,24.8287671 C0,25.1778535 0.130907397,25.483304 0.370904247,25.7233009 C0.610901096,25.9632978 0.916351712,26.0942051 1.26543801,26.0942051 L23.5633291,26.0942051 L23.5633291,48.3920962 C23.5633291,48.7411825 23.6942364,49.0466332 23.9342334,49.28663 C24.1524123,49.504809 24.4796808,49.6575342 24.8287671,49.6575342 C25.5269399,49.6575342 26.0942051,49.0902689 26.0942051,48.3920962 L26.0942051,26.0942051 L48.3920962,26.0942051 C49.0902689,26.0942051 49.6575342,25.5269399 49.6575342,24.8287671 C49.6575342,24.1305944 49.0902689,23.5633291 48.3920962,23.5633291 L26.0942051,23.5633291 L26.0942051,1.26543801 C26.0942051,0.567265342 25.5269399,0 24.8287671,0 C24.1305944,0 23.5633291,0.567265342 23.5633291,1.26543801 L23.5633291,23.5633291 L1.26543801,23.5633291 C0.567265342,23.5633291 0,24.1305944 0,24.8287671 L0,24.8287671 L0,24.8287671 L0,24.8287671 Z" id="Shape" sketch:type="MSShapeGroup"></path>
</svg>
