<?xml version="1.0" encoding="UTF-8" standalone="no"?>
<svg width="56px" height="57px" viewBox="0 0 56 57" version="1.1" xmlns="http://www.w3.org/2000/svg" xmlns:xlink="http://www.w3.org/1999/xlink" xmlns:sketch="http://www.bohemiancoding.com/sketch/ns">
    <!-- Generator: Sketch 3.4.3 (16044) - http://www.bohemiancoding.com/sketch -->
    <title>increase</title>
    <path d="M73.8918919,47.3393694 C73.8918919,44.7885586 73.6704505,42.7267568 71.1197297,42.7267568 L50.8288288,42.7267568 L50.8288288,22.4358559 C50.8288288,19.8897297 48.767027,19.6636937 46.2162162,19.6636937 C43.6654054,19.6636937 41.6036036,19.8897297 41.6036036,22.4358559 L41.6036036,42.7267568 L21.3127027,42.7267568 C18.7665766,42.7267568 18.5405405,44.7885586 18.5405405,47.3393694 C18.5405405,49.8901802 18.7665766,51.951982 21.3127027,51.951982 L41.6036036,51.951982 L41.6036036,72.2428829 C41.6036036,74.7936937 43.6654054,75.015045 46.2162162,75.015045 C48.767027,75.015045 50.8288288,74.7936036 50.8288288,72.2428829 L50.8288288,51.951982 L71.1197297,51.951982 C73.6705405,51.951982 73.8918919,49.8901802 73.8918919,47.3393694 L73.8918919,47.3393694 Z" id="increase" sketch:type="MSShapeGroup"></path>
</svg>
