<?xml version="1.0" encoding="UTF-8" standalone="no"?>
<svg width="93px" height="94px" viewBox="0 0 93 94" version="1.1" xmlns="http://www.w3.org/2000/svg" xmlns:xlink="http://www.w3.org/1999/xlink" xmlns:sketch="http://www.bohemiancoding.com/sketch/ns">
    <!-- Generator: Sketch 3.4.3 (16044) - http://www.bohemiancoding.com/sketch -->
    <title>line-chart</title>
    <path d="M11.6216216,13.5135135 L92.3423423,13.5135135 L92.3423423,1.98198198 L0.0900900901,1.98198198 L0.0900900901,94.2342342 L11.6216216,94.2342342 L11.6216216,13.5135135 Z M26.036036,19.2792793 C21.2594595,19.2792793 17.3873874,23.1513514 17.3873874,27.9279279 C17.3873874,32.7045045 21.2594595,36.5765766 26.036036,36.5765766 C26.2908108,36.5765766 26.5425225,36.5632432 26.7917117,36.5418018 L36.0882883,52.036036 C35.2018018,53.3936937 34.6846847,55.0145946 34.6846847,56.7569369 C34.6846847,61.5335135 38.5567568,65.4055856 43.3333333,65.4055856 C48.1099099,65.4055856 51.981982,61.5335135 51.981982,56.7569369 C51.981982,55.0144144 51.4648649,53.3936937 50.5783784,52.036036 L59.874955,36.5418018 C60.1241441,36.5632432 60.3758559,36.5765766 60.6306306,36.5765766 C60.8230631,36.5765766 61.0133333,36.5681081 61.2027027,36.5558559 L76.5500901,63.4136937 C75.6009009,64.8018018 75.045045,66.48 75.045045,68.2884685 C75.045045,73.065045 78.9171171,76.9371171 83.6936937,76.9371171 C88.4702703,76.9371171 92.3423423,73.065045 92.3423423,68.2884685 C92.3423423,63.5118919 88.4702703,59.6398198 83.6936937,59.6398198 C83.5009009,59.6398198 83.310991,59.6482883 83.1216216,59.6607207 L67.7742342,32.8027027 C68.7234234,31.4147748 69.2792793,29.7363964 69.2792793,27.9279279 C69.2792793,23.1513514 65.4072072,19.2792793 60.6306306,19.2792793 C55.8540541,19.2792793 51.981982,23.1513514 51.981982,27.9279279 C51.981982,29.6702703 52.4990991,31.2911712 53.3854054,32.6488288 L44.089009,48.1428829 C43.8398198,48.1214414 43.5881081,48.1081081 43.3333333,48.1081081 C43.0785586,48.1081081 42.8268468,48.1212613 42.5776577,48.1428829 L33.2810811,32.6486486 C34.1675676,31.2911712 34.6846847,29.6702703 34.6846847,27.9279279 C34.6846847,23.1513514 30.8126126,19.2792793 26.036036,19.2792793 L26.036036,19.2792793 Z" id="line-chart" sketch:type="MSShapeGroup"></path>
</svg>
