<?xml version="1.0" encoding="UTF-8" standalone="no"?>
<svg width="100px" height="100px" viewBox="0 0 100 100" version="1.1" xmlns="http://www.w3.org/2000/svg" xmlns:xlink="http://www.w3.org/1999/xlink">
    <!-- Generator: Sketch 3.8.3 (29802) - http://www.bohemiancoding.com/sketch -->
    <title>line-chart</title>
    <path d="M27.672696,27.5862069 L27.672696,41.0344828 L30.7241379,41.0344828 C31.7144416,41.0344828 32.5172414,41.8372825 32.5172414,42.8275862 C32.5172414,43.8178899 31.7144416,44.6206897 30.7241379,44.6206897 L27.672696,44.6206897 L27.672696,58.0689655 L30.7241379,58.0689655 C31.7144416,58.0689655 32.5172414,58.8717653 32.5172414,59.862069 C32.5172414,60.8523727 31.7144416,61.6551724 30.7241379,61.6551724 L27.672696,61.6551724 L27.672696,72.327304 L74.163652,72.327304 C75.1937984,72.327304 76,73.1335056 76,74.163652 C76,75.1937984 75.1937984,76 74.163652,76 L25.836348,76 C24.8062016,76 24,75.1937984 24,74.163652 L24,25.836348 C24,24.8062016 24.8062016,24 25.836348,24 C25.906122,24 25.9748687,24.0036986 26.0424071,24.0109148 C26.1077379,24.0037025 26.1741262,24 26.2413793,24 L30.7241379,24 C31.7144416,24 32.5172414,24.8027998 32.5172414,25.7931034 C32.5172414,26.7834071 31.7144416,27.5862069 30.7241379,27.5862069 L27.672696,27.5862069 Z M47.4242203,50.0000416 L55.3032572,54.6987618 C56.1166465,55.1801914 57.1640722,54.9475708 57.6972073,54.1670944 L72.1013241,33.0803712 C72.6599081,32.2626394 72.4498272,31.146915 71.6320954,30.588331 C70.8143635,30.0297471 69.6986391,30.239828 69.1400552,31.0575598 L55.3032571,50.6706154 L48.038706,46.2317178 C47.196051,45.7329663 46.1091046,46.0024467 45.5970256,46.8370697 L33.2302559,66.9933133 C32.7123668,67.8374059 32.976807,68.9415102 33.8208995,69.4593993 C34.6649921,69.9772884 35.7690964,69.7128482 36.2869855,68.8687556 L47.4242203,50.0000416 Z"></path>
</svg>
