<?xml version="1.0" encoding="UTF-8" standalone="no"?>
<svg width="86px" height="86px" viewBox="0 0 86 86" version="1.1" xmlns="http://www.w3.org/2000/svg" xmlns:xlink="http://www.w3.org/1999/xlink" xmlns:sketch="http://www.bohemiancoding.com/sketch/ns">
    <!-- Generator: Sketch 3.4.3 (16044) - http://www.bohemiancoding.com/sketch -->
    <title>link</title>
    <path d="M65.4354054,88.4684685 C68.4584084,88.4684685 71.3763363,87.8978979 74.1891892,86.7567568 C77.002042,85.6156156 79.5195495,83.9339339 81.7417117,81.7117117 C83.9638739,79.4894895 85.6455556,76.971982 86.7867568,74.1591892 C87.927958,71.3463964 88.4985285,68.4284685 88.4984685,65.4054054 C88.4984685,62.4024024 87.9228829,59.4844745 86.7717117,56.6516216 C85.6205405,53.8187688 83.9438739,51.3012613 81.7417117,49.0990991 L70.2101802,37.5675676 C69.9899399,37.3473273 69.6596096,37.037027 69.2191892,36.6366667 C67.077027,34.7347447 64.6846246,33.2882883 62.041982,32.2972973 C59.3993393,31.3063063 56.6866366,30.8108108 53.9038739,30.8108108 C50.4003904,30.8108108 47.0870871,31.5615616 43.963964,33.0630631 C41.6216216,34.1641441 39.4994895,35.6656456 37.5975676,37.5675676 C35.6956456,39.4694895 34.1941441,41.5916216 33.0930631,43.933964 C34.5945646,45.4354655 36.4063664,46.1862162 38.5284685,46.1862162 C39.2691892,46.1862162 40.0199399,46.0760961 40.7807207,45.8558559 C42.082042,43.7537538 43.7837538,42.052042 45.8858559,40.7507207 C48.3483183,39.2492192 51.020991,38.4984685 53.9038739,38.4984685 C55.9058559,38.4984685 57.8478078,38.8788589 59.7297297,39.6396396 C61.6116517,40.4004204 63.2933333,41.5215315 64.7747748,43.002973 L76.3063063,54.5345045 C77.7878078,56.016006 78.9089189,57.6976877 79.6696396,59.5795495 C80.4303604,61.4614114 80.8107508,63.4033634 80.8108108,65.4054054 C80.8108709,67.4074474 80.4304805,69.3493994 79.6696396,71.2312613 C78.9087988,73.1131231 77.7876877,74.7948048 76.3063063,76.2763063 C74.8249249,77.7578078 73.1432432,78.8789189 71.2612613,79.6396396 C69.3792793,80.4003604 67.4373273,80.7807508 65.4354054,80.7808108 C63.4334835,80.7808709 61.4915315,80.4004805 59.6095495,79.6396396 C57.7275676,78.8787988 56.0458859,77.7576877 54.5645045,76.2763063 L46.4863964,68.1981982 C43.9238138,68.8989189 41.2711712,69.2492793 38.5284685,69.2492793 C38.088048,69.2492793 37.4674174,69.2292492 36.6665766,69.1891892 C37.066997,69.6296096 37.3772973,69.9599399 37.5974775,70.1801802 L49.129009,81.7117117 C51.3312312,83.9139339 53.8487387,85.5906006 56.6815315,86.7417117 C59.5143243,87.8928228 62.4322523,88.4684084 65.4353153,88.4684685 L65.4354054,88.4684685 Z M38.5285586,61.5616216 C42.032042,61.5616216 45.3453453,60.8108709 48.4684685,59.3093694 C50.8108108,58.2082883 52.9329429,56.7067868 54.8348649,54.8048649 C56.7367868,52.9029429 58.2382883,50.7808108 59.3393694,48.4384685 C57.8378679,46.936967 56.0260661,46.1862162 53.903964,46.1862162 C53.1632432,46.1862162 52.4124925,46.2963363 51.6517117,46.5165766 C50.3503904,48.6186787 48.6486787,50.3203904 46.5465766,51.6217117 C44.0841141,53.1232132 41.4114414,53.873964 38.5285586,53.873964 C36.5265766,53.873964 34.5846246,53.4935736 32.7027027,52.7327928 C30.8207808,51.972012 29.1390991,50.8509009 27.6576577,49.3694595 L16.1261261,37.8379279 C14.6446246,36.3564264 13.5235135,34.6747447 12.7627928,32.7928829 C12.0020721,30.911021 11.6216817,28.9690691 11.6216216,26.967027 C11.6215616,24.964985 12.001952,23.023033 12.7627928,21.1411712 C13.5236336,19.2593093 14.6447447,17.5776276 16.1261261,16.0961261 C17.6075075,14.6146246 19.2891892,13.4935135 21.1711712,12.7327928 C23.0531532,11.9720721 24.9951051,11.5916817 26.997027,11.5916216 C28.9989489,11.5915616 30.9409009,11.971952 32.8228829,12.7327928 C34.7048649,13.4936336 36.3865465,14.6147447 37.8679279,16.0961261 L45.946036,24.1742342 C48.5086186,23.4735135 51.1612613,23.1231532 53.903964,23.1231532 C54.3443844,23.1231532 54.965015,23.1431832 55.7658559,23.1832432 C55.3654354,22.7428228 55.0551351,22.4124925 54.834955,22.1922523 L43.3034234,10.6607207 C41.0812012,8.4384985 38.5636937,6.75681682 35.7509009,5.61567568 C32.9381081,4.47453453 30.0201802,3.90396396 26.9971171,3.90396396 C23.9941141,3.90396396 21.0761862,4.47954955 18.2433333,5.63072072 C15.4104805,6.78189189 12.892973,8.45855856 10.6908108,10.6607207 C8.46858859,12.8829429 6.78690691,15.4004505 5.64576577,18.2132432 C4.50462462,21.026036 3.93405405,23.943964 3.93405405,26.967027 C3.93405405,29.9900901 4.50462462,32.908018 5.64576577,35.7208108 C6.78690691,38.5336036 8.46858859,41.0511111 10.6908108,43.2733333 L22.2223423,54.8048649 C22.4425826,55.0251051 22.7729129,55.3354054 23.2133333,55.7357658 C25.3554955,57.6376877 27.7478979,59.0841441 30.3905405,60.0751351 C33.0331832,61.0661261 35.7458859,61.5616216 38.5286486,61.5616216 L38.5285586,61.5616216 Z" id="link" sketch:type="MSShapeGroup"></path>
</svg>
