<?xml version="1.0" encoding="UTF-8" standalone="no"?>
<svg width="86px" height="86px" viewBox="0 0 86 86" version="1.1" xmlns="http://www.w3.org/2000/svg" xmlns:xlink="http://www.w3.org/1999/xlink" xmlns:sketch="http://www.bohemiancoding.com/sketch/ns">
    <!-- Generator: Sketch 3.4.3 (16044) - http://www.bohemiancoding.com/sketch -->
    <title>loader</title>
    <path d="M62.5525225,31.8018919 C63.5935435,31.8018919 64.4944444,31.4215015 65.2552252,30.6607207 L76.1261261,19.7898198 C76.8869069,19.029039 77.2672973,18.1181381 77.2672973,17.0571171 C77.2672973,16.0160961 76.8869069,15.1151952 76.1261261,14.3544144 C75.3653453,13.5936336 74.4644444,13.2132432 73.4234234,13.2132432 C72.3623423,13.2132432 71.4514414,13.5936336 70.6907207,14.3544144 L59.8198198,25.2253153 C59.0790991,25.966036 58.7087387,26.8769369 58.7087387,27.958018 C58.7087387,29.0190991 59.0841141,29.925015 59.8348649,30.6757658 C60.5856156,31.4265165 61.4915315,31.8018919 62.5526126,31.8018919 L62.5525225,31.8018919 Z M29.9099099,31.8018919 C30.970991,31.8018919 31.8769069,31.4265165 32.6276577,30.6757658 C33.3784084,29.925015 33.7537838,29.0190991 33.7537838,27.958018 C33.7537838,26.8969369 33.3733934,25.986036 32.6126126,25.2253153 L21.7417117,14.3544144 C20.9809309,13.5936336 20.08003,13.2132432 19.039009,13.2132432 C17.9779279,13.2132432 17.072012,13.5886186 16.3212613,14.3393694 C15.5705105,15.0901201 15.1951351,15.996036 15.1951351,17.0571171 C15.1951351,18.1381982 15.5654955,19.0490991 16.3062162,19.7898198 L27.1771171,30.6607207 C27.9378979,31.4215015 28.8487988,31.8018919 29.9098198,31.8018919 L29.9099099,31.8018919 Z M7.77774775,48.1081982 L23.1531532,48.1081982 C24.2142342,48.1081982 25.1201502,47.7328228 25.8709009,46.9820721 C26.6216517,46.2313213 26.997027,45.3254054 26.997027,44.2643243 C26.997027,43.2032432 26.6216517,42.2973273 25.8709009,41.5465766 C25.1201502,40.7958258 24.2142342,40.4204505 23.1531532,40.4204505 L7.77774775,40.4204505 C6.71666667,40.4204505 5.81075075,40.7958258 5.06,41.5465766 C4.30924925,42.2973273 3.93387387,43.2032432 3.93387387,44.2643243 C3.93387387,45.3254054 4.30924925,46.2313213 5.06,46.9820721 C5.81075075,47.7328228 6.71666667,48.1081982 7.77774775,48.1081982 L7.77774775,48.1081982 Z M46.2162162,25.0451351 C47.2772973,25.0451351 48.1832132,24.6697598 48.933964,23.919009 C49.6847147,23.1682583 50.0600901,22.2623423 50.0600901,21.2012613 L50.0600901,5.82585586 C50.0600901,4.76477477 49.6847147,3.85885886 48.933964,3.10810811 C48.1832132,2.35735736 47.2772973,1.98198198 46.2162162,1.98198198 C45.1551351,1.98198198 44.2492192,2.35735736 43.4984685,3.10810811 C42.7477177,3.85885886 42.3723423,4.76477477 42.3723423,5.82585586 L42.3723423,21.2012613 C42.3723423,22.2623423 42.7477177,23.1682583 43.4984685,23.919009 C44.2492192,24.6697598 45.1551351,25.0451351 46.2162162,25.0451351 L46.2162162,25.0451351 Z M19.039009,75.3154054 C20.08003,75.3154054 20.9809309,74.935015 21.7417117,74.1742342 L32.6126126,63.3033333 C33.3733934,62.5425526 33.7537838,61.6416517 33.7537838,60.6006306 C33.7537838,59.5395495 33.3784084,58.6336336 32.6276577,57.8828829 C31.8769069,57.1321321 30.970991,56.7567568 29.9099099,56.7567568 C28.8288288,56.7567568 27.9179279,57.1271171 27.1772072,57.8678378 L16.3063063,68.7387387 C15.5655856,69.4794595 15.1952252,70.3903604 15.1952252,71.4714414 C15.1952252,72.5325225 15.5706006,73.4384384 16.3213514,74.1891892 C17.0721021,74.9399399 17.978018,75.3153153 19.0390991,75.3153153 L19.039009,75.3154054 Z M69.2792793,48.1081982 L84.6546847,48.1081982 C85.7157658,48.1081982 86.6216817,47.7328228 87.3724324,46.9820721 C88.1231832,46.2313213 88.4985586,45.3254054 88.4985586,44.2643243 C88.4985586,43.2032432 88.1231832,42.2973273 87.3724324,41.5465766 C86.6216817,40.7958258 85.7157658,40.4204505 84.6546847,40.4204505 L69.2792793,40.4204505 C68.2181982,40.4204505 67.3122823,40.7958258 66.5615315,41.5465766 C65.8107808,42.2973273 65.4354054,43.2032432 65.4354054,44.2643243 C65.4354054,45.3254054 65.8107808,46.2313213 66.5615315,46.9820721 C67.3122823,47.7328228 68.2181982,48.1081982 69.2792793,48.1081982 L69.2792793,48.1081982 Z M46.2162162,86.5465766 C47.2772973,86.5465766 48.1832132,86.1712012 48.933964,85.4204505 C49.6847147,84.6696997 50.0600901,83.7637838 50.0600901,82.7027027 L50.0600901,67.3272973 C50.0600901,66.2662162 49.6847147,65.3603003 48.933964,64.6095495 C48.1832132,63.8587988 47.2772973,63.4834234 46.2162162,63.4834234 C45.1551351,63.4834234 44.2492192,63.8587988 43.4984685,64.6095495 C42.7477177,65.3603003 42.3723423,66.2662162 42.3723423,67.3272973 L42.3723423,82.7027027 C42.3723423,83.7637838 42.7477177,84.6696997 43.4984685,85.4204505 C44.2492192,86.1712012 45.1551351,86.5465766 46.2162162,86.5465766 L46.2162162,86.5465766 Z M73.4234234,75.3154054 C74.4644444,75.3154054 75.3653453,74.935015 76.1261261,74.1742342 C76.8869069,73.4134535 77.2672973,72.5125526 77.2672973,71.4715315 C77.2672973,70.4104505 76.8869069,69.4995495 76.1261261,68.7388288 L65.2552252,57.8679279 C64.5145045,57.1272072 63.6136036,56.7568468 62.5525225,56.7568468 C61.4514414,56.7568468 60.5355255,57.1222222 59.8047748,57.852973 C59.074024,58.5837237 58.7086486,59.4996396 58.7086486,60.6007207 C58.7086486,61.6618018 59.079009,62.5627027 59.8197297,63.3034234 L70.6906306,74.1743243 C71.4514114,74.9351051 72.3623123,75.3154955 73.4233333,75.3154955 L73.4234234,75.3154054 Z" id="loader" sketch:type="MSShapeGroup"></path>
</svg>
