<?xml version="1.0" encoding="UTF-8" standalone="no"?>
<svg width="100px" height="100px" viewBox="20 20 60 60" version="1.1" xmlns="http://www.w3.org/2000/svg" xmlns:xlink="http://www.w3.org/1999/xlink">
    <!-- Generator: Sketch 3.8.3 (29802) - http://www.bohemiancoding.com/sketch -->
    <title>loader</title>
    <path d="M48.1935484,23.8064516 L48.1935484,34.283871 C48.1935484,35.2815466 49.0023243,36.0903226 50,36.0903226 C50.9976757,36.0903226 51.8064516,35.2815466 51.8064516,34.283871 L51.8064516,23.8064516 C51.8064516,22.8087759 50.9976757,22 50,22 C49.0023243,22 48.1935484,22.8087759 48.1935484,23.8064516 L48.1935484,23.8064516 Z M67.2442815,30.2010101 L59.8356272,37.6096644 C59.130164,38.3151276 59.130164,39.4589095 59.8356272,40.1643728 C60.5410905,40.869836 61.6848724,40.869836 62.3903356,40.1643728 L69.7989899,32.7557185 C70.5044531,32.0502553 70.5044531,30.9064734 69.7989899,30.2010101 C69.0935266,29.4955469 67.9497447,29.4955469 67.2442815,30.2010101 L67.2442815,30.2010101 Z M76.1935484,48.1935484 L65.716129,48.1935484 C64.7184534,48.1935484 63.9096774,49.0023243 63.9096774,50 C63.9096774,50.9976757 64.7184534,51.8064516 65.716129,51.8064516 L76.1935484,51.8064516 C77.1912241,51.8064516 78,50.9976757 78,50 C78,49.0023243 77.1912241,48.1935484 76.1935484,48.1935484 L76.1935484,48.1935484 Z M69.7989899,67.2442815 L62.3903356,59.8356272 C61.6848724,59.130164 60.5410905,59.130164 59.8356272,59.8356272 C59.130164,60.5410905 59.130164,61.6848724 59.8356272,62.3903356 L67.2442815,69.7989899 C67.9497447,70.5044531 69.0935266,70.5044531 69.7989899,69.7989899 C70.5044531,69.0935266 70.5044531,67.9497447 69.7989899,67.2442815 L69.7989899,67.2442815 Z M51.8064516,76.1935484 L51.8064516,65.716129 C51.8064516,64.7184534 50.9976757,63.9096774 50,63.9096774 C49.0023243,63.9096774 48.1935484,64.7184534 48.1935484,65.716129 L48.1935484,76.1935484 C48.1935484,77.1912241 49.0023243,78 50,78 C50.9976757,78 51.8064516,77.1912241 51.8064516,76.1935484 L51.8064516,76.1935484 Z M32.7557185,69.7989899 L40.1643728,62.3903356 C40.869836,61.6848724 40.869836,60.5410905 40.1643728,59.8356272 C39.4589095,59.130164 38.3151276,59.130164 37.6096644,59.8356272 L30.2010101,67.2442815 C29.4955469,67.9497447 29.4955469,69.0935266 30.2010101,69.7989899 C30.9064734,70.5044531 32.0502553,70.5044531 32.7557185,69.7989899 L32.7557185,69.7989899 Z M23.8064516,51.8064516 L34.283871,51.8064516 C35.2815466,51.8064516 36.0903226,50.9976757 36.0903226,50 C36.0903226,49.0023243 35.2815466,48.1935484 34.283871,48.1935484 L23.8064516,48.1935484 C22.8087759,48.1935484 22,49.0023243 22,50 C22,50.9976757 22.8087759,51.8064516 23.8064516,51.8064516 L23.8064516,51.8064516 Z M30.2010101,32.7557185 L37.6096644,40.1643728 C38.3151276,40.869836 39.4589095,40.869836 40.1643728,40.1643728 C40.869836,39.4589095 40.869836,38.3151276 40.1643728,37.6096644 L32.7557185,30.2010101 C32.0502553,29.4955469 30.9064734,29.4955469 30.2010101,30.2010101 C29.4955469,30.9064734 29.4955469,32.0502553 30.2010101,32.7557185 L30.2010101,32.7557185 Z" id="Line"></path>
</svg>
