<?xml version="1.0" encoding="UTF-8" standalone="no"?>
<svg xmlns="http://www.w3.org/2000/svg" width="20" height="20">
  <path fill-rule="evenodd" d="M10 0a1 1 0 011 1v2l-.003.07a7.004 7.004 0 015.933 5.934L17 9h2a1 1 0 010 2h-2l-.07-.003a7.004 7.004 0 01-5.933 5.933A.751.751 0 0111 17v2a1 1 0 01-2 0v-2l.004-.07a7.004 7.004 0 01-5.934-5.933L3 11H1a1 1 0 010-2h2l.07.004A7.004 7.004 0 019.004 3.07.515.515 0 019 3V1a1 1 0 011-1zm0 5a5 5 0 100 10 5 5 0 000-10zm0 3a2 2 0 110 4 2 2 0 010-4z"/>
</svg>
