<?xml version="1.0" encoding="UTF-8" standalone="no"?>
<svg width="14px" height="18px" viewBox="0 0 14 18" version="1.1" xmlns="http://www.w3.org/2000/svg" xmlns:xlink="http://www.w3.org/1999/xlink">
    <!-- Generator: Sketch 43.2 (39069) - http://www.bohemiancoding.com/sketch -->
    <title>path-1</title>
    <desc>Created with Sketch.</desc>
        <path d="M7,17.4285714 C4.73872363,17.4285714 0,11.5474484 0,7 C0,3.13400675 3.13400675,0 7,0 C10.8659932,0 14,3.13400675 14,7 C14,11.5474484 9.2612764,17.4285714 7,17.4285714 Z M7.6673993,14.8872122 C8.2734276,14.3933661 8.9379548,13.7229582 9.5427492,12.9723615 C11.0737002,11.0723328 12,8.97944642 12,7 C12,4.23857625 9.7614237,2 7,2 C4.23857625,2 2,4.23857625 2,7 C2,8.97944642 2.92629984,11.0723328 4.4572508,12.9723615 C5.06204521,13.7229582 5.72657241,14.3933661 6.33260067,14.8872122 C6.58918949,15.0963038 6.82032354,15.2607994 7,15.3659049 C7.1796765,15.2607994 7.4108105,15.0963038 7.6673993,14.8872122 Z M7,10.5 C5.06700338,10.5 3.5,8.93299662 3.5,7 C3.5,5.06700338 5.06700338,3.5 7,3.5 C8.9329966,3.5 10.5,5.06700338 10.5,7 C10.5,8.93299662 8.9329966,10.5 7,10.5 Z M7,8.5 C7.8284271,8.5 8.5,7.82842712 8.5,7 C8.5,6.17157288 7.8284271,5.5 7,5.5 C6.17157288,5.5 5.5,6.17157288 5.5,7 C5.5,7.82842712 6.17157288,8.5 7,8.5 Z" id="path-1"></path>
</svg>
