<?xml version="1.0" encoding="UTF-8" standalone="no"?>
<svg width="100px" height="100px" viewBox="20 20 60 60" version="1.1" xmlns="http://www.w3.org/2000/svg" xmlns:xlink="http://www.w3.org/1999/xlink">
    <!-- Generator: Sketch 3.8.3 (29802) - http://www.bohemiancoding.com/sketch -->
    <title>location</title>
    <path d="M50.2723518,24 C38.8318557,24 29.5,33.3161068 29.5,44.7820844 C29.5,46.1705426 29.6345941,47.5590009 29.9037822,48.9026701 C29.9037822,48.9922481 29.9486469,49.081826 29.9486469,49.2161929 C32.2367461,59.4728682 48.3431701,74.8802756 49.0161405,75.5073213 C49.375058,75.8656331 49.8237049,76 50.2723518,76 C50.7209987,76 51.1696456,75.8208441 51.5285631,75.5073213 C52.2015335,74.8354866 68.2182281,59.4728682 70.5063273,49.4401378 C70.5063273,49.3505599 70.551192,49.2609819 70.551192,49.171404 C70.8652448,47.7381568 70.9998389,46.2601206 70.9998389,44.7820844 C71.0447036,33.3161068 61.7128479,24 50.2723518,24 L50.2723518,24 Z M66.9620167,48.4995693 L66.9620167,48.6339363 C65.2571585,56.0689061 54.0858505,67.8036176 50.2723518,71.6106804 C46.4588531,67.8036176 35.2426804,56.0689061 33.5378222,48.4547804 C33.5378222,48.3652024 33.5378222,48.3204134 33.4929575,48.2308355 C33.268634,47.0663221 33.1340399,45.9018088 33.1340399,44.7372954 C33.1340399,35.3316107 40.8059021,27.627907 50.2274871,27.627907 C59.6490722,27.627907 67.365799,35.2868217 67.365799,44.7372954 C67.365799,46.0361757 67.2312049,47.290267 66.9620167,48.4995693 L66.9620167,48.4995693 Z M50.2723518,35.6899225 C46.4139884,35.6899225 43.3183247,38.8251507 43.3183247,42.6322136 C43.3183247,46.4392765 46.4588531,49.5745047 50.2723518,49.5745047 C54.0858505,49.5745047 57.2263789,46.4840655 57.2263789,42.6322136 C57.2263789,38.7803618 54.1307152,35.6899225 50.2723518,35.6899225 Z M50.2723518,45.9465978 C48.4328995,45.9465978 46.9523647,44.4685616 46.9523647,42.6322136 C46.9523647,40.7958656 48.4328995,39.3178295 50.2723518,39.3178295 C52.1118041,39.3178295 53.5923389,40.7958656 53.5923389,42.6322136 C53.5923389,44.4685616 52.1118041,45.9465978 50.2723518,45.9465978 Z"></path>
</svg>
