<?xml version="1.0" encoding="UTF-8" standalone="no"?>
<svg width="100px" height="100px" viewBox="0 0 100 100" version="1.1" xmlns="http://www.w3.org/2000/svg" xmlns:xlink="http://www.w3.org/1999/xlink">
    <!-- Generator: Sketch 3.8.3 (29802) - http://www.bohemiancoding.com/sketch -->
    <title>repeat</title>
    <path d="M67.6153315,36 L36.0056329,36 C32.6827817,36 30,38.6797175 30,41.990671 L30,53.1924192 C30,54.2969887 29.1045695,55.1924192 28,55.1924192 C26.8954305,55.1924192 26,54.2969887 26,53.1924192 L26,41.990671 C26,36.4695546 30.4746653,32 36.0056329,32 L67.7522248,32 L62.6178634,26.963241 C61.9276151,26.2853586 61.9276151,25.1862941 62.6178634,24.5084118 C63.3081117,23.8305294 64.4272253,23.8305294 65.1174736,24.5084118 L73.4823138,32.7233942 C74.1725621,33.4012765 74.1725621,34.500341 73.4823138,35.1782234 L65.0172965,43.4915882 C64.3270482,44.1694706 63.2079345,44.1694706 62.5176862,43.4915882 C61.8274379,42.8137059 61.8274379,41.7146414 62.5176862,41.036759 L67.6153315,36 Z M32.3846685,64 L63.9943671,64 C67.3172183,64 70,61.3202825 70,58.009329 L70,46.8075808 C70,45.7030113 70.8954305,44.8075808 72,44.8075808 C73.1045695,44.8075808 74,45.7030113 74,46.8075808 L74,58.009329 C74,63.5304454 69.5253347,68 63.9943671,68 L32.2477752,68 L37.3821366,73.036759 C38.0723849,73.7146414 38.0723849,74.8137059 37.3821366,75.4915882 C36.6918883,76.1694706 35.5727747,76.1694706 34.8825264,75.4915882 L26.5176862,67.2766058 C25.8274379,66.5987235 25.8274379,65.499659 26.5176862,64.8217766 L34.9827035,56.5084118 C35.6729518,55.8305294 36.7920655,55.8305294 37.4823138,56.5084118 C38.1725621,57.1862941 38.1725621,58.2853586 37.4823138,58.963241 L32.3846685,64 Z"></path>
</svg>
