<?xml version="1.0" encoding="UTF-8"?>
<svg width="18" height="16" xmlns="http://www.w3.org/2000/svg">
  <path d="M9 6.863c-.99 0-1.8.772-1.8 1.716s.81 1.716 1.8 1.716 1.8-.772 1.8-1.716S9.99 6.863 9 6.863zm5.4 1.716c0-2.84-2.421-5.147-5.4-5.147-2.979 0-5.4 2.307-5.4 5.147 0 1.905 1.089 3.56 2.7 4.453l.9-1.493c-1.071-.6-1.8-1.69-1.8-2.96 0-1.896 1.611-3.432 3.6-3.432s3.6 1.536 3.6 3.432c0 1.27-.729 2.36-1.8 2.96l.9 1.493c1.611-.893 2.7-2.548 2.7-4.453zM9 0C4.032 0 0 3.843 0 8.58c0 3.173 1.809 5.936 4.491 7.42l.9-1.484C3.249 13.323 1.8 11.118 1.8 8.579c0-3.792 3.222-6.863 7.2-6.863s7.2 3.071 7.2 6.863c0 2.54-1.449 4.744-3.6 5.937L13.5 16c2.691-1.484 4.5-4.247 4.5-7.42C18 3.842 13.968 0 9 0z" fill-rule="evenodd"/>
</svg>

