<?xml version="1.0" encoding="UTF-8" standalone="no"?>
<svg width="20" height="16" xmlns="http://www.w3.org/2000/svg">
  <path d="M1.147.908l18.021 12.619-1.147 1.638-1.527-1.07a8.95 8.95 0 01-2.05 1.71l-.336.195-.9-1.484a7.24 7.24 0 001.83-1.44l-1.457-1.02-.228.223a5.432 5.432 0 01-.766.587l-.28.166-.9-1.493c.257-.144.494-.316.706-.511L3.475 4.979l-.15.245a6.588 6.588 0 00-.917 3.355c0 2.449 1.347 4.586 3.364 5.805l.227.132-.9 1.484C2.417 14.516.608 11.753.608 8.58c0-1.7.519-3.284 1.414-4.617L0 2.547 1.147.908zm3.787 5.094l1.463 1.023a3.29 3.29 0 00-.39 1.554c0 1.2.65 2.238 1.625 2.855l.176.105-.9 1.493c-1.611-.893-2.7-2.548-2.7-4.453 0-.939.264-1.82.726-2.577zM9.608 0c4.968 0 9 3.843 9 8.58 0 .986-.175 1.933-.497 2.814l-1.537-1.077a6.546 6.546 0 00.234-1.738c0-3.792-3.222-6.863-7.2-6.863a7.43 7.43 0 00-3.824 1.046L4.248 1.688A9.251 9.251 0 019.608 0zm-1.72 8.07l2.742 1.92c-.291.192-.644.305-1.022.305-.99 0-1.8-.772-1.8-1.716 0-.177.028-.347.08-.508zm1.72-4.638c2.979 0 5.4 2.307 5.4 5.147 0 .208-.013.413-.038.614l-1.83-1.28c-.326-1.577-1.783-2.766-3.532-2.766-.132 0-.262.007-.39.02l-1.83-1.281a5.596 5.596 0 012.22-.454z" fill-rule="evenodd"/>
</svg>

