<?xml version="1.0" encoding="UTF-8" standalone="no"?>
<svg
   width="50px"
   height="35px"
   viewBox="0 0 50 35"
   version="1.1"
   id="svg1"
   sodipodi:docname="measure_point.svg"
   inkscape:version="1.4 (1:1.4+202410161351+e7c3feb100)"
   xmlns:inkscape="http://www.inkscape.org/namespaces/inkscape"
   xmlns:sodipodi="http://sodipodi.sourceforge.net/DTD/sodipodi-0.dtd"
   xmlns="http://www.w3.org/2000/svg"
   xmlns:svg="http://www.w3.org/2000/svg">
  <sodipodi:namedview
     id="namedview1"
     pagecolor="#ffffff"
     bordercolor="#000000"
     borderopacity="0.25"
     inkscape:showpageshadow="2"
     inkscape:pageopacity="0.0"
     inkscape:pagecheckerboard="0"
     inkscape:deskcolor="#d1d1d1"
     inkscape:zoom="7.7781746"
     inkscape:cx="24.170195"
     inkscape:cy="20.377532"
     inkscape:window-width="1854"
     inkscape:window-height="1011"
     inkscape:window-x="66"
     inkscape:window-y="32"
     inkscape:window-maximized="1"
     inkscape:current-layer="measure" />
  <!-- Generator: Sketch 43.2 (39069) - http://www.bohemiancoding.com/sketch -->
  <title
     id="title1">measure</title>
  <desc
     id="desc1">Created with Sketch.</desc>
  <defs
     id="defs1" />
  <g
     id="Page-1"
     stroke="none"
     stroke-width="1"
     fill-rule="evenodd">
    <g
       id="measure"
       fill-rule="nonzero">
      <path
         d="m 41.328105,16.997768 c -4.656392,0 -8.431144,-3.774752 -8.431144,-8.4311439 0,-4.6563924 3.774752,-8.4311443 8.431144,-8.4311443 4.656392,0 8.431144,3.7747519 8.431144,8.4311443 0,4.6563919 -3.774752,8.4311439 -8.431144,8.4311439 z m 0,-4.5 c 2.171111,0 3.931144,-1.760033 3.931144,-3.9311439 0,-2.1711111 -1.760033,-3.9311443 -3.931144,-3.9311443 -2.171111,0 -3.931144,1.7600332 -3.931144,3.9311443 0,2.1711109 1.760033,3.9311439 3.931144,3.9311439 z"
         id="Oval-46"
         sodipodi:nodetypes="ssssssssss" />
      <path
         d="M8.92902475,16.9977683 C4.27263236,16.9977683 0.4978805,13.2230164 0.4978805,8.56662405 C0.4978805,3.91023166 4.27263236,0.1354798 8.92902475,0.1354798 C13.5854171,0.1354798 17.360169,3.91023166 17.360169,8.56662405 C17.360169,13.2230164 13.5854171,16.9977683 8.92902475,16.9977683 Z M8.92902475,12.4977683 C11.1001358,12.4977683 12.860169,10.7377351 12.860169,8.56662405 C12.860169,6.39551303 11.1001358,4.6354798 8.92902475,4.6354798 C6.75791373,4.6354798 4.9978805,6.39551303 4.9978805,8.56662405 C4.9978805,10.7377351 6.75791373,12.4977683 8.92902475,12.4977683 Z"
         id="Oval-46-Copy" />
      <path
         d="m 29.910211,33.775526 c -4.016687,2.355465 -9.182337,1.008778 -11.537801,-3.007909 -2.355465,-4.016687 -1.008778,-9.182337 3.007909,-11.537801 4.016687,-2.355465 9.182337,-1.008778 11.537801,3.007909 2.355465,4.016687 1.008778,9.182337 -3.007909,11.537801 z m -2.276353,-3.88178 c 1.872839,-1.09827 2.500752,-3.506829 1.402482,-5.379668 -1.09827,-1.872839 -3.506829,-2.500752 -5.379668,-1.402482 -1.872839,1.09827 -2.500752,3.506829 -1.402482,5.379668 1.09827,1.872839 3.506829,2.500752 5.379668,1.402482 z"
         id="Oval-46-5"
         sodipodi:nodetypes="ssssssssss" />
    </g>
  </g>
</svg>
