<?xml version="1.0" encoding="utf-8"?>
<!-- Generator: Adobe Illustrator 21.0.0, SVG Export Plug-In . SVG Version: 6.00 Build 0)  -->
<svg version="1.1" id="Layer_1" xmlns="http://www.w3.org/2000/svg" xmlns:xlink="http://www.w3.org/1999/xlink" x="0px" y="0px"
	 viewBox="0 0 512 512" style="enable-background:new 0 0 512 512;" xml:space="preserve">
<g>
	<path d="M114.6,0L101,14.2L14.2,101L0,114.6l141.7,141.7l-98.6,98.6l-1.2,6.2L20.3,469.5l-6.2,29l29-6.2l108.4-21.6l6.2-1.2
		l98.6-98.6L397.4,512l13.6-14.2l86.9-86.9l14.2-13.6l-141.2-141l97.3-97.3c31.7-31.7,31.7-82.9,0-114.6c-15.9-15.9-36.6-24-57.3-24
		s-41.4,8.2-57.3,24l-97.3,97.3L114.6,0z M114.6,56.1l38.2,38.8l-29,29l28.3,28.3l29-29l46.8,46.8l-58.5,58.5l-114-114L114.6,56.1z
		 M411,58.5c10.2,0,20.6,4.6,29.6,13.6c17.8,17.8,17.8,40.7,0,58.5l-12.9,12.9L369.1,85L382,72.1C390.9,63.2,400.7,58.5,411,58.5z
		 M341.3,112.8l58.5,58.5L161.4,409.7c-13-25-33.5-45.5-58.5-58.5L341.3,112.8z M343.2,284l46.8,46.8l-29.6,29.6l28.3,28.3
		l29.6-29.6l37.6,37.6l-59.1,59.1L284,343.2L343.2,284z M77.6,382.6c23.6,9.9,42.4,28.7,52.4,52.4l-65.3,12.9L77.6,382.6z"/>
</g>
</svg>
