<?xml version="1.0" encoding="UTF-8" standalone="no"?>
<!-- Uploaded to: SVG Repo, www.svgrepo.com, Generator: SVG Repo Mixer Tools -->

<svg
   fill="#000000"
   width="660.74603"
   height="660.82239"
   viewBox="0 0 13.214921 13.216448"
   version="1.1"
   id="svg1"
   xmlns="http://www.w3.org/2000/svg"
   xmlns:svg="http://www.w3.org/2000/svg">
  <defs
     id="defs1" />
  <path
     d="m 12.867234,9.318224 -2.68,-2.71 2.26,-2.26 a 2.49,2.49 0 0 0 0,-3.52999994 2.5,2.5 0 0 0 -3.5299995,0 l -0.89,0.87999994 -1.41,1.41 -2.72,-2.74999994 a 1.26,1.26 0 0 0 -1.76,0 L 0.36723451,2.128224 a 1.25,1.25 0 0 0 0,1.77 l 2.74999999,2.71 -0.22,0.22 -0.89,0.88 -1.74999999,3.66 a 1.25,1.25 0 0 0 1.66999999,1.67 l 3.62,-1.75 0.49,-0.49 0.39,-0.39 0.19,-0.23 2.68,2.68 a 1.26,1.26 0 0 0 1.7599995,0 l 1.77,-1.77 a 1.25,1.25 0 0 0 0.04,-1.77 z m -2.19,-8 a 1.27,1.27 0 0 1 0.89,0.36 1.25,1.25 0 0 1 0,1.77 l -1.7699995,-1.72 a 1.27,1.27 0 0 1 0.8799995,-0.36 z m -9.4299995,1.69 1.77,-1.76 0.82,0.82 -0.87,0.88 0.88,0.88 0.88,-0.88 1,1 -1.73,1.81 z m 0.13,8.91 1.57,-3.23 1.67,1.66 z m 4.17,-2.4 -1.77,-1.77 5.14,-5.14 1.7599995,1.76 z m 4.6699995,2.45 -2.6799995,-2.67 1.77,-1.77 0.9299995,0.93 -0.8799995,0.88 0.8799995,0.89 0.89,-0.89 0.86,0.87 z"
     id="path1"
     style="fill:#333333" />
</svg>
