<?xml version="1.0" encoding="UTF-8" standalone="no"?>
<svg
   width="50px"
   height="35px"
   viewBox="0 0 50 35"
   version="1.1"
   id="svg49"
   sodipodi:docname="measure_angle.svg"
   inkscape:version="1.4 (1:1.4+202410161351+e7c3feb100)"
   xmlns:inkscape="http://www.inkscape.org/namespaces/inkscape"
   xmlns:sodipodi="http://sodipodi.sourceforge.net/DTD/sodipodi-0.dtd"
   xmlns="http://www.w3.org/2000/svg"
   xmlns:svg="http://www.w3.org/2000/svg"
   xmlns:rdf="http://www.w3.org/1999/02/22-rdf-syntax-ns#"
   xmlns:cc="http://creativecommons.org/ns#"
   xmlns:dc="http://purl.org/dc/elements/1.1/">
  <sodipodi:namedview
     id="namedview51"
     pagecolor="#ffffff"
     bordercolor="#666666"
     borderopacity="1.0"
     inkscape:pageshadow="2"
     inkscape:pageopacity="0.0"
     inkscape:pagecheckerboard="0"
     showgrid="false"
     inkscape:zoom="7.909688"
     inkscape:cx="19.280154"
     inkscape:cy="11.062383"
     inkscape:window-width="1247"
     inkscape:window-height="1011"
     inkscape:window-x="91"
     inkscape:window-y="32"
     inkscape:window-maximized="0"
     inkscape:current-layer="Page-1"
     inkscape:showpageshadow="2"
     inkscape:deskcolor="#d1d1d1" />
  <!-- Generator: Sketch 43.2 (39069) - http://www.bohemiancoding.com/sketch -->
  <title
     id="title31">measure</title>
  <desc
     id="desc33">Created with Sketch.</desc>
  <defs
     id="defs35" />
  <g
     id="Page-1"
     stroke="none"
     stroke-width="1"
     fill-rule="evenodd">
    <polygon
       id="Line"
       points="16.736786,7.0050717 16.736786,9.4775294 33.263213,9.4775294 33.263213,7.0050717 "
       style="fill-rule:nonzero"
       transform="matrix(1.6836356,0,0,0.86436545,-17.310921,12.637471)" />
    <path
       d="m 39.501956,22.685709 c -2.098027,-2.088469 -2.098028,-5.474552 0,-7.563024 2.098025,-2.088472 5.499597,-2.088471 7.597623,10e-7 2.098026,2.088471 2.098026,5.474552 -3e-6,7.563023 -2.098025,2.08847 -5.499595,2.08847 -7.59762,0 z m 2.027559,-2.018326 c 0.978236,0.97378 2.564268,0.973778 3.542504,-1e-6 0.978235,-0.97378 0.978235,-2.55259 1e-6,-3.526367 -0.978237,-0.973783 -2.564269,-0.973783 -3.542505,0 -0.978235,0.973777 -0.978236,2.552587 0,3.526368 z"
       id="Oval-46-1"
       style="fill-rule:nonzero;stroke-width:0.635748" />
    <polygon
       id="Line-1"
       points="33.263213,7.0050717 16.736786,7.0050717 16.736786,9.4775294 33.263213,9.4775294 "
       style="fill-rule:nonzero"
       transform="matrix(0.86112217,0.58146353,-0.86112217,0.58146353,18.347076,-7.6208659)" />
    <path
       id="path1-3-6"
       style="stroke-width:0.253453"
       d="m 36.376368,10.2584 c -0.02691,0.01206 -0.05458,0.04967 -0.08555,0.100228 0.04929,-0.02176 0.08571,-0.05338 0.08555,-0.100228 z m 1.720209,0.103106 c -0.10917,-7.75e-4 -0.219396,0.01104 -0.329989,0.03437 0.189008,-0.0084 0.379782,-0.01437 0.571366,-0.01437 -0.08059,-0.01071 -0.160279,-0.01946 -0.241377,-0.02002 z m -1.869928,0.117397 c -0.01347,0.02809 -0.02614,0.06039 -0.03973,0.09163 0.108905,-0.01909 0.21985,-0.03535 0.329984,-0.05154 -0.0971,-0.0068 -0.193617,-0.01933 -0.290266,-0.0401 z m -3.672626,0.01437 c -3.537681,1.665454 -5.924483,4.807739 -5.924483,8.413101 0,0.318125 0.311687,0.575573 0.696639,0.575573 0.384958,0 0.69664,-0.257448 0.69664,-0.575573 0,-3.178889 2.106709,-5.948044 5.227841,-7.413722 -0.185969,-0.293384 -0.372583,-0.58548 -0.592754,-0.859065 -0.03833,-0.04764 -0.07142,-0.09367 -0.10389,-0.140304 z m 2.542119,0.277763 c 0.0079,0.01206 0.01361,0.02503 0.02138,0.03724 0.0039,-0.0011 0.0082,-0.0016 0.01215,-0.003 -0.01391,-0.01646 -0.02931,-0.0329 -0.03362,-0.03437 z m 14.690515,10.174181 c -0.02902,0.01104 -0.05808,0.02231 -0.0886,0.03437 -0.01347,0.09764 -0.03104,0.194618 -0.04584,0.292081 0.01793,-0.01104 0.03417,-0.02556 0.05195,-0.03724 0.02877,-0.09625 0.05722,-0.191881 0.08249,-0.289222 z m -20.269733,4.232272 c 0.09964,0.05107 0.19652,0.10701 0.29332,0.163221 l -0.10389,-0.123125 c -0.07249,-0.01251 -0.137675,-0.02422 -0.189438,-0.04009 z m 1.900477,0.160358 c -0.0067,0.01178 -0.0139,0.02384 -0.02138,0.03722 0.06401,-0.0051 0.128427,-0.0094 0.192492,-0.01437 -0.05707,-0.0078 -0.114046,-0.01515 -0.171103,-0.02291 z m 6.560012,3.232943 v 0.003 c 0.0019,5e-5 0.0039,-5.3e-5 0.0061,0 v -0.003 c -0.0019,-7.4e-5 -0.0039,7.2e-5 -0.0061,0 z" />
    <polygon
       id="Line-Copy-13"
       points="23.763771,34.451148 26.236229,34.451148 26.236229,23.466435 23.763771,23.466435 "
       transform="matrix(0.95467986,0,0,0.86188744,1.3343478,5.1889401)" />
    <polygon
       id="Line-Copy-14"
       points="9.7098009,34.451148 12.182259,34.451148 12.182259,23.466435 9.7098009,23.466435 "
       transform="matrix(0.95467986,0,0,0.86188744,1.3343478,5.1889401)" />
    <polygon
       id="Line-Copy-15"
       points="16.736786,31.22035 19.209243,31.22035 19.209243,23.466435 16.736786,23.466435 "
       transform="matrix(0.95467986,0,0,0.86188744,1.3343478,5.1889401)" />
    <polygon
       id="Line-Copy-20"
       points="2.6828158,31.22035 5.1552735,31.22035 5.1552735,23.466435 2.6828158,23.466435 "
       transform="matrix(0.95467986,0,0,0.86188744,1.3343478,5.1889401)" />
    <polygon
       id="Line-Copy-17"
       points="37.817742,34.451148 40.2902,34.451148 40.2902,23.466435 37.817742,23.466435 "
       transform="matrix(0.95467986,0,0,0.86188744,1.3343478,5.1889401)" />
    <polygon
       id="Line-Copy-19"
       points="30.790755,31.22035 33.263213,31.22035 33.263213,23.466435 30.790755,23.466435 "
       transform="matrix(0.95467986,0,0,0.86188744,1.3343478,5.1889401)" />
    <polygon
       id="Line-Copy-21"
       points="44.844727,31.22035 47.317184,31.22035 47.317184,23.466435 44.844727,23.466435 "
       transform="matrix(0.95467986,0,0,0.86188744,1.3343478,5.1889401)" />
    <path
       d="m 18.951972,9.2329694 c -2.098027,-2.088469 -2.098028,-5.474552 0,-7.563024 2.098025,-2.08847196 5.499597,-2.08847096 7.597623,10e-7 2.098026,2.088471 2.098026,5.474552 -3e-6,7.563023 -2.098025,2.0884696 -5.499595,2.0884696 -7.59762,0 z m 2.027559,-2.018326 c 0.978236,0.97378 2.564268,0.973778 3.542504,-1e-6 0.978235,-0.97378 0.978235,-2.55259 1e-6,-3.526367 -0.978237,-0.973783 -2.564269,-0.973783 -3.542505,0 -0.978235,0.973777 -0.978236,2.552587 0,3.526368 z"
       id="Oval-46-1-7"
       style="fill-rule:nonzero;stroke-width:0.635748" />
    <path
       d="m 4.1714035,22.577167 c -2.098027,-2.088469 -2.098028,-5.474552 0,-7.563024 2.098025,-2.088472 5.499597,-2.088471 7.5976225,10e-7 2.098026,2.088471 2.098026,5.474552 -3e-6,7.563023 -2.0980245,2.08847 -5.4995945,2.08847 -7.5976195,0 z m 2.027559,-2.018326 c 0.978236,0.97378 2.564268,0.973778 3.542504,-1e-6 0.9782345,-0.97378 0.9782345,-2.55259 1e-6,-3.526367 -0.978237,-0.973783 -2.564269,-0.973783 -3.542505,0 -0.978235,0.973777 -0.978236,2.552587 0,3.526368 z"
       id="Oval-46-1-5"
       style="fill-rule:nonzero;stroke-width:0.635748" />
  </g>
  <metadata
     id="metadata219">
    <rdf:RDF>
      <cc:Work
         rdf:about="">
        <dc:title>measure</dc:title>
      </cc:Work>
    </rdf:RDF>
  </metadata>
</svg>
