<?xml version="1.0" encoding="UTF-8" standalone="no"?>
<svg width="100px" height="100px" viewBox="0 0 100 100" version="1.1" xmlns="http://www.w3.org/2000/svg" xmlns:xlink="http://www.w3.org/1999/xlink">
    <!-- Generator: Sketch 3.8.3 (29802) - http://www.bohemiancoding.com/sketch -->
    <title>menu</title>
    <path d="M25.2931034,38.1111111 L73.7068966,38.1111111 C74.6972002,38.1111111 75.5,37.3027364 75.5,36.3055556 C75.5,35.3083748 74.6972002,34.5 73.7068966,34.5 L25.2931034,34.5 C24.3027998,34.5 23.5,35.3083748 23.5,36.3055556 C23.5,37.3027364 24.3027998,38.1111111 25.2931034,38.1111111 Z M25.2931034,52.5555556 L73.7068966,52.5555556 C74.6972002,52.5555556 75.5,51.7471808 75.5,50.75 C75.5,49.7528192 74.6972002,48.9444444 73.7068966,48.9444444 L25.2931034,48.9444444 C24.3027998,48.9444444 23.5,49.7528192 23.5,50.75 C23.5,51.7471808 24.3027998,52.5555556 25.2931034,52.5555556 Z M25.2931034,67 L73.7068966,67 C74.6972002,67 75.5,66.1916252 75.5,65.1944444 C75.5,64.1972636 74.6972002,63.3888889 73.7068966,63.3888889 L25.2931034,63.3888889 C24.3027998,63.3888889 23.5,64.1972636 23.5,65.1944444 C23.5,66.1916252 24.3027998,67 25.2931034,67 Z"></path>
</svg>
