<svg width="20" height="20" viewBox="0 0 20 20" xmlns="http://www.w3.org/2000/svg">
<g id="menu-20">
<path id="Union" fill-rule="evenodd" clip-rule="evenodd" d="M2 5C2 4.44772 2.44772 4 3 4H17C17.5523 4 18 4.44772 18 5C18 5.55228 17.5523 6 17 6H3C2.44772 6 2 5.55228 2 5ZM2 15C2 14.4477 2.44772 14 3 14H11C11.5523 14 12 14.4477 12 15C12 15.5523 11.5523 16 11 16H3C2.44772 16 2 15.5523 2 15ZM3 9C2.44772 9 2 9.44772 2 10C2 10.5523 2.44772 11 3 11H15C15.5523 11 16 10.5523 16 10C16 9.44772 15.5523 9 15 9H3Z" />
</g>
</svg>
