<?xml version="1.0" encoding="UTF-8" standalone="no"?>
<svg width="78px" height="55px" viewBox="0 0 78 55" version="1.1" xmlns="http://www.w3.org/2000/svg" xmlns:xlink="http://www.w3.org/1999/xlink" xmlns:sketch="http://www.bohemiancoding.com/sketch/ns">
    <!-- Generator: Sketch 3.4.3 (16044) - http://www.bohemiancoding.com/sketch -->
    <title>menu</title>
    <path d="M11.6216216,73.0931532 L80.8108108,73.0931532 C81.8718919,73.0931532 82.7778078,72.7177778 83.5285586,71.967027 C84.2793093,71.2162763 84.6546847,70.3103604 84.6546847,69.2492793 C84.6546847,68.1881982 84.2793093,67.2822823 83.5285586,66.5315315 C82.7778078,65.7807808 81.8718919,65.4054054 80.8108108,65.4054054 L11.6216216,65.4054054 C10.5605405,65.4054054 9.65462462,65.7807808 8.90387387,66.5315315 C8.15312312,67.2822823 7.77774775,68.1881982 7.77774775,69.2492793 C7.77774775,70.3103604 8.15312312,71.2162763 8.90387387,71.967027 C9.65462462,72.7177778 10.5605405,73.0931532 11.6216216,73.0931532 L11.6216216,73.0931532 Z M11.6216216,26.967027 L80.8108108,26.967027 C81.8718919,26.967027 82.7778078,26.5916517 83.5285586,25.8409009 C84.2793093,25.0901502 84.6546847,24.1842342 84.6546847,23.1231532 C84.6546847,22.0620721 84.2793093,21.1561562 83.5285586,20.4054054 C82.7778078,19.6546547 81.8718919,19.2792793 80.8108108,19.2792793 L11.6216216,19.2792793 C10.5605405,19.2792793 9.65462462,19.6546547 8.90387387,20.4054054 C8.15312312,21.1561562 7.77774775,22.0620721 7.77774775,23.1231532 C7.77774775,24.1842342 8.15312312,25.0901502 8.90387387,25.8409009 C9.65462462,26.5916517 10.5605405,26.967027 11.6216216,26.967027 L11.6216216,26.967027 Z M11.6216216,50.0300901 L80.8108108,50.0300901 C81.8718919,50.0300901 82.7778078,49.6547147 83.5285586,48.903964 C84.2793093,48.1532132 84.6546847,47.2472973 84.6546847,46.1862162 C84.6546847,45.1251351 84.2793093,44.2192192 83.5285586,43.4684685 C82.7778078,42.7177177 81.8718919,42.3423423 80.8108108,42.3423423 L11.6216216,42.3423423 C10.5605405,42.3423423 9.65462462,42.7177177 8.90387387,43.4684685 C8.15312312,44.2192192 7.77774775,45.1251351 7.77774775,46.1862162 C7.77774775,47.2472973 8.15312312,48.1532132 8.90387387,48.903964 C9.65462462,49.6547147 10.5605405,50.0300901 11.6216216,50.0300901 L11.6216216,50.0300901 Z" id="menu" sketch:type="MSShapeGroup"></path>
</svg>
