<svg width="300" height="300" xmlns:xlink="http://www.w3.org/1999/xlink" xmlns="http://www.w3.org/2000/svg">
  <defs>
    <clipPath id="prefix__b">
      <use xlink:href="#prefix__a" />
    </clipPath>
    <path d="M0 0h300v300H0V0z" id="prefix__a" />
  </defs>
  <path d="M0 0h300v300H0V0z" fill="none" />
  <g clip-path="url(#prefix__b)">
    <path d="M89.12 174.556c0 4.326-3.472 7.834-7.754 7.834H32.753c-4.281 0-7.753-3.508-7.753-7.834v-49.112c0-4.326 3.472-7.834 7.753-7.834h48.613c4.282 0 7.753 3.508 7.753 7.834v49.112zm185.88 0c0 4.326-3.472 7.834-7.753 7.834h-48.613c-4.282 0-7.754-3.508-7.754-7.834v-49.113c0-4.326 3.472-7.833 7.754-7.833h48.613c4.281 0 7.753 3.507 7.753 7.833v49.113zM174.308 25h-48.616c-4.281 0-7.752 3.507-7.752 7.836v49.109c0 4.328 3.47 7.835 7.752 7.835h48.616c4.281 0 7.752-3.507 7.752-7.835V32.836c0-4.33-3.47-7.836-7.752-7.836zm-92.944 0H32.756C28.471 25 25 28.507 25 32.836v49.109c0 4.328 3.471 7.835 7.756 7.835h48.609c4.284 0 7.755-3.507 7.755-7.835V32.836c0-4.33-3.472-7.836-7.756-7.836zm185.88 0h-48.608c-4.284 0-7.755 3.507-7.755 7.836v49.109c0 4.328 3.47 7.835 7.755 7.835h48.608c4.285 0 7.756-3.507 7.756-7.835V32.836c0-4.33-3.471-7.836-7.756-7.836zm-92.936 92.61h-48.616c-4.281 0-7.752 3.507-7.752 7.836v49.109c0 4.328 3.47 7.834 7.752 7.834h48.616c4.281 0 7.752-3.506 7.752-7.834v-49.11c0-4.328-3.47-7.835-7.752-7.835zm0 92.61h-48.616c-4.281 0-7.752 3.506-7.752 7.836v49.108c0 4.329 3.47 7.835 7.752 7.835h48.616c4.281 0 7.752-3.506 7.752-7.835v-49.108c0-4.33-3.47-7.836-7.752-7.836zM275 267.167c0 4.326-3.472 7.833-7.753 7.833h-48.613c-4.282 0-7.754-3.507-7.754-7.833v-49.113c0-4.326 3.472-7.834 7.754-7.834h48.613c4.281 0 7.753 3.508 7.753 7.834v49.113zm-185.88 0c0 4.326-3.472 7.833-7.754 7.833H32.753c-4.281 0-7.753-3.507-7.753-7.833v-49.113c0-4.326 3.472-7.833 7.753-7.833h48.613c4.282 0 7.753 3.507 7.753 7.833v49.113z" />
  </g>
</svg>