<?xml version="1.0" encoding="utf-8"?>
<svg width="300px" height="300px" viewbox="0 0 300 300" version="1.1" xmlns:xlink="http://www.w3.org/1999/xlink" xmlns="http://www.w3.org/2000/svg">
  <defs>
    <path d="M0 0L300 0L300 300L0 300L0 0Z" id="path_1" />
    <clipPath id="mask_1">
      <use xlink:href="#path_1" />
    </clipPath>
  </defs>
  <g id="more-items">
    <path d="M0 0L300 0L300 300L0 300L0 0Z" id="Background" fill="none" fill-rule="evenodd" stroke="none" />
    <g clip-path="url(#mask_1)">
      <g id="Group" transform="translate(25 25)">
        <path d="M64.1192 56.9459C64.1192 61.2719 60.6477 64.7791 56.3657 64.7791L7.75346 64.7791C3.47152 64.7791 0 61.2719 0 56.9459L0 7.83326C0 3.50724 3.47152 0 7.75346 0L56.3657 0C60.6482 0 64.1192 3.50724 64.1192 7.83326L64.1192 56.9459L64.1192 56.9459Z" transform="translate(0 92.61045)" id="Shape" fill="#020202" fill-rule="evenodd" stroke="none" />
        <path d="M64.1197 56.9464C64.1197 61.2724 60.6482 64.7797 56.3663 64.7797L7.75346 64.7797C3.47151 64.7797 0 61.2724 0 56.9464L0 7.83326C0 3.50724 3.47151 0 7.75346 0L56.3663 0C60.6482 0 64.1197 3.50724 64.1197 7.83326L64.1197 56.9464L64.1197 56.9464Z" transform="translate(185.88023 92.60989)" id="Shape" fill="#020202" fill-rule="evenodd" stroke="none" />
        <path d="M56.3685 0L7.7518 0C3.47097 0 0 3.50669 0 7.83605L0 56.9447C0 61.273 3.47097 64.7797 7.7518 64.7797L56.3685 64.7797C60.6493 64.7797 64.1203 61.273 64.1203 56.9447L64.1203 7.83605C64.1203 3.50669 60.6493 0 56.3685 0L56.3685 0Z" transform="translate(92.93985 0)" id="Shape" fill="#020202" fill-rule="evenodd" stroke="none" />
        <path d="M56.3641 0L7.75622 0C3.47096 0 0 3.50669 0 7.83605L0 56.9447C0 61.273 3.47096 64.7797 7.75622 64.7797L56.3646 64.7797C60.6488 64.7797 64.1197 61.273 64.1197 56.9447L64.1197 7.83605C64.1192 3.50669 60.6482 0 56.3641 0L56.3641 0Z" id="Shape" fill="#020202" fill-rule="evenodd" stroke="none" />
        <path d="M56.363 0L7.75511 0C3.47096 0 0 3.50669 0 7.83605L0 56.9447C0 61.273 3.47096 64.7797 7.75511 64.7797L56.363 64.7797C60.6482 64.7797 64.1192 61.273 64.1192 56.9447L64.1192 7.83605C64.1192 3.50669 60.6482 0 56.363 0L56.363 0Z" transform="translate(185.8808 0)" id="Shape" fill="#020202" fill-rule="evenodd" stroke="none" />
        <path d="M56.3685 0L7.7518 0C3.47097 0 0 3.50669 0 7.83604L0 56.9447C0 61.273 3.47097 64.7796 7.7518 64.7796L56.3685 64.7796C60.6493 64.7796 64.1203 61.273 64.1203 56.9447L64.1203 7.83604C64.1203 3.50669 60.6493 0 56.3685 0L56.3685 0Z" transform="translate(92.93985 92.60989)" id="Shape" fill="#020202" fill-rule="evenodd" stroke="none" />
        <path d="M56.3685 0L7.7518 0C3.47097 0 0 3.50668 0 7.83605L0 56.9447C0 61.273 3.47097 64.7796 7.7518 64.7796L56.3685 64.7796C60.6493 64.7796 64.1203 61.273 64.1203 56.9447L64.1203 7.83603C64.1203 3.5067 60.6493 0 56.3685 0L56.3685 0Z" transform="translate(92.93985 185.21979)" id="Shape" fill="#020202" fill-rule="evenodd" stroke="none" />
        <path d="M64.1197 56.9464C64.1197 61.2724 60.6482 64.7796 56.3663 64.7796L7.75346 64.7796C3.47151 64.7796 0 61.2724 0 56.9464L0 7.83326C0 3.50724 3.47151 0 7.75346 0L56.3663 0C60.6482 0 64.1197 3.50724 64.1197 7.83326L64.1197 56.9464L64.1197 56.9464Z" transform="translate(185.88023 185.22035)" id="Shape" fill="#020202" fill-rule="evenodd" stroke="none" />
        <path d="M64.1192 56.9458C64.1192 61.2719 60.6477 64.7791 56.3657 64.7791L7.75346 64.7791C3.47152 64.7791 0 61.2718 0 56.9458L0 7.83326C0 3.50724 3.47152 0 7.75346 0L56.3657 0C60.6482 0 64.1192 3.50724 64.1192 7.83326L64.1192 56.9458L64.1192 56.9458Z" transform="translate(0 185.2209)" id="Shape" fill="#020202" fill-rule="evenodd" stroke="none" />
      </g>
    </g>
  </g>
</svg>