<?xml version="1.0" encoding="UTF-8" standalone="no"?>
<svg width="53px" height="30px" viewBox="0 0 53 30" version="1.1" xmlns="http://www.w3.org/2000/svg" xmlns:xlink="http://www.w3.org/1999/xlink" xmlns:sketch="http://www.bohemiancoding.com/sketch/ns">
    <!-- Generator: Sketch 3.4.3 (16044) - http://www.bohemiancoding.com/sketch -->
    <title>opened</title>
    <path d="M52.8056757,35.4783784 C52.8056757,34.5860661 52.4796396,33.8138739 51.8275676,33.1618018 L28.7645045,10.0987387 C28.1124324,9.44666667 27.3402402,9.12063063 26.4479279,9.12063063 C25.5556156,9.12063063 24.7834234,9.44666667 24.1313514,10.0987387 L1.06828829,33.1618018 C0.416216216,33.8138739 0.0901801802,34.5860661 0.0901801802,35.4783784 C0.0901801802,36.3706907 0.416216216,37.1428829 1.06828829,37.794955 C1.72036036,38.447027 2.49255255,38.7730631 3.38486486,38.7730631 L49.510991,38.7730631 C50.4033033,38.7730631 51.1754955,38.447027 51.8275676,37.794955 C52.4796396,37.1428829 52.8056757,36.3706907 52.8056757,35.4783784 L52.8056757,35.4783784 Z" id="opened" sketch:type="MSShapeGroup"></path>
</svg>
