<?xml version="1.0" encoding="UTF-8" standalone="no"?>
<svg width="100px" height="100px" viewBox="0 0 100 100" version="1.1" xmlns="http://www.w3.org/2000/svg" xmlns:xlink="http://www.w3.org/1999/xlink">
    <!-- Generator: Sketch 3.8.3 (29802) - http://www.bohemiancoding.com/sketch -->
    <title>pause</title>
    <path d="M27.5,28.2993347 C27.5,27.3055896 28.296663,26.5 29.2917156,26.5 L43.7082844,26.5 C44.6978216,26.5 45.5,27.315773 45.5,28.2993347 L45.5,71.7006653 C45.5,72.6944104 44.703337,73.5 43.7082844,73.5 L29.2917156,73.5 C28.3021784,73.5 27.5,72.684227 27.5,71.7006653 L27.5,28.2993347 Z M54.5,28.2993347 C54.5,27.3055896 55.296663,26.5 56.2917156,26.5 L70.7082844,26.5 C71.6978216,26.5 72.5,27.315773 72.5,28.2993347 L72.5,71.7006653 C72.5,72.6944104 71.703337,73.5 70.7082844,73.5 L56.2917156,73.5 C55.3021784,73.5 54.5,72.684227 54.5,71.7006653 L54.5,28.2993347 Z" id="path-1"></path>
</svg>
