<?xml version="1.0" encoding="UTF-8"?>
<svg width="20px" height="20px" viewBox="0 0 20 20" version="1.1" xmlns="http://www.w3.org/2000/svg" xmlns:xlink="http://www.w3.org/1999/xlink">
    <title>icon/pedestrian</title>
    <g id="icon/pedestrian" stroke="none" stroke-width="1" fill="none" fill-rule="evenodd">
        <path d="M15.5,7 C16.0522847,7 16.5,7.44771525 16.5,8 C16.5,8.55228475 16.0522847,9 15.5,9 L13,9 C12.7238576,9 12.5,9.22385763 12.5,9.5 L12.5,17 C12.5,17.5522847 12.0522847,18 11.5,18 C10.9477153,18 10.5,17.5522847 10.5,17 L10.5,13.5 C10.5,13.2238576 10.2761424,13 10,13 C9.72385763,13 9.5,13.2238576 9.5,13.5 L9.5,17 C9.5,17.5522847 9.05228475,18 8.5,18 C7.94771525,18 7.5,17.5522847 7.5,17 L7.5,9.5 C7.5,9.22385763 7.27614237,9 7,9 L4.5,9 C3.94771525,9 3.5,8.55228475 3.5,8 C3.5,7.44771525 3.94771525,7 4.5,7 L15.5,7 Z M10,2 C11.1045695,2 12,2.8954305 12,4 C12,5.1045695 11.1045695,6 10,6 C8.8954305,6 8,5.1045695 8,4 C8,2.8954305 8.8954305,2 10,2 Z" id="Combined-Shape" fill="#000000"></path>
    </g>
</svg>