<?xml version="1.0" encoding="UTF-8" standalone="no"?>
<svg width="100px" height="100px" viewBox="0 0 100 100" version="1.1" xmlns="http://www.w3.org/2000/svg" xmlns:xlink="http://www.w3.org/1999/xlink">
    <!-- Generator: Sketch 3.8.3 (29802) - http://www.bohemiancoding.com/sketch -->
    <title>play</title>
    <path d="M33.9277247,69.9608267 L33.9277247,69.9608267 L72.4693581,48.8346259 C71.7263099,49.2419201 71.7245567,51.2565272 72.4693581,51.6647824 L33.9277247,30.5385816 C34.575462,30.8936322 36.0885847,30.0043716 36.0885847,29.2516801 L36.0885847,71.2477282 C36.0885847,70.4974643 34.575538,69.6057345 33.9277247,69.9608267 L33.9277247,69.9608267 Z M35.6536964,73.1045713 C33.911958,74.0592874 32.5,73.2253146 32.5,71.2477282 L32.5,29.2516801 C32.5,27.2714579 33.9163158,26.4425097 35.6536964,27.394837 L74.1953298,48.5210378 C75.9370683,49.4757539 75.9327104,51.0260431 74.1953298,51.9783705 L35.6536964,73.1045713 L35.6536964,73.1045713 Z"></path>
</svg>
