<?xml version="1.0" encoding="UTF-8" standalone="no"?>
<svg width="52px" height="52px" viewBox="0 0 52 52" version="1.1" xmlns="http://www.w3.org/2000/svg" xmlns:xlink="http://www.w3.org/1999/xlink" xmlns:sketch="http://www.bohemiancoding.com/sketch/ns">
    <!-- Generator: Sketch 3.4.3 (16044) - http://www.bohemiancoding.com/sketch -->
    <title>radio-on</title>
    <path d="M26,48.4137931 L26,48.4137931 C38.3787961,48.4137931 48.4137931,38.3787961 48.4137931,26 C48.4137931,13.6212039 38.3787961,3.5862069 26,3.5862069 C13.6212039,3.5862069 3.5862069,13.6212039 3.5862069,26 C3.5862069,38.3787961 13.6212039,48.4137931 26,48.4137931 L26,48.4137931 L26,48.4137931 Z M26,52 L26,52 C11.6405965,52 0,40.3594035 0,26 C0,11.6405965 11.6405965,0 26,0 C40.3594035,0 52,11.6405965 52,26 C52,40.3594035 40.3594035,52 26,52 L26,52 L26,52 Z M26,43.9310345 C35.9030369,43.9310345 43.9310345,35.9030369 43.9310345,26 C43.9310345,16.0969631 35.9030369,8.0689655 26,8.0689655 C16.0969631,8.0689655 8.0689655,16.0969631 8.0689655,26 C8.0689655,35.9030369 16.0969631,43.9310345 26,43.9310345 L26,43.9310345 Z" id="Shape" sketch:type="MSShapeGroup"></path>
</svg>
