<?xml version="1.0" encoding="UTF-8" standalone="no"?>
<svg width="100px" height="100px" viewBox="0 0 100 100" version="1.1" xmlns="http://www.w3.org/2000/svg" xmlns:xlink="http://www.w3.org/1999/xlink">
    <!-- Generator: Sketch 3.8.3 (29802) - http://www.bohemiancoding.com/sketch -->
    <title>radio-on</title>
    <path d="M50,72.4137931 L50,72.4137931 C62.3787961,72.4137931 72.4137931,62.3787961 72.4137931,50 C72.4137931,37.6212039 62.3787961,27.5862069 50,27.5862069 C37.6212039,27.5862069 27.5862069,37.6212039 27.5862069,50 C27.5862069,62.3787961 37.6212039,72.4137931 50,72.4137931 L50,72.4137931 Z M50,76 L50,76 C35.6405965,76 24,64.3594035 24,50 C24,35.6405965 35.6405965,24 50,24 C64.3594035,24 76,35.6405965 76,50 C76,64.3594035 64.3594035,76 50,76 L50,76 Z M50,67.9310345 C59.9030369,67.9310345 67.9310345,59.9030369 67.9310345,50 C67.9310345,40.0969631 59.9030369,32.0689655 50,32.0689655 C40.0969631,32.0689655 32.0689655,40.0969631 32.0689655,50 C32.0689655,59.9030369 40.0969631,67.9310345 50,67.9310345 Z"></path>
</svg>
