<?xml version="1.0" encoding="UTF-8" standalone="no"?>
<svg width="89px" height="88px" viewBox="0 0 89 88" version="1.1" xmlns="http://www.w3.org/2000/svg" xmlns:xlink="http://www.w3.org/1999/xlink" xmlns:sketch="http://www.bohemiancoding.com/sketch/ns">
    <!-- Generator: Sketch 3.4.3 (16044) - http://www.bohemiancoding.com/sketch -->
    <title>radio-on</title>
    <path d="M46.2162162,4.28828829 C70.4172072,4.28828829 90.036036,23.9071171 90.036036,48.1081081 C90.036036,72.3090991 70.4172072,91.9279279 46.2162162,91.9279279 C22.0152252,91.9279279 2.3963964,72.3090991 2.3963964,48.1081081 C2.3963964,23.9071171 22.0152252,4.28828829 46.2162162,4.28828829 L46.2162162,4.28828829 L46.2162162,4.28828829 Z M46.2162162,8.9009009 C24.5627027,8.9009009 7.00900901,26.4545946 7.00900901,48.1081081 C7.00900901,69.7616216 24.5627027,87.3153153 46.2162162,87.3153153 C67.8697297,87.3153153 85.4234234,69.7616216 85.4234234,48.1081081 C85.4234234,26.4545946 67.8697297,8.9009009 46.2162162,8.9009009 L46.2162162,8.9009009 L46.2162162,8.9009009 Z M73.8918919,48.1081081 C73.8918919,32.8232432 61.5010811,20.4324324 46.2162162,20.4324324 C30.9313514,20.4324324 18.5405405,32.8232432 18.5405405,48.1081081 C18.5405405,63.392973 30.9313514,75.7837838 46.2162162,75.7837838 C61.5010811,75.7837838 73.8918919,63.392973 73.8918919,48.1081081 L73.8918919,48.1081081 Z" id="radio-on" sketch:type="MSShapeGroup"></path>
</svg>
