<?xml version="1.0" encoding="UTF-8" standalone="no"?>
<svg width="100px" height="100px" viewBox="0 0 100 100" version="1.1" xmlns="http://www.w3.org/2000/svg" xmlns:xlink="http://www.w3.org/1999/xlink">
    <!-- Generator: Sketch 3.8.3 (29802) - http://www.bohemiancoding.com/sketch -->
    <title>refresh</title>
    <path d="M74.2068966,24 C73.1758621,24 72.3689655,24.8062016 72.3689655,25.836348 L72.3689655,36.7200689 C67.7517241,28.9715762 59.3689655,24 50,24 C35.6551724,24 24,35.6451335 24,50.0223945 C24,64.3996555 35.6551724,76 50,76 C64.3448276,76 76,64.3548665 76,50.0223945 C76,48.9922481 75.1931034,48.1860465 74.162069,48.1860465 C73.1310345,48.1860465 72.3241379,48.9922481 72.3241379,50.0223945 C72.3241379,62.3393626 62.2827586,72.372093 49.9551724,72.372093 C37.6275862,72.372093 27.6310345,62.2945736 27.6310345,49.9776055 C27.6310345,37.6606374 37.6724138,27.627907 50,27.627907 C58.8310345,27.627907 66.7206897,32.7786391 70.3068966,40.6614987 L57.4413793,40.6614987 C56.4103448,40.6614987 55.6034483,41.4677003 55.6034483,42.4978467 C55.6034483,43.5279931 56.4103448,44.3341947 57.4413793,44.3341947 L74.162069,44.3341947 C75.1931034,44.3341947 76,43.5279931 76,42.4978467 L76,25.791559 C76,24.8062016 75.1931034,24 74.2068966,24 L74.2068966,24 Z"></path>
</svg>
