<?xml version="1.0" encoding="UTF-8" standalone="no"?>
<svg width="93px" height="94px" viewBox="0 0 93 94" version="1.1" xmlns="http://www.w3.org/2000/svg" xmlns:xlink="http://www.w3.org/1999/xlink" xmlns:sketch="http://www.bohemiancoding.com/sketch/ns">
    <!-- Generator: Sketch 3.4.3 (16044) - http://www.bohemiancoding.com/sketch -->
    <title>refresh</title>
    <path d="M80.2414414,79.2504505 C71.8082883,88.4590991 59.687027,94.2342342 46.2162162,94.2342342 C20.7414414,94.2342342 0.0900900901,73.5828829 0.0900900901,48.1081081 L8.73873874,48.1081081 C8.73873874,68.8063063 25.518018,85.5855856 46.2162162,85.5855856 C57.2990991,85.5855856 67.256036,80.7731532 74.1167568,73.1255856 L60.6306306,59.6396396 L92.3423423,59.6396396 L92.3423423,91.3513514 L80.2414414,79.2504505 L80.2414414,79.2504505 Z M83.6936937,48.1081081 C83.6936937,27.4099099 66.9144144,10.6306306 46.2162162,10.6306306 C35.1333333,10.6306306 25.1763964,15.4430631 18.3158559,23.0906306 L31.8018018,36.5765766 L0.0900900901,36.5765766 L0.0900900901,4.86486486 L12.190991,16.9657658 C20.6241441,7.75711712 32.7454054,1.98198198 46.2162162,1.98198198 C71.690991,1.98198198 92.3423423,22.6333333 92.3423423,48.1081081 L83.6936937,48.1081081 L83.6936937,48.1081081 Z" id="refresh" sketch:type="MSShapeGroup"></path>
</svg>
