<svg height="384pt" viewBox="0 0 384 384" width="384pt" xmlns="http://www.w3.org/2000/svg"><path d="m307.152344 66c-12.816406-38.824219-49.441406-66-91.152344-66-38.222656 0-71.960938 22.246094-87.375 56.375-31 3.167969-56.191406 26.105469-62.855469 55.9375-36.785156 3.175781-65.769531 34.085938-65.769531 71.6875 0 39.703125 32.304688 72 72 72h80c8.832031 0 16-7.167969 16-16s-7.167969-16-16-16h-80c-22.054688 0-40-17.945312-40-40s17.945312-40 40-40c2.054688 0 3.753906.121094 5.046875.367188 8.671875 1.632812 17.042969-4.085938 18.679687-12.773438.21875-1.144531.289063-2.289062.257813-3.410156 0-.054688.015625-.121094.015625-.183594 0-22.054688 17.945312-40 40-40l.496094-.0625c.246094.046875.496094.03125.75.070312.5625.089844 1.113281.136719 1.675781.160157.503906.023437 1.007813.03125 1.503906 0 .542969-.023438 1.070313-.089844 1.597657-.167969.503906-.078125 1-.167969 1.488281-.296875.503906-.128906.992187-.289063 1.480469-.464844.480468-.175781.945312-.351562 1.398437-.566406.472656-.222656.921875-.472656 1.378906-.734375.429688-.257812.839844-.523438 1.246094-.816406.425781-.3125.824219-.648438 1.222656-1 .378907-.335938.738281-.679688 1.074219-1.050782.351562-.382812.679688-.78125.992188-1.199218.320312-.414063.617187-.847656.894531-1.304688.265625-.429687.503906-.871094.730469-1.335937.246093-.503907.460937-1.015625.65625-1.550781.085937-.238282.214843-.441407.285156-.6875 8.402344-26.902344 32.96875-44.992188 61.128906-44.992188 30.398438 0 56.816406 21.617188 62.792969 51.390625.070312.351563.207031.679687.304687 1.023437.109375.417969.214844.84375.367188 1.242188.207031.574219.464844 1.121094.726562 1.65625.160156.328125.304688.671875.488282.984375.359374.613281.785156 1.191406 1.214843 1.742187.160157.207032.296875.433594.464844.625.632813.734376 1.328125 1.414063 2.074219 2.015626.167968.136718.351562.230468.527344.359374.605468.449219 1.222656.871094 1.886718 1.234376.3125.167968.648438.292968.976563.445312.574219.265625 1.160156.511719 1.769531.714844.34375.109375.695312.191406 1.046875.277344.648437.160156 1.304687.28125 1.976563.359374.191406.027344.367187.089844.558593.105469 32.984375 2.703125 58.824219 30.734375 58.824219 63.824219 0 35.289062-28.710938 64-64 64h-8c-8.832031 0-16 7.167969-16 16s7.167969 16 16 16h8c52.9375 0 96-43.0625 96-96 0-45.742188-32.953125-84.96875-76.847656-94zm0 0"/><path d="m232 166.632812 20.6875 20.679688c6.242188 6.246094 16.382812 6.246094 22.625 0 6.246094-6.25 6.246094-16.375 0-22.625l-48-48c-1.03125-1.039062-2.199219-1.832031-3.417969-2.527344-.292969-.167968-.589843-.320312-.894531-.472656-1.214844-.589844-2.464844-1.070312-3.761719-1.34375-.046875-.007812-.09375-.03125-.140625-.039062-1.355468-.265626-2.730468-.296876-4.097656-.207032-.34375.023438-.671875.054688-1.007812.09375-1.390626.175782-2.777344.480469-4.089844 1.023438-.007813 0-.015625 0-.023438.007812-.023437.007813-.046875.035156-.070312.050782-1.242188.519531-2.410156 1.253906-3.511719 2.109374-.289063.226563-.570313.449219-.847656.6875-.25.21875-.527344.386719-.761719.625l-48 48c-6.246094 6.25-6.246094 16.375 0 22.625 3.121094 3.121094 7.214844 4.679688 11.3125 4.679688s8.191406-1.558594 11.3125-4.6875l20.6875-20.6875v121.375c0 8.832031 7.167969 16 16 16s16-7.167969 16-16zm0 0"/><path d="m216 336c-8.832031 0-16 7.167969-16 16v16c0 8.832031 7.167969 16 16 16s16-7.167969 16-16v-16c0-8.832031-7.167969-16-16-16zm0 0"/></svg>