<?xml version="1.0" encoding="UTF-8" standalone="no"?>
<svg width="100px" height="100px" viewBox="20 20 60 60" version="1.1" xmlns="http://www.w3.org/2000/svg" xmlns:xlink="http://www.w3.org/1999/xlink">
    <!-- Generator: Sketch 3.8.3 (29802) - http://www.bohemiancoding.com/sketch -->
    <title>remove</title>
    <path d="M50,72.4137931 L50,72.4137931 C62.3787961,72.4137931 72.4137931,62.3787961 72.4137931,50 C72.4137931,37.6212039 62.3787961,27.5862069 50,27.5862069 C37.6212039,27.5862069 27.5862069,37.6212039 27.5862069,50 C27.5862069,62.3787961 37.6212039,72.4137931 50,72.4137931 L50,72.4137931 Z M50,76 L50,76 C35.6405965,76 24,64.3594035 24,50 C24,35.6405965 35.6405965,24 50,24 C64.3594035,24 76,35.6405965 76,50 C76,64.3594035 64.3594035,76 50,76 L50,76 Z M38.7931034,51.7931034 L62.1034483,51.7931034 C63.093752,51.7931034 63.8965517,50.9903037 63.8965517,50 C63.8965517,49.0096963 63.093752,48.2068966 62.1034483,48.2068966 L38.7931034,48.2068966 C37.8027998,48.2068966 37,49.0096963 37,50 C37,50.9903037 37.8027998,51.7931034 38.7931034,51.7931034 L38.7931034,51.7931034 Z"></path>
</svg>
