<?xml version="1.0" encoding="UTF-8" standalone="no"?>
<svg width="76px" height="76px" viewBox="0 0 76 76" version="1.1" xmlns="http://www.w3.org/2000/svg" xmlns:xlink="http://www.w3.org/1999/xlink" xmlns:sketch="http://www.bohemiancoding.com/sketch/ns">
    <!-- Generator: Sketch 3.4.3 (16044) - http://www.bohemiancoding.com/sketch -->
    <title>remove</title>
    <path d="M44.7747748,84.1441441 C24.0756757,84.1441441 7.2972973,67.3657658 7.2972973,46.6666667 C7.2972973,25.9675676 24.0756757,9.18918919 44.7747748,9.18918919 C65.4738739,9.18918919 82.2522523,25.9675676 82.2522523,46.6666667 C82.2522523,67.3657658 65.4738739,84.1441441 44.7747748,84.1441441 L44.7747748,84.1441441 Z M63.5135135,45.5855856 C63.5135135,43.9913514 62.221982,42.7027027 60.6306306,42.7027027 L28.9189189,42.7027027 C27.3246847,42.7027027 26.036036,43.9913514 26.036036,45.5855856 L26.036036,48.4684685 C26.036036,50.0598198 27.3246847,51.3513514 28.9189189,51.3513514 L60.6306306,51.3513514 C62.221982,51.3513514 63.5135135,50.0598198 63.5135135,48.4684685 L63.5135135,45.5855856 L63.5135135,45.5855856 Z" id="remove" sketch:type="MSShapeGroup"></path>
</svg>
