<svg width="20" height="20" viewBox="0 0 20 20" xmlns="http://www.w3.org/2000/svg">
<g id="revert-20">
<path id="Union" fill-rule="evenodd" clip-rule="evenodd" d="M3.5 5.33352V3C3.5 2.44772 3.05228 2 2.5 2C1.94772 2 1.5 2.44772 1.5 3V8C1.5 8.55228 1.94772 9 2.5 9H7.5C8.05228 9 8.5 8.55228 8.5 8C8.5 7.44772 8.05228 7 7.5 7H4.80165C5.85213 5.18128 7.81262 4 10 4C13.3137 4 16 6.68629 16 10C16 13.3137 13.3137 16 10 16C8.38615 16 6.87596 15.3612 5.75736 14.2426C5.36684 13.8521 4.73367 13.8521 4.34315 14.2426C3.95262 14.6332 3.95262 15.2663 4.34315 15.6569C5.83311 17.1468 7.85026 18 10 18C14.4183 18 18 14.4183 18 10C18 5.58172 14.4183 2 10 2C7.36026 2 4.96867 3.29011 3.5 5.33352Z" />
</g>
</svg>
