<?xml version="1.0" encoding="UTF-8"?>
<svg xmlns="http://www.w3.org/2000/svg" width="28" height="28">
  <defs/>
  <path fill-rule="evenodd" d="M0 18.861l9.138 9.138s2.182-5.179-.888-8.25C5.213 16.714 0 18.862 0 18.862m26.834 1.885l-5.222-5.222a1.642 1.642 0 00-2.32 0l-.458.458-1.28-1.279 2.296-2.297c.641-.64.569-1.752-.073-2.393l-2.829-2.829a1.643 1.643 0 00-2.32 0l-2.086 2.013-1.1-1.1.075-.073c.64-.641.64-1.68 0-2.321L6.294.48a1.64 1.64 0 00-2.32 0L.491 3.962c-.64.641-.64 1.68 0 2.321l5.223 5.222c.641.64 1.68.64 2.321 0l1.141-1.142 1.132 1.14-2.1 2.1c-.64.64-.399 4.207-.399 4.207l1.413 1.414s3.567.243 4.209-.398l1.814-1.816 1.28 1.28-.716.716c-.64.64-.64 1.68 0 2.32l5.222 5.223c.64.64 1.68.64 2.32 0l3.482-3.481a1.64 1.64 0 000-2.322"/>
</svg>
