<?xml version="1.0" encoding="UTF-8" standalone="no"?>
<svg width="100px" height="100px" viewBox="0 0 100 100" version="1.1" xmlns="http://www.w3.org/2000/svg" xmlns:xlink="http://www.w3.org/1999/xlink">
    <!-- Generator: Sketch 3.8.3 (29802) - http://www.bohemiancoding.com/sketch -->
    <title>search</title>
    <path d="M44.2346851,66.9693701 C49.1699741,66.9693701 53.6566005,65.2195858 57.1561691,62.2584124 L72.8593615,77.9616048 C73.2182916,78.3205349 73.6669543,78.5 74.1604832,78.5 C74.6540121,78.5 75.1026747,78.3205349 75.4616048,77.9616048 C76.1794651,77.2437446 76.1794651,76.0772217 75.4616048,75.3593615 L59.7584124,59.6561691 C62.6747196,56.1566005 64.4693701,51.6251079 64.4693701,46.7346851 C64.4693701,35.5629853 55.4063848,26.5 44.2346851,26.5 C33.1078516,26.5 24,35.6078516 24,46.7346851 C24,57.9063848 33.1078516,66.9693701 44.2346851,66.9693701 L44.2346851,66.9693701 Z M44.2346851,30.1790336 C53.3874029,30.1790336 60.7903365,37.6268335 60.7903365,46.7346851 C60.7903365,55.8874029 53.3874029,63.2903365 44.2346851,63.2903365 C35.0819672,63.2903365 27.6790336,55.8425367 27.6790336,46.7346851 C27.6790336,37.6268335 35.1268335,30.1790336 44.2346851,30.1790336 L44.2346851,30.1790336 Z"></path>
</svg>
