<svg width="20" height="20" viewBox="0 0 20 20" xmlns="http://www.w3.org/2000/svg">
<g id="search-20">
<path id="Union" fill-rule="evenodd" clip-rule="evenodd" d="M9 16C5.13401 16 2 12.866 2 9C2 5.13401 5.13401 2 9 2C12.866 2 16 5.13401 16 9C16 12.866 12.866 16 9 16ZM9 14C11.7614 14 14 11.7614 14 9C14 6.23858 11.7614 4 9 4C6.23858 4 4 6.23858 4 9C4 11.7614 6.23858 14 9 14ZM15.9142 14.5L18.0355 16.6213C18.4261 17.0118 18.4261 17.645 18.0355 18.0355C17.645 18.4261 17.0118 18.4261 16.6213 18.0355L14.5 15.9142C14.1095 15.5237 14.1095 14.8905 14.5 14.5C14.8905 14.1095 15.5237 14.1095 15.9142 14.5Z" />
</g>
</svg>
