<?xml version="1.0" encoding="UTF-8" standalone="no"?>
<svg width="93px" height="93px" viewBox="0 0 93 93" version="1.1" xmlns="http://www.w3.org/2000/svg" xmlns:xlink="http://www.w3.org/1999/xlink" xmlns:sketch="http://www.bohemiancoding.com/sketch/ns">
    <!-- Generator: Sketch 3.4.3 (16044) - http://www.bohemiancoding.com/sketch -->
    <title>search</title>
    <path d="M90.2378378,12.2085586 L73.5805405,28.8658559 C78.147027,35.4042342 80.8454054,43.3436937 80.8454054,51.9231532 C80.8454054,74.2136036 62.7697297,92.2835135 40.485045,92.2835135 C18.2003604,92.2835135 0.124684685,74.2136036 0.124684685,51.9231532 C0.124684685,29.6327027 18.1945946,11.5627928 40.485045,11.5627928 C49.0645045,11.5627928 57.0097297,14.2611712 63.5481081,18.8276577 L80.2054054,2.17036036 C82.972973,-0.597207207 87.4702703,-0.597207207 90.2378378,2.17036036 C93.0054054,4.93792793 93.0054054,9.42945946 90.2378378,12.2085586 L90.2378378,12.2085586 Z M40.4792793,23.0885586 C24.56,23.0885586 11.6504505,35.9923423 11.6504505,51.9173874 C11.6504505,67.8424324 24.56,80.7462162 40.4792793,80.7462162 C56.4043243,80.7462162 69.3081081,67.8424324 69.3081081,51.9173874 C69.3138739,35.9923423 56.4100901,23.0885586 40.4792793,23.0885586 L40.4792793,23.0885586 Z" id="search" sketch:type="MSShapeGroup"></path>
</svg>
