<?xml version="1.0" encoding="UTF-8" standalone="no"?>
<svg width="18" height="18" xmlns="http://www.w3.org/2000/svg">
  <path d="M17.485 14.948l-3.32-3.397a7.905 7.905 0 00.978-3.803C15.143 3.481 11.742 0 7.572 0 3.39 0 0 3.48 0 7.748c0 4.268 3.39 7.749 7.572 7.749 1.56 0 3.017-.49 4.216-1.323l3.227 3.301A1.69 1.69 0 0016.25 18a1.69 1.69 0 001.235-.525 1.806 1.806 0 000-2.527M2.33 7.748c0-2.956 2.353-5.364 5.242-5.364 2.888 0 5.241 2.408 5.241 5.364 0 2.957-2.353 5.365-5.241 5.365-2.89 0-5.242-2.408-5.242-5.365" fill-rule="evenodd" />
</svg>

