<?xml version="1.0" encoding="UTF-8" standalone="no"?>
<svg width="52px" height="52px" viewBox="0 0 52 52" version="1.1" xmlns="http://www.w3.org/2000/svg" xmlns:xlink="http://www.w3.org/1999/xlink" xmlns:sketch="http://www.bohemiancoding.com/sketch/ns">
    <!-- Generator: Sketch 3.4.3 (16044) - http://www.bohemiancoding.com/sketch -->
    <title>selected</title>
    <path d="M26,48.4137931 L26,48.4137931 C38.3787961,48.4137931 48.4137931,38.3787961 48.4137931,26 C48.4137931,13.6212039 38.3787961,3.5862069 26,3.5862069 C13.6212039,3.5862069 3.5862069,13.6212039 3.5862069,26 C3.5862069,38.3787961 13.6212039,48.4137931 26,48.4137931 L26,48.4137931 L26,48.4137931 Z M26,52 L26,52 C11.6405965,52 0,40.3594035 0,26 C0,11.6405965 11.6405965,0 26,0 C40.3594035,0 52,11.6405965 52,26 C52,40.3594035 40.3594035,52 26,52 L26,52 L26,52 Z M22.0875285,34.554843 C22.8334132,35.2939316 24.0519185,35.2367977 24.7253731,34.4311582 L37.019606,19.7238267 C37.6547446,18.9640239 37.5536842,17.8332004 36.7938814,17.1980618 C36.0340785,16.5629233 34.903255,16.6639836 34.2681165,17.4237865 L23.4064508,30.5968304 L17.1904443,24.6537674 C16.4869965,23.956729 15.3516781,23.9619248 14.6546397,24.6653726 C13.9576012,25.3688204 13.962797,26.5041388 14.6662448,27.2011772 L22.0875285,34.554843 L22.0875285,34.554843 Z" id="Shape" sketch:type="MSShapeGroup"></path>
</svg>
