<?xml version="1.0" encoding="UTF-8" standalone="no"?>
<svg width="100px" height="100px" viewBox="0 0 100 100" version="1.1" xmlns="http://www.w3.org/2000/svg" xmlns:xlink="http://www.w3.org/1999/xlink">
    <!-- Generator: Sketch 3.8.3 (29802) - http://www.bohemiancoding.com/sketch -->
    <title>selected</title>
    <path d="M50,72.4137931 L50,72.4137931 C62.3787961,72.4137931 72.4137931,62.3787961 72.4137931,50 C72.4137931,37.6212039 62.3787961,27.5862069 50,27.5862069 C37.6212039,27.5862069 27.5862069,37.6212039 27.5862069,50 C27.5862069,62.3787961 37.6212039,72.4137931 50,72.4137931 L50,72.4137931 Z M50,76 L50,76 C35.6405965,76 24,64.3594035 24,50 C24,35.6405965 35.6405965,24 50,24 C64.3594035,24 76,35.6405965 76,50 C76,64.3594035 64.3594035,76 50,76 L50,76 Z M46.0875285,58.554843 C46.8334132,59.2939316 48.0519185,59.2367977 48.7253731,58.4311582 L61.019606,43.7238267 C61.6547446,42.9640239 61.5536842,41.8332004 60.7938814,41.1980618 C60.0340785,40.5629233 58.903255,40.6639836 58.2681165,41.4237865 L47.4064508,54.5968304 L41.1904443,48.6537674 C40.4869965,47.956729 39.3516781,47.9619248 38.6546397,48.6653726 C37.9576012,49.3688204 37.962797,50.5041388 38.6662448,51.2011772 L46.0875285,58.554843 Z"></path>
</svg>
