<?xml version="1.0" encoding="UTF-8" standalone="no"?>
<svg width="100px" height="100px" viewBox="0 0 100 100" version="1.1" xmlns="http://www.w3.org/2000/svg" xmlns:xlink="http://www.w3.org/1999/xlink">
    <!-- Generator: Sketch 3.8.3 (29802) - http://www.bohemiancoding.com/sketch -->
    <title>share</title>
    <path d="M40.5646259,56.9318378 C41.8408163,56.9318378 43.0258503,56.5729077 44.0741497,55.9896462 L53.8278912,65.5910267 C53.2353741,66.6229508 52.8707483,67.7894737 52.8707483,69.0457291 C52.8707483,72.9042278 56.0612245,76 59.9353741,76 C63.8095238,76 67,72.8593615 67,69.0457291 C67,65.1872304 63.8095238,62.0914582 59.9353741,62.0914582 C58.6591837,62.0914582 57.4741497,62.4503883 56.4258503,63.0336497 L46.7176871,53.4322692 C47.3102041,52.4003451 47.6748299,51.2338223 47.6748299,49.9775669 C47.6748299,48.7213115 47.3102041,47.5547886 46.7176871,46.5228645 L56.4258503,36.9663503 C57.4741497,37.5496117 58.6591837,37.9085418 59.9353741,37.9085418 C63.855102,37.9085418 67,34.7679034 67,30.9542709 C67,27.1406385 63.8095238,24 59.9353741,24 C56.0612245,24 52.8707483,27.1406385 52.8707483,30.9542709 C52.8707483,32.2105263 53.2353741,33.3770492 53.8278912,34.4089733 L44.0741497,43.9206212 C43.0714286,43.3373598 41.8408163,43.0232959 40.5646259,43.0232959 C36.644898,43.0232959 33.5,46.1639344 33.5,49.9775669 C33.5,53.7911993 36.6904762,56.9318378 40.5646259,56.9318378 L40.5646259,56.9318378 Z M59.9809524,65.7704918 C61.8496599,65.7704918 63.3537415,67.2510785 63.3537415,69.0905953 C63.3537415,70.9301122 61.8496599,72.4106989 59.9809524,72.4106989 C58.1122449,72.4106989 56.6081633,70.9301122 56.6081633,69.0905953 C56.6081633,67.2510785 58.1122449,65.7704918 59.9809524,65.7704918 L59.9809524,65.7704918 Z M59.9809524,27.5893011 C61.8496599,27.5893011 63.3537415,29.0698878 63.3537415,30.9094047 C63.3537415,32.7489215 61.8496599,34.2295082 59.9809524,34.2295082 C58.1122449,34.2295082 56.6081633,32.7489215 56.6081633,30.9094047 C56.6081633,29.0698878 58.1122449,27.5893011 59.9809524,27.5893011 L59.9809524,27.5893011 Z M40.5646259,46.6574633 C42.4333333,46.6574633 43.937415,48.13805 43.937415,49.9775669 C43.937415,51.8170837 42.4333333,53.2976704 40.5646259,53.2976704 C38.6959184,53.2976704 37.1918367,51.8170837 37.1918367,49.9775669 C37.1918367,48.13805 38.7414966,46.6574633 40.5646259,46.6574633 L40.5646259,46.6574633 Z"></path>
</svg>
