<?xml version="1.0" encoding="UTF-8" standalone="no"?>
<svg width="34px" height="52px" viewBox="0 0 34 52" version="1.1" xmlns="http://www.w3.org/2000/svg" xmlns:xlink="http://www.w3.org/1999/xlink" xmlns:sketch="http://www.bohemiancoding.com/sketch/ns">
    <!-- Generator: Sketch 3.4.3 (16044) - http://www.bohemiancoding.com/sketch -->
    <title>share</title>
    <path d="M7.5646259,32.9318378 C8.8408163,32.9318378 10.0258503,32.5729077 11.0741497,31.9896462 L20.8278912,41.5910267 C20.2353741,42.6229508 19.8707483,43.7894737 19.8707483,45.0457291 C19.8707483,48.9042278 23.0612245,52 26.9353741,52 C30.8095238,52 34,48.8593615 34,45.0457291 C34,41.1872304 30.8095238,38.0914582 26.9353741,38.0914582 C25.6591837,38.0914582 24.4741497,38.4503883 23.4258503,39.0336497 L13.7176871,29.4322692 C14.3102041,28.4003451 14.6748299,27.2338223 14.6748299,25.9775669 C14.6748299,24.7213115 14.3102041,23.5547886 13.7176871,22.5228645 L23.4258503,12.9663503 C24.4741497,13.5496117 25.6591837,13.9085418 26.9353741,13.9085418 C30.855102,13.9085418 34,10.7679034 34,6.9542709 C34,3.1406385 30.8095238,0 26.9353741,0 C23.0612245,0 19.8707483,3.1406385 19.8707483,6.9542709 C19.8707483,8.2105263 20.2353741,9.3770492 20.8278912,10.4089733 L11.0741497,19.9206212 C10.0714286,19.3373598 8.8408163,19.0232959 7.5646259,19.0232959 C3.644898,19.0232959 0.5,22.1639344 0.5,25.9775669 C0.5,29.7911993 3.6904762,32.9318378 7.5646259,32.9318378 L7.5646259,32.9318378 L7.5646259,32.9318378 Z M26.9809524,41.7704918 C28.8496599,41.7704918 30.3537415,43.2510785 30.3537415,45.0905953 C30.3537415,46.9301122 28.8496599,48.4106989 26.9809524,48.4106989 C25.1122449,48.4106989 23.6081633,46.9301122 23.6081633,45.0905953 C23.6081633,43.2510785 25.1122449,41.7704918 26.9809524,41.7704918 L26.9809524,41.7704918 L26.9809524,41.7704918 Z M26.9809524,3.5893011 C28.8496599,3.5893011 30.3537415,5.0698878 30.3537415,6.9094047 C30.3537415,8.7489215 28.8496599,10.2295082 26.9809524,10.2295082 C25.1122449,10.2295082 23.6081633,8.7489215 23.6081633,6.9094047 C23.6081633,5.0698878 25.1122449,3.5893011 26.9809524,3.5893011 L26.9809524,3.5893011 L26.9809524,3.5893011 Z M7.5646259,22.6574633 C9.4333333,22.6574633 10.937415,24.13805 10.937415,25.9775669 C10.937415,27.8170837 9.4333333,29.2976704 7.5646259,29.2976704 C5.6959184,29.2976704 4.1918367,27.8170837 4.1918367,25.9775669 C4.1918367,24.13805 5.7414966,22.6574633 7.5646259,22.6574633 L7.5646259,22.6574633 L7.5646259,22.6574633 Z" id="share"></path>
</svg>
