<?xml version="1.0" encoding="UTF-8" standalone="no"?>
<svg width="78px" height="78px" viewBox="0 0 78 78" version="1.1" xmlns="http://www.w3.org/2000/svg" xmlns:xlink="http://www.w3.org/1999/xlink" xmlns:sketch="http://www.bohemiancoding.com/sketch/ns">
    <!-- Generator: Sketch 3.4.3 (16044) - http://www.bohemiancoding.com/sketch -->
    <title>share</title>
    <path d="M69.2792793,82.7027928 C73.5235435,82.7027928 77.1471772,81.2012913 80.1501802,78.1982883 C83.1531832,75.1952853 84.6546847,71.5716517 84.6546847,67.3273874 C84.6546847,63.0831231 83.1531832,59.4594895 80.1501802,56.4564865 C77.1471772,53.4534835 73.5235435,51.951982 69.2792793,51.951982 C67.016997,51.951982 64.8798498,52.4174474 62.8678378,53.3483784 C60.8558258,54.2793093 59.1290991,55.5756156 57.6876577,57.2372973 L38.1981982,47.4775676 C38.4184384,46.4164865 38.5285586,45.3454054 38.5285586,44.2643243 C38.5285586,43.1832432 38.4184384,42.1121622 38.1981982,41.0510811 L57.6876577,31.2913514 C59.1290991,32.953033 60.8558258,34.2493393 62.8678378,35.1802703 C64.8798498,36.1112012 67.016997,36.5766667 69.2792793,36.5766667 C73.5235435,36.5766667 77.1471772,35.0751652 80.1501802,32.0721622 C83.1531832,29.0691592 84.6546847,25.4455255 84.6546847,21.2012613 C84.6546847,16.956997 83.1531832,13.3333634 80.1501802,10.3303604 C77.1471772,7.32735736 73.5235435,5.82585586 69.2792793,5.82585586 C65.035015,5.82585586 61.4113814,7.32735736 58.4083784,10.3303604 C55.4053754,13.3333634 53.9038739,16.956997 53.9038739,21.2012613 C53.9038739,22.2823423 54.013994,23.3534234 54.2342342,24.4145045 L34.7447748,34.1742342 C33.3033333,32.5125526 31.5766066,31.2162462 29.5645946,30.2853153 C27.5525826,29.3543844 25.4154354,28.8889189 23.1531532,28.8889189 C18.9088889,28.8889189 15.2852553,30.3904204 12.2822523,33.3934234 C9.27924925,36.3964264 7.77774775,40.0200601 7.77774775,44.2643243 C7.77774775,48.5085886 9.27924925,52.1322222 12.2822523,55.1352252 C15.2852553,58.1382282 18.9088889,59.6397297 23.1531532,59.6397297 C25.4154354,59.6397297 27.5525826,59.1742643 29.5645946,58.2433333 C31.5766066,57.3124024 33.3033333,56.0160961 34.7447748,54.3544144 L54.2342342,64.1141441 C54.013994,65.1752252 53.9038739,66.2463063 53.9038739,67.3273874 C53.9038739,71.5716517 55.4053754,75.1952853 58.4083784,78.1982883 C61.4113814,81.2012913 65.035015,82.7027928 69.2792793,82.7027928 L69.2792793,82.7027928 Z M23.1531532,51.951982 C21.0310511,51.951982 19.2192492,51.2012312 17.7177477,49.6997297 C16.2162462,48.1982282 15.4654955,46.3864264 15.4654955,44.2643243 C15.4654955,42.1422222 16.2162462,40.3304204 17.7177477,38.8289189 C19.2192492,37.3274174 21.0310511,36.5766667 23.1531532,36.5766667 C25.2752553,36.5766667 27.0870571,37.3274174 28.5885586,38.8289189 C30.0900601,40.3304204 30.8408108,42.1422222 30.8408108,44.2643243 C30.8408108,46.3864264 30.0900601,48.1982282 28.5885586,49.6997297 C27.0870571,51.2012312 25.2752553,51.951982 23.1531532,51.951982 L23.1531532,51.951982 Z M69.2792793,28.8889189 C67.1571772,28.8889189 65.3453754,28.1381682 63.8438739,26.6366667 C62.3423724,25.1351652 61.5916216,23.3233634 61.5916216,21.2012613 C61.5916216,19.0791592 62.3423724,17.2673574 63.8438739,15.7658559 C65.3453754,14.2643544 67.1571772,13.5136036 69.2792793,13.5136036 C71.4013814,13.5136036 73.2131832,14.2643544 74.7146847,15.7658559 C76.2161862,17.2673574 76.9669369,19.0791592 76.9669369,21.2012613 C76.9669369,23.3233634 76.2161862,25.1351652 74.7146847,26.6366667 C73.2131832,28.1381682 71.4013814,28.8889189 69.2792793,28.8889189 L69.2792793,28.8889189 Z M69.2792793,75.015045 C67.1571772,75.015045 65.3453754,74.2642943 63.8438739,72.7627928 C62.3423724,71.2612913 61.5916216,69.4494895 61.5916216,67.3273874 C61.5916216,65.2052853 62.3423724,63.3934835 63.8438739,61.891982 C65.3453754,60.3904805 67.1571772,59.6397297 69.2792793,59.6397297 C71.4013814,59.6397297 73.2131832,60.3904805 74.7146847,61.891982 C76.2161862,63.3934835 76.9669369,65.2052853 76.9669369,67.3273874 C76.9669369,69.4494895 76.2161862,71.2612913 74.7146847,72.7627928 C73.2131832,74.2642943 71.4013814,75.015045 69.2792793,75.015045 L69.2792793,75.015045 Z" id="share" sketch:type="MSShapeGroup"></path>
</svg>
