<?xml version="1.0" encoding="UTF-8" standalone="no"?>
<svg width="51px" height="50px" viewBox="0 0 51 50" version="1.1" xmlns="http://www.w3.org/2000/svg" xmlns:xlink="http://www.w3.org/1999/xlink" xmlns:sketch="http://www.bohemiancoding.com/sketch/ns">
    <!-- Generator: Sketch 3.4.3 (16044) - http://www.bohemiancoding.com/sketch -->
    <title>show-more</title>
    <path d="M6.85127796,50 L43.2020234,50 C45.0834576,50 46.6897764,49.3343983 48.0209798,48.0031949 C49.3521832,46.6719915 50.0177849,45.0656727 50.0177849,43.1842386 L50.0177849,6.83349308 C50.0177849,4.95205893 49.3521832,3.34574015 48.0209798,2.01453674 C46.6897764,0.683333333 45.0834576,0.0177316294 43.2020234,0.0177316294 L6.85127796,0.0177316294 C4.96984381,0.0177316294 3.36352503,0.683333333 2.03232162,2.01453674 C0.701118211,3.34574015 0.0355165069,4.95205893 0.0355165069,6.83349308 L0.0355165069,43.1842386 C0.0355165069,45.0656727 0.701118211,46.6719915 2.03232162,48.0031949 C3.36352503,49.3343983 4.96984381,50 6.85127796,50 L6.85127796,50 Z M43.2019702,45.4561768 L6.85122471,45.4561768 C6.22406816,45.4561768 5.68862265,45.2343095 5.24488818,44.7905751 C4.80115371,44.3468406 4.57928647,43.8113951 4.57928647,43.1842386 L4.57928647,6.83349308 C4.57928647,6.20633653 4.80115371,5.67089102 5.24488818,5.22715655 C5.68862265,4.78342208 6.22406816,4.56155485 6.85122471,4.56155485 L43.2019702,4.56155485 C43.8291267,4.56155485 44.3645722,4.78342208 44.8083067,5.22715655 C45.2520412,5.67089102 45.4739084,6.20633653 45.4739084,6.83349308 L45.4739084,43.1842386 C45.4739084,43.8113951 45.2520412,44.3468406 44.8083067,44.7905751 C44.3645722,45.2343095 43.8291267,45.4561768 43.2019702,45.4561768 L43.2019702,45.4561768 Z M25.0266241,36.3684771 C25.6537806,36.3684771 26.1892261,36.1466099 26.6329606,35.7028754 C27.0766951,35.2591409 27.2985623,34.7236954 27.2985623,34.0965389 L27.2985623,27.2807774 L34.1143237,27.2807774 C34.7414803,27.2807774 35.2769258,27.0589102 35.7206603,26.6151757 C36.1643947,26.1714412 36.386262,25.6359957 36.386262,25.0088392 C36.386262,24.3816826 36.1643947,23.8462371 35.7206603,23.4025027 C35.2769258,22.9587682 34.7414803,22.736901 34.1143237,22.736901 L27.2985623,22.736901 L27.2985623,15.9211395 C27.2985623,15.293983 27.0766951,14.7585375 26.6329606,14.314803 C26.1892261,13.8710685 25.6537806,13.6492013 25.0266241,13.6492013 C24.3994675,13.6492013 23.864022,13.8710685 23.4202875,14.314803 C22.9765531,14.7585375 22.7546858,15.293983 22.7546858,15.9211395 L22.7546858,22.736901 L15.9389244,22.736901 C15.3117678,22.736901 14.7763223,22.9587682 14.3325879,23.4025027 C13.8888534,23.8462371 13.6669862,24.3816826 13.6669862,25.0088392 C13.6669862,25.6359957 13.8888534,26.1714412 14.3325879,26.6151757 C14.7763223,27.0589102 15.3117678,27.2807774 15.9389244,27.2807774 L22.7546858,27.2807774 L22.7546858,34.0965389 C22.7546858,34.7236954 22.9765531,35.2591409 23.4202875,35.7028754 C23.864022,36.1466099 24.3994675,36.3684771 25.0266241,36.3684771 L25.0266241,36.3684771 Z" id="Shape" sketch:type="MSShapeGroup"></path>

</svg>
