<?xml version="1.0" encoding="UTF-8" standalone="no"?>
<svg width="18px" height="16px" viewBox="0 0 18 16" version="1.1" xmlns="http://www.w3.org/2000/svg" xmlns:xlink="http://www.w3.org/1999/xlink">
    <!-- Generator: Sketch 43.2 (39069) - http://www.bohemiancoding.com/sketch -->
    <g id="Page-1" stroke="none" stroke-width="1" fill="none" fill-rule="evenodd">
        <g id="settings-20" fill-rule="nonzero" fill="#F8E81C">
            <path d="M14,6.17070571 L14,1 C14,0.44771525 14.4477153,0 15,0 C15.5522847,0 16,0.44771525 16,1 L16,6.17070571 C17.1651924,6.58254212 18,7.69378117 18,9 C18,10.3062188 17.1651924,11.4174579 16,11.8292943 L16,15 C16,15.5522847 15.5522847,16 15,16 C14.4477153,16 14,15.5522847 14,15 L14,11.8292943 C12.8348076,11.4174579 12,10.3062188 12,9 C12,7.69378117 12.8348076,6.58254212 14,6.17070571 Z M8,1.17070571 L8,1 C8,0.44771525 8.44771525,0 9,0 C9.5522847,0 10,0.44771525 10,1 L10,1.17070571 C11.1651924,1.58254212 12,2.69378117 12,4 C12,5.30621883 11.1651924,6.41745788 10,6.82929429 L10,15 C10,15.5522847 9.5522847,16 9,16 C8.44771525,16 8,15.5522847 8,15 L8,6.82929429 C6.83480763,6.41745788 6,5.30621883 6,4 C6,2.69378117 6.83480763,1.58254212 8,1.17070571 Z M2,9.1707057 L2,1 C2,0.44771525 2.44771525,0 3,0 C3.55228475,0 4,0.44771525 4,1 L4,9.1707057 C5.16519237,9.5825421 6,10.6937812 6,12 C6,13.3062188 5.16519237,14.4174579 4,14.8292943 L4,15 C4,15.5522847 3.55228475,16 3,16 C2.44771525,16 2,15.5522847 2,15 L2,14.8292943 C0.83480763,14.4174579 0,13.3062188 0,12 C0,10.6937812 0.83480763,9.5825421 2,9.1707057 Z M3,13 C3.55228475,13 4,12.5522847 4,12 C4,11.4477153 3.55228475,11 3,11 C2.44771525,11 2,11.4477153 2,12 C2,12.5522847 2.44771525,13 3,13 Z M9,5 C9.5522847,5 10,4.55228475 10,4 C10,3.44771525 9.5522847,3 9,3 C8.44771525,3 8,3.44771525 8,4 C8,4.55228475 8.44771525,5 9,5 Z M15,10 C15.5522847,10 16,9.5522847 16,9 C16,8.4477153 15.5522847,8 15,8 C14.4477153,8 14,8.4477153 14,9 C14,9.5522847 14.4477153,10 15,10 Z" id="path-1"></path>
        </g>
    </g>
</svg>
