<?xml version="1.0" encoding="UTF-8" standalone="no"?>
<svg width="87px" height="87px" viewBox="0 0 87 87" version="1.1" xmlns="http://www.w3.org/2000/svg" xmlns:xlink="http://www.w3.org/1999/xlink" xmlns:sketch="http://www.bohemiancoding.com/sketch/ns">
    <!-- Generator: Sketch 3.4.3 (16044) - http://www.bohemiancoding.com/sketch -->
    <title>sphere</title>
    <path d="M43.3333333,86.5465766 C19.4508108,86.5465766 0.0900900901,67.1858559 0.0900900901,43.3033333 C0.0900900901,19.4206306 19.4508108,0.0600900901 43.3333333,0.0600900901 C67.216036,0.0600900901 86.5765766,19.4206306 86.5765766,43.3033333 C86.5765766,67.1858559 67.216036,86.5465766 43.3333333,86.5465766 L43.3333333,86.5465766 Z M67.8009009,28.8889189 C68.5738739,32.5334234 69.0618018,36.4017117 69.2205405,40.4204505 L80.7021622,40.4204505 C80.4016216,36.4388288 79.4747748,32.5723423 77.9381982,28.8889189 L67.8009009,28.8889189 L67.8009009,28.8889189 Z M18.8657658,57.7177477 C18.0927928,54.0732432 17.6048649,50.204955 17.4461261,46.1862162 L5.96468468,46.1862162 C6.26522523,50.1676577 7.19189189,54.0343243 8.72846847,57.7177477 L18.8657658,57.7177477 L18.8657658,57.7177477 Z M61.8951351,57.7177477 C62.7612613,54.0274775 63.2823423,50.1633333 63.4518919,46.1862162 L46.2162162,46.1862162 L46.2162162,57.7177477 L61.8951351,57.7177477 L61.8951351,57.7177477 Z M46.2162162,63.4835135 L46.2162162,80.3608108 C47.5306306,79.9782883 48.8327928,79.3364865 50.1106306,78.4355856 C52.5054054,76.7472973 54.7963964,74.1465766 56.7358559,70.9143243 C58.0765766,68.6799099 59.236036,66.1921622 60.203964,63.4833333 L46.2162162,63.4833333 L46.2162162,63.4835135 Z M29.9308108,70.9145045 C31.8702703,74.1467568 34.1610811,76.7476577 36.556036,78.4357658 C37.8336937,79.3366667 39.136036,79.9784685 40.4504505,80.360991 L40.4504505,63.4835135 L26.4627027,63.4835135 C27.4308108,66.1921622 28.5902703,68.6799099 29.9308108,70.9145045 L29.9308108,70.9145045 Z M40.4504505,57.7177477 L40.4504505,46.1862162 L23.214955,46.1862162 C23.3843243,50.1633333 23.9055856,54.0274775 24.7715315,57.7177477 L40.4504505,57.7177477 L40.4504505,57.7177477 Z M8.72864865,28.8889189 C7.19207207,32.5723423 6.26540541,36.4388288 5.96486486,40.4204505 L17.4463063,40.4204505 C17.605045,36.4017117 18.092973,32.5334234 18.8659459,28.8889189 L8.72864865,28.8889189 L8.72864865,28.8889189 Z M23.214955,40.4204505 L40.4504505,40.4204505 L40.4504505,28.8889189 L24.7715315,28.8889189 C23.9055856,32.579009 23.3843243,36.4433333 23.214955,40.4204505 L23.214955,40.4204505 Z M40.4504505,23.1231532 L40.4504505,6.24567568 C39.1362162,6.6281982 37.8338739,7.27018018 36.556036,8.1709009 C34.1610811,9.85918919 31.8700901,12.4600901 29.9308108,15.6921622 C28.5900901,17.9267568 27.4308108,20.4145045 26.4625225,23.1231532 L40.4504505,23.1231532 L40.4504505,23.1231532 Z M56.7358559,15.6921622 C54.7963964,12.4600901 52.5054054,9.85918919 50.1106306,8.1709009 C48.8327928,7.27018018 47.5306306,6.6281982 46.2162162,6.24567568 L46.2162162,23.1231532 L60.2041441,23.1231532 C59.236036,20.4145045 58.0765766,17.9267568 56.7358559,15.6921622 L56.7358559,15.6921622 Z M46.2162162,28.8889189 L46.2162162,40.4204505 L63.4517117,40.4204505 C63.2823423,36.4433333 62.7610811,32.579009 61.894955,28.8889189 L46.2162162,28.8889189 L46.2162162,28.8889189 Z M69.2205405,46.1862162 C69.0618018,50.204955 68.5738739,54.0732432 67.8009009,57.7177477 L77.9381982,57.7177477 C79.4747748,54.0343243 80.4016216,50.1676577 80.7021622,46.1862162 L69.2205405,46.1862162 L69.2205405,46.1862162 Z M74.9241441,63.4835135 L66.2845045,63.4835135 C64.6054054,68.7773874 62.2866667,73.4199099 59.4992793,77.1256757 C63.3313514,75.2932432 66.8018018,72.8359459 69.8338739,69.8038739 C71.769009,67.8689189 73.4700901,65.7554054 74.9241441,63.4835135 L74.9241441,63.4835135 Z M16.8327928,69.8038739 C19.865045,72.8361261 23.3354955,75.2932432 27.1673874,77.1256757 C24.3798198,73.4199099 22.0614414,68.7773874 20.3821622,63.4835135 L11.7427027,63.4835135 C13.1965766,65.7554054 14.8978378,67.8689189 16.8327928,69.8038739 L16.8327928,69.8038739 Z M11.7427027,23.1231532 L20.3821622,23.1231532 C22.0614414,17.8292793 24.38,13.1867568 27.1675676,9.48081081 C23.3354955,11.3132432 19.865045,13.7705405 16.832973,16.8027928 C14.8978378,18.7377477 13.1965766,20.8512613 11.7427027,23.1231532 L11.7427027,23.1231532 Z M69.8338739,16.8027928 C66.8018018,13.7705405 63.3311712,11.3132432 59.4992793,9.48081081 C62.2868468,13.1865766 64.6054054,17.8292793 66.2845045,23.1231532 L74.9241441,23.1231532 C73.4700901,20.8512613 71.769009,18.7377477 69.8338739,16.8027928 L69.8338739,16.8027928 Z" id="sphere" sketch:type="MSShapeGroup"></path>
</svg>
