<?xml version="1.0" encoding="UTF-8" standalone="no"?>
<svg width="52px" height="52px" viewBox="0 0 52 52" version="1.1" xmlns="http://www.w3.org/2000/svg" xmlns:xlink="http://www.w3.org/1999/xlink" xmlns:sketch="http://www.bohemiancoding.com/sketch/ns">
    <!-- Generator: Sketch 3.4.3 (16044) - http://www.bohemiancoding.com/sketch -->
    <title>sphere</title>
    <path d="M26,48.4 L26,48.4 C38.3711784,48.4 48.4,38.3711784 48.4,26 C48.4,13.6288216 38.3711784,3.6 26,3.6 C13.6288216,3.6 3.6,13.6288216 3.6,26 C3.6,38.3711784 13.6288216,48.4 26,48.4 L26,48.4 L26,48.4 Z M26,52 L26,52 C11.6405965,52 0,40.3594035 0,26 C0,11.6405965 11.6405965,0 26,0 C40.3594035,0 52,11.6405965 52,26 C52,40.3594035 40.3594035,52 26,52 L26,52 L26,52 Z" id="Oval-38"></path>
    <path d="M26.4482759,48.4068966 L26.4482759,48.4068966 C32.8613268,48.4068966 38.5448276,38.5066048 38.5448276,26 C38.5448276,13.4933952 32.8613268,3.59310345 26.4482759,3.59310345 C20.035225,3.59310345 14.3517241,13.4933952 14.3517241,26 C14.3517241,38.5066048 20.035225,48.4068966 26.4482759,48.4068966 L26.4482759,48.4068966 L26.4482759,48.4068966 Z M26.4482759,50.2068966 L26.4482759,50.2068966 C18.7734223,50.2068966 12.5517241,39.3690998 12.5517241,26 C12.5517241,12.6309002 18.7734223,1.79310345 26.4482759,1.79310345 C34.1231295,1.79310345 40.3448276,12.6309002 40.3448276,26 C40.3448276,39.3690998 34.1231295,50.2068966 26.4482759,50.2068966 L26.4482759,50.2068966 L26.4482759,50.2068966 Z" id="Oval-38-Copy"></path>
    <path d="M25.5482759,4.03448276 L25.5482759,48.862069 C25.5482759,49.3591252 25.9512196,49.762069 26.4482759,49.762069 C26.9453321,49.762069 27.3482759,49.3591252 27.3482759,48.862069 L27.3482759,4.03448276 C27.3482759,3.53742648 26.9453321,3.13448276 26.4482759,3.13448276 C25.9512196,3.13448276 25.5482759,3.53742648 25.5482759,4.03448276 L25.5482759,4.03448276 L25.5482759,4.03448276 Z" id="Line"></path>
    <path d="M48.4137931,17.9275862 L3.5862069,17.9275862 C3.08915062,17.9275862 2.6862069,18.3305299 2.6862069,18.8275862 C2.6862069,19.3246425 3.08915062,19.7275862 3.5862069,19.7275862 L48.4137931,19.7275862 C48.9108494,19.7275862 49.3137931,19.3246425 49.3137931,18.8275862 C49.3137931,18.3305299 48.9108494,17.9275862 48.4137931,17.9275862 L48.4137931,17.9275862 L48.4137931,17.9275862 Z" id="Line"></path>
    <path d="M48.4137931,32.2724138 L3.5862069,32.2724138 C3.08915062,32.2724138 2.6862069,32.6753575 2.6862069,33.1724138 C2.6862069,33.6694701 3.08915062,34.0724138 3.5862069,34.0724138 L48.4137931,34.0724138 C48.9108494,34.0724138 49.3137931,33.6694701 49.3137931,33.1724138 C49.3137931,32.6753575 48.9108494,32.2724138 48.4137931,32.2724138 L48.4137931,32.2724138 L48.4137931,32.2724138 Z" id="Line-Copy-15"></path>
</svg>
