<?xml version="1.0" encoding="UTF-8" standalone="no"?>
<svg width="16px" height="16px" viewBox="0 0 16 16" version="1.1" xmlns="http://www.w3.org/2000/svg" xmlns:xlink="http://www.w3.org/1999/xlink">
    <!-- Generator: Sketch 43.2 (39069) - http://www.bohemiancoding.com/sketch -->
    <title>path-1</title>
    <desc>Created with Sketch.</desc>
    <defs></defs>
    <g id="Page-1"  stroke-width="1" fill-rule="evenodd">
        <path d="M11,2 C10.4477153,2 10,1.55228475 10,1 C10,0.44771525 10.4477153,0 11,0 L14,0 C15.1045695,0 16,0.8954305 16,2 L16,5 C16,5.55228475 15.5522847,6 15,6 C14.4477153,6 14,5.55228475 14,5 L14,2 L11,2 Z M14,11 C14,10.4477153 14.4477153,10 15,10 C15.5522847,10 16,10.4477153 16,11 L16,14 C16,15.1045695 15.1045695,16 14,16 L11,16 C10.4477153,16 10,15.5522847 10,15 C10,14.4477153 10.4477153,14 11,14 L14,14 L14,11 Z M5,14 C5.55228475,14 6,14.4477153 6,15 C6,15.5522847 5.55228475,16 5,16 L2,16 C0.8954305,16 0,15.1045695 0,14 L0,11 C0,10.4477153 0.44771525,10 1,10 C1.55228475,10 2,10.4477153 2,11 L2,14 L5,14 Z M2,5 C2,5.55228475 1.55228475,6 1,6 C0.44771525,6 0,5.55228475 0,5 L0,2 C0,0.8954305 0.8954305,0 2,0 L5,0 C5.55228475,0 6,0.44771525 6,1 C6,1.55228475 5.55228475,2 5,2 L2,2 L2,5 Z M9,7 L11,7 C11.5522847,7 12,7.44771525 12,8 C12,8.5522847 11.5522847,9 11,9 L9,9 L9,11 C9,11.5522847 8.5522847,12 8,12 C7.44771525,12 7,11.5522847 7,11 L7,9 L5,9 C4.44771525,9 4,8.5522847 4,8 C4,7.44771525 4.44771525,7 5,7 L7,7 L7,5 C7,4.44771525 7.44771525,4 8,4 C8.5522847,4 9,4.44771525 9,5 L9,7 Z" id="path-1" fill-rule="nonzero"></path>
    </g>
</svg>
