<?xml version="1.0" encoding="UTF-8"?>
<svg width="20px" height="20px" viewBox="0 0 20 20" version="1.1" xmlns="http://www.w3.org/2000/svg" xmlns:xlink="http://www.w3.org/1999/xlink">
    <!-- Generator: Sketch 53.2 (72643) - https://sketchapp.com -->
    <title>icon/capture-20</title>
    <desc>Created with Sketch.</desc>
    <defs>
        <path d="M13,4 C12.4477153,4 12,3.55228475 12,3 C12,2.44771525 12.4477153,2 13,2 L16,2 C17.1045695,2 18,2.8954305 18,4 L18,7 C18,7.55228475 17.5522847,8 17,8 C16.4477153,8 16,7.55228475 16,7 L16,4 L13,4 Z M16,13 C16,12.4477153 16.4477153,12 17,12 C17.5522847,12 18,12.4477153 18,13 L18,16 C18,17.1045695 17.1045695,18 16,18 L13,18 C12.4477153,18 12,17.5522847 12,17 C12,16.4477153 12.4477153,16 13,16 L16,16 L16,13 Z M7,16 C7.55228475,16 8,16.4477153 8,17 C8,17.5522847 7.55228475,18 7,18 L4,18 C2.8954305,18 2,17.1045695 2,16 L2,13 C2,12.4477153 2.44771525,12 3,12 C3.55228475,12 4,12.4477153 4,13 L4,16 L7,16 Z M4,7 C4,7.55228475 3.55228475,8 3,8 C2.44771525,8 2,7.55228475 2,7 L2,4 C2,2.8954305 2.8954305,2 4,2 L7,2 C7.55228475,2 8,2.44771525 8,3 C8,3.55228475 7.55228475,4 7,4 L4,4 L4,7 Z M11,9 L13,9 C13.5522847,9 14,9.44771525 14,10 C14,10.5522847 13.5522847,11 13,11 L11,11 L11,13 C11,13.5522847 10.5522847,14 10,14 C9.44771525,14 9,13.5522847 9,13 L9,11 L7,11 C6.44771525,11 6,10.5522847 6,10 C6,9.44771525 6.44771525,9 7,9 L9,9 L9,7 C9,6.44771525 9.44771525,6 10,6 C10.5522847,6 11,6.44771525 11,7 L11,9 Z" id="path-1"></path>
    </defs>
    <g id="icon/capture-20" stroke="none" stroke-width="1" fill-rule="evenodd">
        <mask id="mask-2" fill="white">
            <use xlink:href="#path-1"></use>
        </mask>
        <use id="Rectangle-2" fill="#4D5766" fill-rule="nonzero" xlink:href="#path-1"></use>
        <g id="colour/@black" mask="url(#mask-2)">
            <rect id="Fill" x="0" y="0" width="20" height="20"></rect>
        </g>
    </g>
</svg>
