<svg xmlns="http://www.w3.org/2000/svg" xmlns:xlink="http://www.w3.org/1999/xlink" width="20" height="20" viewBox="0 0 20 20">
    <path id="path-1" d="M12,5 C12,4.41149708 11.6570858,4 11.3333333,4 L8.66666667,4 C8.34291423,4 8,4.41149708 8,5 L12,5 Z M6,5 C6,3.37936392 7.14946993,2 8.66666667,2 L11.3333333,2 C12.8505301,2 14,3.37936392 14,5 L17,5 L17,7 L3,7 L3,5 L6,5 Z M14,8 L16,8 L16,15 C16,16.6206361 14.8505301,18 13.3333333,18 L6.66666667,18 C5.14946993,18 4,16.6206361 4,15 L4,8 L6,8 L6,15 C6,15.5885029 6.34291423,16 6.66666667,16 L13.3333333,16 C13.6570858,16 14,15.5885029 14,15 L14,8 Z"/>
</svg>
