<?xml version="1.0" encoding="UTF-8" standalone="no"?>
<svg width="20px" height="20px" viewBox="0 0 20 20" version="1.1" xmlns="http://www.w3.org/2000/svg" xmlns:xlink="http://www.w3.org/1999/xlink">
        <path d="M11,10.4142136 L11,19 C11,19.5522847 10.5522847,20 10,20 C9.4477153,20 9,19.5522847 9,19 L9,10.4142136 L6.70710678,12.7071068 C6.31658249,13.0976311 5.68341751,13.0976311 5.29289322,12.7071068 C4.90236893,12.3165825 4.90236893,11.6834175 5.29289322,11.2928932 L9.2928932,7.29289322 C9.6834175,6.90236893 10.3165825,6.90236893 10.7071068,7.29289322 L14.7071068,11.2928932 C15.0976311,11.6834175 15.0976311,12.3165825 14.7071068,12.7071068 C14.3165825,13.0976311 13.6834175,13.0976311 13.2928932,12.7071068 L11,10.4142136 Z M4.43737186,18.311193 C3.89552498,17.9478914 3.39022438,17.53236 2.92893219,17.0710678 C1.06632038,15.208456 0,12.6873915 0,10 C0,4.4771525 4.4771525,0 10,0 C15.5228475,0 20,4.4771525 20,10 C20,12.6873915 18.9336796,15.208456 17.0710678,17.0710678 C16.6097756,17.53236 16.104475,17.9478914 15.5626281,18.311193 C15.10391,18.6187579 14.4827149,18.4962239 14.1751501,18.0375058 C13.8675853,17.5787877 13.9901192,16.9575926 14.4488374,16.6500278 C14.8826488,16.3591626 15.2873497,16.0263588 15.6568542,15.6568542 C17.1481115,14.165597 18,12.1515064 18,10 C18,5.581722 14.418278,2 10,2 C5.581722,2 2,5.581722 2,10 C2,12.1515064 2.85188851,14.165597 4.34314575,15.6568542 C4.71265033,16.0263588 5.11735121,16.3591626 5.55116264,16.6500278 C6.00988077,16.9575926 6.13241472,17.5787877 5.82484989,18.0375058 C5.51728507,18.4962239 4.89608999,18.6187579 4.43737186,18.311193 Z" id="path-1"></path>
</svg>
