<svg xmlns="http://www.w3.org/2000/svg" xmlns:xlink="http://www.w3.org/1999/xlink" width="24" height="24" viewBox="0 0 24 24">
  <defs>
    <path id="path-1" d="M13,12.4142136 L13,21 C13,21.5522847 12.5522847,22 12,22 C11.4477153,22 11,21.5522847 11,21 L11,12.4142136 L8.70710678,14.7071068 C8.31658249,15.0976311 7.68341751,15.0976311 7.29289322,14.7071068 C6.90236893,14.3165825 6.90236893,13.6834175 7.29289322,13.2928932 L11.2928932,9.29289322 C11.6834175,8.90236893 12.3165825,8.90236893 12.7071068,9.29289322 L16.7071068,13.2928932 C17.0976311,13.6834175 17.0976311,14.3165825 16.7071068,14.7071068 C16.3165825,15.0976311 15.6834175,15.0976311 15.2928932,14.7071068 L13,12.4142136 Z M6.43737186,20.311193 C5.89552498,19.9478914 5.39022438,19.53236 4.92893219,19.0710678 C3.06632038,17.208456 2,14.6873915 2,12 C2,6.4771525 6.4771525,2 12,2 C17.5228475,2 22,6.4771525 22,12 C22,14.6873915 20.9336796,17.208456 19.0710678,19.0710678 C18.6097756,19.53236 18.104475,19.9478914 17.5626281,20.311193 C17.10391,20.6187579 16.4827149,20.4962239 16.1751501,20.0375058 C15.8675853,19.5787877 15.9901192,18.9575926 16.4488374,18.6500278 C16.8826488,18.3591626 17.2873497,18.0263588 17.6568542,17.6568542 C19.1481115,16.165597 20,14.1515064 20,12 C20,7.581722 16.418278,4 12,4 C7.581722,4 4,7.581722 4,12 C4,14.1515064 4.85188851,16.165597 6.34314575,17.6568542 C6.71265033,18.0263588 7.11735121,18.3591626 7.55116264,18.6500278 C8.00988077,18.9575926 8.13241472,19.5787877 7.82484989,20.0375058 C7.51728507,20.4962239 6.89608999,20.6187579 6.43737186,20.311193 Z"/>
  </defs>
  <g fill="none" fill-rule="evenodd">
    <mask id="mask-2" fill="white">
      <use xlink:href="#path-1"/>
    </mask>
    <use fill="#FFFFFF" fill-rule="nonzero" xlink:href="#path-1"/>
    <g fill="#000000" mask="url(#mask-2)">
      <rect width="24" height="24"/>
    </g>
  </g>
</svg>
