<?xml version="1.0" encoding="UTF-8" standalone="no"?>
<svg width="16" height="16" xmlns="http://www.w3.org/2000/svg">
  <path d="M11.669 10.34c-1.56-.64-1.93-.87-1.93-.87l-.01-1.49s.58-.45.76-1.85c.37.11.75-.54.77-.88.02-.33-.05-1.25-.49-1.15.09-.69.15-1.31.12-1.64C10.769 1.27 9.599 0 7.779 0c-1.81 0-2.99 1.27-3.1 2.46-.04.33.03.95.12 1.64-.44-.1-.51.82-.49 1.15.02.34.4.99.76.88.18 1.4.77 1.85.77 1.85l-.02 1.49s-.37.23-1.92.87c-1.55.65-3.12 1.1-3.59 1.83-.42.65-.29 3.79-.29 3.79h15.53s.13-3.14-.29-3.79c-.47-.73-2.04-1.18-3.59-1.83z" fill-rule="evenodd"/>
</svg>
