<?xml version="1.0" encoding="UTF-8" standalone="no"?>
<svg xmlns="http://www.w3.org/2000/svg" viewBox="0 0 26 30">
  <path fill-rule="evenodd" d="M23.211 8.04a1.194 1.194 0 11-2.389 0v-.073a1.196 1.196 0 112.389 0v.072zm0 4.706a1.195 1.195 0 01-2.389 0v-.072a1.194 1.194 0 112.39 0v.072zm0 9.195a1.194 1.194 0 11-2.389 0v-.072a1.194 1.194 0 112.39 0v.072zm0 4.705a1.194 1.194 0 11-2.389 0v-.072c0-.66.534-1.193 1.195-1.193.66 0 1.194.533 1.194 1.193v.072zm-2.46-9.339a1.195 1.195 0 112.388 0v.072a1.194 1.194 0 11-2.389 0v-.072zm-2.246-5.758c0 1.32-.988 2.392-2.206 2.392H9.13c-1.22 0-2.208-1.072-2.208-2.392v-6.8c0-1.323.988-2.394 2.207-2.394H16.3c1.218 0 2.206 1.071 2.206 2.393v6.801zm0 13.902c0 1.32-.988 2.391-2.206 2.391H9.13c-1.22 0-2.208-1.07-2.208-2.39v-6.804c0-1.32.988-2.39 2.207-2.39H16.3c1.218 0 2.206 1.07 2.206 2.39v6.803zM4.676 8.04a1.194 1.194 0 11-2.389 0v-.072c0-.659.535-1.196 1.194-1.196.661 0 1.195.537 1.195 1.196v.072zm0 4.707a1.196 1.196 0 01-2.389 0v-.072a1.195 1.195 0 112.39 0v.072zm0 9.195a1.194 1.194 0 01-2.389 0v-.072a1.195 1.195 0 112.39 0v.072zm0 4.705a1.195 1.195 0 11-2.389 0v-.072c0-.66.535-1.193 1.194-1.193.661 0 1.195.533 1.195 1.193v.072zm-2.462-9.339a1.196 1.196 0 112.39 0v.072a1.195 1.195 0 11-2.39 0v-.072zm0-13.9a1.196 1.196 0 012.39 0v.072a1.195 1.195 0 11-2.39 0v-.073zm18.536 0a1.195 1.195 0 112.39 0v.072a1.194 1.194 0 11-2.39 0v-.073zM23.074 0H2.364A2.373 2.373 0 000 2.381V27.62A2.374 2.374 0 002.364 30h20.71a2.374 2.374 0 002.364-2.38V2.38a2.373 2.373 0 00-2.364-2.38z"/>
</svg>
