<svg width="20" height="20" viewBox="0 0 20 20" xmlns="http://www.w3.org/2000/svg">
<g id="home-20">
<path id="Rectangle (Stroke)" fill-rule="evenodd" clip-rule="evenodd" d="M10 1C10.2755 1 10.5388 1.11368 10.7278 1.3142L17.7278 8.74277C17.9026 8.92831 18 9.17363 18 9.42857V18C18 18.5523 17.5523 19 17 19H12C11.4477 19 11 18.5523 11 18V14H9V18C9 18.5523 8.55228 19 8 19H3C2.44772 19 2 18.5523 2 18V9.42857C2 9.17363 2.09737 8.92831 2.27221 8.74277L9.27221 1.3142C9.46116 1.11368 9.72448 1 10 1ZM4 9.82549V17H7V13C7 12.4477 7.44772 12 8 12H12C12.5523 12 13 12.4477 13 13V17H16V9.82549L10 3.45815L4 9.82549Z" />
</g>
</svg>
