<?xml version="1.0" encoding="UTF-8"?>
<svg width="12" height="13" xmlns="http://www.w3.org/2000/svg">
  <path d="M1.702 7l.068.315c.405 1.867 2.115 3.233 4.072 3.233a4.183 4.183 0 002.745-1.02l-.952-.646 3.51-1.417-.338 3.675-.795-.592c-1.087 1.094-2.565 1.702-4.17 1.702-2.85 0-5.272-2.033-5.76-4.778L0 7h1.702zm4.2-6.375c2.85 0 5.28 1.837 5.768 4.59l.075.285h-1.702l-.06-.142C9.578 3.49 7.86 2.215 5.903 2.215c-1.02 0-1.98.413-2.738 1.065l.945.668L.608 5.575l.33-3.765.795.54A5.882 5.882 0 015.903.625z" fill="#4D5766" fill-rule="evenodd"/>
</svg>
