<?xml version="1.0" encoding="UTF-8"?>
<svg width="12px" height="13px" viewBox="0 0 12 13" version="1.1" xmlns="http://www.w3.org/2000/svg" xmlns:xlink="http://www.w3.org/1999/xlink">
    <!-- Generator: Sketch 63.1 (92452) - https://sketch.com -->
    <title>zoom-refresh</title>
    <desc>Created with Sketch.</desc>
    <g id="Symbols" stroke="none" stroke-width="1" fill="none" fill-rule="evenodd">
        <g id="Assets/UI/Zoom/Port" transform="translate(-6.000000, -24.0000000)" fill="#4D5766">
            <path d="M7.702425,30.999925 L7.769925,31.314925 C8.174925,33.182425 9.884925,34.548175 11.842425,34.548175 C12.869925,34.548175 13.829925,34.179925 14.587425,33.527425 L13.634925,32.882425 L17.144925,31.464925 L16.807425,35.139925 L16.012425,34.548175 C14.924925,35.642425 13.447425,36.249925 11.842425,36.249925 C8.992425,36.249925 6.569925,34.217425 6.082425,31.472425 L5.999925,30.999925 L7.702425,30.999925 Z M11.902575,24.625 C14.752575,24.625 17.182575,26.4625 17.670075,29.215 L17.745075,29.5 L16.042575,29.5 L15.982575,29.35825 C15.577575,27.49 13.860075,26.215 11.902575,26.215 C10.882575,26.215 9.922575,26.6275 9.165075,27.28 L10.110075,27.9475 L6.607575,29.575 L6.937575,25.81 L7.732575,26.35 C8.820075,25.2625 10.305075,24.625 11.902575,24.625 Z" id="zoom-refresh"></path>
        </g>
    </g>
</svg>