<?xml version="1.0" encoding="utf-8"?>
<!DOCTYPE svg PUBLIC "-//W3C//DTD SVG 1.1//EN" "http://www.w3.org/Graphics/SVG/1.1/DTD/svg11.dtd">
<svg version="1.1" id="Layer_1" xmlns="http://www.w3.org/2000/svg" xmlns:xlink="http://www.w3.org/1999/xlink" x="0px" y="0px"
     width="24px" height="24px" viewBox="0 0 32 32" enable-background="new 0 0 32 32" xml:space="preserve">
<path d="M29.548,3.043c-1.081-0.859-2.651-0.679-3.513,0.401L16,16.066l-3.508-4.414c-0.859-1.081-2.431-1.26-3.513-0.401c-1.081,0.859-1.261,2.432-0.401,3.513l5.465,6.875c0.474,0.598,1.195,0.944,1.957,0.944c0.762,0,1.482-0.349,1.957-0.944L29.949,6.556C30.809,5.475,30.629,3.902,29.548,3.043zM24.5,24.5h-17v-17h12.756l2.385-3H6C5.171,4.5,4.5,5.171,4.5,6v20c0,0.828,0.671,1.5,1.5,1.5h20c0.828,0,1.5-0.672,1.5-1.5V12.851l-3,3.773V24.5z" fill="#66CCFF" />
</svg>
