<?xml version="1.0" encoding="UTF-8" standalone="no"?>
<!-- Created with Inkscape (http://www.inkscape.org/) -->

<svg
   xmlns:dc="http://purl.org/dc/elements/1.1/"
   xmlns:cc="http://creativecommons.org/ns#"
   xmlns:rdf="http://www.w3.org/1999/02/22-rdf-syntax-ns#"
   xmlns:svg="http://www.w3.org/2000/svg"
   xmlns="http://www.w3.org/2000/svg"
   version="1.1"
   width="32"
   height="32"
   id="svg4273">
  <defs
     id="defs4275" />
  <metadata
     id="metadata4278">
    <rdf:RDF>
      <cc:Work
         rdf:about="">
        <dc:format>image/svg+xml</dc:format>
        <dc:type
           rdf:resource="http://purl.org/dc/dcmitype/StillImage" />
        <dc:title></dc:title>
      </cc:Work>
    </rdf:RDF>
  </metadata>
  <path
     d="M 30.1,5.5 H 1.9 C 1.2376,5.5 0.7,6.0376 0.7,6.7 v 18.6 c 0,0.6624 0.5376,1.2 1.2,1.2 h 28.2 c 0.6624,0 1.2,-0.5376 1.2,-1.2 V 6.7 c 0,-0.6624 -0.537,-1.2 -1.2,-1.2 z m -12,18 c 0,0.6624 -0.5376,1.2 -1.2,1.2 H 3.7 c -0.6624,0 -1.2,-0.5376 -1.2,-1.2 v -7.2 c 0,-0.6624 0.5376,-1.2 1.2,-1.2 h 13.2 c 0.6624,0 1.2,0.5376 1.2,1.2 v 7.2 z"
     id="path70"
     style="fill:#999EA1" />
</svg>
