<?xml version="1.0" encoding="UTF-8" standalone="no"?>
<!-- Created with Inkscape (http://www.inkscape.org/) -->

<svg
   xmlns:dc="http://purl.org/dc/elements/1.1/"
   xmlns:cc="http://creativecommons.org/ns#"
   xmlns:rdf="http://www.w3.org/1999/02/22-rdf-syntax-ns#"
   xmlns:svg="http://www.w3.org/2000/svg"
   xmlns="http://www.w3.org/2000/svg"
   version="1.1"
   width="32"
   height="32"
   id="svg4273">
  <defs
     id="defs4275" />
  <metadata
     id="metadata4278">
    <rdf:RDF>
      <cc:Work
         rdf:about="">
        <dc:format>image/svg+xml</dc:format>
        <dc:type
           rdf:resource="http://purl.org/dc/dcmitype/StillImage" />
        <dc:title></dc:title>
      </cc:Work>
    </rdf:RDF>
  </metadata>
  <path
     d="M 16,5.0002 C 9.925,5.0002 5.0002,9.925 5.0002,16 5.0002,22.075 9.925,26.9998 16,26.9998 22.075,26.9998 26.9998,22.075 26.9998,16 26.9998,9.9256 22.075,5.0002 16,5.0002 z m 0.1572,17.0004 c -0.7452,0 -1.35,-0.6042 -1.35,-1.35 0,-0.7458 0.6048,-1.35 1.35,-1.35 0.7458,0 1.3506,0.6042 1.3506,1.35 0,0.7458 -0.6048,1.35 -1.3506,1.35 z m 3.486,-7.4106 c -0.1302,0.3228 -0.291,0.5982 -0.4836,0.8268 -0.1926,0.2292 -0.4056,0.4242 -0.6396,0.585 -0.234,0.1614 -0.4548,0.3228 -0.6624,0.4836 -0.2088,0.1614 -0.4758,0.3456 -0.6372,0.5538 -0.162,0.2082 -0.3876,0.468 -0.3876,0.78 v 0.7812 h -1.8 V 17.71 c 0,-0.447 0.048,-0.8214 0.1872,-1.1232 0.1404,-0.3012 0.27,-0.5592 0.4572,-0.7722 0.1872,-0.213 0.3678,-0.3978 0.576,-0.5538 0.2082,-0.156 0.3912,-0.312 0.5682,-0.468 0.177,-0.156 0.315,-0.3276 0.4242,-0.5148 0.1092,-0.1872 0.1566,-0.4212 0.1464,-0.702 0,-0.4782 -0.1182,-0.8322 -0.3522,-1.0608 -0.234,-0.2286 -0.5598,-0.3432 -0.9756,-0.3432 -0.2808,0 -0.5232,0.0546 -0.726,0.1638 -0.2028,0.1092 -0.369,0.255 -0.4992,0.4368 -0.1302,0.1818 -0.2262,0.4956 -0.2886,0.7398 -0.0624,0.2442 -0.093,0.288 -0.093,0.888 h -2.2932 c 0.0102,-0.6 0.1068,-1.1766 0.2886,-1.6446 0.1818,-0.468 0.4368,-0.9234 0.7638,-1.2666 0.3276,-0.3432 0.723,-0.636 1.1862,-0.8286 0.4626,-0.192 0.9798,-0.3006 1.5522,-0.3006 0.738,0 1.3542,0.0948 1.8486,0.2976 0.4932,0.2028 0.891,0.4518 1.1928,0.7536 0.3018,0.3018 0.5172,0.6252 0.6474,0.9732 0.1302,0.348 0.195,0.6726 0.195,0.9744 -6e-4,0.4992 -0.0654,0.909 -0.1956,1.2312 z"
     id="path84"
     style="fill:#999EA1" />
</svg>
