<?xml version="1.0" encoding="UTF-8" standalone="no"?>
<!-- Created with Inkscape (http://www.inkscape.org/) -->

<svg
   xmlns:dc="http://purl.org/dc/elements/1.1/"
   xmlns:cc="http://creativecommons.org/ns#"
   xmlns:rdf="http://www.w3.org/1999/02/22-rdf-syntax-ns#"
   xmlns:svg="http://www.w3.org/2000/svg"
   xmlns="http://www.w3.org/2000/svg"
   version="1.1"
   width="32"
   height="32"
   id="svg4273">
  <defs
     id="defs4275" />
  <metadata
     id="metadata4278">
    <rdf:RDF>
      <cc:Work
         rdf:about="">
        <dc:format>image/svg+xml</dc:format>
        <dc:type
           rdf:resource="http://purl.org/dc/dcmitype/StillImage" />
        <dc:title></dc:title>
      </cc:Work>
    </rdf:RDF>
  </metadata>
  <path
     d="m 23.1253,20.9122 5.475,-6.675 H 25.0699 C 24.2257,9.0502 19.7377,5.0872 14.3125,5.0872 8.2855,5.0872 3.3997,9.973 3.3997,16 c 0,6.027 4.8858,10.9128 10.9128,10.9128 2.7456,0 5.2476,-1.0218 7.1658,-2.6958 l -2.487,-3.0042 c -1.2414,1.1154 -2.8782,1.8 -4.6794,1.8 -3.873,0 -7.0128,-3.1392 -7.0128,-7.0128 0,-3.8736 3.1392,-7.0128 7.0128,-7.0128 3.2628,0 5.9964,2.2314 6.7782,5.25 h -3.2904 l 5.3256,6.675 z"
     id="path60"
     style="fill:#999EA1;fill-rule:evenodd" />
</svg>
