<?xml version="1.0" encoding="UTF-8" standalone="no"?>
<!-- Created with Inkscape (http://www.inkscape.org/) -->

<svg
   xmlns:dc="http://purl.org/dc/elements/1.1/"
   xmlns:cc="http://creativecommons.org/ns#"
   xmlns:rdf="http://www.w3.org/1999/02/22-rdf-syntax-ns#"
   xmlns:svg="http://www.w3.org/2000/svg"
   xmlns="http://www.w3.org/2000/svg"
   version="1.1"
   width="32"
   height="32"
   id="svg4273">
  <defs
     id="defs4275" />
  <metadata
     id="metadata4278">
    <rdf:RDF>
      <cc:Work
         rdf:about="">
        <dc:format>image/svg+xml</dc:format>
        <dc:type
           rdf:resource="http://purl.org/dc/dcmitype/StillImage" />
        <dc:title></dc:title>
      </cc:Work>
    </rdf:RDF>
  </metadata>
  <path
     d="m 22.6786,19.8535 c -0.8256,0 -1.5918,0.2514 -2.229,0.6822 l -7.1958,-4.1694 c 0.0198,-0.1638 0.0492,-0.3252 0.0492,-0.4944 0,-0.2934 -0.0366,-0.5778 -0.096,-0.8532 l 6.9978,-3.7554 c 0.6816,0.5442 1.5342,0.8844 2.4738,0.8844 2.199,0 3.9822,-1.7832 3.9822,-3.9822 0,-2.199 -1.7832,-3.9816 -3.9822,-3.9816 -2.199,0 -3.9816,1.7826 -3.9816,3.9816 0,0.1434 0.0276,0.279 0.042,0.4188 l -7.2198,3.9702 c -0.6306,-0.4182 -1.3854,-0.6648 -2.1978,-0.6648 -2.1996,0 -3.9822,1.7826 -3.9822,3.9822 0,2.1984 1.7826,3.9816 3.9822,3.9816 0.906,0 1.731,-0.3144 2.4,-0.8238 l 7.0398,4.1628 c -0.0342,0.2106 -0.0642,0.4224 -0.0642,0.642 0,2.199 1.7826,3.9816 3.9816,3.9816 2.199,0 3.9822,-1.7826 3.9822,-3.9816 -6e-4,-2.1984 -1.7832,-3.981 -3.9822,-3.981 z"
     id="path64"
     style="fill:#999EA1" />
</svg>
