<?xml version="1.0" encoding="UTF-8" standalone="no"?>
<svg width="54px" height="54px" viewBox="0 0 54 54" version="1.1" xmlns="http://www.w3.org/2000/svg" xmlns:xlink="http://www.w3.org/1999/xlink">
    <!-- Generator: Sketch 3.6.1 (26313) - http://www.bohemiancoding.com/sketch -->
    <title>compass-outer</title>
    <desc>Created with Sketch.</desc>
    <defs></defs>
    <g id="Page-1" stroke="none" stroke-width="1" fill="none" fill-rule="evenodd">
        <g id="compass-outer" transform="translate(1.000000, 1.000000)">
            <path d="M26.2199993,52.4399986 C40.7009051,52.4399986 52.4399986,40.7009051 52.4399986,26.2199993 C52.4399986,11.7390936 40.7009051,0 26.2199993,0 C11.7390936,0 0,11.7390936 0,26.2199993 C0,40.7009051 11.7390936,52.4399986 26.2199993,52.4399986 L26.2199993,52.4399986 L26.2199993,52.4399986 L26.2199993,52.4399986 Z M26.331101,43.662965 C35.9032252,43.662965 43.662965,35.9032252 43.662965,26.331101 C43.662965,16.7589769 35.9032252,8.99923705 26.331101,8.99923705 C16.7589769,8.99923705 8.99923705,16.7589769 8.99923705,26.331101 C8.99923705,35.9032252 16.7589769,43.662965 26.331101,43.662965 L26.331101,43.662965 L26.331101,43.662965 L26.331101,43.662965 Z" id="Oval-108" stroke-opacity="0.25" stroke="#FFFFFF" fill="#3F4854"></path>
            <circle id="Oval-74" fill="#FFFFFF" cx="42" cy="41.5" r="0.5"></circle>
            <circle id="Oval-74-Copy-3" fill="#FFFFFF" cx="42" cy="11.5" r="0.5"></circle>
            <circle id="Oval-74-Copy-5" fill="#FFFFFF" cx="10" cy="41.5" r="0.5"></circle>
            <circle id="Oval-74-Copy-4" fill="#FFFFFF" cx="10" cy="11.5" r="0.5"></circle>
            <path d="M27.5467947,7.5 L27.5467947,4.25927896 L26.7782808,4.25927896 L26.7782808,6.2592668 L25.2829195,4.25927896 L24.5560721,4.25927896 L24.5560721,7.5 L25.3292156,7.5 L25.3292156,5.50464176 L26.8199472,7.5 L27.5467947,7.5 Z" id="N" fill="#FFFFFF"></path>
            <path d="M46.5,26.5 L49.5,26.5" id="Line" stroke="#FFFFFF" opacity="0.5"></path>
            <path d="M3,26.5 L6,26.5" id="Line-Copy-8" stroke="#FFFFFF" opacity="0.5"></path>
            <path d="M26.5,46.5 L26.5,49.5" id="Line" stroke="#FFFFFF" opacity="0.5"></path>
        </g>
    </g>
</svg>