<?xml version="1.0" encoding="UTF-8" standalone="no"?>
<svg width="54px" height="54px" viewBox="0 0 54 54" version="1.1" xmlns="http://www.w3.org/2000/svg" xmlns:xlink="http://www.w3.org/1999/xlink" xmlns:sketch="http://www.bohemiancoding.com/sketch/ns">
    <!-- Generator: Sketch 3.4.3 (16044) - http://www.bohemiancoding.com/sketch -->
    <title>compass-outer</title>
    <desc>Created with Sketch.</desc>
    <defs></defs>
    <g id="Page-1" stroke="none" stroke-width="1" fill="none" fill-rule="evenodd" sketch:type="MSPage">
        <g id="compass-outer" sketch:type="MSLayerGroup" transform="translate(1.000000, 1.000000)">
            <g id="Page-1">
                <g id="terria-compass">
                    <path d="M26.2199993,52.4399986 C40.7009051,52.4399986 52.4399986,40.7009051 52.4399986,26.2199993 C52.4399986,11.7390936 40.7009051,0 26.2199993,0 C11.7390936,0 0,11.7390936 0,26.2199993 C0,40.7009051 11.7390936,52.4399986 26.2199993,52.4399986 L26.2199993,52.4399986 L26.2199993,52.4399986 Z M26.331101,43.662965 C35.9032252,43.662965 43.662965,35.9032252 43.662965,26.331101 C43.662965,16.7589769 35.9032252,8.99923705 26.331101,8.99923705 C16.7589769,8.99923705 8.99923705,16.7589769 8.99923705,26.331101 C8.99923705,35.9032252 16.7589769,43.662965 26.331101,43.662965 L26.331101,43.662965 L26.331101,43.662965 Z" id="Oval-108" stroke-opacity="0.25" stroke="#FFFFFF" fill="#3F4854" sketch:type="MSShapeGroup"></path>
                    <circle id="Oval-74" fill="#FFFFFF" sketch:type="MSShapeGroup" cx="42" cy="41.5" r="0.5"></circle>
                    <circle id="Oval-74-Copy-3" fill="#FFFFFF" sketch:type="MSShapeGroup" cx="42" cy="11.5" r="0.5"></circle>
                    <circle id="Oval-74-Copy-5" fill="#FFFFFF" sketch:type="MSShapeGroup" cx="10" cy="41.5" r="0.5"></circle>
                    <circle id="Oval-74-Copy-4" fill="#FFFFFF" sketch:type="MSShapeGroup" cx="10" cy="11.5" r="0.5"></circle>
                    <g id="N" transform="translate(23.000000, 1.000000)" font-size="5.55553304" font-family="Montserrat" fill="#FFFFFF" sketch:type="MSTextLayer" font-weight="bold">
                        <text>
                            <tspan x="0.232" y="6.5">N</tspan>
                        </text>
                    </g>
                    <path d="M46.5,26.5 L49.5,26.5" id="Line" stroke="#FFFFFF" opacity="0.5" sketch:type="MSShapeGroup"></path>
                    <path d="M3,26.5 L6,26.5" id="Line-Copy-8" stroke="#FFFFFF" opacity="0.5" sketch:type="MSShapeGroup"></path>
                    <path d="M26.5,46.5 L26.5,49.5" id="Line" stroke="#FFFFFF" opacity="0.5" sketch:type="MSShapeGroup"></path>
                </g>
            </g>
        </g>
    </g>
</svg>