<?xml version="1.0" encoding="UTF-8" standalone="no"?>
<svg width="52px" height="60px" viewBox="0 0 52 60" version="1.1" xmlns="http://www.w3.org/2000/svg" xmlns:xlink="http://www.w3.org/1999/xlink" xmlns:sketch="http://www.bohemiancoding.com/sketch/ns">
    <!-- Generator: Sketch 3.4.3 (16044) - http://www.bohemiancoding.com/sketch -->
    <title>Group-4</title>
    <desc>Created with Sketch.</desc>
    <defs></defs>
    <g id="Page-1" stroke="none" stroke-width="1" fill="none" fill-rule="evenodd">
        <g id="Group-4">
            <g id="Group-4-Copy-2">
                <rect id="Rectangle-453" stroke="#FFFFFF" stroke-width="2" x="7" y="7" width="25" height="21"></rect>
                <path d="M6,14 L33,14" id="Line-Copy-3" stroke="#FFFFFF" stroke-width="2"></path>
                <path d="M6,21 L33,21" id="Line-Copy-5" stroke="#FFFFFF" stroke-width="2"></path>
                <path d="M15,6.5 L15,28.5" id="Line" stroke="#FFFFFF" stroke-width="2"></path>
                <path d="M2,2.9968516 C2,2.44683227 2.44803878,2 3.00239962,2 L35.9976004,2 C36.5525533,2 37,2.44594371 37,2.9968516 L37,48.0031484 C37,48.5531677 36.5519612,49 35.9976004,49 L3.00239962,49 C2.44744671,49 2,48.5540563 2,48.0031484 L2,2.9968516 L2,2.9968516 Z M0,2.9968516 L0,48.0031484 C0,49.660135 1.34438084,51 3.00239962,51 L35.9976004,51 C37.6553253,51 39,49.6589463 39,48.0031484 L39,2.9968516 C39,1.33986497 37.6556192,0 35.9976004,0 L3.00239962,0 C1.34467474,0 0,1.34105372 0,2.9968516 L0,2.9968516 Z" id="Shape" fill="#FFFFFF"></path>
                <g id="CSV" transform="translate(9.325000, 39.000000)" fill="#FFFFFF">
                    <path d="M3.55667704,0.61667859 C1.78168063,0.61667859 0.440016685,1.88334269 0.440016685,3.56667261 C0.440016685,5.27500248 1.74834737,6.56666653 3.50667714,6.56666653 C4.36500873,6.56666653 5.29000686,6.14166739 5.91500559,5.50000203 L5.04834068,4.58333722 C4.64000817,5.00000304 4.07334265,5.26666917 3.58167698,5.26666917 C2.65667886,5.26666917 1.95668028,4.525004 1.95668028,3.55000598 C1.95668028,2.59167459 2.65667886,1.85834274 3.58167698,1.85834274 C4.0983426,1.85834274 4.66500812,2.15000882 5.04834068,2.61667454 L5.90667227,1.60000993 C5.32334012,1.00001115 4.42334195,0.61667859 3.55667704,0.61667859 L3.55667704,0.61667859 Z M8.83166635,0.600011957 C7.43166918,0.600011957 6.50667106,1.28334391 6.50667106,2.35834173 C6.50667106,4.42500421 9.58999814,3.80833879 9.58999814,4.84167003 C9.58999814,5.17500269 9.29833207,5.35000233 8.83166635,5.35000233 C8.22333424,5.35000233 7.32333607,5.00000304 6.72333728,4.4750041 L6.14833845,5.61666846 C6.84000371,6.18333398 7.84000169,6.5499999 8.81499971,6.5499999 C10.1149971,6.5499999 11.1483283,5.93333448 11.1483283,4.76667018 C11.1483283,2.65834112 8.06500123,3.23333995 8.06500123,2.22500866 C8.06500123,1.9416759 8.32333404,1.80000952 8.7066666,1.80000952 C9.18166564,1.80000952 9.95666407,2.05000902 10.5733295,2.40834163 L11.1316617,1.25001064 C10.5316629,0.858344766 9.67333131,0.600011957 8.83166635,0.600011957 L8.83166635,0.600011957 Z M15.1649868,6.5 L17.4566489,0.666678488 L15.931652,0.666678488 L14.4399883,4.95833646 L12.9483247,0.666678488 L11.3649945,0.666678488 L13.6316566,6.5 L15.1649868,6.5 Z"></path>
                </g>
                <path d="M1.4625,34 L37.5375,34" id="Line" stroke="#FFFFFF" stroke-width="2"></path>
            </g>
            <path d="M48.9928901,45.9255343 C48.9928901,45.1912261 48.3974338,44.5959505 47.6637783,44.5959505 C46.9310115,44.5959505 46.337777,45.1889764 46.3351108,45.9210349 L46.3351108,44.9932508 C46.3351108,44.0290214 45.537466,43.247919 44.55363,43.247919 C43.5693496,43.247919 42.7717047,44.0290214 42.7717047,44.9932508 L42.7717047,43.6447694 C42.7717047,42.6809899 41.9767261,41.8998875 40.9968894,41.8998875 C40.0166083,41.8998875 39.2216297,42.6809899 39.2216297,43.6447694 L39.2216297,42.6035996 C39.2216297,41.7181102 38.5270788,41 37.6698884,41 C36.8131423,41 36.1185913,41.7181102 36.1185913,42.6035996 L36.1185913,47.6650169 C36.1185913,47.9624297 35.818197,48.2035996 35.4480364,48.2035996 C35.0774315,48.2035996 34.7770372,47.9624297 34.7770372,47.6650169 L34.7770372,44.1446569 C33.795423,44.1460067 33,44.9293588 33,45.895838 L33.0022219,51.864342 C33.0022219,51.8872891 33.008443,51.9084364 33.0093318,51.9304837 C33.0079987,51.9534308 33.0013331,51.9714286 33.0013331,51.9952756 C33.0013331,53.9844769 37.417486,57.3149606 37.417486,59 L46.2871188,59 C46.2871188,57.1187852 49,54.1815523 49,51.352306 L49,47.7091114 L48.9928901,45.9255343 L48.9928901,45.9255343 Z" id="Drag-Copy" stroke="#FFFFFF" stroke-width="1.33311115" fill="#6B747B" transform="translate(41.000000, 50.000000) rotate(-45.000000) translate(-41.000000, -50.000000) "></path>
        </g>
    </g>
</svg>