<?xml version="1.0" encoding="UTF-8"?>
<svg width="109px" height="72px" viewBox="0 0 109 72" version="1.1" xmlns="http://www.w3.org/2000/svg" xmlns:xlink="http://www.w3.org/1999/xlink">
    <title>Group 23</title>
    <g id="Page-1" stroke="none" stroke-width="1" fill="none" fill-rule="evenodd">
        <g id="pedestrian---3-1-alt-copy-2" transform="translate(-535.000000, -704.000000)">
            <g id="Group-6-Copy-6" transform="translate(519.000000, 474.000000)">
                <g id="Group-23" transform="translate(16.000000, 230.000000)">
                    <g id="Group-21">
                        <rect id="Rectangle-Copy" stroke="#000000" stroke-width="2" fill="#FFFFFF" x="1" y="1" width="107" height="30" rx="3"></rect>
                        <path d="M11.864,20.12 C12.544,20.12 13.142,20.02 13.658,19.82 C14.174,19.62 14.574,19.33 14.858,18.95 C15.142,18.57 15.284,18.12 15.284,17.6 C15.284,17.128 15.184,16.74 14.984,16.436 C14.784,16.132 14.474,15.88 14.054,15.68 C13.634,15.48 13.068,15.3 12.356,15.14 C11.836,15.004 11.44,14.882 11.168,14.774 C10.896,14.666 10.696,14.54 10.568,14.396 C10.44,14.252 10.376,14.072 10.376,13.856 C10.376,13.536 10.502,13.292 10.754,13.124 C11.006,12.956 11.352,12.872 11.792,12.872 C12.192,12.872 12.528,12.958 12.8,13.13 C13.072,13.302 13.228,13.516 13.268,13.772 C13.332,13.916 13.452,13.988 13.628,13.988 L13.628,13.988 L14.768,13.988 C14.84,13.988 14.9,13.962 14.948,13.91 C14.996,13.858 15.02,13.8 15.02,13.736 C15.004,13.392 14.87,13.046 14.618,12.698 C14.366,12.35 13.998,12.06 13.514,11.828 C13.03,11.596 12.456,11.48 11.792,11.48 C11.16,11.48 10.606,11.584 10.13,11.792 C9.654,12 9.288,12.286 9.032,12.65 C8.776,13.014 8.648,13.428 8.648,13.892 C8.648,14.58 8.868,15.108 9.308,15.476 C9.748,15.844 10.44,16.14 11.384,16.364 C11.96,16.516 12.394,16.646 12.686,16.754 C12.978,16.862 13.196,16.988 13.34,17.132 C13.484,17.276 13.556,17.456 13.556,17.672 C13.556,18 13.414,18.258 13.13,18.446 C12.846,18.634 12.424,18.728 11.864,18.728 C11.368,18.728 10.978,18.636 10.694,18.452 C10.41,18.268 10.228,18.04 10.148,17.768 C10.1,17.696 10.048,17.64 9.992,17.6 C9.936,17.56 9.864,17.54 9.776,17.54 L9.776,17.54 L8.684,17.54 C8.612,17.54 8.552,17.566 8.504,17.618 C8.456,17.67 8.432,17.728 8.432,17.792 C8.448,18.208 8.588,18.592 8.852,18.944 C9.116,19.296 9.504,19.58 10.016,19.796 C10.528,20.012 11.144,20.12 11.864,20.12 Z M17.852,22.28 C17.94,22.28 18.01,22.254 18.062,22.202 C18.114,22.15 18.14,22.08 18.14,21.992 L18.14,21.992 L18.14,19.268 C18.564,19.836 19.176,20.12 19.976,20.12 C20.784,20.12 21.406,19.862 21.842,19.346 C22.278,18.83 22.508,18.152 22.532,17.312 C22.54,17.216 22.544,17.072 22.544,16.88 C22.544,16.688 22.54,16.544 22.532,16.448 C22.5,15.592 22.268,14.91 21.836,14.402 C21.404,13.894 20.784,13.64 19.976,13.64 C19.128,13.64 18.492,13.936 18.068,14.528 L18.068,14.528 L18.068,14.048 C18.068,13.968 18.04,13.9 17.984,13.844 C17.928,13.788 17.856,13.76 17.768,13.76 L17.768,13.76 L16.808,13.76 C16.728,13.76 16.66,13.786 16.604,13.838 C16.548,13.89 16.52,13.96 16.52,14.048 L16.52,14.048 L16.52,21.992 C16.52,22.08 16.548,22.15 16.604,22.202 C16.66,22.254 16.728,22.28 16.808,22.28 L16.808,22.28 L17.852,22.28 Z M19.52,18.824 C19.08,18.824 18.744,18.684 18.512,18.404 C18.28,18.124 18.156,17.784 18.14,17.384 C18.132,17.28 18.128,17.124 18.128,16.916 L18.12848,16.79792 C18.12976,16.64944 18.1336,16.5368 18.14,16.46 C18.156,16.036 18.276,15.676 18.5,15.38 C18.724,15.084 19.064,14.936 19.52,14.936 C20.376,14.936 20.832,15.464 20.888,16.52 C20.896,16.6 20.9,16.72 20.9,16.88 C20.9,17.04 20.896,17.16 20.888,17.24 C20.832,18.296 20.376,18.824 19.52,18.824 Z M25.688,20.12 C26.168,20.12 26.568,20.038 26.888,19.874 C27.208,19.71 27.456,19.5 27.632,19.244 L27.632,19.244 L27.632,19.712 C27.632,19.792 27.66,19.86 27.716,19.916 C27.772,19.972 27.84,20 27.92,20 L27.92,20 L28.916,20 C29.004,20 29.074,19.972 29.126,19.916 C29.178,19.86 29.204,19.792 29.204,19.712 L29.204,19.712 L29.204,15.944 C29.204,15.256 28.988,14.7 28.556,14.276 C28.124,13.852 27.436,13.64 26.492,13.64 C25.916,13.64 25.432,13.734 25.04,13.922 C24.648,14.11 24.358,14.33 24.17,14.582 C23.982,14.834 23.884,15.06 23.876,15.26 C23.876,15.34 23.902,15.404 23.954,15.452 C24.006,15.5 24.068,15.524 24.14,15.524 L24.14,15.524 L25.076,15.524 C25.164,15.524 25.224,15.476 25.256,15.38 L25.256,15.38 L25.454,15.182 C25.554,15.082 25.684,14.984 25.844,14.888 C26.004,14.792 26.216,14.744 26.48,14.744 C26.864,14.744 27.144,14.832 27.32,15.008 C27.496,15.184 27.584,15.444 27.584,15.788 L27.584,15.788 L27.584,16.04 L25.94,16.28 C25.172,16.4 24.568,16.628 24.128,16.964 C23.688,17.3 23.468,17.74 23.468,18.284 C23.468,18.62 23.566,18.928 23.762,19.208 C23.958,19.488 24.226,19.71 24.566,19.874 C24.906,20.038 25.28,20.12 25.688,20.12 Z M26.096,18.968 C25.8,18.968 25.546,18.898 25.334,18.758 C25.122,18.618 25.016,18.42 25.016,18.164 C25.016,17.692 25.476,17.384 26.396,17.24 L26.396,17.24 L27.596,17.048 L27.596,17.288 C27.596,17.832 27.456,18.248 27.176,18.536 C26.896,18.824 26.536,18.968 26.096,18.968 Z M33.44,20.12 C34.088,20.12 34.628,20.004 35.06,19.772 C35.492,19.54 35.812,19.262 36.02,18.938 C36.228,18.614 36.34,18.312 36.356,18.032 C36.364,17.952 36.338,17.884 36.278,17.828 C36.218,17.772 36.148,17.744 36.068,17.744 L36.068,17.744 L35,17.744 C34.912,17.744 34.846,17.764 34.802,17.804 C34.758,17.844 34.72,17.908 34.688,17.996 C34.568,18.308 34.412,18.53 34.22,18.662 C34.028,18.794 33.776,18.86 33.464,18.86 C32.632,18.86 32.192,18.34 32.144,17.3 L32.144,17.3 L32.132,16.904 L32.144,16.46 C32.16,15.932 32.282,15.54 32.51,15.284 C32.738,15.028 33.056,14.9 33.464,14.9 C33.768,14.9 34.018,14.968 34.214,15.104 C34.41,15.24 34.568,15.46 34.688,15.764 C34.728,15.86 34.768,15.926 34.808,15.962 C34.848,15.998 34.912,16.016 35,16.016 L35,16.016 L36.068,16.016 C36.148,16.016 36.218,15.988 36.278,15.932 C36.338,15.876 36.364,15.808 36.356,15.728 C36.34,15.432 36.226,15.122 36.014,14.798 C35.802,14.474 35.478,14.2 35.042,13.976 C34.606,13.752 34.072,13.64 33.44,13.64 C32.56,13.64 31.858,13.884 31.334,14.372 C30.81,14.86 30.532,15.536 30.5,16.4 L30.5,16.4 L30.488,16.88 L30.5,17.36 C30.532,18.224 30.81,18.9 31.334,19.388 C31.858,19.876 32.56,20.12 33.44,20.12 Z M40.304,20.12 C40.864,20.12 41.356,20.024 41.78,19.832 C42.204,19.64 42.53,19.414 42.758,19.154 C42.986,18.894 43.1,18.668 43.1,18.476 C43.1,18.404 43.074,18.348 43.022,18.308 C42.97,18.268 42.908,18.248 42.836,18.248 L42.836,18.248 L41.78,18.248 C41.684,18.248 41.616,18.258 41.576,18.278 C41.536,18.298 41.48,18.352 41.408,18.44 C41.12,18.808 40.748,18.992 40.292,18.992 C39.892,18.992 39.578,18.846 39.35,18.554 C39.122,18.262 39,17.892 38.984,17.444 L38.984,17.444 L38.984,17.348 L42.968,17.348 C43.056,17.348 43.128,17.32 43.184,17.264 C43.24,17.208 43.268,17.14 43.268,17.06 L43.268,17.06 L43.268,16.808 C43.268,15.848 43.01,15.08 42.494,14.504 C41.978,13.928 41.244,13.64 40.292,13.64 C39.364,13.64 38.638,13.928 38.114,14.504 C37.59,15.08 37.328,15.868 37.328,16.868 L37.328,16.868 L37.34,17.168 C37.372,18.112 37.65,18.84 38.174,19.352 C38.698,19.864 39.408,20.12 40.304,20.12 Z M41.612,16.328 L38.984,16.328 L38.984,16.304 C38.984,15.832 39.1,15.454 39.332,15.17 C39.564,14.886 39.884,14.744 40.292,14.744 C40.7,14.744 41.022,14.886 41.258,15.17 C41.494,15.454 41.612,15.832 41.612,16.304 L41.612,16.304 L41.612,16.328 Z" id="Space" fill="#000000" fill-rule="nonzero"></path>
                        <g id="icon/pedestrian" transform="translate(75.000000, 3.000000)">
                            <path d="M8.82358404,9.1 C9.62030992,9.1 10.3486551,9.55014205 10.7049617,10.2627553 L12.3124879,13.4778078 C12.5579905,13.968813 12.4617577,14.5618263 12.073584,14.95 C11.8148422,15.2087418 11.3953389,15.2087418 11.1365971,14.95 C11.0862424,14.8996453 11.044335,14.841502 11.0124879,14.7778078 L9.47358404,11.7 L9.47358404,22.1 C9.47358404,22.8179702 8.89155421,23.4 8.17358404,23.4 C7.45561386,23.4 6.87358404,22.8179702 6.87358404,22.1 L6.87358404,17.55 C6.87358404,17.1910149 6.58256912,16.9 6.22358404,16.9 C5.86459895,16.9 5.57358404,17.1910149 5.57358404,17.55 L5.57358404,22.1 C5.57358404,22.8179702 4.99155421,23.4 4.27358404,23.4 C3.55561386,23.4 2.97358404,22.8179702 2.97358404,22.1 L2.97358404,11.7 L1.43468013,14.7778078 C1.27103744,15.1050932 0.873061608,15.2377518 0.545776228,15.0741091 C0.482082059,15.042262 0.423938699,15.0003547 0.373584036,14.95 C-0.0145896524,14.5618263 -0.110822465,13.968813 0.134680132,13.4778078 L1.74220636,10.2627553 C2.07306253,9.601043 2.724707,9.16564515 3.45401437,9.10682154 L3.62358404,9.1 L8.82358404,9.1 Z M6.22358404,2.6 C7.65952439,2.6 8.82358404,3.76405965 8.82358404,5.2 C8.82358404,6.63594035 7.65952439,7.8 6.22358404,7.8 C4.78764369,7.8 3.62358404,6.63594035 3.62358404,5.2 C3.62358404,3.76405965 4.78764369,2.6 6.22358404,2.6 Z" id="Combined-Shape" fill="#000000"></path>
                            <polygon id="Path-4" fill="#000000" transform="translate(19.500000, 5.850000) scale(1, -1) translate(-19.500000, -5.850000) " points="14.3 2.6 24.7 2.6 19.5 9.1"></polygon>
                            <line x1="19.5" y1="7.15" x2="19.5" y2="22.75" id="Line" stroke="#000000" stroke-width="2" stroke-dasharray="2"></line>
                        </g>
                    </g>
                    <g id="Group-22" transform="translate(0.000000, 40.000000)">
                        <rect id="Rectangle-Copy" stroke="#000000" stroke-width="2" fill="#FFFFFF" x="1" y="1" width="107" height="30" rx="3"></rect>
                        <path d="M11.864,20.12 C12.544,20.12 13.142,20.02 13.658,19.82 C14.174,19.62 14.574,19.33 14.858,18.95 C15.142,18.57 15.284,18.12 15.284,17.6 C15.284,17.128 15.184,16.74 14.984,16.436 C14.784,16.132 14.474,15.88 14.054,15.68 C13.634,15.48 13.068,15.3 12.356,15.14 C11.836,15.004 11.44,14.882 11.168,14.774 C10.896,14.666 10.696,14.54 10.568,14.396 C10.44,14.252 10.376,14.072 10.376,13.856 C10.376,13.536 10.502,13.292 10.754,13.124 C11.006,12.956 11.352,12.872 11.792,12.872 C12.192,12.872 12.528,12.958 12.8,13.13 C13.072,13.302 13.228,13.516 13.268,13.772 C13.332,13.916 13.452,13.988 13.628,13.988 L13.628,13.988 L14.768,13.988 C14.84,13.988 14.9,13.962 14.948,13.91 C14.996,13.858 15.02,13.8 15.02,13.736 C15.004,13.392 14.87,13.046 14.618,12.698 C14.366,12.35 13.998,12.06 13.514,11.828 C13.03,11.596 12.456,11.48 11.792,11.48 C11.16,11.48 10.606,11.584 10.13,11.792 C9.654,12 9.288,12.286 9.032,12.65 C8.776,13.014 8.648,13.428 8.648,13.892 C8.648,14.58 8.868,15.108 9.308,15.476 C9.748,15.844 10.44,16.14 11.384,16.364 C11.96,16.516 12.394,16.646 12.686,16.754 C12.978,16.862 13.196,16.988 13.34,17.132 C13.484,17.276 13.556,17.456 13.556,17.672 C13.556,18 13.414,18.258 13.13,18.446 C12.846,18.634 12.424,18.728 11.864,18.728 C11.368,18.728 10.978,18.636 10.694,18.452 C10.41,18.268 10.228,18.04 10.148,17.768 C10.1,17.696 10.048,17.64 9.992,17.6 C9.936,17.56 9.864,17.54 9.776,17.54 L9.776,17.54 L8.684,17.54 C8.612,17.54 8.552,17.566 8.504,17.618 C8.456,17.67 8.432,17.728 8.432,17.792 C8.448,18.208 8.588,18.592 8.852,18.944 C9.116,19.296 9.504,19.58 10.016,19.796 C10.528,20.012 11.144,20.12 11.864,20.12 Z M17.9,20 C17.988,20 18.058,19.972 18.11,19.916 C18.162,19.86 18.188,19.792 18.188,19.712 L18.188,19.712 L18.188,16.412 C18.188,15.956 18.312,15.596 18.56,15.332 C18.808,15.068 19.136,14.936 19.544,14.936 C19.968,14.936 20.294,15.066 20.522,15.326 C20.75,15.586 20.864,15.948 20.864,16.412 L20.864,16.412 L20.864,19.712 C20.864,19.792 20.892,19.86 20.948,19.916 C21.004,19.972 21.076,20 21.164,20 L21.164,20 L22.256,20 C22.344,20 22.414,19.972 22.466,19.916 C22.518,19.86 22.544,19.792 22.544,19.712 L22.544,19.712 L22.544,16.34 C22.544,15.508 22.324,14.85 21.884,14.366 C21.444,13.882 20.856,13.64 20.12,13.64 C19.312,13.64 18.668,13.928 18.188,14.504 L18.188,14.504 L18.188,11.768 C18.188,11.68 18.162,11.61 18.11,11.558 C18.058,11.506 17.988,11.48 17.9,11.48 L17.9,11.48 L16.808,11.48 C16.728,11.48 16.66,11.506 16.604,11.558 C16.548,11.61 16.52,11.68 16.52,11.768 L16.52,11.768 L16.52,19.712 C16.52,19.792 16.548,19.86 16.604,19.916 C16.66,19.972 16.728,20 16.808,20 L16.808,20 L17.9,20 Z M25.412,12.74 C25.492,12.74 25.562,12.712 25.622,12.656 C25.682,12.6 25.712,12.532 25.712,12.452 L25.712,12.452 L25.712,11.576 C25.712,11.488 25.684,11.416 25.628,11.36 C25.572,11.304 25.5,11.276 25.412,11.276 L25.412,11.276 L24.308,11.276 C24.228,11.276 24.16,11.304 24.104,11.36 C24.048,11.416 24.02,11.488 24.02,11.576 L24.02,11.576 L24.02,12.452 C24.02,12.532 24.048,12.6 24.104,12.656 C24.16,12.712 24.228,12.74 24.308,12.74 L24.308,12.74 L25.412,12.74 Z M25.376,20 C25.456,20 25.524,19.972 25.58,19.916 C25.636,19.86 25.664,19.792 25.664,19.712 L25.664,19.712 L25.664,14.048 C25.664,13.968 25.636,13.9 25.58,13.844 C25.524,13.788 25.456,13.76 25.376,13.76 L25.376,13.76 L24.356,13.76 C24.276,13.76 24.208,13.786 24.152,13.838 C24.096,13.89 24.068,13.96 24.068,14.048 L24.068,14.048 L24.068,19.712 C24.068,19.792 24.096,19.86 24.152,19.916 C24.208,19.972 24.276,20 24.356,20 L24.356,20 L25.376,20 Z M29.204,20 C29.292,20 29.362,19.972 29.414,19.916 C29.466,19.86 29.492,19.792 29.492,19.712 L29.492,19.712 L29.492,15.044 L30.992,15.044 C31.072,15.044 31.14,15.016 31.196,14.96 C31.252,14.904 31.28,14.836 31.28,14.756 L31.28,14.756 L31.28,14.048 C31.28,13.968 31.252,13.9 31.196,13.844 C31.14,13.788 31.072,13.76 30.992,13.76 L30.992,13.76 L29.492,13.76 L29.492,13.34 C29.492,13.02 29.556,12.784 29.684,12.632 C29.812,12.48 30.032,12.404 30.344,12.404 L30.344,12.404 L31.112,12.404 C31.192,12.404 31.26,12.376 31.316,12.32 C31.372,12.264 31.4,12.196 31.4,12.116 L31.4,12.116 L31.4,11.408 C31.4,11.328 31.372,11.26 31.316,11.204 C31.26,11.148 31.192,11.12 31.112,11.12 L31.112,11.12 L30.284,11.12 C29.492,11.12 28.9,11.298 28.508,11.654 C28.116,12.01 27.92,12.552 27.92,13.28 L27.92,13.28 L27.92,13.76 L26.948,13.76 C26.868,13.76 26.8,13.788 26.744,13.844 C26.688,13.9 26.66,13.968 26.66,14.048 L26.66,14.048 L26.66,14.756 C26.66,14.836 26.688,14.904 26.744,14.96 C26.8,15.016 26.868,15.044 26.948,15.044 L26.948,15.044 L27.92,15.044 L27.92,19.712 C27.92,19.792 27.948,19.86 28.004,19.916 C28.06,19.972 28.128,20 28.208,20 L28.208,20 L29.204,20 Z M36.044,20 C36.132,20 36.202,19.972 36.254,19.916 C36.306,19.86 36.332,19.792 36.332,19.712 L36.332,19.712 L36.332,18.956 C36.332,18.868 36.306,18.798 36.254,18.746 C36.202,18.694 36.132,18.668 36.044,18.668 L36.044,18.668 L35.204,18.668 C34.932,18.668 34.736,18.58 34.616,18.404 C34.496,18.228 34.436,17.968 34.436,17.624 L34.436,17.624 L34.436,15.044 L35.936,15.044 C36.016,15.044 36.084,15.016 36.14,14.96 C36.196,14.904 36.224,14.836 36.224,14.756 L36.224,14.756 L36.224,14.048 C36.224,13.968 36.196,13.9 36.14,13.844 C36.084,13.788 36.016,13.76 35.936,13.76 L35.936,13.76 L34.436,13.76 L34.436,11.768 C34.436,11.68 34.41,11.61 34.358,11.558 C34.306,11.506 34.236,11.48 34.148,11.48 L34.148,11.48 L33.152,11.48 C33.072,11.48 33.004,11.506 32.948,11.558 C32.892,11.61 32.864,11.68 32.864,11.768 L32.864,11.768 L32.864,13.76 L31.916,13.76 C31.836,13.76 31.768,13.788 31.712,13.844 C31.656,13.9 31.628,13.968 31.628,14.048 L31.628,14.048 L31.628,14.756 C31.628,14.836 31.656,14.904 31.712,14.96 C31.768,15.016 31.836,15.044 31.916,15.044 L31.916,15.044 L32.864,15.044 L32.864,17.756 C32.864,18.492 33.048,19.05 33.416,19.43 C33.784,19.81 34.332,20 35.06,20 L35.06,20 L36.044,20 Z" id="Shift" fill="#000000" fill-rule="nonzero"></path>
                        <g id="icon/pedestrian-copy-2" transform="translate(75.000000, 3.000000)">
                            <polygon id="Path-4-Copy-2" fill="#000000" points="15.6 16.9 26 16.9 20.8 23.4"></polygon>
                            <line x1="20.8" y1="3.25" x2="20.8" y2="18.85" id="Line-Copy" stroke="#000000" stroke-width="2" stroke-dasharray="2"></line>
                            <path d="M10.123584,9.1 C10.9203099,9.1 11.6486551,9.55014205 12.0049617,10.2627553 L13.6124879,13.4778078 C13.8579905,13.968813 13.7617577,14.5618263 13.373584,14.95 C13.1148422,15.2087418 12.6953389,15.2087418 12.4365971,14.95 C12.3862424,14.8996453 12.344335,14.841502 12.3124879,14.7778078 L10.773584,11.7 L10.773584,22.1 C10.773584,22.8179702 10.1915542,23.4 9.47358404,23.4 C8.75561386,23.4 8.17358404,22.8179702 8.17358404,22.1 L8.17358404,17.55 C8.17358404,17.1910149 7.88256912,16.9 7.52358404,16.9 C7.16459895,16.9 6.87358404,17.1910149 6.87358404,17.55 L6.87358404,22.1 C6.87358404,22.8179702 6.29155421,23.4 5.57358404,23.4 C4.85561386,23.4 4.27358404,22.8179702 4.27358404,22.1 L4.27358404,11.7 L2.73468013,14.7778078 C2.57103744,15.1050932 2.17306161,15.2377518 1.84577623,15.0741091 C1.78208206,15.042262 1.7239387,15.0003547 1.67358404,14.95 C1.28541035,14.5618263 1.18917754,13.968813 1.43468013,13.4778078 L3.04220636,10.2627553 C3.37306253,9.601043 4.024707,9.16564515 4.75401437,9.10682154 L4.92358404,9.1 L10.123584,9.1 Z M7.52358404,2.6 C8.95952439,2.6 10.123584,3.76405965 10.123584,5.2 C10.123584,6.63594035 8.95952439,7.8 7.52358404,7.8 C6.08764369,7.8 4.92358404,6.63594035 4.92358404,5.2 C4.92358404,3.76405965 6.08764369,2.6 7.52358404,2.6 Z" id="Combined-Shape" fill="#000000"></path>
                        </g>
                    </g>
                </g>
            </g>
        </g>
    </g>
</svg>