<?xml version="1.0" encoding="UTF-8" standalone="no"?>
<svg width="100px" height="100px" viewBox="0 0 100 100" version="1.1" xmlns="http://www.w3.org/2000/svg" xmlns:xlink="http://www.w3.org/1999/xlink">
    <!-- Generator: Sketch 3.8.3 (29802) - http://www.bohemiancoding.com/sketch -->
    <title>map-location</title>
    <desc>Created with Sketch.</desc>
    <defs></defs>
    <g id="Page-2" stroke="none" stroke-width="1" fill="none" fill-rule="evenodd">
        <g id="map-location">
            <rect id="bounds" x="0" y="0" width="100" height="100"></rect>
            <g id="Group" transform="translate(22.000000, 10.000000)">
                <path d="M28,80 C29.3333333,80 56,53.3333333 56,28 C56,12.536027 43.463973,0 28,0 C12.536027,0 6.62826319e-16,12.536027 0,28 C0,53.3333333 26.6666667,80.0392049 28,80 Z" id="Oval-30" fill="#000000"></path>
                <path d="M27.9983342,47.9966685 C39.0431093,47.9966685 47.9966685,39.0431093 47.9966685,27.9983342 C47.9966685,16.9535592 39.0431093,8 27.9983342,8 C16.9535592,8 8,16.9535592 8,27.9983342 C8,39.0431093 16.9535592,47.9966685 27.9983342,47.9966685 L27.9983342,47.9966685 Z M27.9983342,41.3300018 C20.6354576,41.3300018 14.6666667,35.3612109 14.6666667,27.9983342 C14.6666667,20.6354576 20.6354576,14.6666667 27.9983342,14.6666667 C35.3612109,14.6666667 41.3300018,20.6354576 41.3300018,27.9983342 C41.3300018,35.3612109 35.3612109,41.3300018 27.9983342,41.3300018 L27.9983342,41.3300018 Z" id="Oval-31" fill="#FFFFFF"></path>
            </g>
        </g>
    </g>
</svg>
