<?xml version="1.0" encoding="UTF-8" standalone="no"?>
<svg width="40" height="40" viewBox="0 0 40 40" fill="none" xmlns="http://www.w3.org/2000/svg">
<path d="M30.3613 11.502L35 9.87354V32.9115L26.6667 36.2026L13.3333 32.9115L5 36.2026V13.1647L10.0332 10.793" stroke="#9CA3AF" stroke-width="3.33333" stroke-linecap="round" stroke-linejoin="round"/>
<path d="M26.6666 21.3926V35.38" stroke="#9CA3AF" stroke-width="3.33333"/>
<path d="M13.3333 21.3926V32.9116" stroke="#9CA3AF" stroke-width="3.33333"/>
<path fill-rule="evenodd" clip-rule="evenodd" d="M8.33325 11.519C8.33325 19.0021 16.2311 28.6799 19.9999 28.6799C23.7687 28.6799 31.6666 19.0021 31.6666 11.519C31.6666 5.15723 26.4432 0 19.9999 0C13.5566 0 8.33325 5.15723 8.33325 11.519ZM24.2377 21.3469C23.2297 22.5821 22.1221 23.6853 21.1121 24.4979C20.6844 24.842 20.2992 25.1127 19.9998 25.2857C19.7003 25.1127 19.3151 24.842 18.8874 24.4979C17.8774 23.6853 16.7698 22.5821 15.7618 21.3469C13.2103 18.2203 11.6664 14.7763 11.6664 11.519C11.6664 6.97487 15.3974 3.29114 19.9998 3.29114C24.6021 3.29114 28.3331 6.97487 28.3331 11.519C28.3331 14.7763 26.7893 18.2203 24.2377 21.3469ZM19.9998 17.2785C16.7781 17.2785 14.1664 14.6999 14.1664 11.519C14.1664 8.33811 16.7781 5.75949 19.9998 5.75949C23.2214 5.75949 25.8331 8.33811 25.8331 11.519C25.8331 14.6999 23.2214 17.2785 19.9998 17.2785ZM22.4998 11.519C22.4998 12.8822 21.3805 13.9873 19.9998 13.9873C18.619 13.9873 17.4998 12.8822 17.4998 11.519C17.4998 10.1558 18.619 9.05063 19.9998 9.05063C21.3805 9.05063 22.4998 10.1558 22.4998 11.519Z" fill="#9CA3AF"/>
</svg>
