<?xml version="1.0" encoding="UTF-8" standalone="no"?>
<!-- Created with Inkscape (http://www.inkscape.org/) -->

<svg
   xmlns:dc="http://purl.org/dc/elements/1.1/"
   xmlns:cc="http://creativecommons.org/ns#"
   xmlns:rdf="http://www.w3.org/1999/02/22-rdf-syntax-ns#"
   xmlns:svg="http://www.w3.org/2000/svg"
   xmlns="http://www.w3.org/2000/svg"
   version="1.1"
   width="134.49001"
   height="54.302002"
   id="svg4222">
  <defs
     id="defs4224" />
  <metadata
     id="metadata4227">
    <rdf:RDF>
      <cc:Work
         rdf:about="">
        <dc:format>image/svg+xml</dc:format>
        <dc:type
           rdf:resource="http://purl.org/dc/dcmitype/StillImage" />
        <dc:title></dc:title>
      </cc:Work>
    </rdf:RDF>
  </metadata>
  <g
     transform="translate(-7.755,-13.782609)"
     id="layer1">
    <g
       transform="translate(-97.064,-7.9153914)"
       id="g88">
      <path
         d="m 121.021,42 h -2.652 L 107.445,25.225 h -0.109 c 0.146,1.969 0.219,3.773 0.219,5.414 V 42 h -2.146 V 22.012 h 2.625 l 10.896,16.707 h 0.109 c -0.019,-0.246 -0.06,-1.037 -0.123,-2.372 -0.064,-1.335 -0.087,-2.29 -0.068,-2.864 V 22.012 h 2.174 V 42 z"
         id="path90"
         style="fill:#ffffff" />
      <path
         d="m 139.081,42 -2.488,-6.357 h -8.012 L 126.12,42 h -2.352 l 7.902,-20.07 h 1.955 L 141.487,42 h -2.406 z m -3.213,-8.449 -2.324,-6.193 c -0.301,-0.784 -0.611,-1.745 -0.93,-2.885 -0.201,0.875 -0.488,1.837 -0.861,2.885 l -2.352,6.193 h 6.467 z"
         id="path92"
         style="fill:#ffffff" />
      <path
         d="m 150.388,42 h -2.324 V 24.076 h -6.33 v -2.064 h 14.984 v 2.064 h -6.33 V 42 z"
         id="path94"
         style="fill:#ffffff" />
      <path
         d="M 159.726,42 V 22.012 h 2.324 V 42 h -2.324 z"
         id="path96"
         style="fill:#ffffff" />
      <path
         d="m 184.882,31.979 c 0,3.199 -0.809,5.715 -2.427,7.547 -1.618,1.832 -3.867,2.748 -6.747,2.748 -2.944,0 -5.216,-0.9 -6.815,-2.7 -1.6,-1.8 -2.399,-4.341 -2.399,-7.622 0,-3.254 0.802,-5.776 2.406,-7.567 1.604,-1.791 3.883,-2.687 6.836,-2.687 2.871,0 5.113,0.912 6.727,2.734 1.612,1.823 2.419,4.339 2.419,7.547 z m -15.928,0 c 0,2.707 0.576,4.76 1.729,6.159 1.153,1.399 2.828,2.099 5.024,2.099 2.215,0 3.887,-0.697 5.018,-2.092 1.13,-1.395 1.695,-3.45 1.695,-6.166 0,-2.688 -0.563,-4.728 -1.688,-6.118 -1.126,-1.39 -2.792,-2.085 -4.997,-2.085 -2.215,0 -3.899,0.7 -5.052,2.099 -1.153,1.398 -1.729,3.433 -1.729,6.104 z"
         id="path98"
         style="fill:#ffffff" />
      <path
         d="M 204.952,42 H 202.3 L 191.376,25.225 h -0.109 c 0.146,1.969 0.219,3.773 0.219,5.414 V 42 H 189.34 V 22.012 h 2.625 l 10.896,16.707 h 0.109 c -0.019,-0.246 -0.06,-1.037 -0.123,-2.372 -0.064,-1.335 -0.087,-2.29 -0.068,-2.864 V 22.012 h 2.174 V 42 z"
         id="path100"
         style="fill:#ffffff" />
      <path
         d="m 223.013,42 -2.488,-6.357 h -8.012 L 210.052,42 H 207.7 l 7.902,-20.07 h 1.955 L 225.419,42 h -2.406 z m -3.213,-8.449 -2.324,-6.193 c -0.301,-0.784 -0.611,-1.745 -0.93,-2.885 -0.201,0.875 -0.488,1.837 -0.861,2.885 l -2.352,6.193 h 6.467 z"
         id="path102"
         style="fill:#ffffff" />
      <path
         d="M 228.167,42 V 22.012 h 2.324 v 17.883 h 8.818 V 42 h -11.142 z"
         id="path104"
         style="fill:#ffffff" />
    </g>
    <g
       transform="translate(-97.064,-7.9153914)"
       id="g106">
      <path
         d="M 113.528,74.333 109.44,59.937 h -0.123 c 0.191,2.452 0.287,4.357 0.287,5.715 v 8.682 h -4.785 V 54.345 h 7.191 l 4.17,14.191 h 0.109 l 4.088,-14.191 h 7.205 v 19.988 h -4.963 v -8.764 c 0,-0.456 0.007,-0.961 0.021,-1.518 0.014,-0.556 0.075,-1.918 0.185,-4.088 h -0.123 l -4.033,14.369 h -5.141 z"
         id="path108"
         style="fill:#ffffff" />
      <path
         d="m 144.713,74.333 -0.984,-3.746 h -6.494 l -1.012,3.746 h -5.934 l 6.521,-20.07 h 7.205 l 6.604,20.07 h -5.906 z m -2.105,-8.176 -0.861,-3.281 c -0.201,-0.729 -0.444,-1.672 -0.731,-2.83 -0.287,-1.157 -0.477,-1.987 -0.567,-2.488 -0.082,0.465 -0.244,1.23 -0.485,2.297 -0.242,1.066 -0.777,3.167 -1.606,6.303 h 4.25 z"
         id="path110"
         style="fill:#ffffff" />
      <path
         d="m 167.846,60.702 c 0,2.233 -0.659,3.958 -1.976,5.175 -1.317,1.217 -3.188,1.825 -5.612,1.825 h -1.518 v 6.631 h -5.4 V 54.345 h 6.918 c 2.524,0 4.42,0.552 5.688,1.654 1.266,1.103 1.9,2.671 1.9,4.703 z M 158.74,63.3 h 0.984 c 0.811,0 1.456,-0.228 1.935,-0.684 0.479,-0.456 0.718,-1.084 0.718,-1.887 0,-1.349 -0.748,-2.023 -2.242,-2.023 H 158.74 V 63.3 z"
         id="path112"
         style="fill:#ffffff" />
    </g>
    <path
       d="m 140.595,62.084609 c 0,3.313 -2.687,6 -6,6 h -50 c -3.313,0 -6,-2.687 -6,-6 v -10 c 0,-3.313 2.687,-6 6,-6 h 50 c 3.313,0 6,2.687 6,6 v 10 z"
       id="path114"
       style="fill:#956121" />
    <g
       transform="translate(-97.064,-7.9153914)"
       id="g116">
      <path
         d="m 187.739,59.673 h 3.486 c 1.358,0 2.366,0.202 3.025,0.605 0.659,0.403 0.988,1.031 0.988,1.883 0,0.561 -0.144,1.039 -0.431,1.436 -0.287,0.397 -0.666,0.652 -1.135,0.766 v 0.068 c 0.62,0.164 1.069,0.438 1.347,0.82 0.278,0.382 0.417,0.879 0.417,1.49 0,0.907 -0.341,1.621 -1.022,2.143 -0.681,0.522 -1.61,0.783 -2.786,0.783 h -3.89 v -9.994 z m 2.7,3.835 h 0.813 c 0.387,0 0.687,-0.08 0.899,-0.239 0.212,-0.159 0.318,-0.396 0.318,-0.711 0,-0.561 -0.424,-0.841 -1.271,-0.841 h -0.759 v 1.791 z m 0,1.975 v 2.099 h 0.95 c 0.843,0 1.265,-0.355 1.265,-1.066 0,-0.333 -0.113,-0.588 -0.338,-0.766 -0.225,-0.178 -0.553,-0.267 -0.981,-0.267 h -0.896 z"
         id="path118"
         style="fill:#ffffff" />
      <path
         d="m 204.338,69.667 h -5.934 v -9.994 h 5.934 v 2.167 h -3.233 v 1.572 h 2.994 v 2.167 h -2.994 v 1.887 h 3.233 v 2.201 z"
         id="path120"
         style="fill:#ffffff" />
      <path
         d="m 211.729,69.667 h -2.7 v -7.786 h -2.44 v -2.208 h 7.574 v 2.208 h -2.434 v 7.786 z"
         id="path122"
         style="fill:#ffffff" />
      <path
         d="m 222.956,69.667 -0.492,-1.873 h -3.247 l -0.506,1.873 h -2.967 l 3.261,-10.035 h 3.603 l 3.302,10.035 h -2.954 z m -1.053,-4.088 -0.431,-1.641 c -0.1,-0.365 -0.222,-0.836 -0.366,-1.415 -0.144,-0.579 -0.238,-0.994 -0.284,-1.244 -0.041,0.232 -0.122,0.615 -0.243,1.148 -0.121,0.533 -0.389,1.583 -0.803,3.151 h 2.127 z"
         id="path124"
         style="fill:#ffffff" />
    </g>
  </g>
</svg>
