<?xml version="1.0" encoding="UTF-8" standalone="no"?>
<svg
   xmlns:sketch="http://www.bohemiancoding.com/sketch/ns"
   xmlns:dc="http://purl.org/dc/elements/1.1/"
   xmlns:cc="http://creativecommons.org/ns#"
   xmlns:rdf="http://www.w3.org/1999/02/22-rdf-syntax-ns#"
   xmlns:svg="http://www.w3.org/2000/svg"
   xmlns="http://www.w3.org/2000/svg"
   xmlns:sodipodi="http://sodipodi.sourceforge.net/DTD/sodipodi-0.dtd"
   xmlns:inkscape="http://www.inkscape.org/namespaces/inkscape"
   width="202px"
   height="202px"
   viewBox="0 0 202 202"
   version="1.1"
   id="svg2"
   inkscape:version="0.48.4 r9939"
   sodipodi:docname="compass-outer.svg">
  <metadata
     id="metadata24">
    <rdf:RDF>
      <cc:Work
         rdf:about="">
        <dc:format>image/svg+xml</dc:format>
        <dc:type
           rdf:resource="http://purl.org/dc/dcmitype/StillImage" />
        <dc:title>compass-outer</dc:title>
      </cc:Work>
    </rdf:RDF>
  </metadata>
  <sodipodi:namedview
     pagecolor="#ffffff"
     bordercolor="#666666"
     borderopacity="1"
     objecttolerance="10"
     gridtolerance="10"
     guidetolerance="10"
     inkscape:pageopacity="0"
     inkscape:pageshadow="2"
     inkscape:window-width="1871"
     inkscape:window-height="1056"
     id="namedview22"
     showgrid="false"
     inkscape:zoom="3.304499"
     inkscape:cx="99.511212"
     inkscape:cy="139.24665"
     inkscape:window-x="49"
     inkscape:window-y="24"
     inkscape:window-maximized="1"
     inkscape:current-layer="compass-outer" />
  <!-- Generator: Sketch 3.4.3 (16044) - http://www.bohemiancoding.com/sketch -->
  <title
     id="title4">compass-outer</title>
  <desc
     id="desc6">Created with Sketch.</desc>
  <defs
     id="defs8" />
  <g
     id="Page-1"
     stroke="none"
     stroke-width="1"
     fill="none"
     fill-rule="evenodd"
     sketch:type="MSPage">
    <g
       id="compass-outer"
       sketch:type="MSLayerGroup"
       transform="translate(1.000000, 1.000000)">
      <path
         d="M99.8037709,199.607542 C154.923872,199.607542 199.607542,154.923872 199.607542,99.8037709 C199.607542,44.6836705 154.923872,0 99.8037709,0 C44.6836705,0 0,44.6836705 0,99.8037709 C0,154.923872 44.6836705,199.607542 99.8037709,199.607542 L99.8037709,199.607542 L99.8037709,199.607542 L99.8037709,199.607542 L99.8037709,199.607542 Z M100.226668,166.198653 C136.661989,166.198653 166.198653,136.661989 166.198653,100.226668 C166.198653,63.7913477 136.661989,34.2546841 100.226668,34.2546841 C63.7913477,34.2546841 34.2546841,63.7913477 34.2546841,100.226668 C34.2546841,136.661989 63.7913477,166.198653 100.226668,166.198653 L100.226668,166.198653 L100.226668,166.198653 L100.226668,166.198653 L100.226668,166.198653 Z"
         id="Oval-108"
         stroke-opacity="0.25"
         stroke="#FFFFFF"
         fill="#3F4854"
         sketch:type="MSShapeGroup" />
      <circle
         id="Oval-74-Copy-5"
         sketch:type="MSShapeGroup"
         cx="38.063988"
         cy="157.96555"
         r="1.9031993"
         d="m 39.967187,157.96555 c 0,1.0511 -0.852091,1.90319 -1.903199,1.90319 -1.051108,0 -1.9032,-0.85209 -1.9032,-1.90319 0,-1.05111 0.852092,-1.9032 1.9032,-1.9032 1.051108,0 1.903199,0.85209 1.903199,1.9032 z"
         sodipodi:cx="38.063988"
         sodipodi:cy="157.96555"
         sodipodi:rx="1.9031993"
         sodipodi:ry="1.9031993"
         transform="matrix(36,0,0,36,-1269.5977,-5586.5941)"
         style="fill:#ffffff" />
    </g>
  </g>
</svg>
