<?xml version="1.0" encoding="UTF-8" standalone="no"?>
<svg
   xmlns:dc="http://purl.org/dc/elements/1.1/"
   xmlns:cc="http://creativecommons.org/ns#"
   xmlns:rdf="http://www.w3.org/1999/02/22-rdf-syntax-ns#"
   xmlns:svg="http://www.w3.org/2000/svg"
   xmlns="http://www.w3.org/2000/svg"
   xmlns:sodipodi="http://sodipodi.sourceforge.net/DTD/sodipodi-0.dtd"
   xmlns:inkscape="http://www.inkscape.org/namespaces/inkscape"
   width="45px"
   height="29px"
   viewBox="0 0 265 170"
   version="1.1"
   id="svg11"
   sodipodi:docname="terria-brand-onDark-withShadow2.svg"
   inkscape:version="0.92.0 r15299">
  <metadata
     id="metadata15">
    <rdf:RDF>
      <cc:Work
         rdf:about="">
        <dc:format>image/svg+xml</dc:format>
        <dc:type
           rdf:resource="http://purl.org/dc/dcmitype/StillImage" />
        <dc:title>terria-brand-onLight@2x</dc:title>
      </cc:Work>
    </rdf:RDF>
  </metadata>
  <sodipodi:namedview
     pagecolor="#ffffff"
     bordercolor="#666666"
     borderopacity="1"
     objecttolerance="10"
     gridtolerance="10"
     guidetolerance="10"
     inkscape:pageopacity="0"
     inkscape:pageshadow="2"
     inkscape:window-width="1033"
     inkscape:window-height="707"
     id="namedview13"
     showgrid="false"
     inkscape:zoom="1.0716981"
     inkscape:cx="132.5"
     inkscape:cy="85"
     inkscape:window-x="4239"
     inkscape:window-y="242"
     inkscape:window-maximized="0"
     inkscape:current-layer="terria-brand-onLight" />
  <!-- Generator: Sketch 51.2 (57519) - http://www.bohemiancoding.com/sketch -->
  <title
     id="title2">terria-brand-onLight@2x</title>
  <desc
     id="desc4">Created with Sketch.</desc>
  <defs
     id="defs6">
    <filter
       style="color-interpolation-filters:sRGB;"
       inkscape:label="Drop Shadow"
       id="filter4814">
      <feFlood
         flood-opacity="1"
         flood-color="rgb(0,0,0)"
         result="flood"
         id="feFlood4804" />
      <feComposite
         in="flood"
         in2="SourceGraphic"
         operator="in"
         result="composite1"
         id="feComposite4806" />
      <feGaussianBlur
         in="composite1"
         stdDeviation="3"
         result="blur"
         id="feGaussianBlur4808" />
      <feOffset
         dx="6"
         dy="-6"
         result="offset"
         id="feOffset4810" />
      <feComposite
         in="SourceGraphic"
         in2="offset"
         operator="over"
         result="composite2"
         id="feComposite4812" />
    </filter>
    <filter
       style="color-interpolation-filters:sRGB;"
       inkscape:label="Drop Shadow"
       id="filter4886">
      <feFlood
         flood-opacity="1"
         flood-color="rgb(0,0,0)"
         result="flood"
         id="feFlood4876" />
      <feComposite
         in="flood"
         in2="SourceGraphic"
         operator="in"
         result="composite1"
         id="feComposite4878" />
      <feGaussianBlur
         in="composite1"
         stdDeviation="2"
         result="blur"
         id="feGaussianBlur4880" />
      <feOffset
         dx="4"
         dy="4"
         result="offset"
         id="feOffset4882" />
      <feComposite
         in="SourceGraphic"
         in2="offset"
         operator="over"
         result="composite2"
         id="feComposite4884" />
    </filter>
  </defs>
  <g
     id="terria-brand-onLight"
     stroke="none"
     stroke-width="1"
     fill="none"
     fill-rule="evenodd">
    <path
       d="M39,100.148988 L43.4001162,100.148988 L43.4001162,111.137662 L59.3925387,111.137662 L59.3925387,115.499437 L43.4001162,115.499437 L43.4001162,142.59259 C43.4001162,144.381997 44.0480486,145.919493 45.3461438,147.205772 C46.6434742,148.492341 48.2230962,149.134874 50.0845,149.134874 C51.8891907,149.134874 53.4402012,148.492341 54.7387424,147.205772 C56.0356268,145.919493 56.6850248,144.381997 56.6850248,142.59259 L61.0848861,142.59259 C61.0848861,144.102229 60.8021485,145.527918 60.2388398,146.870226 C59.6743204,148.212036 58.8847324,149.373723 57.8696298,150.351341 C56.8538263,151.330436 55.6826667,152.112626 54.3579355,152.699395 C53.031675,153.286896 51.6081735,153.580529 50.0845,153.580529 C48.561655,153.580529 47.1234336,153.286896 45.7693262,152.699395 C44.4152188,152.112626 43.2440593,151.330436 42.258078,150.351341 C41.2698663,149.373723 40.4807881,148.212036 39.8884219,146.870226 C39.2962468,145.527918 39,144.102229 39,142.59259 L39,100.148988 Z M85.7074651,154 C82.6608828,154 79.7838028,153.425818 77.076289,152.279919 C74.368584,151.134762 72.0128195,149.568159 70.0105885,147.583576 C68.0077841,145.598729 66.428162,143.277325 65.2721685,140.62107 C64.1157289,137.965574 63.5377003,135.126765 63.5377003,132.10755 C63.5377003,129.088083 64.1157289,126.235946 65.2721685,123.552024 C66.428162,120.867408 68.0077841,118.533433 70.0105885,116.548143 C72.0128195,114.563296 74.368584,112.997438 77.076289,111.850759 C79.7838028,110.705154 82.6608828,110.130962 85.7074651,110.130962 C88.7534102,110.130962 91.6158339,110.705154 94.2960107,111.850759 C96.9742758,112.997438 99.316085,114.563296 101.31889,116.548143 C103.32042,118.533433 104.900743,120.867408 106.05731,123.552024 C107.213239,126.235946 107.791841,129.088083 107.791841,132.10755 L107.791841,133.197694 C107.791841,133.533745 107.763166,133.897716 107.707727,134.288028 L68.1073189,134.288028 C68.3888458,136.469074 69.0383076,138.482284 70.0533465,140.327973 C71.0684491,142.172652 72.3511233,143.795235 73.9033446,145.192562 C75.4538453,146.591153 77.2458551,147.681297 79.2765064,148.463474 C81.3074126,149.247881 83.450407,149.638237 85.7074651,149.638237 C87.3425896,149.638237 88.8936001,149.331281 90.3611339,148.715398 C91.8273933,148.100754 93.1241502,147.234197 94.2533165,146.115439 L97.3840128,149.218767 C95.9171162,150.67285 94.1819471,151.833306 92.180417,152.699395 C90.1776125,153.565971 88.0199619,154 85.7074651,154 Z M103.222924,129.926757 C102.939995,127.745775 102.291935,125.732565 101.276833,123.886875 C100.26173,122.041691 98.9777175,120.420814 97.426707,119.022286 C95.874422,117.624896 94.0978331,116.534815 92.0956658,115.750844 C90.0928614,114.968199 87.9626115,114.576624 85.7074651,114.576624 C83.450407,114.576624 81.3074126,114.968199 79.2765064,115.750844 C77.2458551,116.534815 75.4538453,117.624896 73.9033446,119.022286 C72.3511233,120.420814 71.0684491,122.041691 70.0533465,123.886875 C69.0383076,125.732565 68.3888458,127.745775 68.1073189,129.926757 L103.222924,129.926757 Z M118.622789,152.909622 L114.223374,152.909622 L114.223374,131.939525 C114.223374,128.920058 114.800701,126.067921 115.957906,123.383999 C117.113198,120.699382 118.692884,118.365408 120.696326,116.380055 C122.697856,114.395965 125.039665,112.829349 127.719204,111.682734 C130.398107,110.537065 133.261805,109.962936 136.30775,109.962936 L136.30775,114.408536 C133.881827,114.408536 131.597368,114.870226 129.454374,115.79304 C127.309467,116.716169 125.434746,117.960505 123.827022,119.525605 C122.219298,121.091715 120.949942,122.951239 120.018953,125.103354 C119.088602,127.256732 118.622789,129.536446 118.622789,131.939525 L118.622789,152.909622 Z M145.530336,152.909622 L141.130284,152.909622 L141.130284,131.939525 C141.130284,128.920058 141.708249,126.067921 142.864816,123.383999 C144.020746,120.699382 145.600431,118.365408 147.603873,116.380055 C149.605403,114.395965 151.946575,112.829349 154.626752,111.682734 C157.305654,110.537065 160.169352,109.962936 163.215298,109.962936 L163.215298,114.408536 C160.788737,114.408536 158.504278,114.870226 156.361284,115.79304 C154.217015,116.716169 152.342293,117.960505 150.734569,119.525605 C149.126846,121.091715 147.856852,122.951239 146.926501,125.103354 C145.996149,127.256732 145.530336,129.536446 145.530336,131.939525 L145.530336,152.909622 Z M169.222437,110.969636 L173.622489,110.969636 L173.622489,152.909622 L169.222437,152.909622 L169.222437,110.969636 Z M169.222437,90 L173.622489,90 L173.622489,97.1297736 L169.222437,97.1297736 L169.222437,90 Z M203.830235,109.878797 C206.876818,109.878797 209.753897,110.453684 212.461475,111.598847 C215.169053,112.745968 217.524244,114.311826 219.527048,116.296674 C221.528578,118.281269 223.108264,120.615243 224.265468,123.29986 C225.420761,125.984477 226,128.835919 226,131.855386 L226,152.82573 L221.515196,152.82573 L221.515196,145.024537 C219.54043,147.709166 217.016374,149.83465 213.941753,151.399276 C210.866496,152.964155 207.496839,153.748564 203.830235,153.748564 C200.78429,153.748564 197.920592,153.17389 195.242327,152.028487 C192.56215,150.883331 190.220341,149.316727 188.218811,147.331412 C186.216006,145.347322 184.635683,143.025918 183.480391,140.369664 C182.323187,137.714167 181.745859,134.875296 181.745859,131.855386 C181.745859,128.835919 182.323187,125.984477 183.480391,123.29986 C184.635683,120.615243 186.216006,118.281269 188.218811,116.296674 C190.220341,114.311826 192.56215,112.745968 195.242327,111.598847 C197.920592,110.453684 200.78429,109.878797 203.830235,109.878797 Z M203.830235,114.325154 C201.404949,114.325154 199.119853,114.78634 196.976222,115.709153 C194.831953,116.63203 192.957231,117.877124 191.349507,119.441718 C189.741783,121.008334 188.473064,122.867352 187.542076,125.019467 C186.611087,127.172846 186.145274,129.452559 186.145274,131.855386 C186.145274,134.260929 186.611087,136.525293 187.542076,138.649551 C188.473064,140.775767 189.741783,142.63428 191.349507,144.228058 C192.957231,145.821773 194.831953,147.079942 196.976222,148.002301 C199.119853,148.925139 201.404949,149.386306 203.830235,149.386306 C206.255521,149.386306 208.553999,148.925139 210.726943,148.002301 C212.897976,147.079942 214.773972,145.821773 216.354295,144.228058 C217.932069,142.63428 219.188681,140.775767 220.119669,138.649551 C221.050021,136.525293 221.515196,134.260929 221.515196,131.855386 C221.515196,129.452559 221.050021,127.172846 220.119669,125.019467 C219.188681,122.867352 217.932069,121.008334 216.354295,119.441718 C214.773972,117.877124 212.897976,116.63203 210.726943,115.709153 C208.553999,114.78634 206.255521,114.325154 203.830235,114.325154 Z"
       id="Combined-Shape"
       fill="#3D3935"
       fill-rule="nonzero"
       style="fill:#ffffff;filter:url(#filter4886)" />
    <path
       d="M249,35.4779697 C223.424655,38.076031 188.503335,69.6273091 139.476036,86.9793576 C72.7343887,110.600488 -16.9087692,-13.1821614 28.2016559,22.5113923 C118.836005,94.2284042 119.687776,43.604367 165.499816,31.7081832 C189.044505,25.5949468 219.614871,28.8965562 249,35.4779697"
       id="path34"
       fill="#8BD9EA"
       fill-rule="nonzero"
       transform="translate(132.500000, 53.000000) scale(-1, 1) rotate(-180.000000) translate(-132.500000, -53.000000) "
       style="filter:url(#filter4814)" />
  </g>
</svg>
