<svg xmlns="http://www.w3.org/2000/svg" xmlns:xlink="http://www.w3.org/1999/xlink" width="44" height="29" viewBox="0 0 44 29">
  <defs>
    <polygon id="path-1" points="0 0 39.601 0 39.601 23.397 0 23.397"/>
  </defs>
  <g fill="none" fill-rule="evenodd">

    <g transform="matrix(1 0 0 -1 2 26.973)">
      <path fill="#FFFFFF" fill-rule="nonzero" d="M3.95827862 9.15193178L4.7037188 9.15193178 4.7037188 7.28441648 7.41305504 7.28441648 7.41305504 6.54313654 4.7037188 6.54313654 4.7037188 1.93867929C4.7037188 1.63457105 4.81348746 1.373275 5.03340262 1.15467305 5.25318824.936021715 5.52079793.826823798 5.83614533.826823798 6.14188473.826823798 6.40464724.936021715 6.62463797 1.15467305 6.84434802 1.373275 6.95436497 1.63457105 6.95436497 1.93867929L7.69976197 1.93867929C7.69976197 1.68211749 7.65186233 1.43982283 7.5564301 1.21169871 7.46079275.9836594 7.32702569.786231661 7.15505335.620086448 6.98296226.453690031 6.78455173.320757543 6.56012405.221036707 6.33543728.121191342 6.09427657.071288734 5.83614533.071288734 5.57815443.071288734 5.33449996.121191342 5.10509555.221036707 4.87569114.320757543 4.67728062.453690031 4.51024182.620086448 4.34282518.786231661 4.20914448.9836594 4.1087895 1.21169871 4.00846691 1.43982283 3.95827862 1.68211749 3.95827862 1.93867929L3.95827862 9.15193178M14.8385249 4.09122629C14.7905929 4.46188236 14.6808026 4.8040256 14.5088303 5.11769895 14.336858 5.43128642 14.1193286 5.706753 13.8565661 5.9444315 13.5935877 6.18191676 13.2926091 6.36717502 12.9534144 6.50041024 12.6141118 6.63342002 12.2532182 6.69996785 11.8711654 6.69996785 11.4887887 6.69996785 11.125736 6.63342002 10.7816726 6.50041024 10.4376523 6.36717502 10.1340612 6.18191676 9.87138508 5.9444315 9.60841745 5.706753 9.3911148 5.43128642 9.21914246 5.11769895 9.04718092 4.8040256 8.93715316 4.46188236 8.88945864 4.09122629L14.8385249 4.09122629zM11.8711654 0C11.3550325 0 10.8676156.0975817297 10.4089255.2923263 9.95020303.486944623 9.55110413.753187479 9.21189868 1.0904655 8.87259606 1.42778861 8.60498637 1.82230915 8.40914518 2.27373726 8.21322842 2.72503655 8.11530242 3.20748955 8.11530242 3.72060242 8.11530242 4.23375824 8.21322842 4.71847637 8.40914518 5.17460652 8.60498637 5.63085477 8.87259606 6.02751162 9.21189868 6.36490988 9.55110413 6.70223299 9.95020303 6.96834917 10.4089255 7.16322621 10.8676156 7.35792076 11.3550325 7.4555042 11.8711654 7.4555042 12.3871904 7.4555042 12.8721243 7.35792076 13.3261831 7.16322621 13.779918 6.96834917 14.1766527 6.70223299 14.5159553 6.36490988 14.855042 6.02751162 15.1227705 5.63085477 15.3187088 5.17460652 15.5145392 4.71847637 15.6125624 4.23375824 15.6125624 3.72060242 15.6125624 3.65405459 15.6125624 3.59232689 15.6125624 3.53533343 15.6125624 3.47822189 15.6077044 3.41636536 15.5983123 3.35003223L8.88945864 3.35003223C8.93715316 2.97936543 9.04718092 2.63722219 9.21914246 2.32354884 9.3911148 2.01004725 9.60841745 1.73429081 9.87138508 1.49681629 10.1340612 1.25912706 10.4376523 1.07385807 10.7816726.940927726 11.125736.807618431 11.4887887.74127779 11.8711654.74127779 12.148178.74127779 12.4109405.793444677 12.6595609.898113391 12.9079654 1.00257169 13.1276538 1.14984219 13.3189501 1.33997425L13.8493331.812566309C13.6008207.565446159 13.3068591.368227757 12.9677724.221036707 12.6284698.0737628877 12.2629341 0 11.8711654 0zM17.4474738.185308712L16.7021524.185308712 16.7021524 3.7491582C16.7021524 4.26231401 16.7999596 4.74703214 16.9960059 5.2031623 17.1917283 5.65941054 17.4593488 6.05606739 17.7987594 6.39347638 18.1378461 6.73067067 18.5345808 6.99691568 18.9885316 7.19178198 19.4423745 7.38648726 19.9275244 7.48405998 20.4435493 7.48405998L20.4435493 6.72853436C20.0325646 6.72853436 19.6455459 6.6500704 19.2824931 6.49323909 18.9191166 6.3363541 18.6015129 6.12488036 18.3291424 5.858893 18.0567719 5.59273388 17.8417255 5.27670951 17.6840032 4.91095945 17.5263889 4.54499469 17.4474738 4.15755942 17.4474738 3.7491582L17.4474738.185308712M22.0059823.185308712L21.2605529.185308712 21.2605529 3.7491582C21.2605529 4.26231401 21.3584681 4.74703214 21.5544065 5.2031623 21.7502369 5.65941054 22.0178573 6.05606739 22.3572679 6.39347638 22.6963546 6.73067067 23.0929813 6.99691568 23.5470401 7.19178198 24.000883 7.38648726 24.4860329 7.48405998 25.0020579 7.48405998L25.0020579 6.72853436C24.5909651 6.72853436 24.2039464 6.6500704 23.8408937 6.49323909 23.4776251 6.3363541 23.1600214 6.12488036 22.8876509 5.858893 22.6152804 5.59273388 22.4001261 5.27670951 22.2425117 4.91095945 22.0848974 4.54499469 22.0059823 4.15755942 22.0059823 3.7491582L22.0059823.185308712M26.0197498 7.31297225L26.7651792 7.31297225 26.7651792.185308712 26.0197498.185308712 26.0197498 7.31297225zM26.0197498 10.8767434L26.7651792 10.8767434 26.7651792 9.66504466 26.0197498 9.66504466 26.0197498 10.8767434z"/>
      <mask id="mask-2" fill="white">
        <use xlink:href="#path-1"/>
      </mask>
      <g fill-rule="nonzero" mask="url(#mask-2)">
        <g transform="translate(0 .032)">
          <path fill="#FFFFFF" d="M31.8827867,6.71049913 C31.4719099,6.71049913 31.0847832,6.63212105 30.7216226,6.47528975 C30.3583539,6.3184477 30.0407503,6.10684514 29.7683798,5.84094366 C29.4960093,5.57469866 29.2810708,5.25876017 29.1233485,4.89301011 C28.9656263,4.52704534 28.8867111,4.13961007 28.8867111,3.73125179 C28.8867111,3.3224319 28.9656263,2.93760529 29.1233485,2.57658948 C29.2810708,2.21524087 29.4960093,1.89938827 29.7683798,1.6285271 C30.0407503,1.35767668 30.3583539,1.14385191 30.7216226,0.987097901 C31.0847832,0.8302623 31.4719099,0.75188744 31.8827867,0.75188744 C32.2936635,0.75188744 32.6830572,0.8302623 33.0511838,0.987097901 C33.4189866,1.14385191 33.7368062,1.35767668 34.0045346,1.6285271 C34.2718312,1.89938827 34.4847185,2.21524087 34.6424408,2.57658948 C34.8000551,2.93760529 34.8788623,3.3224319 34.8788623,3.73125179 C34.8788623,4.13961007 34.8000551,4.52704534 34.6424408,4.89301011 C34.4847185,5.25876017 34.2718312,5.57469866 34.0045346,5.84094366 C33.7368062,6.10684514 33.4189866,6.3184477 33.0511838,6.47528975 C32.6830572,6.63212105 32.2936635,6.71049913 31.8827867,6.71049913 Z M31.8827867,7.46615357 C32.3989196,7.46615357 32.8863365,7.36845204 33.3450374,7.17383264 C33.8037383,6.97888045 34.20274,6.71276427 34.5420426,6.37544116 C34.8811293,6.03816099 35.1487498,5.64150414 35.3447961,5.18525589 C35.5405186,4.72900765 35.6386497,4.24440761 35.6386497,3.73125179 L35.6386497,0.167360443 L34.8788623,0.167360443 L34.8788623,1.4931663 C34.5443097,1.03691591 34.1166999,0.675691837 33.5958169,0.409784994 C33.074826,0.14383521 32.5039599,0.0105255933 31.8827867,0.0105255933 C31.3667617,0.0105255933 30.8816119,0.108190951 30.427877,0.302851141 C29.9738182,0.497469465 29.5770835,0.763712321 29.2379968,1.10111487 C28.8986942,1.43830916 28.6309657,1.8328297 28.4352433,2.28425781 C28.239197,2.7355571 28.1413897,3.21802083 28.1413897,3.73125179 C28.1413897,4.24440761 28.239197,4.72900765 28.4352433,5.18525589 C28.6309657,5.64150414 28.8986942,6.03816099 29.2379968,6.37544116 C29.5770835,6.71276427 29.9738182,6.97888045 30.427877,7.17383264 C30.8816119,7.36845204 31.3667617,7.46615357 31.8827867,7.46615357 Z"/>
          <path fill="#FAFAFA" d="M20.9861313,22.8592178 C9.64266078,26.8131187 -5.59317097,6.09335092 2.07383745,12.0680344 C17.478133,24.0726234 17.6229007,15.5987516 25.4091562,13.6074696 C29.4108328,12.5841853 34.6065997,13.1368361 39.6009226,14.2384878 C35.2541139,14.6733729 29.3188551,19.9546878 20.9861313,22.8592178 Z"/>
        </g>
      </g>
    </g>
  </g>
</svg>
