<svg xmlns="http://www.w3.org/2000/svg" width="100" height="100" viewBox="0 0 100 100">
  <g fill="none" fill-rule="evenodd">
    <rect width="100" height="100"/>
    <path fill="#fff" fill-rule="nonzero" d="M44.8369093,36 L42.095994,29.7353362 L29.7407913,29.7353362 L26.9998759,36 L20,36 L32.7347141,7 L39.1020711,7 L51.8367852,36 L44.8369093,36 Z M35.9394766,15.6294708 L32.228699,24.0515022 L39.6080863,24.0515022 L35.9394766,15.6294708 Z M78.1446113,16.6251788 C78.1446113,21.2718401 76.2751851,24.2727639 72.5362768,25.6280401 L80,36 L71.903758,36 L65.3677292,26.7482118 L60.813593,26.7482118 L60.813593,36 L54.2353963,36 L54.2353963,7 L65.409897,7 C69.9921681,7 73.2601499,7.76060284 75.2139402,9.28183126 C77.1677308,10.8030597 78.1446113,13.2508177 78.1446113,16.6251788 Z M70.2170409,20.0686695 C71.0322916,19.3495434 71.4399107,18.2086393 71.4399107,16.6459227 C71.4399107,15.0832063 71.0182357,14.0114479 70.1748729,13.4306152 C69.3315102,12.8497826 67.8556474,12.5593706 65.7472406,12.5593706 L60.813593,12.5593706 L60.813593,21.1473533 L65.6207368,21.1473533 C67.8697042,21.1473533 69.4017902,20.7877958 70.2170409,20.0686695 Z"/>
    <g fill="#fff" fill-rule="nonzero" transform="translate(14 46)">
      <path d="M5.90625,23.2670454 C5.90625,33.3653785 14.0889616,41.5482954 24.1849648,41.5482954 L47.8150351,41.5482954 C57.9025788,41.5482954 66.09375,33.3591228 66.09375,23.2670454 C66.09375,13.1687123 57.9110383,4.98579546 47.8150351,4.98579546 L24.1849648,4.98579546 C14.0974212,4.98579546 5.90625,13.1749681 5.90625,23.2670454 Z M0.920454546,23.2670454 C0.920454546,10.4170111 11.3482216,0 24.1849648,0 L47.8150351,0 C60.6636694,0 71.0795454,10.4141857 71.0795454,23.2670454 C71.0795454,36.1170798 60.6517785,46.5340909 47.8150351,46.5340909 L24.1849648,46.5340909 C11.3363306,46.5340909 0.920454546,36.1199052 0.920454546,23.2670454 Z"/>
      <ellipse cx="24.307" cy="23.443" rx="14.032" ry="13.96"/>
    </g>
  </g>
</svg>
