<svg xmlns="http://www.w3.org/2000/svg" width="100" height="100" viewBox="0 0 100 100">
  <g fill="none" fill-rule="evenodd">
    <rect width="100" height="100"/>
    <path fill="#fff" fill-rule="nonzero" d="M78.1528224,26.0850208 C71.2252031,17.6083867 60.8039236,12.5 49.5,12.5 C29.0654643,12.5 12.5,29.0654643 12.5,49.5 C12.5,69.9345357 29.0654643,86.5 49.5,86.5 C69.9345357,86.5 86.5,69.9345357 86.5,49.5 C86.5,48.1192881 87.6192881,47 89,47 C90.3807119,47 91.5,48.1192881 91.5,49.5 C91.5,72.6959595 72.6959595,91.5 49.5,91.5 C26.3040405,91.5 7.5,72.6959595 7.5,49.5 C7.5,26.3040405 26.3040405,7.5 49.5,7.5 C62.2770762,7.5 74.0650758,13.2534402 81.9272602,22.8025931 L82.6221935,12.864584 C82.718507,11.4872355 83.9131462,10.4487515 85.2904948,10.5450651 C86.6678433,10.6413787 87.7063273,11.8360179 87.6100137,13.2133664 L86.4939101,29.1743912 C86.3975965,30.5517397 85.2029573,31.5902237 83.8256088,31.4939101 L67.864584,30.3778065 C66.4872355,30.281493 65.4487515,29.0868538 65.5450651,27.7095052 C65.6413787,26.3321567 66.8360179,25.2936727 68.2133664,25.3899863 L78.1528224,26.0850208 Z"/>
    <path fill="#fff" d="M69.1932999,32.0773029 L60.9928,58.501136 C60.6642078,59.559933 59.5428575,60.6806778 58.4875853,61.0063507 L32.1298626,69.1407402 C31.0737147,69.4666833 30.4831333,68.874956 30.8088062,67.8196838 L38.9431957,41.4619611 C39.2691388,40.4058132 40.3904914,39.2850661 41.4484104,38.9567464 L67.8722435,30.7562465 C68.9310404,30.4276544 69.5216196,31.0193839 69.1932999,32.0773029 Z M50.0033122,55.9016393 C53.2626977,55.9016393 55.9049516,53.2593854 55.9049516,50 C55.9049516,46.7406146 53.2626977,44.0983607 50.0033122,44.0983607 C46.7439268,44.0983607 44.1016729,46.7406146 44.1016729,50 C44.1016729,53.2593854 46.7439268,55.9016393 50.0033122,55.9016393 Z" transform="matrix(-1 0 0 1 100.003 0)"/>
  </g>
</svg>
