<svg xmlns="http://www.w3.org/2000/svg" width="100" height="100" viewBox="0 0 100 100">
  <g fill="none" fill-rule="evenodd">
    <rect width="100" height="100"/>
    <path fill="#fff" fill-rule="nonzero" d="M50,64.5 C41.9918711,64.5 35.5,58.0081289 35.5,50 C35.5,41.9918711 41.9918711,35.5 50,35.5 C58.0081289,35.5 64.5,41.9918711 64.5,50 C64.5,58.0081289 58.0081289,64.5 50,64.5 Z M50,59.5 C55.2467051,59.5 59.5,55.2467051 59.5,50 C59.5,44.7532949 55.2467051,40.5 50,40.5 C44.7532949,40.5 40.5,44.7532949 40.5,50 C40.5,55.2467051 44.7532949,59.5 50,59.5 Z"/>
    <path fill="#fff" fill-rule="nonzero" d="M74.116503,70.0129771 C73.5431557,71.8604295 71.8125919,73.5882603 69.9699494,74.1569275 L12.4131808,91.9198116 C9.44603579,92.8355172 7.05384791,90.4488885 7.97086453,87.4774953 L25.7337487,29.9207268 C26.3009779,28.0827438 28.0372484,26.3453475 29.877699,25.7741731 L87.5788313,7.86692517 C90.5642603,6.94041274 92.9470404,9.33680109 92.023751,12.3118448 L74.116503,70.0129771 Z M31.3596951,30.5494938 C31.0943324,30.6318477 30.5917854,31.1347206 30.5114029,31.3951827 L13.5563604,86.3343157 L68.4954935,69.3792733 C68.7614492,69.2971953 69.2569137,68.8025132 69.3411823,68.5309811 L86.4328516,13.4578246 L31.3596951,30.5494938 Z"/>
  </g>
</svg>
