<svg xmlns="http://www.w3.org/2000/svg" width="100" height="100" viewBox="20 20 60 60">
    <path fill="#000" fill-rule="evenodd" d="M74.164 72.327H27.673v-46.49c0-1.03-.807-1.837-1.837-1.837S24 24.806 24 25.836v48.328c0 1.03.806 1.836 1.836 1.836h48.328c1.03 0 1.836-.806 1.836-1.836s-.806-1.837-1.836-1.837m-28.71-7.076V38.825c0-1.03-.806-1.836-1.836-1.836s-1.837.806-1.837 1.836v26.426c0 1.03.806 1.836 1.837 1.836s1.836-.806 1.836-1.836m-8.868 0V38.825c0-1.03-.806-1.836-1.837-1.836s-1.836.806-1.836 1.836v26.426c0 1.03.806 1.836 1.836 1.836s1.837-.806 1.837-1.836m26.604 0V38.825c0-1.03-.806-1.836-1.836-1.836s-1.836.806-1.836 1.836v26.426c0 1.03.806 1.836 1.836 1.836s1.836-.806 1.836-1.836m8.869 0V52.038c0-1.03-.807-1.836-1.837-1.836s-1.836.806-1.836 1.836V65.25c0 1.03.806 1.836 1.836 1.836s1.837-.806 1.837-1.836m-17.737 0V52.038c0-1.03-.806-1.836-1.836-1.836s-1.837.806-1.837 1.836V65.25c0 1.03.807 1.836 1.837 1.836s1.836-.806 1.836-1.836"/>
</svg>
