<?xml version="1.0" encoding="UTF-8" standalone="no"?>
<svg width="13" height="14" xmlns="http://www.w3.org/2000/svg">
  <g fill-rule="evenodd">
    <g stroke="#FFF" stroke-linecap="round" stroke-width="1.238">
      <path d="M6.5 1.31v1.277M1.934 3.132l.902.903M11.064 3.107l-.904.903M.619 7.19h1.278M11.142 7.19h1.278"/>
    </g>
    <path d="M5.04 12.892c0 .269.22.489.487.489h1.946c.267 0 .486-.22.486-.489v-.488H5.041v.488zM6.5 4.095c-1.877 0-3.405 1.535-3.405 3.421 0 1.163.579 2.185 1.46 2.806v1.104c0 .269.218.489.486.489h2.918c.268 0 .487-.22.487-.489v-1.104a3.424 3.424 0 001.459-2.806c0-1.886-1.528-3.42-3.405-3.42zM7.886 9.52l-.413.293v1.124H5.527V9.813l-.413-.293a2.445 2.445 0 01-1.046-2.004A2.439 2.439 0 016.5 5.073a2.439 2.439 0 012.432 2.443c0 .797-.39 1.545-1.046 2.004z"/>
  </g>
</svg>
