<svg xmlns="http://www.w3.org/2000/svg" width="16" height="17" viewBox="0 0 16 17">
  <g fill-rule="evenodd" transform="translate(-2 -1)">
    <path fill="#FFFFFF" d="M12,5 L8,5 C8,5.55228475 7.55228475,6 7,6 C6.44771525,6 6,5.55228475 6,5 L4,5 L4,8 L16,8 L16,5 L14,5 C14,5.55228475 13.5522847,6 13,6 C12.4477153,6 12,5.55228475 12,5 Z M14,3 L17,3 C17.5522847,3 18,3.44771525 18,4 L18,17 C18,17.5522847 17.5522847,18 17,18 L3,18 C2.44771525,18 2,17.5522847 2,17 L2,4 C2,3.44771525 2.44771525,3 3,3 L6,3 L6,2 C6,1.44771525 6.44771525,1 7,1 C7.55228475,1 8,1.44771525 8,2 L8,3 L12,3 L12,2 C12,1.44771525 12.4477153,1 13,1 C13.5522847,1 14,1.44771525 14,2 L14,3 Z M16,10 L4,10 L4,16 L16,16 L16,10 Z"/>
  </g>
</svg>
