<?xml version="1.0" encoding="UTF-8"?>
<svg width="20px" height="20px" viewBox="0 0 20 20" version="1.1" xmlns="http://www.w3.org/2000/svg" xmlns:xlink="http://www.w3.org/1999/xlink">
    <title>close-circle-20</title>
    <g id="close-circle-20" stroke="none" stroke-width="1" fill-rule="evenodd">
        <path d="M10,0 C15.5228475,0 20,4.4771525 20,10 C20,15.5228475 15.5228475,20 10,20 C4.4771525,20 0,15.5228475 0,10 C0,4.4771525 4.4771525,0 10,0 Z M10,2 C5.581722,2 2,5.581722 2,10 C2,14.418278 5.581722,18 10,18 C14.418278,18 18,14.418278 18,10 C18,5.581722 14.418278,2 10,2 Z M7.07736554,5.67417071 L7.17157288,5.75735931 L10,8.586 L12.8284271,5.75735931 C13.2189514,5.36683502 13.8521164,5.36683502 14.2426407,5.75735931 C14.6031246,6.11784327 14.6308542,6.68507433 14.3258293,7.07736554 L14.2426407,7.17157288 L11.414,10 L14.2426407,12.8284271 C14.633165,13.2189514 14.633165,13.8521164 14.2426407,14.2426407 C13.8821567,14.6031246 13.3149257,14.6308542 12.9226345,14.3258293 L12.8284271,14.2426407 L10,11.414 L7.17157288,14.2426407 C6.78104858,14.633165 6.1478836,14.633165 5.75735931,14.2426407 C5.39687535,13.8821567 5.36914582,13.3149257 5.67417071,12.9226345 L5.75735931,12.8284271 L8.586,10 L5.75735931,7.17157288 C5.36683502,6.78104858 5.36683502,6.1478836 5.75735931,5.75735931 C6.11784327,5.39687535 6.68507433,5.36914582 7.07736554,5.67417071 Z" id="Combined-Shape" fill-rule="nonzero"></path>
    </g>
</svg>
