<?xml version="1.0" encoding="UTF-8"?>
<svg width="18px" height="18px" viewBox="0 0 18 18" version="1.1" xmlns="http://www.w3.org/2000/svg" xmlns:xlink="http://www.w3.org/1999/xlink">
    <!-- Generator: sketchtool 49 (51002) - http://www.bohemiancoding.com/sketch -->
    <title>C84EA82A-FCC4-4A77-800E-3939EAD09123</title>
    <desc>Created with sketchtool.</desc>
    <defs></defs>
    <g id="Symbols" stroke="none" stroke-width="1" fill-rule="evenodd">
        <g id="icon/data-20" transform="translate(-1.000000, -1.000000)" fill="#FFFFFF" fill-rule="nonzero">
            <path d="M9,11 L9,13 L17,13 L17,11 L9,11 Z M7,11 L3,11 L3,13 L7,13 L7,11 Z M9,17 L17,17 L17,15 L9,15 L9,17 Z M7,17 L7,15 L3,15 L3,17 L7,17 Z M9,7 L9,9 L17,9 L17,7 L9,7 Z M7,7 L3,7 L3,9 L7,9 L7,7 Z M9,3 L9,5 L17,5 L17,3 L9,3 Z M7,3 L3,3 L3,5 L7,5 L7,3 Z M3,1 L17,1 C18.1045695,1 19,1.8954305 19,3 L19,17 C19,18.1045695 18.1045695,19 17,19 L3,19 C1.8954305,19 1,18.1045695 1,17 L1,3 C1,1.8954305 1.8954305,1 3,1 Z"></path>
        </g>
    </g>
</svg>
