<?xml version="1.0" encoding="UTF-8" standalone="no"?>
<svg width="20" height="20" viewBox="0 0 20 20" xmlns="http://www.w3.org/2000/svg">
<path fill-rule="evenodd" clip-rule="evenodd" d="M1.42259 0.244078C1.09715 -0.0813592 0.569515 -0.0813592 0.244078 0.244078C-0.0813592 0.569515 -0.0813592 1.09715 0.244078 1.42259L3.80707 4.98558C2.29975 6.28306 1.04196 7.84875 0.099037 9.60598C-0.0289912 9.84458 -0.0331155 10.1305 0.0879774 10.3727L0.833333 10C0.0879774 10.3727 0.0886418 10.374 0.0886418 10.374L0.0896159 10.3759L0.0924918 10.3816L0.101948 10.4002C0.109896 10.4156 0.121131 10.4372 0.135628 10.4646C0.164617 10.5194 0.206686 10.5973 0.261643 10.695C0.371493 10.8903 0.533208 11.1654 0.74528 11.4938C1.16839 12.1489 1.79736 13.0245 2.62122 13.9033C4.25373 15.6446 6.75041 17.5 10 17.5L10.0136 17.4999C11.7373 17.4717 13.4135 16.9613 14.8551 16.0336L18.5774 19.7559C18.9028 20.0814 19.4305 20.0814 19.7559 19.7559C20.0814 19.4305 20.0814 18.9028 19.7559 18.5774L1.42259 0.244078ZM1.78548 10.0026C2.62446 8.54847 3.70859 7.25115 4.98925 6.16776L7.11337 8.29188C7.03044 8.42418 6.95671 8.56244 6.89287 8.70572C6.71069 9.1146 6.61272 9.55599 6.60482 10.0036C6.59693 10.4511 6.67926 10.8957 6.84691 11.3108C7.01456 11.7258 7.26409 12.1029 7.58062 12.4194C7.89714 12.7359 8.27418 12.9854 8.68924 13.1531C9.1043 13.3207 9.54887 13.4031 9.99644 13.3952C10.444 13.3873 10.8854 13.2893 11.2943 13.1071C11.4376 13.0433 11.5758 12.9696 11.7081 12.8866L13.6428 14.8214C12.5364 15.4603 11.2811 15.8111 9.9932 15.8333C7.4126 15.8307 5.32829 14.354 3.83711 12.7634C3.09847 11.9755 2.52953 11.1844 2.14535 10.5896C1.9966 10.3593 1.87637 10.1596 1.78548 10.0026ZM8.27123 10.033C8.27422 9.86332 8.3031 9.69545 8.35658 9.53509L10.4649 11.6434C10.3046 11.6969 10.1367 11.7258 9.96704 11.7288C9.74326 11.7327 9.52097 11.6916 9.31344 11.6077C9.10591 11.5239 8.91739 11.3991 8.75913 11.2409C8.60086 11.0826 8.4761 10.8941 8.39227 10.6866C8.30845 10.479 8.26728 10.2567 8.27123 10.033Z" />
<path d="M18.2042 10.0167C15.8514 6.1381 12.7213 3.53046 8.45733 4.31017C8.0046 4.39295 7.57048 4.09305 7.4877 3.64032C7.40491 3.18759 7.70481 2.75347 8.15754 2.67069C13.6191 1.672 17.3661 5.27109 19.8479 9.51996C20.0232 9.76919 20.0549 10.1058 19.9015 10.3929C19.3683 11.3903 18.7324 12.3294 18.0042 13.1949C17.7079 13.547 17.1822 13.5923 16.83 13.296C16.4779 12.9997 16.4326 12.474 16.7289 12.1218C17.2819 11.4647 17.7755 10.7602 18.2042 10.0167Z" />
</svg>

