<?xml version="1.0" encoding="UTF-8" standalone="no"?>
<svg width="100px" height="100px" viewBox="0 0 100 100" version="1.1" xmlns="http://www.w3.org/2000/svg" xmlns:xlink="http://www.w3.org/1999/xlink">
    <!-- Generator: Sketch 3.8.3 (29802) - http://www.bohemiancoding.com/sketch -->
    <title>download</title>
    <path d="M48.6146237,69.0577089 C48.7941056,69.2368648 49.0184581,69.3712317 49.2428105,69.4608096 L49.287681,69.4608096 C49.5120334,69.5503876 49.7363859,69.5951766 50.0056088,69.5951766 C50.2748317,69.5951766 50.4991842,69.5503876 50.7235366,69.4608096 L50.7684071,69.4608096 C50.9927595,69.3712317 51.217112,69.2368648 51.3965939,69.0577089 L76.9279013,43.5727821 C77.6906996,42.8113695 77.6906996,41.6020672 76.9279013,40.8406546 C76.165103,40.079242 74.9535998,40.079242 74.1908016,40.8406546 L51.8901693,63.0111972 L51.8901693,25.9259259 C51.8901693,24.8509905 51.03763,24 49.9607383,24 C48.8838466,24 48.0313074,24.8509905 48.0313074,25.9259259 L48.0313074,63.0559862 L25.8204161,40.8406546 C25.0576178,40.079242 23.8461146,40.079242 23.0833163,40.8406546 C22.3205181,41.6020672 22.3205181,42.8113695 23.0833163,43.5727821 L48.6146237,69.0577089 Z M24.429431,76 L75.4920457,76 C76.5689374,76 77.4214766,75.1490095 77.4214766,74.0740741 C77.4214766,72.9991387 76.5689374,72.1481481 75.4920457,72.1481481 L24.429431,72.1481481 C23.3525393,72.1481481 22.5,72.9991387 22.5,74.0740741 C22.5,75.1042205 23.3525393,76 24.429431,76 L24.429431,76 Z"></path>
</svg>
