<?xml version="1.0" encoding="UTF-8" standalone="no"?>
<svg width="52px" height="51px" viewBox="0 0 52 51" version="1.1" xmlns="http://www.w3.org/2000/svg" xmlns:xlink="http://www.w3.org/1999/xlink" xmlns:sketch="http://www.bohemiancoding.com/sketch/ns">
    <!-- Generator: Sketch 3.4.3 (16044) - http://www.bohemiancoding.com/sketch -->
    <title>expand</title>
    <path d="M1.7243713,50.7200889 C1.9874281,50.8076567 2.206642,50.8514407 2.4258561,50.8514407 L21.7118791,50.8514407 C22.7202635,50.8514407 23.509434,50.0633298 23.509434,49.0562993 C23.509434,48.0492687 22.7202635,47.2611578 21.7118791,47.2611578 L6.7662934,47.2611578 L22.4067219,31.6405647 C23.1082067,30.9400217 23.1082067,29.8016394 22.4067219,29.1010964 C22.0559795,28.7508249 21.6175514,28.5756892 21.1352807,28.5756892 C20.6968527,28.5756892 20.2145818,28.7508249 19.8638394,29.1010964 L4.2234109,44.7216894 L4.2234109,29.7951414 C4.2234109,28.7881108 3.4342405,28 2.4258561,28 C1.4174717,28 0.6283012,28.7881108 0.6283012,29.7951414 L0.6283012,49.0562993 C0.5844584,49.275219 0.672144,49.4941387 0.7159868,49.7130583 C0.9352008,50.1508977 1.2859433,50.5011692 1.7243713,50.7200889 L1.7243713,50.7200889 L1.7243713,50.7200889 Z M50.4014149,0.1313518 C50.1383581,0.043784 49.9191441,0 49.6999301,0 L30.413907,0 C29.4055226,0 28.6163522,0.788111 28.6163522,1.7951415 C28.6163522,2.802172 29.4055226,3.5902829 30.413907,3.5902829 L45.3594927,3.5902829 L29.7190643,19.210876 C29.0175795,19.911419 29.0175795,21.0498014 29.7190643,21.7503444 C30.0698066,22.1006159 30.5082347,22.2757516 30.9905055,22.2757516 C31.4289335,22.2757516 31.9112043,22.1006159 32.2619467,21.7503444 L47.9023752,6.1297513 L47.9023752,21.0562993 C47.9023752,22.0633299 48.6915457,22.8514408 49.6999301,22.8514408 C50.7083145,22.8514408 51.4974849,22.0633299 51.4974849,21.0562993 L51.4974849,1.7951415 C51.5413278,1.5762218 51.4536421,1.3573021 51.4097994,1.1383825 C51.1905853,0.7005431 50.8398429,0.3502716 50.4014149,0.1313518 L50.4014149,0.1313518 L50.4014149,0.1313518 Z" id="shrink"></path>
</svg>
