<?xml version="1.0" encoding="UTF-8" standalone="no"?>
<svg width="20" height="20" viewBox="0 0 20 20" xmlns="http://www.w3.org/2000/svg">
<path d="M6.42259 4.41058C6.09715 4.08514 5.56951 4.08514 5.24408 4.41058C4.91864 4.73602 4.91864 5.26366 5.24408 5.58909L9.41074 9.75576C9.73618 10.0812 10.2638 10.0812 10.5893 9.75576L14.7559 5.58909C15.0814 5.26366 15.0814 4.73602 14.7559 4.41058C14.4305 4.08514 13.9028 4.08514 13.5774 4.41058L10 7.98799L6.42259 4.41058Z" />
<path d="M6.42259 10.2439C6.09715 9.91848 5.56951 9.91848 5.24408 10.2439C4.91864 10.5694 4.91864 11.097 5.24408 11.4224L9.41074 15.5891C9.73618 15.9145 10.2638 15.9145 10.5893 15.5891L14.7559 11.4224C15.0814 11.097 15.0814 10.5694 14.7559 10.2439C14.4305 9.91848 13.9028 9.91848 13.5774 10.2439L10 13.8213L6.42259 10.2439Z" />
</svg>
