<?xml version="1.0" encoding="UTF-8" standalone="no"?>
<svg width="18px" height="18px" viewBox="0 0 18 18" version="1.1" xmlns="http://www.w3.org/2000/svg" xmlns:xlink="http://www.w3.org/1999/xlink">
    <!-- Generator: Sketch 43.2 (39069) - http://www.bohemiancoding.com/sketch -->
    <title>path-1</title>
    <desc>Created with Sketch.</desc>
    <defs></defs>
    <g id="Page-1" stroke="none" stroke-width="1" fill-rule="evenodd">
        <g id="gallery-20" fill-rule="nonzero">
            <g id="Mask">
                <path d="M2,2 L2,6 L6,6 L6,2 L2,2 Z M1,0 L7,0 C7.55228475,0 8,0.44771525 8,1 L8,7 C8,7.55228475 7.55228475,8 7,8 L1,8 C0.44771525,8 0,7.55228475 0,7 L0,1 C0,0.44771525 0.44771525,0 1,0 Z M11,0 L17,0 C17.5522847,0 18,0.44771525 18,1 L18,7 C18,7.55228475 17.5522847,8 17,8 L11,8 C10.4477153,8 10,7.55228475 10,7 L10,1 C10,0.44771525 10.4477153,0 11,0 Z M12,2 L12,6 L16,6 L16,2 L12,2 Z M1,10 L7,10 C7.55228475,10 8,10.4477153 8,11 L8,17 C8,17.5522847 7.55228475,18 7,18 L1,18 C0.44771525,18 0,17.5522847 0,17 L0,11 C0,10.4477153 0.44771525,10 1,10 Z M2,12 L2,16 L6,16 L6,12 L2,12 Z M11,10 L17,10 C17.5522847,10 18,10.4477153 18,11 L18,17 C18,17.5522847 17.5522847,18 17,18 L11,18 C10.4477153,18 10,17.5522847 10,17 L10,11 C10,10.4477153 10.4477153,10 11,10 Z M12,12 L12,16 L16,16 L16,12 L12,12 Z" id="path-1"></path>
            </g>
        </g>
    </g>
</svg>
