<?xml version="1.0" encoding="UTF-8" standalone="no"?>
<svg width="100px" height="100px" viewBox="0 0 100 100" version="1.1" xmlns="http://www.w3.org/2000/svg" xmlns:xlink="http://www.w3.org/1999/xlink">
    <!-- Generator: Sketch 3.8.3 (29802) - http://www.bohemiancoding.com/sketch -->
    <title>link</title>
    <path d="M37.1900258,44.7016337 L26.1461737,55.7901978 C23.2846088,58.6517627 23.2846088,63.2570937 26.1461737,66.1186586 L33.8813414,73.8538263 C35.2674119,75.2398968 37.1006019,76 39.0679278,76 C41.0352537,76 42.8684437,75.2398968 44.2545142,73.8538263 L55.2536543,62.7652623 C56.6397248,61.3791917 57.399828,59.5460017 57.399828,57.5786758 C57.399828,57.4892519 57.399828,57.44454 57.3551161,57.3551161 C57.44454,57.3551161 57.4892519,57.399828 57.5786758,57.399828 C59.5460017,57.399828 61.3791917,56.6397248 62.7652623,55.2536543 L73.8538263,44.1650903 C76.7153912,41.3035254 76.7153912,36.6981943 73.8538263,33.8366294 L66.1186586,26.1014617 C64.7325881,24.7601032 62.8993981,24 60.9320722,24 C58.9647463,24 57.1762683,24.7601032 55.7901978,26.1461737 L44.7016337,37.1900258 C43.3155632,38.5760963 42.55546,40.4092863 42.55546,42.3766122 C42.55546,42.4660361 42.55546,42.5107481 42.600172,42.600172 C42.5107481,42.600172 42.4660361,42.55546 42.3766122,42.55546 C40.4092863,42.55546 38.5760963,43.3155632 37.1900258,44.7016337 L37.1900258,44.7016337 Z M47.5184867,40.0068788 L58.6070507,28.9183147 C59.2330181,28.2923474 60.0825451,27.9346518 60.9767842,27.9346518 C61.8710232,27.9346518 62.7205503,28.2923474 63.3465176,28.9183147 L71.0816853,36.6534824 C72.3783319,37.950129 72.3783319,40.0515907 71.0816853,41.3482373 L59.9484093,52.4368014 C58.6964746,53.688736 56.505589,53.688736 55.2536543,52.4368014 L52.794497,49.977644 L55.0300946,47.7420464 C55.7901978,46.9819433 55.7901978,45.6852966 55.0300946,44.9251935 C54.2699914,44.1650903 52.9733448,44.1650903 52.2132416,44.9251935 L49.977644,47.1607911 L47.5184867,44.7016337 C46.8925193,44.0756664 46.5348237,43.2261393 46.5348237,42.3319003 C46.5348237,41.4376612 46.8925193,40.6328461 47.5184867,40.0068788 L47.5184867,40.0068788 Z M44.7016337,47.5184867 L47.1607911,49.977644 L44.9251935,52.2132416 C44.1650903,52.9733448 44.1650903,54.2699914 44.9251935,55.0300946 C45.327601,55.4325021 45.8194325,55.61135 46.311264,55.61135 C46.8030954,55.61135 47.3396389,55.4325021 47.6973345,55.0300946 L49.9329321,52.794497 L52.3920894,55.2536543 C53.0180567,55.8796217 53.3757524,56.7291488 53.3757524,57.6233878 C53.3757524,58.5176268 53.0180567,59.3671539 52.3920894,59.9931212 L41.3035254,71.0816853 C40.0515907,72.3336199 37.8607051,72.3336199 36.6087704,71.0816853 L28.9183147,63.3018057 C27.6216681,62.0051591 27.6216681,59.9036973 28.9183147,58.6070507 L40.0068788,47.5184867 C40.6328461,46.8925193 41.4823732,46.5348237 42.3766122,46.5348237 C43.2261393,46.5348237 44.0756664,46.8925193 44.7016337,47.5184867 L44.7016337,47.5184867 Z"></path>
</svg>
