<svg width="20" height="20" viewBox="0 0 20 20" xmlns="http://www.w3.org/2000/svg">
<g id="story-20">
<path id="Combined Shape" fill-rule="evenodd" clip-rule="evenodd" d="M10 0C15.5228 0 20 4.47715 20 10C20 15.5228 15.5228 20 10 20C7.31261 20 4.79154 18.9337 2.92893 17.0711C2.46594 16.6081 2.04906 16.1008 1.68481 15.5567C1.37757 15.0977 1.50055 14.4766 1.95949 14.1694C2.41843 13.8621 3.03954 13.9851 3.34677 14.4441C3.63839 14.8797 3.97228 15.286 4.34315 15.6569C5.8344 17.1481 7.84849 18 10 18C14.4183 18 18 14.4183 18 10C18 5.58172 14.4183 2 10 2C9.44771 2 9 1.55228 9 1C9 0.447715 9.44771 0 10 0ZM1 9C1.55228 9 2 9.44771 2 10C2 10.5295 2.05131 11.0519 2.15228 11.5623C2.25946 12.1041 1.90714 12.6302 1.36536 12.7374C0.823571 12.8446 0.297483 12.4922 0.190305 11.9505C0.0640799 11.3124 0 10.66 0 10C0 9.44771 0.447715 9 1 9ZM3.34677 5.55594C3.65401 5.097 3.53103 4.47589 3.07209 4.16866C2.61315 3.86142 1.99205 3.9844 1.68481 4.44334C1.32054 4.98748 1.01028 5.56634 0.75913 6.17202C0.547584 6.68219 0.789662 7.26725 1.29983 7.47879C1.80999 7.69034 2.39505 7.44826 2.6066 6.9381C2.80731 6.45405 3.05537 5.99122 3.34677 5.55594ZM7.47879 1.29983C7.69034 1.80999 7.44826 2.39505 6.9381 2.6066C6.45405 2.80731 5.99122 3.05537 5.55594 3.34677C5.097 3.65401 4.47589 3.53103 4.16866 3.07209C3.86142 2.61315 3.9844 1.99205 4.44334 1.68481C4.98748 1.32054 5.56634 1.01028 6.17202 0.75913C6.68219 0.547584 7.26725 0.789662 7.47879 1.29983ZM7 5.90212C7 5.50941 7.43197 5.26998 7.765 5.47812L14.3216 9.576C14.6349 9.77184 14.6349 10.2282 14.3216 10.424L7.765 14.5219C7.43198 14.73 7 14.4906 7 14.0979V5.90212Z"/>
</g>
</svg>
