<svg xmlns="http://www.w3.org/2000/svg" width="22" height="21">
    <defs>
        <path id="a" d="M5 6h-.25C3.216 6 2 7.135 2 8.5c0 .74.357 1.432.974 1.908a1 1 0 1 1-1.22 1.584C.654 11.146 0 9.876 0 8.5 0 5.999 2.141 4 4.75 4h.591A6.002 6.002 0 0 1 16.66 4h.591C19.859 4 22 5.999 22 8.5S19.859 13 17.25 13a1 1 0 0 1 0-2C18.784 11 20 9.865 20 8.5S18.784 6 17.25 6H15a4 4 0 1 0-8 0zm0 10v-4a1 1 0 0 1 1-1h4a1 1 0 0 1 1 1v5a1 1 0 0 1-2 0v-4H7v4a1 1 0 0 1-1 1H4a1 1 0 0 1 0-2zm10 0h3a1 1 0 0 1 0 2h-4a1 1 0 0 1-1-1v-5a1 1 0 0 1 2 0zm6 2a1 1 0 1 1 0-2 1 1 0 0 1 0 2m-11 3a1 1 0 1 1 0-2 1 1 0 0 1 0 2m-9-3a1 1 0 1 1 0-2 1 1 0 0 1 0 2"/>
    </defs>
    <use fill-rule="evenodd" href="#a"/>
</svg>
