<svg xmlns="http://www.w3.org/2000/svg" width="20" height="20" viewBox="0 0 20 20">
  <path fill-rule="evenodd" d="M11,2 L18,2 L18,18 L11,18 L11,2 Z M16.4666667,10.4 L16.4666667,10.4 C16.5045695,10.3715729 16.5382395,10.3379028 16.5666667,10.3 C16.7323521,10.0790861 16.6875806,9.76568542 16.4666667,9.6 L16.4666667,9.6 L13.8,7.6 C13.7134519,7.53508894 13.6081851,7.5 13.5,7.5 C13.2238576,7.5 13,7.72385763 13,8 L13,8 L13,12 C13,12.1081851 13.0350889,12.2134519 13.1,12.3 C13.2656854,12.5209139 13.5790861,12.5656854 13.8,12.4 L16.4666667,10.4 Z M9,2 L9,18 L2,18 L2,2 L9,2 Z M3.53333333,10.4 L6.2,12.4 L6.2,12.4 C6.4209139,12.5656854 6.73431458,12.5209139 6.9,12.3 C6.96491106,12.2134519 7,12.1081851 7,12 L7,8 L7,8 C7,7.72385763 6.77614237,7.5 6.5,7.5 C6.39181489,7.5 6.28654809,7.53508894 6.2,7.6 L3.53333333,9.6 L3.53333333,9.6 C3.31241943,9.76568542 3.26764791,10.0790861 3.43333333,10.3 C3.46176046,10.3379028 3.4954305,10.3715729 3.53333333,10.4 L3.53333333,10.4 Z"/>
</svg>
