<svg width="52" height="60" xmlns="http://www.w3.org/2000/svg">
    <title>drag-drop</title>
    <g fill="none" fill-rule="evenodd">
        <path stroke="#FFF" stroke-width="2" d="M7 7h25v21H7zm-1 7h27M6 21h27M15 6.5v22"/>
        <path d="M2 2.997A1 1 0 0 1 3.002 2h32.996A.999.999 0 0 1 37 2.997v45.006a1 1 0 0 1-1.002.997H3.002A.999.999 0 0 1 2 48.003V2.997Zm-2 0v45.006A2.999 2.999 0 0 0 3.002 51h32.996A3 3 0 0 0 39 48.003V2.997A2.999 2.999 0 0 0 35.998 0H3.002A3 3 0 0 0 0 2.997Z" fill="#FFF"/>
        <path d="M12.882 39.617c-1.775 0-3.117 1.266-3.117 2.95 0 1.708 1.308 3 3.067 3 .858 0 1.783-.425 2.408-1.067l-.867-.917c-.408.417-.975.684-1.466.684-.925 0-1.625-.742-1.625-1.717 0-.958.7-1.692 1.625-1.692.516 0 1.083.292 1.466.759l.859-1.017a3.39 3.39 0 0 0-2.35-.983Zm5.275-.017c-1.4 0-2.325.683-2.325 1.758 0 2.067 3.083 1.45 3.083 2.484 0 .333-.292.508-.758.508-.609 0-1.509-.35-2.109-.875l-.575 1.142c.692.566 1.692.933 2.667.933 1.3 0 2.333-.617 2.333-1.783 0-2.109-3.083-1.534-3.083-2.542 0-.283.258-.425.642-.425.475 0 1.25.25 1.866.608l.559-1.158c-.6-.392-1.459-.65-2.3-.65Zm6.333 5.9 2.292-5.833h-1.525l-1.492 4.291-1.492-4.291H20.69l2.267 5.833h1.533Z" fill="#FFF"/>
        <path d="M1.462 34h36.076" stroke="#FFF" stroke-width="2"/>
        <path d="M43.77 41.467a1.33 1.33 0 0 0-1.882 1.876l-.656-.656c-.682-.682-1.798-.67-2.494.026-.696.696-.707 1.812-.026 2.494l-.953-.954c-.682-.681-1.796-.671-2.489.022-.693.693-.703 1.807-.021 2.489l-.737-.737c-.626-.626-1.625-.642-2.23-.036-.607.606-.59 1.604.036 2.23l3.58 3.58c.21.21.168.593-.094.855s-.645.304-.855.093l-2.49-2.49c-.693.696-.701 1.812-.018 2.496l4.222 4.219c.016.016.036.026.052.041.015.017.023.035.04.052 1.407 1.406 6.884.639 8.076 1.83l6.272-6.272c-1.33-1.33-1.49-5.325-3.49-7.326l-2.576-2.576-1.266-1.256Z" stroke="#FFF" stroke-width="1.333" fill="#6B747B"/>
    </g>
</svg>
