<?xml version="1.0" encoding="UTF-8"?>
<svg width="20px" height="20px" viewBox="0 0 20 20" version="1.1" xmlns="http://www.w3.org/2000/svg" xmlns:xlink="http://www.w3.org/1999/xlink">
    <title>Icons/SceneEditor</title>
    <g id="Icons/SceneEditor" stroke="none" stroke-width="1" fill-rule="evenodd">
        <path d="M17.3636364,12.3333333 L19,12.3333333 L19,13.8888889 L17.3636364,13.8888889 L17.3636364,12.3333333 L17.3636364,12.3333333 Z M17.3636364,9.22222222 L19,9.22222222 L19,10.7777778 L17.3636364,10.7777778 L17.3636364,9.22222222 L17.3636364,9.22222222 Z M19,15.4444444 L17.3636364,15.4444444 L17.3636364,17 C18.1818182,17 19,16.2222222 19,15.4444444 L19,15.4444444 Z M10.8181818,3 L12.4545455,3 L12.4545455,4.55555556 L10.8181818,4.55555556 L10.8181818,3 L10.8181818,3 Z M17.3636364,6.11111111 L19,6.11111111 L19,7.66666667 L17.3636364,7.66666667 L17.3636364,6.11111111 L17.3636364,6.11111111 Z M17.3636364,3 L17.3636364,4.55555556 L19,4.55555556 C19,3.77777778 18.1818182,3 17.3636364,3 L17.3636364,3 Z M1,6.11111111 L2.63636364,6.11111111 L2.63636364,7.66666667 L1,7.66666667 L1,6.11111111 L1,6.11111111 Z M14.0909091,3 L15.7272727,3 L15.7272727,4.55555556 L14.0909091,4.55555556 L14.0909091,3 L14.0909091,3 Z M14.0909091,15.4444444 L15.7272727,15.4444444 L15.7272727,17 L14.0909091,17 L14.0909091,15.4444444 L14.0909091,15.4444444 Z M2.63636364,3 C1.81818182,3 1,3.77777778 1,4.55555556 L2.63636364,4.55555556 L2.63636364,3 L2.63636364,3 Z M7.54545455,3 L9.18181818,3 L9.18181818,4.55555556 L7.54545455,4.55555556 L7.54545455,3 L7.54545455,3 Z M4.27272727,3 L5.90909091,3 L5.90909091,4.55555556 L4.27272727,4.55555556 L4.27272727,3 L4.27272727,3 Z M1,9.22222222 L1,15.4444444 C1,16.3 1.73636364,17 2.63636364,17 L12.4545455,17 L12.4545455,9.22222222 L1,9.22222222 L1,9.22222222 Z M2.63636364,15.4444444 L4.68181818,12.9477778 L6.14636364,14.62 L8.19181818,12.1155556 L10.8181818,15.4444444 L2.63636364,15.4444444 L2.63636364,15.4444444 Z" id="Shape"></path>
    </g>
</svg>
