<?xml version="1.0" encoding="UTF-8"?>
<svg width="26px" height="23px" viewBox="0 0 26 23" version="1.1" xmlns="http://www.w3.org/2000/svg" xmlns:xlink="http://www.w3.org/1999/xlink">
    <!-- Generator: Sketch 63.1 (92452) - https://sketch.com -->
    <title>getting-started-icon</title>
    <desc>Created with Sketch.</desc>
    <g id="getting-started-icon" stroke="none" stroke-width="1" fill-rule="evenodd">
        <path d="M19.2239035,0.334056981 C19.2239035,0.334056981 14.8858567,2.39003854 10.5478098,0.902377086 C5.82303784,-0.735722041 3.70445681,-0.0838254493 1.68676059,2.37332324 C1.33366376,2.17273967 0.896496243,2.15602438 0.543399405,2.37332324 C0.00534708042,2.69091389 -0.162794271,3.39295637 0.173488432,3.92784588 L11.6575427,22.4651105 C11.8761265,22.8161317 12.2460375,23 12.6327626,23 C12.8177181,23 13.0363018,22.9498541 13.2212573,22.832847 C13.7424955,22.5152564 13.9106368,21.8132139 13.5911683,21.2783244 L8.47967119,13.0376829 C10.4973674,10.5972495 12.6159484,9.94535288 17.3407204,11.5667367 C21.6787673,13.0711135 26,11.0151319 26,11.0151319 L19.2239035,0.334056981 Z" id="flag"></path>
    </g>
</svg>