<?xml version="1.0" encoding="UTF-8" standalone="no"?>
<svg width="20" height="20" xmlns="http://www.w3.org/2000/svg">
  <g fill-rule="evenodd">
    <path d="M9.994 0C4.47 0 0 4.472 0 9.999 0 15.525 4.47 20 9.994 20 15.517 20 20 15.525 20 9.999 20 4.472 15.517 0 9.994 0M10 18c-4.408 0-8-3.59-8-8.001C2 5.592 5.592 2 10 2c4.408 0 8 3.592 8 7.999C18 14.409 14.408 18 10 18"/>
    <path d="M10.862 12.296c0-.936.234-1.183.793-1.586 1.001-.715 1.573-1.339 1.573-2.392 0-2.548-2.548-2.769-3.328-2.769-1.417 0-3.12.78-3.12 3.042h1.833v-.013c.065-.611.234-1.495 1.404-1.495.546 0 1.261.273 1.261 1.287 0 .533-.299.936-.806 1.287-1.196.845-1.326 1.391-1.326 2.639h1.716zm.13 2.704v-1.833H9.094V15h1.898z" fill-rule="nonzero"/>
  </g>
</svg>
