<?xml version="1.0" encoding="UTF-8"?>
<svg width="20" height="20" xmlns="http://www.w3.org/2000/svg">
  <path d="M10 0C4.488 0 0 4.488 0 10s4.488 10 10 10 10-4.488 10-10S15.512 0 10 0zm3.413 1.938l-.976 2.3a6.337 6.337 0 00-4.874 0l-.975-2.3a8.85 8.85 0 016.825 0zm-9.175 10.5l-2.3.975A8.85 8.85 0 011.25 10a8.85 8.85 0 01.688-3.412l2.3.974A6.24 6.24 0 003.75 10c0 .85.162 1.663.488 2.438zM10 18.75a8.67 8.67 0 01-3.412-.688l.974-2.3c1.55.65 3.325.65 4.875 0l.976 2.3A8.67 8.67 0 0110 18.75zM10 15c-2.762 0-5-2.238-5-5s2.238-5 5-5 5 2.238 5 5-2.238 5-5 5zm5.762-2.563A6.24 6.24 0 0016.25 10a6.24 6.24 0 00-.488-2.438l2.3-.974A8.85 8.85 0 0118.75 10a8.85 8.85 0 01-.688 3.413l-2.3-.976z" fill-rule="evenodd"/>
</svg>
