<?xml version="1.0" encoding="UTF-8" standalone="no"?>
<svg width="95px" height="95px" viewBox="0 0 95 95" version="1.1" xmlns="http://www.w3.org/2000/svg" xmlns:xlink="http://www.w3.org/1999/xlink" xmlns:sketch="http://www.bohemiancoding.com/sketch/ns">
    <!-- Generator: Sketch 3.4.3 (16044) - http://www.bohemiancoding.com/sketch -->
    <title>line-chart</title>
    <path d="M8.70973308,9.55172414 L8.70973308,34.1206897 L14.2844827,34.1206897 C16.0936914,34.1206897 17.5603449,35.587343 17.5603449,37.3965517 C17.5603449,39.2057604 16.0936914,40.6724139 14.2844827,40.6724139 L8.70973308,40.6724139 L8.70973308,65.2413793 L14.2844827,65.2413793 C16.0936914,65.2413793 17.5603449,66.7080328 17.5603449,68.5172414 C17.5603449,70.3264501 16.0936914,71.7931034 14.2844827,71.7931034 L8.70973308,71.7931034 L8.70973308,91.2902669 L93.6451335,91.2902669 C95.5271317,91.2902669 97,92.7631352 97,94.6451335 C97,96.5271317 95.5271317,98 93.6451335,98 L5.35486654,98 C3.47286831,98 2,96.5271317 2,94.6451335 L2,6.35486654 C2,4.47286831 3.47286831,3 5.35486654,3 C5.48233827,3 5.6079332,3.00675706 5.73132066,3.0199405 C5.85067501,3.00676418 5.97196133,3 6.09482757,3 L14.2844827,3 C16.0936914,3 17.5603449,4.46665348 17.5603449,6.27586198 C17.5603449,8.08507066 16.0936914,9.55172414 14.2844827,9.55172414 L8.70973308,9.55172414 L8.70973308,9.55172414 Z M44.7942486,50.500076 L59.188643,59.0842764 C60.6746426,59.9638112 62.5882088,59.5388313 63.5622056,58.1129609 L89.877419,19.5891397 C90.897909,18.0952066 90.5141074,16.0568639 89.0201743,15.0363739 C87.526241,14.0158841 85.4878984,14.3996858 84.4674085,15.8936189 L59.1886428,51.7251627 L45.9168667,43.6156383 C44.3774009,42.7044577 42.3916334,43.1967776 41.4561045,44.7215696 L18.8629675,81.5454762 C17.916824,83.0875685 18.3999359,85.1046821 19.9420279,86.0508256 C21.4841202,86.9969692 23.5012338,86.5138573 24.4473774,84.971765 L44.7942486,50.500076 L44.7942486,50.500076 Z" id="Shape"></path>
</svg>
