<svg width="20" height="20" viewBox="0 0 20 20" fill="none" xmlns="http://www.w3.org/2000/svg">
<path fill-rule="evenodd" clip-rule="evenodd" d="M16.5 2C16.2239 2 16 2.22386 16 2.5V4L14.5 4C14.2239 4 14 4.22386 14 4.5V5.5C14 5.77614 14.2239 6 14.5 6H16V7.5C16 7.77614 16.2239 8 16.5 8H17.5C17.7761 8 18 7.77614 18 7.5V6H19.5C19.7761 6 20 5.77614 20 5.5V4.5C20 4.22386 19.7761 4 19.5 4L18 4V2.5C18 2.22386 17.7761 2 17.5 2H16.5ZM6.5 6C6.22386 6 6 5.77614 6 5.5V4.5C6 4.22386 6.22386 4 6.5 4L11.5 4C11.7761 4 12 4.22386 12 4.5V5.5C12 5.77614 11.7761 6 11.5 6L6.5 6ZM2 5.5C2 5.77614 2.22386 6 2.5 6H3.5C3.77614 6 4 5.77614 4 5.5V4.5C4 4.22386 3.77614 4 3.5 4H2.5C2.22386 4 2 4.22386 2 4.5V5.5ZM2.5 11C2.22386 11 2 10.7761 2 10.5V9.5C2 9.22386 2.22386 9 2.5 9H3.5C3.77614 9 4 9.22386 4 9.5V10.5C4 10.7761 3.77614 11 3.5 11H2.5ZM2 15.5C2 15.7761 2.22386 16 2.5 16H3.5C3.77614 16 4 15.7761 4 15.5V14.5C4 14.2239 3.77614 14 3.5 14H2.5C2.22386 14 2 14.2239 2 14.5V15.5ZM6.5 11C6.22386 11 6 10.7761 6 10.5V9.5C6 9.22386 6.22386 9 6.5 9L14.5 9C14.7761 9 15 9.22386 15 9.5V10.5C15 10.7761 14.7761 11 14.5 11H6.5ZM6 15.5C6 15.7761 6.22386 16 6.5 16H14.5C14.7761 16 15 15.7761 15 15.5V14.5C15 14.2239 14.7761 14 14.5 14H6.5C6.22386 14 6 14.2239 6 14.5V15.5Z" fill="#111827"/>
</svg>
