<?xml version="1.0" encoding="UTF-8"?>
<svg xmlns="http://www.w3.org/2000/svg" width="52" height="52">
  <circle cx="25.74" cy="36.824" r="3.189"/>
  <path fill-rule="evenodd" d="M18.66 18.176c.6.638 1.51.85 2.594.432 1.083-.417 1.41-1.492 2.378-2.27 1.022-.821 3.868-.96 4.865.324 1.39 1.79 1.166 3.971 0 5.297-1.483 1.686-2.601 2.756-4 3.784-.95.698-1.824 2.142-1.405 3.243.395 1.04 2.035 1.91 3.027 1.406 1.51-.768 6.023-4.966 7.459-8.433.677-1.634.843-3.606.324-5.297-.519-1.695-1.748-3.262-3.243-4.216-1.525-.974-3.493-1.33-5.297-1.19-1.468.115-2.907.771-4.108 1.622-1.168.827-2.382 1.879-2.811 3.243-.207.657-.256 1.553.216 2.055z"/>
</svg>
