<svg xmlns="http://www.w3.org/2000/svg" width="49" height="48" viewBox="0 0 49 48">
  <g>
    <polygon points="38.097 34.47 38.097 48 42.681 48 42.681 34.47"/>
    <polygon points="38.097 0 38.097 22.518 42.681 22.518 42.681 0"/>
    <path d="M40.3888889,35.85 C45.0296149,35.85 48.7916667,32.1563493 48.7916667,27.6 C48.7916667,23.0436508 45.0296149,19.35 40.3888889,19.35 C35.7481629,19.35 31.9861111,23.0436508 31.9861111,27.6 C31.9861111,32.1563493 35.7481629,35.85 40.3888889,35.85 Z M40.3888889,31.35 C38.279468,31.35 36.5694444,29.6710678 36.5694444,27.6 C36.5694444,25.5289322 38.279468,23.85 40.3888889,23.85 C42.4983098,23.85 44.2083333,25.5289322 44.2083333,27.6 C44.2083333,29.6710678 42.4983098,31.35 40.3888889,31.35 Z"/>
    <polygon points="22.208 0 22.208 7.65 26.792 7.65 26.792 0"/>
    <polygon points="22.208 19.461 22.208 48 26.792 48 26.792 19.461"/>
    <path d="M24.5,22.05 C29.140726,22.05 32.9027778,18.3563492 32.9027778,13.8 C32.9027778,9.24365082 29.140726,5.55 24.5,5.55 C19.859274,5.55 16.0972222,9.24365082 16.0972222,13.8 C16.0972222,18.3563492 19.859274,22.05 24.5,22.05 Z M24.5,17.55 C22.3905791,17.55 20.6805556,15.8710678 20.6805556,13.8 C20.6805556,11.7289322 22.3905791,10.05 24.5,10.05 C26.6094209,10.05 28.3194444,11.7289322 28.3194444,13.8 C28.3194444,15.8710678 26.6094209,17.55 24.5,17.55 Z"/>
    <polygon points="6.319 40.446 6.319 48 10.903 48 10.903 40.446"/>
    <polygon points="6.319 0 6.319 28.515 10.903 28.515 10.903 0"/>
    <path d="M8.61111111,43.05 C13.2518371,43.05 17.0138889,39.3563493 17.0138889,34.8 C17.0138889,30.2436507 13.2518371,26.55 8.61111111,26.55 C3.97038509,26.55 0.208333333,30.2436507 0.208333333,34.8 C0.208333333,39.3563493 3.97038509,43.05 8.61111111,43.05 Z M8.61111111,38.55 C6.50169018,38.55 4.79166667,36.8710677 4.79166667,34.8 C4.79166667,32.7289323 6.50169018,31.05 8.61111111,31.05 C10.720532,31.05 12.4305556,32.7289323 12.4305556,34.8 C12.4305556,36.8710677 10.720532,38.55 8.61111111,38.55 Z"/>
  </g>
</svg>
