<svg xmlns="http://www.w3.org/2000/svg" width="20" height="20" viewBox="0 0 20 20">
  <path fill-rule="evenodd" d="M8.46666667,9.6 L8.46666667,9.6 C8.5045695,9.62842712 8.53823954,9.66209717 8.56666667,9.7 C8.73235209,9.9209139 8.68758057,10.2343146 8.46666667,10.4 L5.8,12.4 C5.71345191,12.4649111 5.60818511,12.5 5.5,12.5 C5.22385763,12.5 5,12.2761424 5,12 L5,8 C5,7.89181489 5.03508894,7.78654809 5.1,7.7 C5.26568542,7.4790861 5.5790861,7.43431458 5.8,7.6 L8.46666667,9.6 Z M11.5333333,10.4 L11.5333333,10.4 C11.4954305,10.3715729 11.4617605,10.3379028 11.4333333,10.3 C11.2676479,10.0790861 11.3124194,9.76568542 11.5333333,9.6 L14.2,7.6 C14.2865481,7.53508894 14.3918149,7.5 14.5,7.5 C14.7761424,7.5 15,7.72385763 15,8 L15,12 C15,12.1081851 14.9649111,12.2134519 14.9,12.3 C14.7343146,12.5209139 14.4209139,12.5656854 14.2,12.4 L11.5333333,10.4 Z M16,16 L16,4 L11,4 L11,2 L18,2 L18,18 L11,18 L11,16 L16,16 Z M4,16 L9,16 L9,18 L2,18 L2,2 L9,2 L9,4 L4,4 L4,16 Z"/>
</svg>
