<?xml version="1.0" encoding="UTF-8" standalone="no"?>
<svg width="16px" height="10px" viewBox="0 0 16 10" fill="none" xmlns="http://www.w3.org/2000/svg">
<path fill-rule="evenodd" clip-rule="evenodd" d="M10.2097 1.6129C9.90468 1.22061 9.93241 0.653377 10.2929 0.292893C10.6834 -0.0976313 11.3166 -0.0976313 11.7071 0.292893L15.7071 4.29289L15.7903 4.3871C16.0953 4.77939 16.0676 5.34662 15.7071 5.70711L11.7071 9.70711L11.6129 9.7903C11.2206 10.0953 10.6534 10.0676 10.2929 9.70711L10.2097 9.6129C9.90468 9.22061 9.93241 8.65338 10.2929 8.29289L13.585 5L10.2929 1.70711L10.2097 1.6129ZM5.7903 1.6129C6.09532 1.22061 6.06759 0.653377 5.70711 0.292893C5.31658 -0.0976315 4.68342 -0.0976316 4.29289 0.292893L0.292893 4.29289L0.209704 4.3871C-0.09532 4.77939 -0.0675909 5.34662 0.292893 5.70711L4.29289 9.70711L4.3871 9.7903C4.77939 10.0953 5.34662 10.0676 5.70711 9.70711L5.7903 9.6129C6.09532 9.22061 6.06759 8.65338 5.70711 8.29289L2.415 5L5.70711 1.70711L5.7903 1.6129Z" fill="white"/>
</svg>

