<svg xmlns="http://www.w3.org/2000/svg" width="18" height="17" viewBox="0 0 18 17">
  <g fill="none" fill-rule="evenodd" transform="translate(-1 -1)">
    <path fill="#FFFFFF" d="M1,11 L3,11 L3,18 L1,18 L1,11 Z M5,14 L7,14 L7,18 L5,18 L5,14 Z M9,14 L11,14 L11,18 L9,18 L9,14 Z M13,14 L15,14 L15,18 L13,18 L13,14 Z M17,11 L19,11 L19,18 L17,18 L17,11 Z M14.1055728,5.4472136 L7.7236068,8.6381966 C7.47661755,8.76169123 7.17628103,8.66157905 7.0527864,8.4145898 C7.01807255,8.34516209 7,8.26860555 7,8.19098301 L7,1.80901699 C7,1.53287462 7.22385763,1.30901699 7.5,1.30901699 C7.57762255,1.30901699 7.65417908,1.32708954 7.7236068,1.3618034 L14.1055728,4.5527864 C14.3525621,4.67628103 14.4526742,4.97661755 14.3291796,5.2236068 C14.2807978,5.3203705 14.2023365,5.39883174 14.1055728,5.4472136 Z"/>
  </g>
</svg>
