<?xml version="1.0" encoding="UTF-8"?>
<svg width="22px" height="15px" viewBox="0 0 22 15" version="1.1" xmlns="http://www.w3.org/2000/svg" xmlns:xlink="http://www.w3.org/1999/xlink">
  <title>Shape</title>
  <g id="TerriaJS" stroke="none" stroke-width="1" fill-rule="evenodd">
    <g id="Stories-6" transform="translate(-1215.000000, -300.000000)" stroke="nonzero" stroke-width="2">
      <g id="Group-4" transform="translate(1208.000000, 286.000000)">
        <g id="Icon-24px" transform="translate(6.000000, 9.000000)">
          <path d="M12,6 C14.2535324,6 16.3451538,6.69003743 18.0767808,7.87069219 C19.7544232,9.01453928 21.094618,10.6181748 21.9172081,12.5002279 C21.0944439,14.3820335 19.7543142,15.985535 18.0767808,17.1293078 C16.3451538,18.3099626 14.2535324,19 12,19 C9.74646762,19 7.65484615,18.3099626 5.92321917,17.1293078 C4.24557677,15.9854607 2.90538197,14.3818252 2.08279193,12.4997721 C2.90555609,10.6179665 4.24568575,9.01446498 5.92321917,7.87069219 C7.65484615,6.69003743 9.74646762,6 12,6 Z M12,9.5 C11.17,9.5 10.4202927,9.83549372 9.87789322,10.3778932 C9.33549372,10.9202927 9,11.67 9,12.5 C9,13.33 9.33549372,14.0797073 9.87789322,14.6221068 C10.4202927,15.1645063 11.17,15.5 12,15.5 C12.83,15.5 13.5797073,15.1645063 14.1221068,14.6221068 C14.6645063,14.0797073 15,13.33 15,12.5 C15,11.67 14.6645063,10.9202927 14.1221068,10.3778932 C13.5797073,9.83549372 12.83,9.5 12,9.5 Z" id="Shape"></path>
        </g>
      </g>
    </g>
  </g>
</svg>