<svg width="24" height="24" viewBox="0 0 24 24" fill="none" xmlns="http://www.w3.org/2000/svg">
<path fill-rule="evenodd" clip-rule="evenodd" d="M13.2992 3.75298C12.7219 2.75242 11.2779 2.75242 10.7006 3.75298L3.34631 16.5005C2.76938 17.5005 3.4911 18.7501 4.64559 18.7501H19.3542C20.5087 18.7501 21.2304 17.5005 20.6535 16.5005L13.2992 3.75298ZM9.40136 3.0034C10.5558 1.00229 13.444 1.00229 14.5985 3.0034L21.9528 15.7509C23.1066 17.7509 21.6632 20.2501 19.3542 20.2501H4.64559C2.33661 20.2501 0.893183 17.7509 2.04703 15.7509L9.40136 3.0034ZM11.9999 8.25006C12.4141 8.25006 12.7499 8.58585 12.7499 9.00006V12.7501C12.7499 13.1643 12.4141 13.5001 11.9999 13.5001C11.5857 13.5001 11.2499 13.1643 11.2499 12.7501V9.00006C11.2499 8.58585 11.5857 8.25006 11.9999 8.25006ZM11.2499 15.7501C11.2499 15.3359 11.5857 15.0001 11.9999 15.0001H12.0074C12.4216 15.0001 12.7574 15.3359 12.7574 15.7501V15.7576C12.7574 16.1718 12.4216 16.5076 12.0074 16.5076H11.9999C11.5857 16.5076 11.2499 16.1718 11.2499 15.7576V15.7501Z" fill="#EA580C"/>
</svg>

