<svg width="19" height="20" viewBox="0 0 19 20"  xmlns="http://www.w3.org/2000/svg">
<path d="M5.50235 0.812988L0.468475 5.84682L5.50235 10.8806V7.52476H11.3752C13.7119 7.52476 15.5701 9.38298 15.5701 11.7196C15.5701 14.0563 13.7119 15.9145 11.3752 15.9145H8.85826C8.63592 15.9113 8.41516 15.9524 8.20882 16.0353C8.00249 16.1182 7.81469 16.2413 7.65634 16.3975C7.49799 16.5536 7.37225 16.7396 7.28643 16.9448C7.2006 17.1499 7.15641 17.37 7.15641 17.5924C7.15641 17.8148 7.2006 18.0349 7.28643 18.2401C7.37225 18.4452 7.49799 18.6313 7.65634 18.7874C7.81469 18.9435 8.00249 19.0666 8.20882 19.1495C8.41516 19.2324 8.63592 19.2735 8.85826 19.2704H11.3752C15.297 19.2704 18.4487 16.2014 18.7949 12.3652C18.8808 12.1608 18.9254 11.9414 18.926 11.7196C18.926 7.56933 15.5255 4.16887 11.3752 4.16887H5.50235V0.812988Z" />
</svg>
