<svg width="30" height="30" viewBox="0 0 30 30" fill="none" xmlns="http://www.w3.org/2000/svg">
<path d="M14.6957 13.6957V13.3913H15.3043V22.1739V22.4783H14.6957V22.1739V13.6957ZM14.3236 7.14972C14.503 6.97034 14.7463 6.86957 15 6.86957C15.2537 6.86957 15.497 6.97034 15.6764 7.14972C15.8557 7.32911 15.9565 7.5724 15.9565 7.82609C15.9565 8.07977 15.8557 8.32307 15.6764 8.50245C15.497 8.68183 15.2537 8.78261 15 8.78261C14.7463 8.78261 14.503 8.68183 14.3236 8.50245C14.1443 8.32307 14.0435 8.07977 14.0435 7.82609C14.0435 7.5724 14.1443 7.32911 14.3236 7.14972Z" fill="#0C70A7" stroke="#0C70A7" stroke-width="2"/>
</svg>
