<svg width="17" height="17" viewBox="0 0 17 17" fill="none" xmlns="http://www.w3.org/2000/svg">
<path d="M8.4893 1.41658C8.30505 1.41933 8.12912 1.49377 7.99886 1.6241L6.58219 3.04076C6.51421 3.10603 6.45993 3.18421 6.42255 3.27072C6.38516 3.35723 6.3654 3.45032 6.36444 3.54456C6.36348 3.6388 6.38134 3.73228 6.41696 3.81953C6.45258 3.90678 6.50525 3.98605 6.57189 4.05269C6.63853 4.11933 6.7178 4.172 6.80505 4.20762C6.8923 4.24324 6.98578 4.2611 7.08002 4.26014C7.17426 4.25918 7.26735 4.23943 7.35386 4.20204C7.44037 4.16465 7.51855 4.11037 7.58382 4.04239L8.49967 3.12654L9.41552 4.04239C9.48079 4.11037 9.55897 4.16465 9.64548 4.20204C9.73199 4.23943 9.82508 4.25918 9.91932 4.26014C10.0136 4.2611 10.107 4.24324 10.1943 4.20762C10.2815 4.172 10.3608 4.11933 10.4274 4.05269C10.4941 3.98605 10.5468 3.90678 10.5824 3.81953C10.618 3.73228 10.6359 3.6388 10.6349 3.54456C10.6339 3.45032 10.6142 3.35723 10.5768 3.27072C10.5394 3.18421 10.4851 3.10603 10.4172 3.04076L9.00048 1.6241C8.93349 1.55707 8.85373 1.50417 8.76592 1.46853C8.67812 1.43288 8.58405 1.41522 8.4893 1.41658ZM2.12467 5.31241C2.03081 5.31108 1.93762 5.32842 1.85052 5.36343C1.76341 5.39843 1.68414 5.45039 1.61729 5.5163C1.55045 5.5822 1.49737 5.66074 1.46114 5.74734C1.42491 5.83394 1.40625 5.92687 1.40625 6.02074C1.40625 6.11462 1.42491 6.20755 1.46114 6.29415C1.49737 6.38075 1.55045 6.45928 1.61729 6.52519C1.68414 6.5911 1.76341 6.64306 1.85052 6.67806C1.93762 6.71306 2.03081 6.7304 2.12467 6.72908H14.8747C14.9685 6.7304 15.0617 6.71306 15.1488 6.67806C15.2359 6.64306 15.3152 6.5911 15.3821 6.52519C15.4489 6.45928 15.502 6.38075 15.5382 6.29415C15.5744 6.20755 15.5931 6.11462 15.5931 6.02074C15.5931 5.92687 15.5744 5.83394 15.5382 5.74734C15.502 5.66074 15.4489 5.5822 15.3821 5.5163C15.3152 5.45039 15.2359 5.39843 15.1488 5.36343C15.0617 5.32842 14.9685 5.31108 14.8747 5.31241H2.12467ZM2.12467 7.79158C2.03081 7.79025 1.93762 7.80759 1.85052 7.84259C1.76341 7.87759 1.68414 7.92956 1.61729 7.99546C1.55045 8.06137 1.49737 8.1399 1.46114 8.2265C1.42491 8.3131 1.40625 8.40604 1.40625 8.49991C1.40625 8.59378 1.42491 8.68672 1.46114 8.77332C1.49737 8.85992 1.55045 8.93845 1.61729 9.00436C1.68414 9.07026 1.76341 9.12223 1.85052 9.15723C1.93762 9.19223 2.03081 9.20957 2.12467 9.20824H14.8747C14.9685 9.20957 15.0617 9.19223 15.1488 9.15723C15.2359 9.12223 15.3152 9.07026 15.3821 9.00436C15.4489 8.93845 15.502 8.85992 15.5382 8.77332C15.5744 8.68672 15.5931 8.59378 15.5931 8.49991C15.5931 8.40604 15.5744 8.3131 15.5382 8.2265C15.502 8.1399 15.4489 8.06137 15.3821 7.99546C15.3152 7.92956 15.2359 7.87759 15.1488 7.84259C15.0617 7.80759 14.9685 7.79025 14.8747 7.79158H2.12467ZM2.12467 10.2707C2.03081 10.2694 1.93762 10.2868 1.85052 10.3218C1.76341 10.3568 1.68414 10.4087 1.61729 10.4746C1.55045 10.5405 1.49737 10.6191 1.46114 10.7057C1.42491 10.7923 1.40625 10.8852 1.40625 10.9791C1.40625 11.0729 1.42491 11.1659 1.46114 11.2525C1.49737 11.3391 1.55045 11.4176 1.61729 11.4835C1.68414 11.5494 1.76341 11.6014 1.85052 11.6364C1.93762 11.6714 2.03081 11.6887 2.12467 11.6874H14.8747C14.9685 11.6887 15.0617 11.6714 15.1488 11.6364C15.2359 11.6014 15.3152 11.5494 15.3821 11.4835C15.4489 11.4176 15.502 11.3391 15.5382 11.2525C15.5744 11.1659 15.5931 11.0729 15.5931 10.9791C15.5931 10.8852 15.5744 10.7923 15.5382 10.7057C15.502 10.6191 15.4489 10.5405 15.3821 10.4746C15.3152 10.4087 15.2359 10.3568 15.1488 10.3218C15.0617 10.2868 14.9685 10.2694 14.8747 10.2707H2.12467ZM9.91011 12.7395C9.72293 12.744 9.54511 12.8223 9.41552 12.9574L8.49967 13.8733L7.58382 12.9574C7.51773 12.8895 7.43867 12.8355 7.35134 12.7987C7.26401 12.7618 7.17018 12.7429 7.0754 12.743C6.93454 12.7432 6.79694 12.7853 6.68017 12.8641C6.56339 12.9428 6.47274 13.0546 6.41981 13.1851C6.36687 13.3157 6.35404 13.459 6.38297 13.5969C6.41189 13.7347 6.48125 13.8608 6.58219 13.9591L7.99886 15.3757C8.1317 15.5085 8.31184 15.5831 8.49967 15.5831C8.6875 15.5831 8.86764 15.5085 9.00048 15.3757L10.4172 13.9591C10.5202 13.8602 10.591 13.7325 10.6203 13.5928C10.6495 13.453 10.6358 13.3076 10.581 13.1758C10.5262 13.0439 10.4328 12.9317 10.313 12.8539C10.1933 12.776 10.0529 12.7362 9.91011 12.7395Z" fill="black"/>
</svg>
