<?xml version="1.0" encoding="UTF-8"?>
<svg width="56px" height="65px" viewBox="0 0 56 65" version="1.1" xmlns="http://www.w3.org/2000/svg" xmlns:xlink="http://www.w3.org/1999/xlink">
    <title>graphic/mouse-control</title>
    <g id="graphic/mouse-control" stroke="none" stroke-width="1" fill="none" fill-rule="evenodd">
        <path d="M28,12 C36.836556,12 44,19.163444 44,28 L44,48 C44,56.836556 36.836556,64 28,64 C19.163444,64 12,56.836556 12,48 L12,28 C12,19.163444 19.163444,12 28,12 Z M28,14 L28,22.7586207 C25.0544813,22.7586207 22.6666667,25.1464354 22.6666667,28.091954 L22.6666667,38 L14,38 L14,48 C14,55.7319865 20.2680135,62 28,62 C35.6275002,62 41.8303269,55.9002476 41.996578,48.312645 L42,48 L42,28 C42,20.2680135 35.7319865,14 28,14 Z M28,25 C29.6568542,25 31,26.3431458 31,28 L31,34 C31,35.6568542 29.6568542,37 28,37 C26.3431458,37 25,35.6568542 25,34 L25,28 C25,26.3431458 26.3431458,25 28,25 Z M50.6128994,27.2097046 L50.7071068,27.2928932 L54.7071068,31.2928932 C54.7355731,31.3213595 54.7623312,31.3515341 54.787214,31.3832499 L54.7071068,31.2928932 C54.7425008,31.3282873 54.774687,31.3656744 54.8036654,31.4046934 C54.8215099,31.4288693 54.8382813,31.453725 54.8539326,31.4793398 C54.8613931,31.4913869 54.8685012,31.5036056 54.8753288,31.5159379 C54.8862061,31.5357061 54.8966234,31.5561086 54.9063462,31.5769009 C54.914321,31.5939015 54.9218036,31.6112044 54.9287745,31.628664 C54.9366843,31.6484208 54.9438775,31.6682023 54.9504533,31.6882636 C54.9552713,31.7031487 54.9599023,31.7185367 54.9641549,31.734007 C54.9701664,31.7555635 54.9753602,31.7772539 54.9798348,31.7992059 C54.9832978,31.8166247 54.9863719,31.834051 54.9889822,31.8515331 C54.9920328,31.8714753 54.9944666,31.892114 54.9962623,31.912935 C54.9978436,31.9317345 54.9989053,31.9497336 54.9994829,31.9677454 C54.9998183,31.9777892 55,31.9888734 55,32 L54.9994506,32.0332468 C54.9988772,32.050591 54.997855,32.0679231 54.996384,32.0852242 L55,32 C55,32.0506203 54.9962388,32.1003621 54.9889807,32.1489612 C54.9863719,32.165949 54.9832978,32.1833753 54.9797599,32.2007258 C54.9753602,32.2227461 54.9701664,32.2444365 54.964279,32.2658396 C54.9599023,32.2814633 54.9552713,32.2968513 54.9502619,32.3121425 C54.9438775,32.3317977 54.9366843,32.3515792 54.928896,32.3710585 C54.9218036,32.3887956 54.914321,32.4060985 54.9063266,32.4232215 C54.8966234,32.4438914 54.8862061,32.4642939 54.8751242,32.484277 C54.8685012,32.4963944 54.8613931,32.5086131 54.8540045,32.5207088 C54.8382813,32.546275 54.8215099,32.5711307 54.8036865,32.5951593 C54.7992821,32.6012086 54.7948255,32.6070733 54.7902954,32.6128994 C54.7849289,32.6196628 54.7826279,32.6225624 54.7803112,32.625449 L54.7071068,32.7071068 L50.7071068,36.7071068 C50.3165825,37.0976311 49.6834175,37.0976311 49.2928932,36.7071068 C48.9324093,36.3466228 48.9046797,35.7793918 49.2097046,35.3871006 L49.2928932,35.2928932 L51.585,33 L48,33 C47.4477153,33 47,32.5522847 47,32 C47,31.4871642 47.3860402,31.0644928 47.8833789,31.0067277 L48,31 L51.585,31 L49.2928932,28.7071068 C48.9324093,28.3466228 48.9046797,27.7793918 49.2097046,27.3871006 L49.2928932,27.2928932 C49.6533772,26.9324093 50.2206082,26.9046797 50.6128994,27.2097046 Z M5.38710056,27.2097046 C5.77939176,26.9046797 6.34662282,26.9324093 6.70710678,27.2928932 L6.70710678,27.2928932 L6.79029539,27.3871006 C7.09532028,27.7793918 7.06759074,28.3466228 6.70710678,28.7071068 L6.70710678,28.7071068 L4.414,31 L8,31 L8.11662113,31.0067277 C8.61395981,31.0644928 9,31.4871642 9,32 C9,32.5522847 8.55228475,33 8,33 L8,33 L4.414,33 L6.70710678,35.2928932 L6.79029539,35.3871006 C7.09532028,35.7793918 7.06759074,36.3466228 6.70710678,36.7071068 C6.31658249,37.0976311 5.68341751,37.0976311 5.29289322,36.7071068 L5.29289322,36.7071068 L1.29289322,32.7071068 L1.21968877,32.625449 C1.2173721,32.6225624 1.21507113,32.6196628 1.21278596,32.6167501 C1.20517454,32.6070733 1.20071786,32.6012086 1.19633458,32.5953066 C1.17849009,32.5711307 1.1617187,32.546275 1.14606743,32.5206602 C1.13860692,32.5086131 1.13149883,32.4963944 1.12467117,32.4840621 C1.11379392,32.4642939 1.10337664,32.4438914 1.09365378,32.4230991 C1.08567905,32.4060985 1.07819642,32.3887956 1.07122549,32.371336 C1.06331574,32.3515792 1.05612249,32.3317977 1.04954668,32.3117364 C1.04472872,32.2968513 1.04009773,32.2814633 1.03584514,32.265993 C1.02983363,32.2444365 1.0246398,32.2227461 1.02016515,32.2007941 C1.01670217,32.1833753 1.01362808,32.165949 1.0110178,32.1484669 C1.00376119,32.1003621 1,32.0506203 1,32 L1.00361597,32.0852242 C1.00175227,32.0633046 1.000609,32.0413352 1.00018615,32.0193545 L1,32 C1,31.9935938 1.00006024,31.9872016 1.00018018,31.980824 C1.00059932,31.9579802 1.0018656,31.9343349 1.00396641,31.9107499 C1.00576612,31.890153 1.00811223,31.8705042 1.01101934,31.8510388 C1.01362808,31.834051 1.01670217,31.8166247 1.02024007,31.7992742 C1.0246398,31.7772539 1.02983363,31.7555635 1.03572097,31.7341604 C1.04009773,31.7185367 1.04472872,31.7031487 1.04973809,31.6878575 C1.05612249,31.6682023 1.06331574,31.6484208 1.07110396,31.6289415 C1.07819642,31.6112044 1.08567905,31.5939015 1.09367336,31.5767785 C1.10337664,31.5561086 1.11379392,31.5357061 1.12487577,31.515723 C1.13149883,31.5036056 1.13860692,31.4913869 1.14599545,31.4792912 C1.1617187,31.453725 1.17849009,31.4288693 1.19631351,31.4048407 C1.22531295,31.3656744 1.25749917,31.3282873 1.29289322,31.2928932 L1.21278596,31.3832499 C1.23766884,31.3515341 1.26442691,31.3213595 1.29289322,31.2928932 L5.29289322,27.2928932 Z M28,27 C27.4871642,27 27.0644928,27.3860402 27.0067277,27.8833789 L27,28 L27,34 C27,34.5522847 27.4477153,35 28,35 C28.5128358,35 28.9355072,34.6139598 28.9932723,34.1166211 L29,34 L29,28 C29,27.4477153 28.5522847,27 28,27 Z M28,1 L28.0193545,1.00018615 C28.042681,1.00063489 28.0659949,1.00189498 28.0892501,1.00396641 L28,1 C28.0506203,1 28.1003621,1.00376119 28.1489612,1.01101934 C28.165949,1.01362808 28.1833753,1.01670217 28.2007258,1.02024007 C28.2227461,1.0246398 28.2444365,1.02983363 28.2658396,1.03572097 C28.2814633,1.04009773 28.2968513,1.04472872 28.3121425,1.04973809 C28.3317977,1.05612249 28.3515792,1.06331574 28.3710585,1.07110396 C28.3887956,1.07819642 28.4060985,1.08567905 28.4232215,1.09367336 C28.4438914,1.10337664 28.4642939,1.11379392 28.484277,1.12487577 C28.4963944,1.13149883 28.5086131,1.13860692 28.5207088,1.14599545 C28.546275,1.1617187 28.5711307,1.17849009 28.5951593,1.19631351 C28.6012086,1.20071786 28.6070733,1.20517454 28.6128994,1.20970461 C28.6196628,1.21507113 28.6225624,1.2173721 28.625449,1.21968877 L28.7071068,1.29289322 L32.7071068,5.29289322 C33.0976311,5.68341751 33.0976311,6.31658249 32.7071068,6.70710678 C32.3466228,7.06759074 31.7793918,7.09532028 31.3871006,6.79029539 L31.2928932,6.70710678 L29,4.415 L29,8 C29,8.55228475 28.5522847,9 28,9 C27.4871642,9 27.0644928,8.61395981 27.0067277,8.11662113 L27,8 L27,4.415 L24.7071068,6.70710678 C24.3466228,7.06759074 23.7793918,7.09532028 23.3871006,6.79029539 L23.2928932,6.70710678 C22.9324093,6.34662282 22.9046797,5.77939176 23.2097046,5.38710056 L23.2928932,5.29289322 L27.2928932,1.29289322 L27.374551,1.21968877 C27.3774376,1.2173721 27.3803372,1.21507113 27.3832499,1.21278596 L27.2928932,1.29289322 C27.3282873,1.25749917 27.3656744,1.22531295 27.4046934,1.19633458 C27.4288693,1.17849009 27.453725,1.1617187 27.4793398,1.14606743 C27.4913869,1.13860692 27.5036056,1.13149883 27.5159379,1.12467117 C27.5357061,1.11379392 27.5561086,1.10337664 27.5769009,1.09365378 C27.5939015,1.08567905 27.6112044,1.07819642 27.628664,1.07122549 C27.6484208,1.06331574 27.6682023,1.05612249 27.6882636,1.04954668 C27.7031487,1.04472872 27.7185367,1.04009773 27.734007,1.03584514 C27.7555635,1.02983363 27.7772539,1.0246398 27.7992059,1.02016515 C27.8166247,1.01670217 27.834051,1.01362808 27.8515331,1.0110178 C27.8705042,1.00811223 27.890153,1.00576612 27.909968,1.00399798 C27.9343349,1.0018656 27.9579802,1.00059932 27.9816379,1.00016755 C27.9872016,1.00006024 27.9935938,1 28,1 Z" id="Combined-Shape" fill="#000000" fill-rule="nonzero"></path>
    </g>
</svg>