<?xml version="1.0" encoding="UTF-8" standalone="no"?>
<svg width="78px" height="32px" viewBox="0 0 78 32" version="1.1" xmlns="http://www.w3.org/2000/svg" xmlns:xlink="http://www.w3.org/1999/xlink" xmlns:sketch="http://www.bohemiancoding.com/sketch/ns">
    <!-- Generator: Sketch 3.4.3 (16044) - http://www.bohemiancoding.com/sketch -->
    <title>Preview</title>
    <desc>Created with Sketch.</desc>
    <defs></defs>
    <g id="Page-1" stroke="none" stroke-width="1" fill="none" fill-rule="evenodd">
        <g id="Preview">
            <g id="Rectangle-127-+-Rectangle-128">
                <path d="M0,0 L77.9908676,0 L77.9908676,31.196347 L0,31.196347 L0,0 Z M77.9908676,21.2696481 L77.9908676,31.196347 L68.0641686,31.196347 L77.9908676,21.2696481 Z" id="Rectangle-127" fill="#FFFFFF"></path>
                <path d="M68.0626454,31.196347 L68.0626454,21.2696481 L77.9893443,21.2696481 L68.0626454,31.196347 Z" id="Rectangle-128" fill="#F9F9F9"></path>
            </g>
            <path d="M9.8779726,11.3990868 L9.8779726,19.7990868 L11.2939726,19.7990868 L11.2939726,17.2670868 L13.2259726,17.2670868 C15.3379726,17.2670868 16.5499726,16.1630868 16.5499726,14.2670868 C16.5499726,12.4430868 15.3379726,11.3990868 13.2259726,11.3990868 L9.8779726,11.3990868 Z M11.2939726,12.6710868 L13.1659726,12.6710868 C14.4619726,12.6710868 15.1939726,13.1990868 15.1939726,14.3030868 C15.1939726,15.4430868 14.4619726,15.9950868 13.1659726,15.9950868 L11.2939726,15.9950868 L11.2939726,12.6710868 Z M23.710544,19.7990868 L25.318544,19.7990868 L23.434544,16.9910868 C24.550544,16.5590868 25.174544,15.6110868 25.174544,14.2670868 C25.174544,12.4430868 23.938544,11.3990868 21.790544,11.3990868 L18.382544,11.3990868 L18.382544,19.7990868 L19.798544,19.7990868 L19.798544,17.2670868 L21.790544,17.2670868 C21.922544,17.2670868 22.054544,17.2670868 22.174544,17.2550868 L23.710544,19.7990868 Z M19.798544,15.9950868 L19.798544,12.6710868 L21.790544,12.6710868 C23.086544,12.6710868 23.830544,13.1990868 23.830544,14.3030868 C23.830544,15.4430868 23.086544,15.9950868 21.790544,15.9950868 L19.798544,15.9950868 Z M33.4871155,12.6710868 L33.4871155,11.3990868 L27.4871155,11.3990868 L27.4871155,19.7990868 L33.6311155,19.7990868 L33.6311155,18.5270868 L28.9031155,18.5270868 L28.9031155,16.2110868 L33.0071155,16.2110868 L33.0071155,14.9390868 L28.9031155,14.9390868 L28.9031155,12.6710868 L33.4871155,12.6710868 Z M39.5316869,19.7990868 L42.9276869,11.3990868 L41.4516869,11.3990868 L38.8356869,18.2270868 L36.2436869,11.3990868 L34.7196869,11.3990868 L38.0676869,19.7990868 L39.5316869,19.7990868 Z M45.9122583,19.7990868 L45.9122583,11.3990868 L44.4962583,11.3990868 L44.4962583,19.7990868 L45.9122583,19.7990868 Z M54.5488298,12.6710868 L54.5488298,11.3990868 L48.5488298,11.3990868 L48.5488298,19.7990868 L54.6928298,19.7990868 L54.6928298,18.5270868 L49.9648298,18.5270868 L49.9648298,16.2110868 L54.0688298,16.2110868 L54.0688298,14.9390868 L49.9648298,14.9390868 L49.9648298,12.6710868 L54.5488298,12.6710868 Z M65.4894012,19.7990868 L68.2974012,11.3990868 L66.8334012,11.3990868 L64.8054012,18.2270868 L62.7654012,11.3990868 L61.3734012,11.4110868 L59.3454012,18.2270868 L57.3054012,11.3990868 L55.7814012,11.3990868 L58.5654012,19.7990868 L60.0294012,19.7990868 L62.0454012,13.2470868 L64.0374012,19.7990868 L65.4894012,19.7990868 Z" id="PREVIEW" opacity="0.5" fill="#353B43"></path>
        </g>
    </g>
</svg>