<?xml version="1.0" encoding="UTF-8"?>
<svg width="86px" height="56px" viewBox="0 0 86 56" version="1.1" xmlns="http://www.w3.org/2000/svg" xmlns:xlink="http://www.w3.org/1999/xlink">
    <title>graphic/wasd</title>
    <g id="graphic/wasd" stroke="none" stroke-width="1" fill="none" fill-rule="evenodd">
        <path d="M23,30 C24.6568542,30 26,31.3431458 26,33 L26,53 C26,54.6568542 24.6568542,56 23,56 L3,56 C1.34314575,56 0,54.6568542 0,53 L0,33 C0,31.3431458 1.34314575,30 3,30 L23,30 Z M53,30 C54.6568542,30 56,31.3431458 56,33 L56,53 C56,54.6568542 54.6568542,56 53,56 L33,56 C31.3431458,56 30,54.6568542 30,53 L30,33 C30,31.3431458 31.3431458,30 33,30 L53,30 Z M83,30 C84.6568542,30 86,31.3431458 86,33 L86,53 C86,54.6568542 84.6568542,56 83,56 L63,56 C61.3431458,56 60,54.6568542 60,53 L60,33 C60,31.3431458 61.3431458,30 63,30 L83,30 Z M23,32 L3,32 C2.48716416,32 2.06449284,32.3860402 2.00672773,32.8833789 L2,33 L2,53 C2,53.5128358 2.38604019,53.9355072 2.88337887,53.9932723 L3,54 L23,54 C23.5128358,54 23.9355072,53.6139598 23.9932723,53.1166211 L24,53 L24,33 C24,32.4871642 23.6139598,32.0644928 23.1166211,32.0067277 L23,32 Z M53,32 L33,32 C32.4871642,32 32.0644928,32.3860402 32.0067277,32.8833789 L32,33 L32,53 C32,53.5128358 32.3860402,53.9355072 32.8833789,53.9932723 L33,54 L53,54 C53.5128358,54 53.9355072,53.6139598 53.9932723,53.1166211 L54,53 L54,33 C54,32.4871642 53.6139598,32.0644928 53.1166211,32.0067277 L53,32 Z M83,32 L63,32 C62.4871642,32 62.0644928,32.3860402 62.0067277,32.8833789 L62,33 L62,53 C62,53.5128358 62.3860402,53.9355072 62.8833789,53.9932723 L63,54 L83,54 C83.5128358,54 83.9355072,53.6139598 83.9932723,53.1166211 L84,53 L84,33 C84,32.4871642 83.6139598,32.0644928 83.1166211,32.0067277 L83,32 Z M42.792,38.48 C43.456,38.48 44.03,38.596 44.514,38.828 C44.998,39.06 45.366,39.35 45.618,39.698 C45.87,40.046 46.004,40.392 46.02,40.736 C46.02,40.8 45.996,40.858 45.948,40.91 C45.9,40.962 45.84,40.988 45.768,40.988 L45.768,40.988 L44.628,40.988 L44.5446667,40.982 C44.4135556,40.962 44.3213333,40.892 44.268,40.772 C44.228,40.516 44.072,40.302 43.8,40.13 C43.528,39.958 43.192,39.872 42.792,39.872 C42.352,39.872 42.006,39.956 41.754,40.124 C41.502,40.292 41.376,40.536 41.376,40.856 C41.376,41.072 41.44,41.252 41.568,41.396 C41.696,41.54 41.896,41.666 42.168,41.774 C42.44,41.882 42.836,42.004 43.356,42.14 C44.068,42.3 44.634,42.48 45.054,42.68 C45.474,42.88 45.784,43.132 45.984,43.436 C46.184,43.74 46.284,44.128 46.284,44.6 C46.284,45.12 46.142,45.57 45.858,45.95 C45.574,46.33 45.174,46.62 44.658,46.82 C44.142,47.02 43.544,47.12 42.864,47.12 C42.144,47.12 41.528,47.012 41.016,46.796 C40.504,46.58 40.116,46.296 39.852,45.944 C39.588,45.592 39.448,45.208 39.432,44.792 C39.432,44.728 39.456,44.67 39.504,44.618 C39.552,44.566 39.612,44.54 39.684,44.54 L39.684,44.54 L40.776,44.54 L40.8586667,44.5466667 C40.9102222,44.5555556 40.9546667,44.5733333 40.992,44.6 C41.048,44.64 41.1,44.696 41.148,44.768 C41.228,45.04 41.41,45.268 41.694,45.452 C41.978,45.636 42.368,45.728 42.864,45.728 C43.424,45.728 43.846,45.634 44.13,45.446 C44.414,45.258 44.556,45 44.556,44.672 C44.556,44.456 44.484,44.276 44.34,44.132 C44.196,43.988 43.978,43.862 43.686,43.754 C43.394,43.646 42.96,43.516 42.384,43.364 C41.44,43.14 40.748,42.844 40.308,42.476 C39.868,42.108 39.648,41.58 39.648,40.892 C39.648,40.428 39.776,40.014 40.032,39.65 C40.288,39.286 40.654,39 41.13,38.792 C41.606,38.584 42.16,38.48 42.792,38.48 Z M14.16,38.6 L14.2452245,38.6061224 C14.4078367,38.6306122 14.5234286,38.7285714 14.592,38.9 L14.592,38.9 L17.472,46.64 L17.496,46.748 L17.4873333,46.816 C17.4757778,46.8586667 17.4526667,46.896 17.418,46.928 C17.366,46.976 17.308,47 17.244,47 L17.244,47 L16.176,47 L16.0963333,46.9936667 C15.9707778,46.9725556 15.8813333,46.8986667 15.828,46.772 L15.828,46.772 L15.276,45.32 L11.724,45.32 L11.172,46.772 L11.1356667,46.8416667 C11.0678889,46.9472222 10.964,47 10.824,47 L10.824,47 L9.756,47 L9.688,46.992 C9.64533333,46.9813333 9.608,46.96 9.576,46.928 C9.528,46.88 9.504,46.82 9.504,46.748 L9.504,46.748 L9.528,46.64 L12.408,38.9 L12.4462041,38.8204082 C12.530449,38.6734694 12.6617143,38.6 12.84,38.6 L12.84,38.6 L14.16,38.6 Z M73.434,38.6 L73.6661467,38.6036267 C75.8729822,38.6737422 76.9996,39.7605333 77.046,41.864 C77.062,42.328 77.07,42.64 77.07,42.8 C77.07,42.952 77.062,43.26 77.046,43.724 C77.014,44.844 76.712,45.67 76.14,46.202 C75.568,46.734 74.686,47 73.494,47 L73.494,47 L70.506,47 L70.43,46.9906667 C70.382,46.9782222 70.3393333,46.9533333 70.302,46.916 C70.246,46.86 70.218,46.792 70.218,46.712 L70.218,46.712 L70.218,38.9 L70.2266667,38.8173333 C70.2382222,38.7657778 70.2613333,38.7213333 70.296,38.684 C70.348,38.628 70.418,38.6 70.506,38.6 L70.506,38.6 L73.434,38.6 Z M73.374,39.992 L71.91,39.992 L71.91,45.608 L73.434,45.608 C74.098,45.608 74.578,45.46 74.874,45.164 C75.17,44.868 75.326,44.376 75.342,43.688 C75.358,43.208 75.366,42.908 75.366,42.788 C75.366,42.66 75.358,42.364 75.342,41.9 C75.326,41.244 75.162,40.762 74.85,40.454 C74.538,40.146 74.046,39.992 73.374,39.992 L73.374,39.992 Z M13.5,40.232 L12.144,43.928 L14.856,43.928 L13.5,40.232 Z M53,0 C54.6568542,0 56,1.34314575 56,3 L56,23 C56,24.6568542 54.6568542,26 53,26 L33,26 C31.3431458,26 30,24.6568542 30,23 L30,3 C30,1.34314575 31.3431458,0 33,0 L53,0 Z M53,2 L33,2 C32.4871642,2 32.0644928,2.38604019 32.0067277,2.88337887 L32,3 L32,23 C32,23.5128358 32.3860402,23.9355072 32.8833789,23.9932723 L33,24 L53,24 C53.5128358,24 53.9355072,23.6139598 53.9932723,23.1166211 L54,23 L54,3 C54,2.48716416 53.6139598,2.06449284 53.1166211,2.00672773 L53,2 Z M39.892,8.6 L39.96475,8.603375 C40.03225,8.610125 40.084,8.627 40.12,8.654 C40.168,8.69 40.2,8.752 40.216,8.84 L40.216,8.84 L41.212,14.24 L42.28,10.76 L42.3243333,10.6683333 C42.4054444,10.5294444 42.5226667,10.46 42.676,10.46 L42.676,10.46 L43.336,10.46 L43.41025,10.465625 C43.48075,10.476875 43.54,10.505 43.588,10.55 C43.652,10.61 43.696,10.68 43.72,10.76 L43.72,10.76 L44.8,14.24 L45.784,8.84 L45.7996735,8.77632653 C45.8417959,8.65877551 45.9485714,8.6 46.12,8.6 L46.12,8.6 L47.2,8.6 L47.2613333,8.608 C47.3004444,8.61866667 47.336,8.64 47.368,8.672 C47.416,8.72 47.44,8.78 47.44,8.852 C47.44,8.892 47.436,8.924 47.428,8.948 L47.428,8.948 L46.012,16.64 L45.994375,16.7195 C45.971125,16.7945 45.931,16.856 45.874,16.904 C45.798,16.968 45.7,17 45.58,17 L45.58,17 L44.764,17 L44.68375,16.994375 C44.60725,16.983125 44.542,16.955 44.488,16.91 C44.416,16.85 44.368,16.78 44.344,16.7 L44.344,16.7 L43,12.716 L41.656,16.7 L41.6239184,16.7795918 C41.550449,16.9265306 41.4211429,17 41.236,17 L41.236,17 L40.42,17 L40.3259592,16.9926531 C40.1486531,16.9632653 40.036,16.8457143 39.988,16.64 L39.988,16.64 L38.572,8.948 L38.56,8.852 L38.568,8.784 C38.5786667,8.74133333 38.6,8.704 38.632,8.672 C38.68,8.624 38.74,8.6 38.812,8.6 L38.812,8.6 L39.892,8.6 Z" id="Combined-Shape" fill="#000000" fill-rule="nonzero"></path>
    </g>
</svg>