<svg width="29" height="30" viewBox="0 0 29 30" fill="none" xmlns="http://www.w3.org/2000/svg">
<path d="M13.3282 10.2253C14.1269 8.89844 15.8298 6.46054 18.8561 4.52308C21.9443 2.54574 24.8803 2.06922 26.3942 1.93115C27.0577 3.54363 28.1087 6.68683 27.9018 10.7437C27.6878 14.9356 26.2367 18.026 25.3891 19.5562M13.3282 10.2253C20.5536 11.8692 26.2597 18.8954 27.3991 27.8505M13.3282 10.2253C7.69005 8.9428 2.93405 11.3474 1.26746 12.2989C1.64678 14.7214 2.6132 18.3531 5.28778 21.6299C10.1846 27.6297 18.7423 29.9101 27.3991 27.8505M20.3637 13.3357L22.3738 10.2254M27.3991 27.8505L10.9833 17.0168"
      stroke="currentColor" stroke-width="2.05084" stroke-linecap="round" stroke-linejoin="round"/>
</svg>
