<svg width="36" height="21" viewBox="0 0 36 21" fill="none" xmlns="http://www.w3.org/2000/svg">
<path d="M1.19873 3.14038C1.44395 2.78097 2.39624 1.4795 4.0939 1.12276C5.85287 0.752667 7.72117 1.54252 8.91919 3.14038C9.22521 3.49392 10.5714 4.96895 12.7799 5.15801C15.5627 5.39672 17.383 3.39352 17.6052 3.14038C17.7493 2.93958 19.1011 1.12276 21.4655 1.12276C21.7061 1.12276 23.907 1.16281 25.3257 3.14038C25.5714 3.49926 26.5232 4.80126 28.2209 5.15801C29.9798 5.5281 31.8481 4.73825 33.0467 3.14038M2.16421 17.3828C2.40994 17.0234 3.36172 15.7219 5.05938 15.3652C6.81835 14.9951 8.68665 15.7849 9.88467 17.3828C10.1907 17.7358 11.5369 19.2108 13.7454 19.4004C16.5282 19.6386 18.3485 17.6359 18.5707 17.3828C18.7148 17.1815 20.0666 15.3652 22.4309 15.3652C22.6716 15.3652 24.8724 15.4052 26.2912 17.3828C26.5369 17.7417 27.4887 19.0432 29.1863 19.4004C30.9458 19.77 32.8141 18.9801 34.0121 17.3828M1.19873 10.2616C1.44395 9.90272 2.39624 8.60071 4.0939 8.24397C5.85287 7.87441 7.72117 8.66373 8.91919 10.2616C9.22521 10.6151 10.5714 12.0902 12.7799 12.2792C15.5627 12.5179 17.383 10.5147 17.6052 10.2616C17.7493 10.0608 19.1011 8.24397 21.4655 8.24397C21.7061 8.24397 23.907 8.28402 25.3257 10.2616C25.5714 10.6205 26.5232 11.9225 28.2209 12.2792C29.9798 12.6488 31.8481 11.8595 33.0467 10.2616"
      stroke="currentColor" stroke-width="2.05084" stroke-linecap="round" stroke-linejoin="round"/>
</svg>
