<svg width="30" height="30" viewBox="0 0 30 30" fill="none" xmlns="http://www.w3.org/2000/svg">
<path fill-rule="evenodd" clip-rule="evenodd" d="M12.6018 8.06297C11.3544 7.84967 10.1532 7.60893 8.94127 7.45047C8.25186 7.36109 7.56551 7.52767 6.91111 7.77958C5.27359 8.40986 3.63607 9.04013 1.99703 9.66736C1.52474 9.84816 1.09659 9.75675 0.797802 9.42561C0.596917 9.20316 0.526404 8.93602 0.53452 8.64348C0.606555 6.05026 1.80121 4.17365 4.13372 3.0421C4.95958 2.64138 5.81435 2.3006 6.64427 1.90801C8.27824 1.13451 9.96649 0.980623 11.7278 1.36001C13.3547 1.71044 14.9907 2.01669 16.6231 2.3392C17.4058 2.49359 18.18 2.43874 18.949 2.23965C20.5946 1.81354 22.2398 1.38439 23.89 0.975544C24.2035 0.897839 24.5383 0.879555 24.8624 0.882094C25.5072 0.887173 26.1652 0.852638 26.7937 0.964878C28.1329 1.2046 29.1348 2.359 29.1957 3.71402C29.2434 4.78767 29.2474 5.86691 29.1942 6.94006C29.1176 8.48959 27.793 9.72323 26.2438 9.76437C26.2073 9.76538 26.1702 9.76995 26.1347 9.76538C25.0785 9.62622 24.1527 9.94669 23.2396 10.4668C22.0627 11.1372 20.8331 11.7136 19.6303 12.3383C18.5518 12.898 17.4079 13.1839 16.1934 13.1849C14.527 13.1854 12.8601 13.1875 11.1936 13.1844C10.4357 13.1829 10.0177 12.7553 10.0568 12.0041C10.141 10.3677 10.9034 9.1351 12.3015 8.29152C12.3791 8.24479 12.4598 8.20315 12.5384 8.15795C12.5455 8.15389 12.5491 8.14322 12.6018 8.06297ZM12.3106 11.1338C13.6219 11.1338 14.8774 11.1287 16.133 11.1359C17.0339 11.1404 17.879 10.9337 18.6785 10.5213C20.1573 9.75849 21.6365 8.99617 23.1203 8.2435C23.2984 8.15309 23.3669 8.05457 23.3653 7.85091C23.3557 6.41107 23.3603 4.97124 23.3603 3.5309V3.23684C23.2461 3.26274 23.1675 3.27798 23.0899 3.29778C22.0337 3.56848 20.9725 3.82191 19.9224 4.11445C18.676 4.46184 17.4225 4.5944 16.1451 4.34249C14.5578 4.02913 12.968 3.72694 11.3873 3.3826C10.1409 3.11089 8.93253 3.13476 7.75512 3.66041C6.84252 4.06823 5.93041 4.4786 5.02034 4.89201C4.28072 5.22772 3.68415 5.7356 3.23622 6.4126C3.09469 6.62641 2.98105 6.85902 2.81974 7.14496C2.97446 7.0896 3.05004 7.06471 3.12462 7.03576C4.10824 6.65739 5.09187 6.2775 6.0755 5.89913C7.32494 5.41817 8.61447 5.23788 9.93341 5.48775C12.2466 5.92605 14.5528 6.3999 16.8619 6.85953C17.4367 6.9738 17.77 7.32068 17.8019 7.83364C17.8324 8.33288 17.5209 8.73055 16.9644 8.89815C15.9463 9.20491 14.9276 9.50913 13.91 9.8169C13.2166 10.0267 12.6991 10.4533 12.3106 11.1338ZM25.4275 7.70041C25.7248 7.70041 25.9982 7.72073 26.2676 7.69635C26.7733 7.65064 27.1599 7.23875 27.1665 6.72631C27.1787 5.78724 27.1776 4.84817 27.1665 3.90962C27.1614 3.46116 26.8601 3.06806 26.4208 2.97918C26.0997 2.91418 25.7613 2.93348 25.4275 2.91519V7.70041Z"
      fill="currentColor"/>
<path fill-rule="evenodd" clip-rule="evenodd" d="M17.1949 22.4057C18.3276 22.6094 19.4558 22.84 20.5942 23.0065C21.3612 23.1193 22.1171 22.969 22.842 22.6911C24.4881 22.0599 26.1332 21.4245 27.7799 20.7952C28.2796 20.6043 28.7843 20.7348 29.0283 21.1568C29.1445 21.358 29.2176 21.62 29.2115 21.8521C29.143 24.4321 27.9448 26.2996 25.625 27.4271C24.791 27.8324 23.9296 28.1788 23.0905 28.5734C21.4647 29.3388 19.7851 29.4896 18.0334 29.1128C16.3807 28.7567 14.7198 28.4383 13.0595 28.1183C12.3062 27.9731 11.5559 28.0376 10.8142 28.2285C9.13358 28.6623 7.45193 29.094 5.76875 29.5191C5.56838 29.5693 5.35582 29.5962 5.14936 29.5922C4.41379 29.5775 3.66504 29.6247 2.94621 29.5023C1.62473 29.2773 0.621321 28.1122 0.559939 26.7719C0.510225 25.6902 0.50566 24.6018 0.560954 23.52C0.641612 21.9603 1.98643 20.7282 3.54684 20.7069C3.55597 20.7069 3.5651 20.7059 3.57373 20.7069C4.6583 20.8536 5.60947 20.5225 6.54592 19.9887C7.72231 19.3188 8.95147 18.7424 10.1542 18.1187C11.2251 17.5636 12.3614 17.2873 13.5662 17.2873C15.223 17.2883 16.8798 17.2863 18.5371 17.2883C19.3285 17.2894 19.7399 17.7099 19.6948 18.4991C19.6019 20.1238 18.8375 21.3448 17.4495 22.1812C17.3648 22.2325 17.2776 22.2787 17.1913 22.3275C17.1923 22.3534 17.1939 22.3798 17.1949 22.4057ZM6.4074 27.2279C6.50176 27.2101 6.56415 27.2015 6.62452 27.1857C7.68982 26.913 8.7602 26.6575 9.8189 26.3609C11.0739 26.009 12.3361 25.8774 13.6225 26.1324C15.2103 26.4462 16.8002 26.7489 18.3814 27.0923C19.6085 27.3584 20.8011 27.3391 21.9618 26.8261C22.8932 26.4148 23.8225 25.9988 24.7473 25.5727C25.6736 25.1456 26.3595 24.4645 26.811 23.5483C26.8394 23.4909 26.8536 23.4264 26.8845 23.336C25.7517 23.7718 24.6591 24.1969 23.5628 24.6123C22.355 25.0699 21.1055 25.2273 19.8348 24.9871C17.5124 24.5478 15.1972 24.0714 12.8789 23.6108C12.3122 23.498 11.9764 23.1425 11.9495 22.6265C11.9236 22.1389 12.2346 21.7402 12.7723 21.5782C13.7991 21.2689 14.8273 20.9652 15.8531 20.6519C16.543 20.4406 17.0579 20.0114 17.4419 19.339H17.1289C15.9271 19.339 14.7254 19.3395 13.5236 19.339C12.6993 19.3385 11.9175 19.5229 11.184 19.8967C9.65302 20.6773 8.1266 21.4665 6.5951 22.2471C6.44697 22.3223 6.38762 22.4096 6.38813 22.5813C6.39523 24.0486 6.39218 25.5158 6.39269 26.9831C6.39269 27.0547 6.40132 27.1263 6.4074 27.2279ZM4.3213 22.7676C4.03621 22.7676 3.7638 22.7478 3.49544 22.7722C2.97547 22.8194 2.59146 23.2354 2.58588 23.759C2.57675 24.6874 2.57827 25.6158 2.58588 26.5437C2.58943 26.9713 2.85728 27.3761 3.26057 27.4716C3.60299 27.5529 3.96823 27.5381 4.3213 27.5661V22.7676Z"
      fill="currentColor"/>
</svg>
