<svg width="30" height="30" viewBox="0 0 30 30" fill="none" xmlns="http://www.w3.org/2000/svg">
<path d="M1.89423 1.93115V0.905733C1.3279 0.905733 0.868807 1.36483 0.868807 1.93115L1.89423 1.93115ZM1.89423 28.592H0.868807C0.868807 29.1584 1.3279 29.6175 1.89423 29.6175L1.89423 28.592ZM28.5551 28.592V29.6175C29.1214 29.6175 29.5805 29.1584 29.5805 28.592H28.5551ZM28.5551 6.63583H29.5805C29.5805 6.26195 29.377 5.9177 29.0495 5.73745C28.7219 5.55719 28.3222 5.56951 28.0064 5.76959L28.5551 6.63583ZM18.6524 12.9093H17.6269C17.6269 13.2831 17.8304 13.6274 18.158 13.8076C18.4856 13.9879 18.8853 13.9756 19.2011 13.7755L18.6524 12.9093ZM18.6524 5.85172H19.6778C19.6778 5.47417 19.4703 5.12717 19.1378 4.94845C18.8052 4.76974 18.4013 4.78823 18.0865 4.99658L18.6524 5.85172ZM7.98791 12.9093H6.96249C6.96249 13.2868 7.16996 13.6338 7.50253 13.8125C7.83511 13.9912 8.23899 13.9727 8.55383 13.7644L7.98791 12.9093ZM7.98791 1.93115H9.01333C9.01333 1.36483 8.55423 0.905733 7.98791 0.905733V1.93115ZM16.1032 21.1425C16.1032 21.6871 15.682 22.0774 15.2244 22.0774V24.1282C16.8702 24.1282 18.154 22.7633 18.154 21.1425H16.1032ZM15.2244 22.0774C14.7668 22.0774 14.3455 21.6871 14.3455 21.1425H12.2947C12.2947 22.7633 13.5785 24.1282 15.2244 24.1282V22.0774ZM14.3455 21.1425C14.3455 20.598 14.7668 20.2077 15.2244 20.2077V18.1568C13.5785 18.1568 12.2947 19.5217 12.2947 21.1425H14.3455ZM15.2244 20.2077C15.682 20.2077 16.1032 20.598 16.1032 21.1425H18.154C18.154 19.5217 16.8702 18.1568 15.2244 18.1568V20.2077ZM22.959 21.1425C22.959 21.6871 22.5377 22.0774 22.0801 22.0774V24.1282C23.726 24.1282 25.0098 22.7633 25.0098 21.1425H22.959ZM22.0801 22.0774C21.6225 22.0774 21.2013 21.6871 21.2013 21.1425H19.1505C19.1505 22.7633 20.4343 24.1282 22.0801 24.1282V22.0774ZM21.2013 21.1425C21.2013 20.598 21.6225 20.2077 22.0801 20.2077V18.1568C20.4343 18.1568 19.1505 19.5217 19.1505 21.1425H21.2013ZM22.0801 20.2077C22.5377 20.2077 22.959 20.598 22.959 21.1425H25.0098C25.0098 19.5217 23.726 18.1568 22.0801 18.1568V20.2077ZM0.868807 1.93115V28.592H2.91964V1.93115H0.868807ZM1.89423 29.6175H28.5551V27.5666H1.89423V29.6175ZM29.5805 28.592V6.63583H27.5297V28.592H29.5805ZM28.0064 5.76959C26.356 6.81508 24.7055 7.86071 23.055 8.90632C21.4045 9.95194 19.754 10.9975 18.1036 12.043L19.2011 13.7755C20.8515 12.73 22.502 11.6844 24.1525 10.6388C25.803 9.59315 27.4535 8.54754 29.1039 7.50206L28.0064 5.76959ZM19.6778 12.9093V5.85172H17.6269V12.9093H19.6778ZM18.0865 4.99658C14.5318 7.34892 10.9772 9.70127 7.42198 12.0542L8.55383 13.7644C12.109 11.4115 15.6636 9.05918 19.2183 6.70685L18.0865 4.99658ZM9.01333 12.9093V1.93115H6.96249V12.9093H9.01333ZM7.98791 0.905733H1.89423V2.95657H7.98791V0.905733ZM9.54956 21.4715C9.54956 22.0161 9.12831 22.4064 8.67071 22.4064V24.4572C10.3166 24.4572 11.6004 23.0923 11.6004 21.4715H9.54956ZM8.67071 22.4064C8.21311 22.4064 7.79185 22.0161 7.79185 21.4715H5.74101C5.74101 23.0923 7.02483 24.4572 8.67071 24.4572V22.4064ZM7.79185 21.4715C7.79185 20.927 8.21311 20.5367 8.67071 20.5367V18.4858C7.02483 18.4858 5.74101 19.8508 5.74101 21.4715H7.79185ZM8.67071 20.5367C9.12831 20.5367 9.54956 20.927 9.54956 21.4715H11.6004C11.6004 19.8508 10.3166 18.4858 8.67071 18.4858V20.5367Z"
      fill="currentColor"/>
</svg>
