<svg width="119" height="34" viewBox="0 0 119 34" fill="none" xmlns="http://www.w3.org/2000/svg">
<g filter="url(#filter0_d)">
<path fill-rule="evenodd" clip-rule="evenodd" d="M14.7287 6.64041C14.0613 6.08299 13.0827 5.80463 11.7931 5.80531H8.2957V12.2723H11.7931C13.082 12.2723 14.0624 11.9896 14.7342 11.4242C15.4059 10.8588 15.7417 10.0638 15.7417 9.03937C15.7417 7.99664 15.4059 7.19714 14.7342 6.64041H14.7287ZM15.8212 20.858L12.2428 15.6896H8.29413V20.858H4V2.30566H12.0308C13.6739 2.30566 15.1006 2.57947 16.3108 3.12753C17.521 3.67536 18.4533 4.45432 19.1075 5.4642C19.7632 6.4711 20.0911 7.66374 20.0911 9.04233C20.0911 10.4209 19.76 11.609 19.0977 12.6063C18.4339 13.6052 17.493 14.3703 16.2748 14.9015L20.4354 20.8646L15.8212 20.858Z" fill="white"/>
<path fill-rule="evenodd" clip-rule="evenodd" d="M27.4029 10.3092C26.7668 10.839 26.378 11.5632 26.2368 12.482H33.26C33.1186 11.5814 32.7298 10.8616 32.0938 10.3224C31.4577 9.78325 30.6803 9.51356 29.7615 9.51356C28.8244 9.51356 28.0382 9.77869 27.4029 10.3092ZM37.0764 14.8968H26.2893C26.4615 15.7468 26.9557 16.4972 27.6685 16.991C28.3921 17.5009 29.2929 17.756 30.3714 17.756C31.0441 17.7688 31.7137 17.6577 32.3462 17.4281C32.9445 17.1899 33.4887 16.834 33.9464 16.3811L36.1464 18.7659C34.8029 20.3033 32.8413 21.072 30.2621 21.072C28.6547 21.072 27.2339 20.7583 25.9997 20.1308C24.8155 19.5528 23.8221 18.647 23.1373 17.521C22.4654 16.4075 22.1295 15.1444 22.1295 13.7307C22.1122 12.4046 22.4567 11.0985 23.1264 9.95358C23.7778 8.84399 24.7233 7.93611 25.8587 7.33055C28.2627 6.09 31.1155 6.0754 33.532 7.29131C34.6491 7.8793 35.5737 8.77623 36.1956 9.87486C36.8405 10.9968 37.1629 12.3001 37.1629 13.7843C37.1562 13.8368 37.13 14.2094 37.0764 14.8968Z" fill="white"/>
<path fill-rule="evenodd" clip-rule="evenodd" d="M66.6251 10.3092C65.989 10.839 65.6002 11.5632 65.459 12.482H72.4822C72.3437 11.5814 71.9579 10.8616 71.3247 10.3224C70.6916 9.78325 69.9142 9.51356 68.9924 9.51356C68.0519 9.51356 67.2626 9.77869 66.6251 10.3092ZM76.3021 14.8968H65.5148C65.687 15.7463 66.1808 16.4968 66.8931 16.991C67.6171 17.5009 68.5186 17.756 69.5969 17.756C70.2698 17.7688 70.9392 17.6577 71.572 17.4281C72.1711 17.1902 72.7164 16.8342 73.1751 16.3811L75.3753 18.7659C74.0323 20.3033 72.071 21.072 69.4908 21.072C67.882 21.072 66.4612 20.7583 65.2284 20.1308C64.0435 19.5528 63.049 18.647 62.3629 17.521C61.6918 16.4075 61.3562 15.1444 61.3562 13.7307C61.3377 12.4048 61.6813 11.0988 62.3498 9.95358C63.001 8.84399 63.9468 7.93611 65.0822 7.33055C67.4861 6.09 70.3389 6.0754 72.7555 7.29131C73.8723 7.87953 74.7969 8.77646 75.4189 9.87486C76.0637 10.9968 76.3861 12.3001 76.3861 13.7843C76.3817 13.8368 76.3523 14.2094 76.3021 14.8968Z" fill="white"/>
<path fill-rule="evenodd" clip-rule="evenodd" d="M79.1378 20.8587H83.2725V6.59936H79.1378V20.8587ZM79.3501 3.94868C78.8846 3.53204 78.6232 2.93379 78.6341 2.30929C78.6239 1.68479 78.8851 1.08677 79.3501 0.669902C79.8288 0.223149 80.4474 0 81.2058 0C81.9642 0 82.5837 0.211968 83.0638 0.635905C83.5286 1.032 83.7912 1.61566 83.7798 2.22624C83.7969 2.87264 83.5349 3.49508 83.0606 3.93453C82.5839 4.38471 81.9647 4.61014 81.2026 4.61105C80.4403 4.61174 79.8229 4.39087 79.3501 3.94868Z" fill="white"/>
<path fill-rule="evenodd" clip-rule="evenodd" d="M97.4389 16.6044C98.1186 15.8882 98.459 14.9297 98.4597 13.7291C98.4604 12.5282 98.1202 11.5697 97.4389 10.8535C96.7576 10.1379 95.8873 9.77992 94.828 9.77901C93.7683 9.77832 92.8983 10.1365 92.2179 10.8535C91.5373 11.5683 91.1971 12.5268 91.1971 13.7291C91.1971 14.9313 91.5373 15.8896 92.2179 16.6044C92.8979 17.32 93.7677 17.6777 94.828 17.6777C95.888 17.6777 96.7583 17.32 97.4389 16.6044ZM99.1616 7.30086C100.239 7.90072 101.125 8.79148 101.72 9.8714C102.338 10.9767 102.647 12.2624 102.647 13.7284C102.647 15.1941 102.338 16.4794 101.72 17.5842C101.125 18.6646 100.239 19.5555 99.1616 20.1556C98.0557 20.7699 96.809 21.0847 95.544 21.0694C93.7225 21.0694 92.2915 20.4954 91.251 19.347V25.9997H87.1155V6.5981H91.0653V8.23749C92.0889 6.99877 93.5827 6.37929 95.5463 6.37929C96.811 6.36628 98.0573 6.68412 99.1616 7.30086Z" fill="white"/>
<path fill-rule="evenodd" clip-rule="evenodd" d="M114.605 20.1694C114.155 20.4897 113.646 20.7192 113.108 20.8447C112.496 20.9969 111.868 21.0725 111.239 21.0699C109.542 21.0699 108.231 20.6371 107.304 19.7714C106.377 18.906 105.912 17.6342 105.907 15.9562V10.0969H103.707V6.91644H105.907V3.44531H110.042V6.91644H113.593V10.0969H110.042V15.9015C110.042 16.5027 110.196 16.9668 110.505 17.294C110.814 17.621 111.251 17.7843 111.817 17.7834C112.417 17.8007 113.006 17.6141 113.487 17.2534L114.605 20.1694Z" fill="white"/>
<mask id="mask0" mask-type="alpha" maskUnits="userSpaceOnUse" x="38" y="4" width="22" height="10">
<path fill-rule="evenodd" clip-rule="evenodd" d="M38.98 13.825H42.4938C42.5476 12.1909 43.2292 10.6403 44.396 9.49509C46.9036 7.03452 50.931 7.07262 53.3913 9.58019L51.2349 10.5342L56.8647 12.7091L59.0417 7.08061L56.7399 8.09824C54.9191 5.67897 52.0889 4.22896 49.0616 4.16416C48.9897 4.16279 48.9188 4.16211 48.8471 4.16211C43.4925 4.16211 39.0947 8.44528 38.98 13.825Z" fill="white"/>
</mask>
<g mask="url(#mask0)">
<path fill-rule="evenodd" clip-rule="evenodd" d="M38.98 13.825H42.4938C42.5476 12.1909 43.2292 10.6403 44.396 9.49509C46.9036 7.03452 50.931 7.07262 53.3913 9.58019L51.2349 10.5342L56.8647 12.7091L59.0417 7.08061L56.7399 8.09824C54.9191 5.67897 52.0889 4.22896 49.0616 4.16416C48.9897 4.16279 48.9188 4.16211 48.8471 4.16211C43.4925 4.16211 39.0947 8.44528 38.98 13.825Z" fill="url(#paint0_linear)"/>
</g>
<mask id="mask1" mask-type="alpha" maskUnits="userSpaceOnUse" x="38" y="13" width="22" height="11">
<path fill-rule="evenodd" clip-rule="evenodd" d="M38.9845 13.8252C38.9065 17.0741 40.432 20.1534 43.0637 22.06C47.4806 25.2598 53.6553 24.273 56.8549 19.8559L59.1754 20.832L56.8944 15.2439L51.3063 17.5204L53.481 18.4353C52.2229 19.7646 50.4532 20.4877 48.6242 20.4199C45.1115 20.2903 42.3694 17.3376 42.4995 13.8252H38.9845Z" fill="white"/>
</mask>
<g mask="url(#mask1)">
<path fill-rule="evenodd" clip-rule="evenodd" d="M38.9845 13.8252C38.9065 17.0741 40.432 20.1534 43.0637 22.06C47.4806 25.2598 53.6553 24.273 56.8549 19.8559L59.1754 20.832L56.8944 15.2439L51.3063 17.5204L53.481 18.4353C52.2229 19.7646 50.4532 20.4877 48.6242 20.4199C45.1115 20.2903 42.3694 17.3376 42.4995 13.8252H38.9845Z" fill="url(#paint1_linear)"/>
</g>
</g>
<defs>
<filter id="filter0_d" x="0" y="0" width="118.605" height="33.9997" filterUnits="userSpaceOnUse" color-interpolation-filters="sRGB">
<feFlood flood-opacity="0" result="BackgroundImageFix"/>
<feColorMatrix in="SourceAlpha" type="matrix" values="0 0 0 0 0 0 0 0 0 0 0 0 0 0 0 0 0 0 127 0"/>
<feOffset dy="4"/>
<feGaussianBlur stdDeviation="2"/>
<feColorMatrix type="matrix" values="0 0 0 0 0 0 0 0 0 0 0 0 0 0 0 0 0 0 0.25 0"/>
<feBlend mode="normal" in2="BackgroundImageFix" result="effect1_dropShadow"/>
<feBlend mode="normal" in="SourceGraphic" in2="effect1_dropShadow" result="shape"/>
</filter>
<linearGradient id="paint0_linear" x1="38.98" y1="13.825" x2="59.0417" y2="13.825" gradientUnits="userSpaceOnUse">
<stop stop-color="#F7A866"/>
<stop offset="1" stop-color="#D93C33"/>
</linearGradient>
<linearGradient id="paint1_linear" x1="38.9818" y1="23.9388" x2="59.1753" y2="23.9388" gradientUnits="userSpaceOnUse">
<stop stop-color="#7EAACA"/>
<stop offset="1" stop-color="#1671AA"/>
</linearGradient>
</defs>
</svg>
