<svg width="371" height="390" viewBox="0 0 371 390" fill="none" xmlns="http://www.w3.org/2000/svg">
  <path opacity="0.2" d="M107.793 3.01568C120.072 0.985492 132.3 0 144.438 0C212.957 0 277.541 31.8256 319.681 87.6977L371 65.0289L322.479 190.353L197.005 141.95L245.022 120.669C212.886 87.9086 166.993 72.4984 120.626 80.1788C-43.3041 107.371 -35.5995 355.617 135.572 361.926C175.681 363.41 214.489 347.573 242.079 318.457L194.39 298.415L316.934 248.555L366.955 370.952L316.068 349.572C245.902 446.32 110.494 467.936 13.6339 397.849C-140.083 286.618 -84.4056 34.9553 107.793 3.01568Z" fill="url(#paint0_linear)"/>
  <defs>
    <linearGradient id="paint0_linear" x1="1.50002" y1="411.5" x2="297" y2="-26.5" gradientUnits="userSpaceOnUse">
      <stop stop-color="#C4C4C4"/>
      <stop offset="1" stop-color="#C4C4C4" stop-opacity="0"/>
    </linearGradient>
  </defs>
</svg>
