<svg width="168" height="46" viewBox="0 0 168 46" fill="none" xmlns="http://www.w3.org/2000/svg">
  <g filter="url(#filter0_dd)">
    <path fill-rule="evenodd" clip-rule="evenodd" d="M19.4875 12.5863C18.5241 11.7817 17.1114 11.3798 15.2497 11.3808H10.201V20.7164H15.2497C17.1104 20.7164 18.5257 20.3083 19.4954 19.4921C20.4651 18.6759 20.95 17.5283 20.95 16.0494C20.95 14.5442 20.4651 13.39 19.4954 12.5863H19.4875ZM21.0648 33.1099L15.8991 25.6488H10.1989V33.1099H4V6.32812H15.5932C17.965 6.32812 20.0246 6.72338 21.7717 7.51455C23.5187 8.30539 24.8645 9.42989 25.8088 10.8877C26.7555 12.3413 27.2288 14.0629 27.2288 16.053C27.2288 18.0432 26.7509 19.7582 25.7947 21.1979C24.8365 22.64 23.4782 23.7444 21.7196 24.5112L27.7258 33.1195L21.0648 33.1099Z" fill="white"/>
    <path fill-rule="evenodd" clip-rule="evenodd" d="M37.7841 17.8821C36.8658 18.647 36.3045 19.6924 36.1006 21.0188H46.2392C46.035 19.7188 45.4738 18.6796 44.5558 17.9013C43.6375 17.1229 42.5153 16.7336 41.1889 16.7336C39.8361 16.7336 38.7011 17.1163 37.7841 17.8821M51.7484 24.5044H36.1763C36.425 25.7314 37.1385 26.8147 38.1674 27.5275C39.2119 28.2636 40.5123 28.6319 42.0693 28.6319C43.0403 28.6503 44.007 28.4899 44.92 28.1586C45.7837 27.8147 46.5692 27.3009 47.23 26.6471L50.4058 30.0897C48.4665 32.3091 45.6348 33.4188 41.9115 33.4188C39.591 33.4188 37.54 32.9659 35.7584 32.0601C34.0489 31.2258 32.6148 29.9181 31.6263 28.2926C30.6563 26.6853 30.1714 24.8618 30.1714 22.821C30.1464 20.9066 30.6438 19.0213 31.6105 17.3684C32.5509 15.7667 33.9158 14.4561 35.5548 13.5819C39.0251 11.7911 43.1434 11.77 46.6318 13.5253C48.2445 14.3741 49.5791 15.6689 50.477 17.2548C51.4078 18.8744 51.8732 20.7558 51.8732 22.8984C51.8637 22.9741 51.8258 23.512 51.7484 24.5044" fill="white"/>
    <path fill-rule="evenodd" clip-rule="evenodd" d="M94.4046 17.8821C93.4863 18.647 92.925 19.6924 92.7211 21.0188H102.86C102.66 19.7188 102.103 18.6796 101.189 17.9013C100.275 17.1229 99.1526 16.7336 97.8219 16.7336C96.4642 16.7336 95.3249 17.1163 94.4046 17.8821M108.374 24.5044H92.8015C93.0501 25.7307 93.7629 26.8141 94.7912 27.5275C95.8364 28.2636 97.1377 28.6319 98.6944 28.6319C99.6657 28.6503 100.632 28.4899 101.545 28.1586C102.41 27.815 103.198 27.3012 103.86 26.6471L107.036 30.0897C105.097 32.3091 102.266 33.4188 98.5412 33.4188C96.2188 33.4188 94.1677 32.9659 92.3881 32.0601C90.6776 31.2258 89.2419 29.9181 88.2514 28.2926C87.2827 26.6853 86.7982 24.8618 86.7982 22.821C86.7715 20.907 87.2676 19.0216 88.2326 17.3684C89.1727 15.7667 90.538 14.4561 92.177 13.5819C95.6473 11.7911 99.7655 11.77 103.254 13.5253C104.866 14.3744 106.201 15.6692 107.099 17.2548C108.03 18.8744 108.495 20.7558 108.495 22.8984C108.489 22.9741 108.446 23.512 108.374 24.5044" fill="white"/>
    <path fill-rule="evenodd" clip-rule="evenodd" d="M112.467 33.1115H118.436V12.5269H112.467V33.1115ZM112.774 8.70023C112.102 8.09879 111.724 7.23516 111.74 6.33365C111.725 5.43214 112.103 4.56883 112.774 3.96706C113.465 3.32213 114.358 3 115.453 3C116.548 3 117.442 3.30599 118.135 3.91798C118.806 4.48978 119.185 5.33233 119.168 6.21375C119.193 7.14688 118.815 8.04543 118.13 8.67981C117.442 9.32968 116.548 9.6551 115.448 9.65642C114.348 9.65741 113.456 9.33857 112.774 8.70023V8.70023Z" fill="white"/>
    <path fill-rule="evenodd" clip-rule="evenodd" d="M138.886 26.9701C139.867 25.9362 140.359 24.5525 140.36 22.8193C140.361 21.0857 139.87 19.702 138.886 18.6681C137.903 17.6352 136.646 17.1184 135.117 17.1171C133.587 17.1161 132.332 17.6332 131.349 18.6681C130.367 19.7 129.876 21.0838 129.876 22.8193C129.876 24.5548 130.367 25.9382 131.349 26.9701C132.331 28.003 133.586 28.5195 135.117 28.5195C136.647 28.5195 137.904 28.003 138.886 26.9701M141.373 13.5389C142.928 14.4049 144.208 15.6908 145.067 17.2497C145.959 18.8452 146.405 20.7013 146.405 22.8175C146.405 24.9335 145.959 26.7889 145.067 28.3837C144.208 29.9433 142.929 31.2295 141.373 32.0958C139.777 32.9825 137.977 33.437 136.151 33.415C133.522 33.415 131.456 32.5863 129.954 30.9285V40.5322H123.984V12.5244H129.686V14.891C131.163 13.1028 133.32 12.2086 136.154 12.2086C137.98 12.1898 139.779 12.6486 141.373 13.5389" fill="white"/>
    <path fill-rule="evenodd" clip-rule="evenodd" d="M163.667 32.1161C163.017 32.5786 162.283 32.9099 161.506 33.0911C160.623 33.3108 159.717 33.4198 158.808 33.4162C156.359 33.4162 154.466 32.7914 153.128 31.5417C151.79 30.2924 151.118 28.4564 151.111 26.0342V17.5757H147.935V12.9845H151.111V7.97363H157.08V12.9845H162.206V17.5757H157.08V25.9551C157.08 26.823 157.303 27.493 157.749 27.9653C158.195 28.4373 158.826 28.6731 159.642 28.6718C160.509 28.6969 161.359 28.4274 162.053 27.9067L163.667 32.1161Z" fill="white"/>
  </g>
  <g filter="url(#filter1_d)">
    <path fill-rule="evenodd" clip-rule="evenodd" d="M56 21.9492H61.0724C61.1502 19.5902 62.134 17.3517 63.8185 15.6986V15.6986C67.4383 12.1466 73.2522 12.2016 76.8039 15.8214V15.8214L73.691 17.1986L81.8181 20.3382L84.9607 12.2131L81.6379 13.6821C79.0094 10.1897 74.9238 8.09651 70.5536 8.00296V8.00296C70.4499 8.00099 70.3474 8 70.244 8V8C62.5141 8 56.1657 14.1831 56 21.9492" fill="url(#paint0_linear)"/>
    <path fill-rule="evenodd" clip-rule="evenodd" d="M56.0067 21.9492C55.894 26.6392 58.0963 31.0845 61.8953 33.8368V33.8368C68.2714 38.4561 77.1851 37.0315 81.804 30.655V30.655L85.1538 32.0641L81.861 23.9973L73.7941 27.2835L76.9335 28.6043C75.1173 30.5233 72.5626 31.5671 69.9223 31.4693V31.4693C64.8515 31.2822 60.893 27.0197 61.0808 21.9492V21.9492H56.0067Z" fill="url(#paint1_linear)"/>
  </g>
  <defs>
    <filter id="filter0_dd" x="0" y="0" width="167.667" height="45.5322" filterUnits="userSpaceOnUse" color-interpolation-filters="sRGB">
      <feFlood flood-opacity="0" result="BackgroundImageFix"/>
      <feColorMatrix in="SourceAlpha" type="matrix" values="0 0 0 0 0 0 0 0 0 0 0 0 0 0 0 0 0 0 127 0"/>
      <feOffset dx="1" dy="1"/>
      <feColorMatrix type="matrix" values="0 0 0 0 0 0 0 0 0 0 0 0 0 0 0 0 0 0 0.14 0"/>
      <feBlend mode="normal" in2="BackgroundImageFix" result="effect1_dropShadow"/>
      <feColorMatrix in="SourceAlpha" type="matrix" values="0 0 0 0 0 0 0 0 0 0 0 0 0 0 0 0 0 0 127 0"/>
      <feOffset dy="1"/>
      <feGaussianBlur stdDeviation="2"/>
      <feColorMatrix type="matrix" values="0 0 0 0 0 0 0 0 0 0 0 0 0 0 0 0 0 0 0.32 0"/>
      <feBlend mode="normal" in2="effect1_dropShadow" result="effect2_dropShadow"/>
      <feBlend mode="normal" in="SourceGraphic" in2="effect2_dropShadow" result="shape"/>
    </filter>
    <filter id="filter1_d" x="52" y="5" width="37.1538" height="36.549" filterUnits="userSpaceOnUse" color-interpolation-filters="sRGB">
      <feFlood flood-opacity="0" result="BackgroundImageFix"/>
      <feColorMatrix in="SourceAlpha" type="matrix" values="0 0 0 0 0 0 0 0 0 0 0 0 0 0 0 0 0 0 127 0"/>
      <feOffset dy="1"/>
      <feGaussianBlur stdDeviation="2"/>
      <feColorMatrix type="matrix" values="0 0 0 0 0 0 0 0 0 0 0 0 0 0 0 0 0 0 0.25 0"/>
      <feBlend mode="normal" in2="BackgroundImageFix" result="effect1_dropShadow"/>
      <feBlend mode="normal" in="SourceGraphic" in2="effect1_dropShadow" result="shape"/>
    </filter>
    <linearGradient id="paint0_linear" x1="56" y1="21.9492" x2="84.9608" y2="21.9492" gradientUnits="userSpaceOnUse">
      <stop stop-color="#F7A866"/>
      <stop offset="1" stop-color="#D93C33"/>
    </linearGradient>
    <linearGradient id="paint1_linear" x1="56.0027" y1="36.549" x2="85.1537" y2="36.549" gradientUnits="userSpaceOnUse">
      <stop stop-color="#7EAACA"/>
      <stop offset="1" stop-color="#1671AA"/>
    </linearGradient>
  </defs>
</svg>
